<svg width="574" height="384" viewBox="0 0 574 384" fill="none" xmlns="http://www.w3.org/2000/svg">
<mask id="mask0_884_836" style="mask-type:luminance" maskUnits="userSpaceOnUse" x="0" y="0" width="574" height="384">
<path d="M574 0H0V383.534H574V0Z" fill="white"/>
</mask>
<g mask="url(#mask0_884_836)">
<path d="M283.666 197.103C283.666 143.603 283.423 80.5932 283.423 23.5582C371.659 23.5582 455.623 22.8682 532.149 22.8682C531.491 79.7682 530.818 137.16 530.818 196.614C479.627 196.614 416.793 196.855 357.118 196.997C352.138 197.01 319.004 245.009 319.004 245.009C319.004 245.009 330.904 197.054 325.304 197.065C311.004 197.088 297.049 197.103 283.674 197.103" fill="white"/>
<path d="M318.996 246.056C319.166 246.056 319.333 246.015 319.483 245.936C319.633 245.857 319.761 245.743 319.857 245.603C335.757 222.566 354.051 198.476 357.133 198.042C374.953 198.002 393.076 197.949 411.086 197.898C454.202 197.775 494.928 197.661 530.814 197.661C531.092 197.661 531.358 197.551 531.555 197.354C531.751 197.158 531.862 196.891 531.862 196.613C531.862 137.69 532.529 80.0923 533.174 24.3893L533.193 22.8803C533.195 22.7417 533.169 22.6041 533.117 22.4756C533.065 22.347 532.988 22.2301 532.89 22.1315C532.793 22.0329 532.677 21.9546 532.549 21.9012C532.421 21.8478 532.284 21.8203 532.145 21.8203C495.245 21.8203 457.045 21.9793 416.602 22.1483C373.586 22.3263 329.102 22.5103 283.419 22.5103C283.141 22.5106 282.875 22.6211 282.678 22.8176C282.482 23.014 282.371 23.2804 282.371 23.5583C282.371 52.5333 282.435 83.3133 282.496 113.079C282.557 142.755 282.597 170.763 282.615 197.103C282.615 197.241 282.642 197.377 282.695 197.505C282.747 197.632 282.824 197.747 282.922 197.845C283.019 197.942 283.135 198.019 283.262 198.072C283.389 198.124 283.525 198.151 283.663 198.151C297.019 198.151 310.949 198.134 325.23 198.111C325.545 198.467 327.006 201.326 322.95 222.217C320.75 233.566 318.008 244.647 317.98 244.757C317.921 244.995 317.947 245.246 318.054 245.467C318.161 245.687 318.342 245.863 318.566 245.963C318.701 246.025 318.848 246.057 318.996 246.056ZM529.766 195.566C494.132 195.566 453.779 195.682 411.08 195.805C393.072 195.856 374.949 195.905 357.108 195.949C356.018 195.949 353.469 195.96 335.345 220.383C329.85 227.783 324.55 235.25 321.318 239.852C324.286 227.252 330.011 200.821 326.872 196.814C326.689 196.568 326.451 196.368 326.177 196.229C325.903 196.09 325.6 196.017 325.293 196.014C311.361 196.037 297.766 196.052 284.711 196.052C284.711 170.034 284.672 142.374 284.595 113.071C284.534 83.6653 284.47 53.2713 284.47 24.6023C329.791 24.6023 373.923 24.4163 416.614 24.2383C456.665 24.0733 494.514 23.9143 531.088 23.9123V24.3633C530.445 79.7413 529.782 136.993 529.774 195.563" fill="black"/>
<path d="M328.459 12.3572C364.315 12.2239 400.169 11.9692 436.02 11.5932C466.36 11.3242 501.513 11.9572 531.851 11.5762C532.254 18.2198 532.254 24.8817 531.851 31.5252C453.861 31.5252 362.158 30.4142 283.661 31.5252C283.219 26.3482 283.536 19.0112 283.536 12.5942C296.736 12.5862 315.271 12.4062 328.459 12.3572Z" fill="#233862"/>
<path d="M283.657 32.5734H283.672C336.505 31.8264 395.179 32.0844 451.919 32.3344C479.914 32.4574 506.357 32.5734 531.849 32.5734C532.113 32.5735 532.367 32.4742 532.56 32.2953C532.754 32.1164 532.873 31.8711 532.893 31.6084C533.302 24.921 533.303 18.215 532.897 11.5274C532.885 11.2556 532.768 10.9992 532.57 10.8125C532.372 10.6258 532.109 10.5235 531.837 10.5274C515.763 10.7274 498.083 10.6434 480.983 10.5634C465.883 10.4894 450.277 10.4154 436.013 10.5424C402.813 10.8364 365.173 11.1694 328.456 11.3064C323.08 11.3274 316.812 11.3694 310.382 11.4124C301.024 11.4734 291.349 11.5394 283.535 11.5434C283.398 11.5436 283.262 11.5708 283.135 11.6235C283.008 11.6763 282.892 11.7535 282.795 11.8508C282.698 11.9481 282.621 12.0636 282.569 12.1907C282.516 12.3178 282.489 12.4539 282.489 12.5914C282.489 14.4794 282.461 16.4454 282.434 18.4144C282.368 23.0814 282.301 27.9144 282.616 31.6144C282.638 31.8758 282.758 32.1193 282.951 32.2969C283.144 32.4745 283.397 32.5731 283.659 32.5734M530.848 12.6374C531.177 18.5803 531.185 24.5366 530.873 30.4804C505.687 30.4804 479.564 30.3614 451.927 30.2394C395.527 29.9914 337.227 29.7394 284.627 30.4654C284.405 27.0024 284.464 22.6594 284.527 18.4474C284.55 16.8304 284.574 15.2134 284.58 13.6404C292.208 13.6324 301.447 13.5704 310.397 13.5094C316.825 13.4674 323.088 13.4244 328.465 13.4094C365.187 13.2714 402.825 12.9374 436.03 12.6454C450.281 12.5184 465.883 12.5924 480.975 12.6644C497.724 12.7444 515.032 12.8274 530.851 12.6414" fill="black"/>
<path d="M302.721 19.4904C303.154 19.4242 303.597 19.485 303.996 19.6653C304.395 19.8456 304.733 20.1378 304.969 20.5064C305.156 20.802 305.264 21.1409 305.281 21.4902C305.299 21.8395 305.226 22.1875 305.069 22.5004C304.889 22.8218 304.628 23.091 304.313 23.282C303.997 23.473 303.638 23.5792 303.269 23.5904C302.739 23.5971 302.226 23.4029 301.833 23.0467C301.44 22.6906 301.196 22.1988 301.15 21.6704C301.154 21.1886 301.307 20.7198 301.589 20.3292C301.871 19.9385 302.267 19.6453 302.723 19.4904" fill="black"/>
<path d="M322.29 19.4904C322.723 19.4242 323.165 19.485 323.564 19.6653C323.963 19.8456 324.301 20.1378 324.538 20.5064C324.725 20.802 324.832 21.1409 324.85 21.4902C324.867 21.8396 324.794 22.1875 324.638 22.5004C324.457 22.822 324.197 23.0915 323.881 23.2825C323.566 23.4735 323.206 23.5796 322.838 23.5904C322.307 23.5971 321.794 23.4029 321.401 23.0467C321.008 22.6906 320.764 22.1988 320.719 21.6704C320.722 21.1888 320.874 20.7201 321.156 20.3294C321.438 19.9387 321.834 19.6454 322.29 19.4904Z" fill="black"/>
<path d="M343.124 19.4904C343.557 19.4242 343.999 19.485 344.398 19.6653C344.797 19.8456 345.135 20.1378 345.372 20.5064C345.559 20.802 345.666 21.1409 345.684 21.4902C345.701 21.8396 345.628 22.1875 345.472 22.5004C345.291 22.8218 345.031 23.0911 344.715 23.2821C344.4 23.4731 344.04 23.5793 343.672 23.5904C343.141 23.5971 342.628 23.4029 342.235 23.0467C341.842 22.6906 341.598 22.1988 341.553 21.6704C341.556 21.1886 341.709 20.7198 341.991 20.3292C342.273 19.9385 342.67 19.6453 343.126 19.4904" fill="black"/>
<path d="M410.72 89.3112H497.261C497.398 89.3113 497.534 89.2843 497.661 89.2318C497.788 89.1793 497.904 89.1022 498.001 89.0051C498.098 88.9079 498.175 88.7926 498.228 88.6656C498.28 88.5386 498.307 88.4026 498.307 88.2652V55.0412C498.307 54.9037 498.28 54.7675 498.228 54.6404C498.175 54.5133 498.098 54.3978 498.001 54.3005C497.904 54.2032 497.788 54.126 497.661 54.0732C497.534 54.0205 497.398 53.9933 497.261 53.9932H410.72C410.582 53.993 410.446 54.0201 410.319 54.0727C410.191 54.1253 410.076 54.2025 409.979 54.2998C409.881 54.3972 409.804 54.5127 409.751 54.64C409.699 54.7672 409.672 54.9035 409.672 55.0412V88.2662C409.672 88.4037 409.699 88.5399 409.752 88.6669C409.804 88.794 409.882 88.9094 409.979 89.0065C410.076 89.1037 410.192 89.1807 410.319 89.2331C410.446 89.2856 410.582 89.3114 410.72 89.3112ZM496.21 87.2182H411.767V56.0842H496.21V87.2182Z" fill="black"/>
<path d="M452.439 137.196H497.261C497.398 137.196 497.534 137.169 497.661 137.116C497.788 137.063 497.904 136.986 498.001 136.889C498.098 136.792 498.175 136.676 498.227 136.549C498.28 136.422 498.307 136.286 498.307 136.148V110.66C498.307 110.523 498.28 110.387 498.227 110.26C498.175 110.132 498.098 110.017 498.001 109.92C497.904 109.822 497.788 109.745 497.661 109.692C497.534 109.64 497.398 109.612 497.261 109.612H452.439C452.161 109.613 451.894 109.723 451.698 109.92C451.501 110.116 451.391 110.382 451.391 110.66V136.148C451.391 136.426 451.501 136.693 451.698 136.889C451.894 137.086 452.161 137.196 452.439 137.196ZM496.213 135.096H453.486V111.696H496.213V135.096Z" fill="black"/>
<path d="M381.037 137.196H425.857C426.135 137.196 426.402 137.086 426.598 136.889C426.794 136.693 426.905 136.426 426.905 136.148V110.66C426.905 110.382 426.794 110.116 426.598 109.92C426.402 109.723 426.135 109.613 425.857 109.612H381.037C380.9 109.612 380.763 109.639 380.636 109.692C380.509 109.744 380.393 109.822 380.296 109.919C380.199 110.016 380.121 110.132 380.069 110.259C380.016 110.386 379.989 110.523 379.989 110.66V136.148C379.989 136.286 380.016 136.422 380.069 136.55C380.121 136.677 380.199 136.792 380.296 136.89C380.393 136.987 380.509 137.064 380.636 137.117C380.763 137.169 380.9 137.196 381.037 137.196ZM424.809 135.096H382.082V111.696H424.808L424.809 135.096Z" fill="black"/>
<path d="M309.636 137.196H354.462C354.74 137.196 355.006 137.086 355.203 136.889C355.399 136.693 355.51 136.426 355.51 136.148V110.66C355.51 110.382 355.399 110.116 355.203 109.92C355.006 109.723 354.74 109.613 354.462 109.612H309.636C309.498 109.612 309.362 109.64 309.235 109.692C309.108 109.745 308.993 109.822 308.896 109.92C308.799 110.017 308.722 110.132 308.669 110.26C308.617 110.387 308.59 110.523 308.59 110.66V136.148C308.59 136.286 308.617 136.422 308.669 136.549C308.722 136.676 308.799 136.792 308.896 136.889C308.993 136.986 309.108 137.063 309.235 137.116C309.362 137.169 309.498 137.196 309.636 137.196ZM353.41 135.096H310.683V111.696H353.409L353.41 135.096Z" fill="black"/>
<path d="M332.045 61.865L383.837 61.524C383.883 61.524 383.928 61.5149 383.97 61.4973C384.012 61.4798 384.051 61.454 384.083 61.4215C384.115 61.3891 384.14 61.3506 384.157 61.3082C384.174 61.2659 384.183 61.2206 384.182 61.175C384.184 61.1286 384.176 61.0825 384.159 61.0394C384.142 60.9963 384.116 60.9573 384.083 60.9247C384.05 60.8921 384.01 60.8667 383.967 60.85C383.924 60.8334 383.878 60.8259 383.831 60.828L332.041 61.167C331.949 61.167 331.86 61.2039 331.794 61.2695C331.728 61.3351 331.691 61.4242 331.691 61.517C331.691 61.6098 331.728 61.6988 331.794 61.7645C331.86 61.8301 331.949 61.867 332.041 61.867" fill="black"/>
<path d="M342.171 72.171L383.844 71.827C383.937 71.827 384.026 71.7901 384.092 71.7244C384.157 71.6588 384.194 71.5698 384.194 71.477C384.194 71.3841 384.157 71.2951 384.092 71.2295C384.026 71.1638 383.937 71.127 383.844 71.127L342.18 71.466C342.087 71.466 341.998 71.5028 341.933 71.5685C341.867 71.6341 341.83 71.7231 341.83 71.816C341.83 71.9088 341.867 71.9978 341.933 72.0634C341.998 72.1291 342.087 72.166 342.18 72.166" fill="black"/>
<path d="M332.045 82.4774L383.837 82.1384C383.883 82.138 383.928 82.1286 383.97 82.1108C384.012 82.0929 384.051 82.0669 384.083 82.0343C384.115 82.0017 384.14 81.9632 384.157 81.9208C384.174 81.8784 384.183 81.8331 384.182 81.7874C384.184 81.741 384.176 81.6947 384.159 81.6515C384.142 81.6083 384.117 81.5691 384.084 81.5364C384.05 81.5038 384.011 81.4784 383.968 81.4618C383.924 81.4453 383.878 81.438 383.831 81.4404L332.041 81.7794C331.949 81.7794 331.86 81.8163 331.794 81.8819C331.728 81.9475 331.691 82.0366 331.691 82.1294C331.691 82.2222 331.728 82.3112 331.794 82.3769C331.86 82.4425 331.949 82.4794 332.041 82.4794" fill="black"/>
<path d="M456.701 153.333L493.001 152.994C493.093 152.994 493.182 152.957 493.248 152.891C493.314 152.826 493.351 152.737 493.351 152.644C493.351 152.551 493.314 152.462 493.248 152.396C493.182 152.331 493.093 152.294 493.001 152.294L456.701 152.633C456.608 152.633 456.519 152.67 456.453 152.735C456.387 152.801 456.351 152.89 456.351 152.983C456.351 153.076 456.387 153.165 456.453 153.23C456.519 153.296 456.608 153.333 456.701 153.333Z" fill="black"/>
<path d="M460.247 163.639L489.447 163.3C489.54 163.3 489.629 163.263 489.695 163.198C489.761 163.132 489.797 163.043 489.797 162.95C489.797 162.857 489.761 162.768 489.695 162.703C489.629 162.637 489.54 162.6 489.447 162.6L460.247 162.939C460.155 162.939 460.066 162.976 460 163.042C459.934 163.107 459.897 163.196 459.897 163.289C459.897 163.382 459.934 163.471 460 163.537C460.066 163.602 460.155 163.639 460.247 163.639Z" fill="black"/>
<path d="M385.297 153.333L421.597 152.994C421.69 152.994 421.779 152.957 421.845 152.891C421.91 152.826 421.947 152.737 421.947 152.644C421.947 152.551 421.91 152.462 421.845 152.396C421.779 152.331 421.69 152.294 421.597 152.294L385.297 152.633C385.204 152.633 385.115 152.67 385.05 152.735C384.984 152.801 384.947 152.89 384.947 152.983C384.947 153.076 384.984 153.165 385.05 153.23C385.115 153.296 385.204 153.333 385.297 153.333Z" fill="black"/>
<path d="M388.847 163.639L418.047 163.3C418.14 163.3 418.229 163.263 418.295 163.198C418.36 163.132 418.397 163.043 418.397 162.95C418.397 162.857 418.36 162.768 418.295 162.703C418.229 162.637 418.14 162.6 418.047 162.6L388.847 162.939C388.754 162.939 388.665 162.976 388.6 163.042C388.534 163.107 388.497 163.196 388.497 163.289C388.497 163.382 388.534 163.471 388.6 163.537C388.665 163.602 388.754 163.639 388.847 163.639Z" fill="black"/>
<path d="M313.898 153.333L350.198 152.994C350.291 152.994 350.38 152.957 350.445 152.891C350.511 152.826 350.548 152.737 350.548 152.644C350.548 152.551 350.511 152.462 350.445 152.396C350.38 152.331 350.291 152.294 350.198 152.294L313.898 152.633C313.805 152.633 313.716 152.67 313.65 152.735C313.585 152.801 313.548 152.89 313.548 152.983C313.548 153.076 313.585 153.165 313.65 153.23C313.716 153.296 313.805 153.333 313.898 153.333Z" fill="black"/>
<path d="M317.447 163.639L346.647 163.3C346.74 163.3 346.829 163.263 346.894 163.198C346.96 163.132 346.997 163.043 346.997 162.95C346.997 162.857 346.96 162.768 346.894 162.703C346.829 162.637 346.74 162.6 346.647 162.6L317.447 162.939C317.354 162.939 317.265 162.976 317.199 163.042C317.134 163.107 317.097 163.196 317.097 163.289C317.097 163.382 317.134 163.471 317.199 163.537C317.265 163.602 317.354 163.639 317.447 163.639Z" fill="black"/>
<path d="M190.329 28.3522C203.403 25.7022 236.271 18.1922 243.346 33.9192C262.91 77.4242 87.494 140.282 64.416 118.946C42.949 99.1002 114.777 57.0662 121.51 53.7072C143.542 42.7172 166.71 33.1382 190.328 28.3522" fill="white"/>
<path d="M82.0365 124.278C94.3105 124.278 111.363 121.291 131.554 115.416C165.213 105.616 199.318 90.0424 220.563 74.7604C241.471 59.7204 249.679 45.4464 244.303 33.4924C237.187 17.6704 206.595 23.9484 191.895 26.9664L190.121 27.3284C169.365 31.5344 147.414 39.6174 121.045 52.7744C120.471 53.0604 62.8705 84.8054 59.5285 108.22C59.1827 110.333 59.385 112.5 60.1162 114.512C60.8474 116.524 62.0829 118.315 63.7045 119.713C67.0105 122.767 73.3185 124.274 82.0365 124.274M220.664 25.3204C230.424 25.3204 239.264 27.4054 242.391 34.3564C248.605 48.1714 233.285 63.0284 219.339 73.0634C198.276 88.2184 164.414 103.678 130.967 113.408C97.6575 123.108 72.4285 124.931 65.1265 118.185C63.7516 117.019 62.7037 115.515 62.0859 113.822C61.468 112.128 61.3014 110.303 61.6025 108.525C64.5255 88.0254 114.908 58.1794 121.98 54.6524C148.18 41.5824 169.966 33.5524 190.538 29.3864L192.316 29.0204C199.024 27.6464 210.356 25.3204 220.664 25.3204Z" fill="black"/>
<path d="M103.005 112.093C103.405 129.386 92.8178 147.043 76.4838 152.737C67.5898 155.837 57.8409 155.4 48.7279 157.779C39.6149 160.158 30.3279 167.018 30.2669 176.437C30.2269 182.694 33.7758 196.884 15.0438 205.198C-0.410156 212.056 3.28185 249.158 51.1439 264.76C65.8059 269.539 56.3549 257.515 71.5969 255.17C86.6479 252.854 100.297 244.341 110.685 233.204C121.073 222.067 128.416 208.41 134.139 194.304C140.732 178.055 145.339 160.104 141.268 143.05C137.197 125.996 122.153 110.581 103.005 112.093Z" fill="black"/>
<path d="M56.5848 266.906C59.8448 266.906 61.0618 265.143 62.2848 262.706C63.5738 260.141 65.0338 257.234 71.7548 256.206C85.9958 254.015 100.093 246.099 111.448 233.918C120.677 224.018 128.417 211.187 135.108 194.693C143.513 173.977 145.793 157.487 142.283 142.804C138.319 126.216 123.163 109.448 102.924 111.052C102.657 111.073 102.408 111.195 102.229 111.394C102.049 111.592 101.953 111.852 101.959 112.119C102.359 129.727 91.5048 146.396 76.1398 151.751C71.2928 153.442 66.0398 154.075 60.9568 154.687C56.7506 155.098 52.577 155.794 48.4648 156.768C39.2408 159.177 29.2858 166.358 29.2208 176.434C29.2208 177.249 29.2698 178.195 29.3268 179.194C29.7328 186.394 30.3468 197.264 14.6208 204.244C8.82075 206.818 5.47477 213.42 5.88777 221.471C6.60277 235.377 18.7968 255.32 50.8178 265.757C52.6708 266.434 54.6169 266.822 56.5878 266.908M105.595 113.037C123.426 113.037 136.646 128.237 140.242 143.288C143.642 157.527 141.398 173.611 133.164 193.905C126.571 210.154 118.964 222.776 109.913 232.487C98.8768 244.325 85.2128 252.013 71.4328 254.134C63.6458 255.334 61.7768 259.051 60.4118 261.769C59.0468 264.487 58.2928 265.99 51.4628 263.763C20.4538 253.654 8.66276 234.604 7.97876 221.363C7.61076 214.198 10.4788 208.371 15.4698 206.157C32.5198 198.59 31.8288 186.375 31.4168 179.077C31.3598 178.067 31.3108 177.197 31.3168 176.446C31.3738 167.476 40.5168 161.007 48.9948 158.793C53.0159 157.845 57.096 157.168 61.2078 156.765C66.3998 156.141 71.7698 155.493 76.8308 153.73C92.7308 148.184 104.062 131.194 104.066 113.078C104.58 113.053 105.093 113.04 105.598 113.04" fill="black"/>
<path d="M196.561 72.5952C191.519 97.1692 186.649 123.614 196.713 146.595C199.983 154.065 204.739 160.863 207.425 168.559C210.619 177.709 210.725 187.659 209.846 197.309C208.193 215.554 202.715 234.272 189.884 247.351C177.053 260.43 155.584 266.128 139.76 256.903C125.873 248.809 119.531 231.414 120.405 215.364C121.279 199.314 128.127 184.247 135.355 169.888C152.718 135.388 172.955 102.344 196.555 72.5972" fill="black"/>
<path d="M157.244 262.425C169.832 262.243 181.836 257.085 190.632 248.078C202.085 236.403 208.901 219.351 210.89 197.397C211.974 185.425 211.19 176.15 208.414 168.209C206.716 163.733 204.662 159.4 202.271 155.253C200.671 152.307 199.026 149.263 197.671 146.168C188.138 124.405 191.992 100.068 197.584 72.801C197.627 72.5723 197.592 72.336 197.486 72.1291C197.379 71.9222 197.207 71.7566 196.997 71.6582C196.786 71.5599 196.548 71.5346 196.321 71.5861C196.095 71.6377 195.891 71.7632 195.744 71.943C173.496 99.988 152.865 132.781 134.425 169.416C127.296 183.576 120.263 198.784 119.363 215.305C118.372 233.505 126.174 250.191 139.238 257.805C144.726 260.914 150.941 262.51 157.248 262.43M194.658 76.707C189.498 102.587 186.488 125.853 195.752 147.007C197.143 150.18 198.813 153.266 200.43 156.248C202.764 160.298 204.773 164.528 206.437 168.897C209.108 176.547 209.86 185.542 208.803 197.207C206.86 218.668 200.243 235.287 189.137 246.607C175.667 260.338 154.668 264.37 140.287 255.99C127.896 248.766 120.501 232.838 121.449 215.412C122.325 199.294 129.262 184.312 136.289 170.351C153.912 135.344 173.535 103.861 194.657 76.705" fill="black"/>
<path d="M161.024 192.447C160.573 179.347 162.188 172.011 162.715 162.215C157.411 159.563 151.735 157.732 145.882 156.784C143.257 156.361 140.3 156.198 138.282 157.784C137.016 158.777 131.026 153.491 130.406 154.946C126.139 164.946 125.777 179.203 121.512 189.202C121.184 189.972 106.24 188.586 105.912 189.361C104.523 192.619 105.688 219.728 106.723 220.416C161.398 256.769 187.733 204.778 187.733 204.778C187.733 204.778 177.817 198.697 161.025 192.451" fill="white"/>
<path d="M143.526 234.371C147.448 234.377 151.355 233.875 155.148 232.877C177.423 227.008 188.22 206.133 188.669 205.246C188.788 205.012 188.814 204.741 188.742 204.488C188.67 204.235 188.506 204.019 188.282 203.881C179.9 199.087 171.124 195.016 162.05 191.712C161.89 185.014 162.201 178.312 162.981 171.657C163.281 168.67 163.581 165.58 163.762 162.272C163.773 162.069 163.725 161.866 163.623 161.689C163.52 161.513 163.368 161.37 163.186 161.279C157.788 158.576 152.008 156.713 146.048 155.753C143.448 155.332 140.164 155.082 137.77 156.853C136.688 156.467 135.655 155.952 134.695 155.321C132.574 154.079 131.323 153.393 130.322 153.721C130.126 153.785 129.945 153.89 129.793 154.03C129.641 154.169 129.521 154.34 129.441 154.53C127.265 159.635 126.078 165.856 124.93 171.874C123.836 177.608 122.705 183.53 120.73 188.35C119.589 188.462 116.266 188.329 113.768 188.229C106.102 187.92 105.356 187.979 104.946 188.944C103.974 191.221 104.211 201.544 104.36 205.881C104.853 220.427 105.723 221.004 106.14 221.281C119.24 229.989 131.764 234.366 143.522 234.368M186.322 205.158C184.03 209.158 173.449 225.895 154.592 230.852C140.258 234.622 124.426 230.863 107.522 219.685C106.631 216.804 105.774 194.41 106.743 190.194C107.928 190.094 111.211 190.222 113.683 190.321C121.322 190.621 122.063 190.567 122.473 189.608C124.651 184.503 125.836 178.282 126.986 172.266C128.078 166.543 129.206 160.629 131.173 155.813C132.021 156.196 132.844 156.635 133.635 157.125C135.929 158.469 137.741 159.532 138.929 158.6C140.692 157.216 143.482 157.453 145.715 157.813C151.236 158.706 156.596 160.402 161.626 162.847C161.448 165.836 161.175 168.568 160.889 171.447C160.069 178.426 159.762 185.456 159.97 192.48C159.977 192.688 160.046 192.888 160.167 193.057C160.289 193.225 160.457 193.354 160.652 193.426C169.508 196.651 178.093 200.575 186.326 205.161" fill="black"/>
<path d="M202.215 78.6231C200.606 90.7531 198.155 103.479 201.292 115.558C203.004 122.145 202.843 155.63 175.975 165.166C168.604 167.778 160.739 168.698 152.963 167.858C145.188 167.017 137.701 164.438 131.058 160.31C121.175 154.316 109.178 135.696 111.564 117.21C103.387 119.479 95.3045 113.963 95.2095 106.61C95.1545 102.37 99.8275 97.0581 104.768 97.3011C108.591 97.4871 109.046 97.5251 111.956 99.7481C114.095 90.7501 115.113 81.5219 114.985 72.2741C124.279 62.0361 139.178 56.8061 154.085 54.5741C159.032 53.7032 164.074 53.5118 169.071 54.0051C183.371 55.7911 203.871 66.1651 202.218 78.6241" fill="white"/>
<path d="M158.563 169.25C164.618 169.24 170.626 168.191 176.326 166.15C203.237 156.598 204.405 123.364 202.308 115.291C199.603 104.884 201.148 93.8663 202.64 83.2093C202.85 81.7193 203.057 80.2313 203.254 78.7583C203.72 75.2473 202.623 71.7413 199.996 68.3403C193.596 60.0513 179.352 54.2313 169.196 52.9613C164.103 52.465 158.966 52.6588 153.924 53.5373C141.595 55.3853 124.698 60.0143 114.205 71.5693C114.027 71.7668 113.93 72.0249 113.934 72.2913C114.061 80.9206 113.169 89.5347 111.278 97.9553C109.223 96.5283 108.228 96.4183 104.816 96.2553C103.479 96.246 102.155 96.5077 100.922 97.0247C99.6889 97.5417 98.5736 98.3032 97.6432 99.2633C95.5568 101.162 94.3041 103.808 94.1572 106.625C94.2091 108.449 94.6813 110.236 95.5372 111.847C96.393 113.458 97.6093 114.849 99.0912 115.913C100.694 117.092 102.519 117.933 104.456 118.386C106.392 118.84 108.401 118.896 110.36 118.552C108.66 137.388 120.778 155.301 130.51 161.204C138.942 166.416 148.648 169.2 158.56 169.251M201.177 78.4823C200.982 79.9553 200.777 81.4333 200.565 82.9183C199.043 93.7763 197.47 105.007 200.279 115.818C201.454 120.339 202.933 154.485 175.624 164.177C168.403 166.759 160.69 167.672 153.065 166.847C145.441 166.021 138.102 163.48 131.6 159.412C122.34 153.794 110.247 135.585 112.6 117.344C112.622 117.173 112.601 116.999 112.54 116.837C112.478 116.676 112.378 116.532 112.247 116.419C112.116 116.306 111.96 116.227 111.791 116.189C111.623 116.151 111.448 116.155 111.281 116.201C109.43 116.725 107.483 116.821 105.589 116.48C103.695 116.139 101.904 115.372 100.351 114.235C99.1259 113.363 98.1184 112.221 97.4073 110.896C96.6961 109.571 96.3005 108.099 96.2512 106.596C96.3989 104.357 97.4206 102.265 99.0962 100.771C99.8214 100.011 100.692 99.4043 101.657 98.9878C102.622 98.5713 103.66 98.3535 104.711 98.3473C108.419 98.5273 108.642 98.5403 111.311 100.578C111.451 100.684 111.614 100.754 111.787 100.78C111.961 100.807 112.138 100.789 112.302 100.73C112.467 100.67 112.614 100.57 112.73 100.439C112.846 100.307 112.927 100.149 112.966 99.9783C115.095 91.0345 116.123 81.8643 116.029 72.6713C126.129 61.7913 142.347 57.3853 154.229 55.6053C159.082 54.7583 164.026 54.5683 168.929 55.0403C178.663 56.2533 192.275 61.7773 198.329 69.6193C200.602 72.5613 201.559 75.5463 201.17 78.4793" fill="black"/>
<path d="M143.515 127.743C152.265 127.743 160.01 120.525 161.271 110.753C161.959 105.801 160.783 100.771 157.971 96.637C156.674 94.6734 154.97 93.0122 152.973 91.7666C150.977 90.521 148.736 89.7203 146.402 89.419C144.068 89.1177 141.697 89.3229 139.45 90.0205C137.203 90.7182 135.132 91.892 133.38 93.462C129.61 96.7456 127.194 101.312 126.6 106.276C125.241 116.804 131.913 126.376 141.471 127.61C142.148 127.698 142.831 127.743 143.515 127.743ZM144.334 91.379C144.935 91.3786 145.537 91.4173 146.134 91.495C148.172 91.7746 150.128 92.4839 151.872 93.576C153.615 94.6681 155.107 96.1181 156.249 97.83C158.766 101.536 159.816 106.046 159.195 110.483C157.984 119.868 150.151 126.618 141.739 125.532C133.327 124.446 127.464 115.927 128.675 106.544C129.203 102.094 131.365 97.9996 134.741 95.053C137.393 92.7141 140.799 91.4097 144.336 91.379" fill="black"/>
<path d="M192.112 129.97C196.145 129.94 200.033 128.456 203.061 125.792C206.794 122.48 209.202 117.928 209.841 112.979C210.48 108.029 209.306 103.016 206.537 98.8641C205.241 96.9004 203.536 95.2392 201.54 93.9936C199.543 92.7481 197.302 91.9473 194.968 91.646C192.635 91.3447 190.264 91.5499 188.016 92.2476C185.769 92.9453 183.699 94.1191 181.946 95.6891C178.176 98.9726 175.76 103.539 175.166 108.503C173.807 119.031 180.479 128.603 190.037 129.837C190.725 129.926 191.419 129.97 192.112 129.97ZM192.903 93.6061C193.505 93.6057 194.106 93.6444 194.703 93.7221C196.742 94.0012 198.698 94.7104 200.441 95.8025C202.185 96.8947 203.677 98.3449 204.818 100.057C207.292 103.783 208.339 108.276 207.766 112.711C207.193 117.146 205.039 121.226 201.7 124.201C200.161 125.566 198.35 126.589 196.386 127.203C194.422 127.816 192.35 128.006 190.308 127.759C181.891 126.676 176.029 118.155 177.243 108.769C177.77 104.318 179.932 100.222 183.309 97.2761C185.961 94.9372 189.368 93.6328 192.904 93.6021" fill="black"/>
<path d="M113.041 101.006C120.902 88.8294 125.715 80.0624 128.308 65.2454C157.297 82.3774 184.833 79.4334 212.601 78.3534C213.092 73.5465 212.279 68.6961 210.246 64.3124C205.446 53.3544 199.446 43.8674 182.687 36.3964C170.942 31.1594 155.13 27.6844 142.414 29.5234C129.776 31.3524 118.907 38.1824 110.059 46.3844C103.019 52.9104 97.0594 63.6074 94.9594 74.1784C93.1594 83.2314 95.3744 89.9054 99.4294 99.1234C101.709 97.8954 103.853 96.6534 106.494 97.1594C109.135 97.6654 110.835 99.0074 113.036 101.007" fill="black"/>
<path d="M113.041 102.054C113.086 102.055 113.131 102.052 113.176 102.046C113.327 102.027 113.471 101.975 113.6 101.893C113.728 101.812 113.837 101.704 113.919 101.576C120.991 90.6224 126.259 81.6374 129.068 66.9014C155.401 81.9444 180.892 80.8074 205.559 79.7014C207.919 79.5954 210.279 79.4894 212.641 79.4014C212.889 79.3917 213.126 79.2943 213.309 79.1263C213.493 78.9584 213.61 78.7309 213.641 78.4844C214.153 73.4899 213.311 68.4498 211.205 63.8924C206.811 53.8724 201.024 43.4224 183.113 35.4384C172.583 30.7454 156.323 26.4514 142.264 28.4874C130.913 30.1274 119.836 35.8874 109.346 45.6174C101.955 52.4694 96.0462 63.3334 93.9352 73.9744C92.0032 83.7044 94.7202 91.0094 98.4732 99.5454C98.5312 99.6778 98.6161 99.7968 98.7225 99.8947C98.8289 99.9927 98.9544 100.067 99.0912 100.114C99.2283 100.16 99.3733 100.178 99.5174 100.166C99.6615 100.154 99.8016 100.112 99.9292 100.044L100.213 99.8924C102.313 98.7534 104.135 97.7714 106.3 98.1924C108.753 98.6624 110.349 99.9784 112.337 101.784C112.528 101.96 112.778 102.057 113.037 102.057M128.302 64.2034C128.056 64.2041 127.818 64.2915 127.629 64.4501C127.441 64.6088 127.314 64.8287 127.271 65.0714C124.689 79.8284 119.651 88.7714 112.819 99.4134C111.125 97.7661 109 96.6297 106.689 96.1344C104.096 95.6344 101.965 96.5894 99.9332 97.6644C95.9562 88.4644 94.3792 82.4644 95.9852 74.3834C97.9852 64.3104 103.785 53.6234 110.765 47.1554C120.938 37.7254 131.635 32.1424 142.557 30.5634C156.173 28.5954 171.991 32.7814 182.257 37.3554C199.484 45.0344 205.057 55.0924 209.284 64.7364C211.099 68.6813 211.911 73.0131 211.65 77.3474C209.586 77.4304 207.525 77.5234 205.463 77.6144C180.696 78.7214 155.091 79.8624 128.836 64.3494C128.675 64.2539 128.49 64.2035 128.302 64.2034Z" fill="black"/>
<path d="M155.034 147.454C157.052 147.49 159.018 146.81 160.584 145.534C160.794 145.356 160.926 145.101 160.949 144.826C160.973 144.551 160.888 144.278 160.711 144.066C160.534 143.854 160.281 143.72 160.006 143.694C159.731 143.667 159.457 143.751 159.244 143.925C157.269 145.57 154.314 145.815 151.344 144.573C147.931 143.102 145.19 140.411 143.658 137.025C143.599 136.901 143.517 136.789 143.416 136.696C143.314 136.603 143.195 136.531 143.066 136.483C142.936 136.436 142.799 136.415 142.661 136.421C142.524 136.427 142.389 136.461 142.264 136.519C142.139 136.577 142.027 136.659 141.934 136.761C141.841 136.862 141.769 136.981 141.722 137.111C141.675 137.24 141.654 137.377 141.66 137.515C141.666 137.653 141.699 137.788 141.758 137.912C143.51 141.772 146.639 144.838 150.534 146.512C151.957 147.121 153.486 147.443 155.034 147.458" fill="black"/>
<path d="M90.1462 71.5162C80.8582 45.4352 84.4462 17.5162 115.084 6.38717C146.245 -4.93383 165.13 1.26517 187.001 29.0232C154.092 37.1172 115.442 53.2052 90.1462 71.5162Z" fill="white"/>
<path d="M90.1488 72.5662C90.3694 72.5661 90.5844 72.4961 90.7628 72.3662C114.397 55.2592 152.272 38.6452 187.249 30.0412C187.419 29.9991 187.575 29.9152 187.704 29.797C187.833 29.6788 187.931 29.5302 187.987 29.3647C188.044 29.1992 188.059 29.0221 188.029 28.8496C188 28.6771 187.928 28.5147 187.82 28.3772C176.463 13.9552 165.981 5.5922 154.844 2.0552C143.596 -1.5158 130.849 -0.452804 114.727 5.4062C100.084 10.7252 90.6348 20.0232 86.6428 33.0412C83.2198 44.2062 84.0898 57.6342 89.1598 71.8712C89.2325 72.0749 89.3662 72.2513 89.5425 72.3765C89.7189 72.5017 89.9295 72.5697 90.1458 72.5712M185.169 28.4002C150.949 37.0272 114.213 53.1412 90.6758 69.8482C80.5488 40.0082 89.7488 16.7082 115.443 7.3742C145.484 -3.5408 163.89 1.9432 185.169 28.4002Z" fill="black"/>
<path d="M144.752 109.341C144.796 108.757 145.014 108.2 145.378 107.742C145.742 107.283 146.235 106.945 146.794 106.769C147.352 106.594 147.95 106.591 148.511 106.759C149.072 106.927 149.569 107.26 149.938 107.714C150.308 108.168 150.533 108.722 150.584 109.305C150.635 109.888 150.511 110.473 150.226 110.985C149.941 111.496 149.509 111.91 148.987 112.174C148.464 112.438 147.874 112.538 147.294 112.463C146.543 112.385 145.854 112.013 145.377 111.427C144.901 110.842 144.676 110.092 144.752 109.341Z" fill="black"/>
<path d="M188.007 111.617C188.051 111.034 188.269 110.477 188.633 110.018C188.997 109.56 189.49 109.221 190.048 109.046C190.607 108.871 191.205 108.867 191.766 109.035C192.326 109.204 192.824 109.536 193.193 109.99C193.563 110.444 193.788 110.998 193.839 111.582C193.89 112.165 193.765 112.75 193.481 113.261C193.196 113.773 192.764 114.187 192.241 114.45C191.719 114.714 191.129 114.815 190.549 114.739C189.798 114.661 189.109 114.289 188.633 113.704C188.156 113.118 187.931 112.368 188.007 111.617Z" fill="black"/>
<path d="M171.772 129.314C171.9 129.314 172.026 129.291 172.145 129.246L176.09 127.746C176.522 127.669 176.922 127.471 177.244 127.173C177.567 126.876 177.797 126.493 177.908 126.069C178.019 125.645 178.006 125.198 177.871 124.781C177.736 124.364 177.485 123.995 177.146 123.716C175.685 121.767 174.687 119.511 174.229 117.118C173.77 114.726 173.863 112.26 174.5 109.909C174.567 109.645 174.528 109.364 174.392 109.128C174.255 108.892 174.032 108.719 173.769 108.645C173.506 108.571 173.225 108.602 172.985 108.733C172.746 108.863 172.566 109.082 172.485 109.342C171.762 112.002 171.655 114.792 172.172 117.5C172.688 120.208 173.815 122.762 175.467 124.969C175.615 125.155 175.743 125.356 175.848 125.569C175.686 125.651 175.519 125.724 175.348 125.787L171.403 127.287C171.174 127.374 170.983 127.539 170.862 127.752C170.742 127.966 170.7 128.215 170.745 128.456C170.789 128.697 170.917 128.915 171.105 129.071C171.294 129.228 171.531 129.314 171.776 129.313" fill="black"/>
<path d="M176.91 105.785C177.184 105.785 177.447 105.677 177.643 105.485C177.838 105.293 177.951 105.032 177.957 104.758C178.001 102.04 175.364 100.146 172.729 99.473C170.584 98.9409 168.344 98.9222 166.191 99.4182C164.038 99.9143 162.032 100.911 160.336 102.328C160.232 102.418 160.147 102.528 160.086 102.651C160.025 102.775 159.988 102.909 159.979 103.046C159.97 103.183 159.987 103.321 160.031 103.451C160.075 103.581 160.144 103.702 160.234 103.805C160.325 103.909 160.435 103.994 160.558 104.055C160.681 104.116 160.815 104.153 160.952 104.162C161.089 104.172 161.227 104.154 161.357 104.11C161.488 104.066 161.608 103.997 161.712 103.907C163.15 102.71 164.851 101.869 166.675 101.452C168.499 101.035 170.396 101.054 172.212 101.507C174.047 101.975 175.889 103.23 175.863 104.726C175.859 105.004 175.965 105.272 176.158 105.472C176.351 105.671 176.616 105.786 176.894 105.791L176.91 105.785Z" fill="black"/>
<path d="M128.669 101.19C128.947 101.19 129.214 101.08 129.411 100.883C129.608 100.686 129.719 100.419 129.719 100.14C129.719 99.8618 129.608 99.5948 129.411 99.3978C129.214 99.2009 128.947 99.0903 128.669 99.0903L114.356 99.0503C114.216 99.046 114.076 99.0698 113.945 99.1205C113.814 99.1711 113.695 99.2475 113.595 99.3451C113.494 99.4427 113.414 99.5595 113.359 99.6887C113.305 99.8178 113.276 99.9566 113.276 100.097C113.276 100.237 113.305 100.376 113.359 100.505C113.414 100.634 113.494 100.751 113.595 100.848C113.695 100.946 113.814 101.022 113.945 101.073C114.076 101.124 114.216 101.148 114.356 101.143L128.669 101.185V101.19Z" fill="black"/>
<path d="M111.745 111.087H111.756C111.894 111.086 112.03 111.058 112.157 111.004C112.284 110.95 112.399 110.872 112.495 110.774C112.592 110.675 112.668 110.559 112.72 110.431C112.771 110.303 112.797 110.167 112.795 110.029C112.763 106.514 113.452 103.03 114.818 99.791C114.873 99.6642 114.902 99.5279 114.904 99.3899C114.906 99.2519 114.88 99.1149 114.829 98.9867C114.777 98.8586 114.701 98.742 114.604 98.6434C114.508 98.5449 114.392 98.4664 114.265 98.4126C114.138 98.3587 114.002 98.3305 113.864 98.3296C113.726 98.3287 113.589 98.3551 113.461 98.4073C113.333 98.4594 113.217 98.5364 113.119 98.6336C113.021 98.7309 112.943 98.8466 112.89 98.974C111.41 102.477 110.663 106.247 110.695 110.05C110.698 110.326 110.81 110.59 111.006 110.784C111.202 110.978 111.467 111.087 111.743 111.087" fill="black"/>
<path d="M6.89946 304.292C19.5525 269.702 26.5395 235.573 56.3925 210.654C70.7225 198.693 88.0065 190.209 107.919 188.931C109.138 208.211 131.536 220.915 143.54 222.348C150.074 223.129 174.34 226.359 174.34 197.748C182.256 200.902 208.606 204.138 219.17 236.603C223.492 249.879 231.231 300.697 256.747 330.15C262.773 337.105 268.342 290.817 277.014 293.898C285.523 296.923 295.323 301.984 295.962 310.992C296.462 318.011 290.677 324.126 284.21 326.903C270.319 332.872 265.11 361.796 250.143 363.903C234.577 366.098 209.717 371.836 190.903 313.011C181.287 322.629 175.081 332.958 164.295 338.773C133.209 355.531 29.7715 374.35 12.9185 377.341C11.5185 377.589 8.34245 376.441 7.78345 375.135C4.24245 366.85 -5.02454 336.883 6.89846 304.291" fill="white"/>
<path d="M12.5244 378.418C12.718 378.421 12.9115 378.406 13.1024 378.374C33.0024 374.843 133.833 356.388 164.793 339.699C172.277 335.665 177.586 329.529 183.206 323.035C185.496 320.387 187.854 317.661 190.441 314.983C198.45 339.377 208.183 354.655 220.167 361.661C230.667 367.801 224.987 375.153 233.026 373.982C233.026 373.982 232.974 376.548 231.939 374.25C230.904 371.952 232.278 360.608 232.278 360.608C233.992 360.366 234.662 357.628 236.296 354.382C238.237 350.533 241.109 345.309 243.459 339.973C246.097 334.137 249.103 328.474 252.459 323.019C232.15 299.577 228.14 268.386 223.259 248.165C222.014 243.013 221.032 238.943 220.167 236.282C210.9 207.805 189.298 201.282 178.916 198.144C177.235 197.636 175.786 197.198 174.727 196.777C174.568 196.714 174.396 196.69 174.226 196.709C174.056 196.727 173.893 196.787 173.751 196.883C173.61 196.979 173.494 197.109 173.414 197.26C173.334 197.411 173.292 197.58 173.292 197.751C173.292 206.393 171.012 212.798 166.517 216.788C159.301 223.188 148.102 221.847 143.884 221.339L143.664 221.311C132.183 219.939 110.147 207.589 108.964 188.867C108.956 188.73 108.92 188.595 108.86 188.472C108.799 188.348 108.715 188.238 108.611 188.147C108.402 187.965 108.13 187.871 107.853 187.887C89.2944 189.079 71.7534 196.468 55.7204 209.853C30.8644 230.6 21.7884 257.453 12.1814 285.891C10.1874 291.791 8.12344 297.891 5.91444 303.933C-4.89956 333.498 1.39743 362.86 6.82243 375.549C7.53343 377.215 10.6474 378.417 12.5224 378.417M190.902 311.967C190.765 311.967 190.628 311.994 190.501 312.047C190.374 312.099 190.259 312.177 190.161 312.274C187.039 315.396 184.283 318.579 181.618 321.661C176.127 328.007 170.942 334.001 163.798 337.853C133.119 354.39 32.5774 372.788 12.7344 376.31C11.6694 376.496 9.06242 375.461 8.74442 374.725C8.16242 373.362 -5.38158 340.907 7.88042 304.652C10.0984 298.588 12.1644 292.473 14.1624 286.559C23.6744 258.414 32.6624 231.829 57.0624 211.459C72.4504 198.612 89.2354 191.418 106.96 190.048C108.048 200.731 115.16 208.48 121.034 213.148C127.834 218.556 136.621 222.573 143.415 223.386L143.637 223.411C148.107 223.949 159.986 225.373 167.906 218.348C172.606 214.182 175.106 207.754 175.365 199.226C176.235 199.516 177.228 199.817 178.311 200.143C189.123 203.409 209.248 209.488 218.176 236.924C219.016 239.506 219.99 243.543 221.224 248.652C226.149 269.044 230.724 300.495 251.361 324.321C251.819 324.849 247.355 331.821 243.461 340.632C238.94 349.244 236.141 360.056 232.28 360.601C231.761 360.673 233.568 362.786 233.028 362.865C217.661 365.104 209.828 368.715 191.903 312.69C191.849 312.519 191.752 312.365 191.62 312.242C191.489 312.12 191.329 312.033 191.154 311.99C191.073 311.971 190.99 311.961 190.906 311.96" fill="black"/>
<path d="M231.956 374.321L161.265 375.839L161.174 363.831L239.854 361.909L231.956 374.321Z" fill="white"/>
<path d="M161.164 376.884H161.183L225.724 375.373C225.886 375.366 226.043 375.318 226.18 375.233C226.318 375.148 226.431 375.029 226.51 374.888L233.343 362.074C233.434 361.885 233.48 361.679 233.48 361.47C233.48 361.26 233.434 361.054 233.343 360.865C233.169 360.528 233.243 360.848 232.891 360.865L161.057 362.787C160.795 362.807 160.551 362.929 160.376 363.126C160.202 363.323 160.112 363.58 160.124 363.843L160.207 375.851C160.208 376.126 160.311 376.391 160.497 376.594C160.582 376.686 160.686 376.76 160.8 376.81C160.915 376.861 161.039 376.887 161.164 376.888M225.172 373.288L162.113 374.77L162.043 364.856L231.143 363.006L225.172 373.288Z" fill="black"/>
<path d="M44.0187 337.656C72.4117 336.075 100.976 334.117 129.544 332.156C132.103 331.735 144.809 329.917 147.944 329.456C150.593 328.994 153.163 328.155 155.574 326.963C164.074 323.041 182.301 315.343 186.367 317.618C195.739 320.374 204.234 327.141 210.867 335.707C214.594 340.514 217.649 348.479 216.106 349.846C215.654 350.32 215.046 350.614 214.394 350.674C213.742 350.734 213.09 350.557 212.559 350.174C208.06 340.631 200.341 332.98 190.759 328.565C195.186 331.065 199.296 334.09 203 337.573C206.749 341.097 210.194 345.35 211.037 350.425C211.142 350.815 211.107 351.229 210.937 351.595C210.427 352.437 209.129 351.946 208.355 351.341C206.837 350.154 187.305 334.289 183.655 334.708C188.508 336.541 205.812 350.581 205.882 352.077C205.949 352.794 205.753 353.512 205.332 354.096C204.998 354.456 204.577 354.723 204.11 354.871C203.642 355.019 203.144 355.043 202.665 354.941C201.709 354.727 200.803 354.332 199.996 353.777C194.412 350.386 189.296 346.132 183.264 343.621C180.252 342.366 176.571 341.644 173.892 343.509C179.292 345.514 184.261 348.53 188.533 352.395C189.205 353.017 189.774 353.742 190.218 354.543C190.883 355.73 191.63 357.449 190.709 358.429C189.202 360.029 187.93 359.229 186.637 358.471C181.606 355.12 176.244 352.293 170.637 350.036C168.918 349.352 166.869 348.753 165.314 349.75C163.966 350.611 157.449 354.658 144.052 355.35C139.48 355.587 135.073 356.779 129.358 358.35C54.0767 379.1 31.5897 387.378 13.3547 379.54C9.78367 378.005 8.57968 376.13 9.76868 370.002C12.9457 353.636 16.0527 344.336 44.0177 337.66" fill="white"/>
<path d="M28.629 383.535C43.052 383.535 63.598 377.788 102.237 366.985C110.378 364.71 119.604 362.129 129.637 359.363C134.952 357.898 139.543 356.635 144.106 356.398C156.643 355.748 163.506 352.148 165.88 350.63C167.042 349.883 168.826 350.439 170.249 351.009C175.793 353.236 181.092 356.029 186.062 359.344L186.202 359.427C187.489 360.18 189.432 361.319 191.472 359.143C193.053 357.462 191.61 354.878 191.133 354.029C190.635 353.131 189.997 352.318 189.243 351.62C185.53 348.239 181.281 345.498 176.67 343.507C178.793 343.308 180.932 343.68 182.863 344.584C186.76 346.369 190.468 348.539 193.933 351.061C195.722 352.274 197.572 353.527 199.455 354.67C200.376 355.296 201.409 355.737 202.497 355.97C203.159 356.107 203.845 356.066 204.487 355.852C205.128 355.638 205.701 355.258 206.148 354.751C206.735 353.969 207.014 352.998 206.931 352.023C206.886 351.755 206.776 351.501 206.611 351.284C206.753 351.396 206.895 351.51 207.036 351.625L207.711 352.161C208.094 352.487 208.537 352.733 209.016 352.886C209.494 353.038 209.999 353.094 210.499 353.05C210.774 353.002 211.036 352.896 211.266 352.738C211.497 352.581 211.691 352.375 211.835 352.136C212.013 351.84 212.116 351.504 212.135 351.158C212.859 351.611 213.715 351.805 214.564 351.709C215.412 351.612 216.203 351.23 216.806 350.625C219.323 348.392 214.867 339.149 211.699 335.059C204.445 325.699 195.824 319.332 186.763 316.638C181.854 314.189 163.044 322.357 155.136 326.006C152.813 327.151 150.34 327.963 147.791 328.417L143.467 329.043C138.351 329.782 131.36 330.794 129.421 331.111C101.551 333.027 72.735 335.006 43.96 336.611C43.8972 336.614 43.8349 336.624 43.774 336.639C15.182 343.463 11.965 353.191 8.73901 369.798C7.54901 375.936 8.60801 378.637 12.939 380.498C17.8979 382.602 23.2444 383.637 28.63 383.535M167.253 348.175C166.37 348.158 165.502 348.398 164.753 348.865C162.524 350.294 156.039 353.682 144.001 354.307C139.209 354.555 134.516 355.848 129.083 357.344C119.048 360.11 109.819 362.691 101.677 364.968C47.489 380.121 29.233 385.224 13.769 378.576C10.886 377.336 9.65201 376.104 10.799 370.198C13.944 353.998 16.859 345.232 44.172 338.698C72.948 337.098 101.755 335.115 129.616 333.198C129.65 333.198 129.683 333.194 129.716 333.187C131.564 332.887 138.911 331.82 143.77 331.117L148.101 330.49C150.849 330.008 153.515 329.14 156.019 327.91C171.297 320.857 183.29 317.088 185.859 318.529C185.928 318.567 186 318.597 186.075 318.62C194.624 321.134 203.139 327.427 210.048 336.343C213.858 341.258 216.025 348.082 215.393 349.091C215.138 349.349 214.812 349.524 214.456 349.593C214.1 349.662 213.732 349.622 213.399 349.478C208.76 339.834 200.912 332.103 191.199 327.609C190.954 327.5 190.676 327.489 190.423 327.578C190.17 327.667 189.961 327.851 189.839 328.09C189.717 328.329 189.692 328.605 189.768 328.863C189.844 329.12 190.017 329.338 190.249 329.472C194.602 331.933 198.643 334.907 202.286 338.332C206.886 342.654 209.337 346.549 210.007 350.594C210.033 350.726 210.046 350.86 210.047 350.994C209.664 350.926 209.304 350.76 209.004 350.511C208.888 350.418 208.661 350.24 208.344 349.986C187.338 333.226 184.576 333.542 183.544 333.665C183.31 333.692 183.093 333.796 182.925 333.961C182.758 334.126 182.652 334.343 182.623 334.576C182.594 334.81 182.644 335.046 182.766 335.247C182.888 335.448 183.074 335.602 183.294 335.684C187.794 337.384 203.494 350.084 204.848 352.276C204.883 352.533 204.852 352.794 204.757 353.035C204.661 353.276 204.506 353.488 204.305 353.652C204.104 353.815 203.865 353.925 203.61 353.969C203.354 354.013 203.092 353.991 202.848 353.904C202.024 353.707 201.245 353.359 200.548 352.877C198.711 351.762 196.882 350.523 195.117 349.325C191.536 346.722 187.702 344.486 183.674 342.649C180.711 341.417 176.507 340.414 173.303 342.643C173.146 342.752 173.022 342.902 172.945 343.076C172.867 343.25 172.838 343.442 172.861 343.631C172.884 343.82 172.959 344 173.076 344.15C173.194 344.3 173.351 344.415 173.529 344.482C178.807 346.434 183.661 349.38 187.829 353.16C188.42 353.707 188.919 354.344 189.308 355.048C190.396 356.991 190.074 357.575 189.949 357.706C189.092 358.62 188.622 358.406 187.263 357.615L187.17 357.56C182.095 354.18 176.686 351.332 171.028 349.06C169.835 348.535 168.556 348.234 167.254 348.173" fill="black"/>
<path d="M226.186 375.367L378.421 374.984C378.616 374.984 378.806 374.929 378.971 374.827C379.137 374.724 379.27 374.578 379.357 374.404L433.765 265.156C433.845 264.996 433.883 264.819 433.874 264.64C433.866 264.462 433.813 264.289 433.719 264.137C433.625 263.985 433.494 263.86 433.338 263.773C433.182 263.686 433.006 263.64 432.827 263.64L279.149 264.482C278.954 264.483 278.763 264.538 278.597 264.642C278.432 264.746 278.299 264.894 278.213 265.07L225.246 373.862C225.17 374.021 225.134 374.198 225.144 374.374C225.154 374.551 225.208 374.722 225.302 374.872C225.396 375.021 225.526 375.145 225.681 375.231C225.836 375.317 226.009 375.362 226.186 375.362M377.773 372.886L227.864 373.265L279.81 266.565L431.135 265.735L377.773 372.886Z" fill="black"/>
<path d="M335.628 309.014C339.99 308.586 344.757 309.753 346.535 313.76C347.338 315.808 347.497 318.051 346.993 320.192C346.488 322.332 345.344 324.268 343.711 325.742C342.039 327.169 340.053 328.18 337.915 328.692C335.777 329.204 333.548 329.202 331.411 328.686C329.053 328.273 326.937 326.987 325.482 325.086C324.591 323.693 324.13 322.068 324.157 320.415C324.121 315.015 326.581 309.9 335.627 309.015" fill="white"/>
<path d="M334.683 330.095C338.259 330.147 341.728 328.872 344.42 326.516C346.213 324.893 347.468 322.761 348.017 320.406C348.566 318.05 348.383 315.583 347.493 313.334C345.753 309.414 341.281 307.41 335.528 307.973C325.203 308.985 323.078 315.303 323.114 320.423C323.083 322.285 323.605 324.113 324.614 325.677C326.218 327.797 328.561 329.236 331.178 329.709C332.326 329.968 333.5 330.097 334.678 330.096M337.269 309.984C339.803 309.984 343.969 310.57 345.575 314.184C346.294 316.03 346.433 318.051 345.973 319.978C345.514 321.905 344.477 323.646 343.003 324.968C341.457 326.285 339.621 327.216 337.645 327.685C335.67 328.154 333.611 328.149 331.639 327.668C329.54 327.313 327.652 326.183 326.347 324.502C325.576 323.28 325.178 321.859 325.202 320.413C325.16 314.146 328.602 310.759 335.726 310.061C336.09 310.025 336.626 309.987 337.269 309.987" fill="black"/>
<path d="M60.9579 337.72C61.1781 337.72 61.3926 337.65 61.5712 337.521C61.7497 337.393 61.8833 337.211 61.9529 337.002C72.6529 304.615 78.6999 284.128 78.6999 239.717C78.6999 239.439 78.5893 239.171 78.3924 238.975C78.1955 238.778 77.9284 238.667 77.6499 238.667C77.3714 238.667 77.1044 238.778 76.9074 238.975C76.7105 239.171 76.5999 239.439 76.5999 239.717C76.5999 283.807 70.5869 304.162 59.9589 336.344C59.907 336.501 59.8932 336.669 59.9186 336.833C59.944 336.996 60.0079 337.152 60.105 337.286C60.2021 337.42 60.3297 337.53 60.4773 337.605C60.6248 337.681 60.7882 337.72 60.9539 337.72" fill="black"/>
<path d="M190.898 314.06C191.067 314.06 191.234 314.02 191.384 313.941C191.534 313.863 191.663 313.75 191.759 313.611C205.559 293.755 201.828 279.211 198.219 265.151C196.419 258.128 194.551 250.866 194.845 242.926C194.855 242.648 194.755 242.378 194.566 242.175C194.376 241.972 194.114 241.852 193.837 241.842C193.559 241.831 193.289 241.932 193.086 242.121C192.882 242.31 192.762 242.572 192.752 242.85C192.452 251.092 194.352 258.505 196.189 265.672C199.842 279.904 203.295 293.349 190.038 312.416C189.929 312.573 189.866 312.757 189.854 312.948C189.842 313.138 189.882 313.329 189.971 313.498C190.059 313.668 190.192 313.81 190.355 313.909C190.519 314.008 190.706 314.061 190.897 314.061" fill="black"/>
<path d="M111.401 93.7121C111.461 93.7128 111.52 93.6982 111.572 93.6697C111.625 93.6412 111.669 93.5997 111.701 93.5491C114.611 88.9113 117.086 84.0145 119.094 78.9211C119.128 78.8349 119.126 78.7388 119.089 78.6538C119.052 78.5689 118.983 78.5021 118.897 78.4681C118.811 78.4342 118.715 78.4359 118.63 78.4728C118.545 78.5098 118.478 78.579 118.444 78.6651C116.452 83.7187 113.996 88.5767 111.108 93.1771C111.074 93.2303 111.056 93.2916 111.054 93.3545C111.052 93.4175 111.067 93.4797 111.098 93.5346C111.129 93.5896 111.174 93.6352 111.229 93.6666C111.283 93.698 111.345 93.7141 111.408 93.7131" fill="black"/>
<path d="M105.95 92.644C106.014 92.6442 106.076 92.627 106.13 92.5942C106.185 92.5614 106.229 92.5143 106.259 92.4581L109.172 86.921C109.215 86.8391 109.224 86.7433 109.197 86.6548C109.169 86.5663 109.108 86.4923 109.026 86.449C108.944 86.4058 108.848 86.3969 108.76 86.4243C108.671 86.4517 108.597 86.5131 108.554 86.595L105.642 92.1321C105.614 92.1853 105.6 92.2448 105.602 92.305C105.603 92.3652 105.621 92.4239 105.652 92.4754C105.683 92.5269 105.727 92.5695 105.779 92.5991C105.832 92.6286 105.891 92.6441 105.951 92.644" fill="black"/>
<path d="M145.974 265.248C159.942 265.4 173.875 263.835 187.46 260.589C187.55 260.566 187.627 260.509 187.675 260.43C187.722 260.35 187.736 260.255 187.713 260.165C187.691 260.075 187.633 259.998 187.554 259.951C187.474 259.903 187.379 259.889 187.289 259.912C152.889 268.533 115.781 263.337 83.0383 258.752C82.9465 258.739 82.8532 258.763 82.779 258.818C82.7047 258.874 82.6555 258.956 82.6423 259.048C82.629 259.14 82.6528 259.233 82.7083 259.307C82.7638 259.382 82.8465 259.431 82.9383 259.444C102.858 262.234 124.397 265.244 145.971 265.244" fill="black"/>
<path d="M133.397 292.068C153.903 292.079 174.337 289.634 194.261 284.785C194.308 284.776 194.351 284.757 194.39 284.731C194.429 284.704 194.462 284.67 194.488 284.63C194.513 284.59 194.53 284.546 194.537 284.499C194.545 284.453 194.543 284.405 194.532 284.359C194.521 284.313 194.5 284.27 194.472 284.233C194.443 284.195 194.408 284.164 194.367 284.14C194.326 284.117 194.281 284.102 194.234 284.096C194.187 284.091 194.139 284.095 194.094 284.108C157.431 293.013 119.258 293.738 82.2833 286.23C82.2383 286.22 82.1919 286.22 82.1467 286.228C82.1014 286.236 82.0583 286.254 82.0199 286.279C81.9814 286.304 81.9484 286.337 81.9227 286.375C81.897 286.413 81.8792 286.456 81.8703 286.501C81.8519 286.592 81.8701 286.686 81.9208 286.763C81.9716 286.841 82.0508 286.895 82.1413 286.914C99.0094 290.349 116.181 292.076 133.395 292.068" fill="black"/>
<path d="M4.54917 346.525C4.59991 346.525 4.65003 346.514 4.69611 346.493C4.7422 346.472 4.78316 346.441 4.81617 346.402C11.3318 338.883 19.6594 333.151 29.0099 329.751C38.3605 326.351 48.4244 325.394 58.2482 326.971C58.3381 326.984 58.4294 326.961 58.5026 326.907C58.5759 326.853 58.6253 326.773 58.6404 326.684C58.6555 326.594 58.6351 326.502 58.5835 326.427C58.5319 326.353 58.4532 326.301 58.3642 326.283C48.421 324.688 38.2353 325.657 28.7713 329.098C19.3073 332.54 10.8782 338.34 4.28216 345.949C4.23865 346 4.21065 346.062 4.20151 346.128C4.19237 346.195 4.20248 346.262 4.23061 346.323C4.25875 346.384 4.30373 346.435 4.36021 346.471C4.41668 346.507 4.48228 346.526 4.54917 346.525Z" fill="black"/>
<path d="M6.89411 332.545C6.93895 332.545 6.98338 332.537 7.02513 332.52C9.04177 331.569 10.878 330.275 12.4521 328.695C13.0231 328.183 13.6141 327.654 14.2111 327.167C17.8606 324.176 22.2534 322.232 26.9211 321.541C27.0092 321.524 27.0873 321.474 27.1392 321.401C27.1911 321.328 27.2129 321.237 27.2001 321.149C27.1872 321.06 27.1407 320.979 27.0701 320.924C26.9995 320.869 26.9104 320.843 26.8211 320.851C22.029 321.56 17.5191 323.557 13.7721 326.627C13.1641 327.127 12.5721 327.658 11.9901 328.174C10.4747 329.698 8.70825 330.95 6.76814 331.874C6.6929 331.904 6.6305 331.96 6.59162 332.031C6.55275 332.102 6.53981 332.184 6.55506 332.264C6.57032 332.344 6.6128 332.415 6.67521 332.467C6.73762 332.519 6.8161 332.547 6.89714 332.547" fill="black"/>
<path d="M242.845 32.9281C235.565 18.6771 196.602 19.1981 177.709 19.3521C149.291 21.2291 101.72 44.2371 87.1086 60.8301C70.5456 79.6451 54.1696 102.574 60.9536 113.962C61.5866 97.0371 98.5786 65.8891 135.18 50.2241C177.83 31.9681 231.766 19.9071 242.841 32.9241" fill="white"/>
<path d="M60.9592 115.008C61.0457 115.008 61.1317 114.997 61.2152 114.974C61.4345 114.919 61.6298 114.794 61.7717 114.618C61.9137 114.442 61.9946 114.224 62.0022 113.998C62.6022 97.9393 99.0542 66.8253 135.593 51.1853C178.574 32.7853 231.604 21.3363 242.045 33.6063C242.212 33.8016 242.444 33.9291 242.698 33.9643C242.952 33.9996 243.211 33.9403 243.424 33.7977C243.637 33.655 243.791 33.439 243.856 33.1906C243.92 32.9422 243.891 32.6787 243.774 32.4503C236.303 17.8183 198.69 18.1323 178.48 18.2993L177.695 18.3053C148.386 20.2403 100.622 43.8933 86.3202 60.1383C63.1112 86.5053 54.2722 104.795 60.0552 114.495C60.1478 114.651 60.2795 114.781 60.4374 114.871C60.5952 114.96 60.7737 115.007 60.9552 115.007M223.595 26.4073C215.896 26.5439 208.222 27.3469 200.661 28.8073C180.64 32.4433 156.62 39.8963 134.761 49.2493C99.6912 64.2623 65.8712 92.3543 60.6052 109.949C58.9692 100.369 68.2882 83.7793 87.8882 61.5123C101.952 45.5553 148.96 22.3013 177.78 20.3963H178.502C193.947 20.2713 223.434 20.0233 236.489 27.9843C232.292 26.843 227.952 26.3148 223.603 26.4163" fill="black"/>
<path d="M90.5127 50.8391C90.5602 50.8392 90.6071 50.8297 90.6508 50.8111C90.6945 50.7925 90.7339 50.7653 90.7667 50.7311C98.3127 42.7511 108.047 37.3121 117.373 32.4221C132.935 24.2641 149.806 16.4561 167.743 14.5681C167.789 14.5638 167.834 14.5504 167.874 14.5287C167.915 14.507 167.951 14.4774 167.981 14.4417C168.01 14.4059 168.032 14.3647 168.045 14.3203C168.058 14.276 168.062 14.2296 168.058 14.1836C168.053 14.1376 168.039 14.0931 168.016 14.0525C167.994 14.012 167.964 13.9763 167.928 13.9475C167.892 13.9187 167.85 13.8974 167.806 13.8848C167.761 13.8722 167.715 13.8686 167.669 13.8741C149.616 15.7741 132.669 23.6151 117.05 31.8041C107.676 36.7181 97.8757 42.1931 90.2587 50.2511C90.2121 50.3007 90.181 50.3629 90.1693 50.4299C90.1576 50.497 90.1657 50.566 90.1927 50.6285C90.2197 50.691 90.2644 50.7442 90.3212 50.7816C90.3781 50.8191 90.4447 50.839 90.5127 50.8391Z" fill="black"/>
<path d="M90.4332 43.1162C90.4933 43.1162 90.5524 43.1009 90.6049 43.0716C90.6574 43.0424 90.7015 43.0003 90.7332 42.9492C91.9145 41.0186 93.4054 39.2956 95.1462 37.8492C95.1815 37.8199 95.2107 37.7838 95.2321 37.7432C95.2535 37.7026 95.2667 37.6581 95.2709 37.6124C95.2752 37.5666 95.2703 37.5205 95.2567 37.4767C95.2431 37.4328 95.221 37.392 95.1917 37.3567C95.1623 37.3214 95.1263 37.2922 95.0857 37.2708C95.045 37.2494 95.0006 37.2362 94.9549 37.232C94.9091 37.2277 94.863 37.2326 94.8191 37.2461C94.7753 37.2597 94.7345 37.2819 94.6992 37.3112C92.8992 38.8066 91.3576 40.5881 90.1362 42.5842C90.1038 42.6373 90.0861 42.698 90.085 42.7602C90.0839 42.8224 90.0995 42.8837 90.1301 42.9379C90.1607 42.992 90.2052 43.037 90.259 43.0682C90.3128 43.0994 90.374 43.1156 90.4362 43.1152" fill="black"/>
<path d="M205.602 71.0143C205.641 71.0141 205.68 71.0077 205.718 70.9953C205.761 70.9799 205.801 70.9562 205.835 70.9254C205.869 70.8946 205.897 70.8574 205.917 70.8158C205.936 70.7743 205.948 70.7293 205.95 70.6834C205.952 70.6374 205.945 70.5915 205.93 70.5483C202.987 62.2288 197.887 54.8403 191.152 49.1383C191.081 49.0785 190.99 49.0492 190.897 49.0569C190.805 49.0646 190.72 49.1086 190.66 49.1793C190.6 49.2499 190.571 49.3415 190.578 49.4338C190.586 49.526 190.63 49.6115 190.701 49.6713C197.342 55.2933 202.371 62.5778 205.274 70.7803C205.297 70.8485 205.341 70.9077 205.4 70.9495C205.459 70.9913 205.53 71.0146 205.602 71.0143Z" fill="black"/>
<path d="M198.456 71.2442C198.497 71.2445 198.538 71.2374 198.577 71.2232C198.664 71.1906 198.734 71.1252 198.773 71.0412C198.811 70.9571 198.815 70.8612 198.784 70.7742C197.931 68.4654 196.599 66.3629 194.877 64.6042C194.845 64.5714 194.807 64.5452 194.764 64.5271C194.722 64.5091 194.677 64.4996 194.631 64.499C194.585 64.4985 194.539 64.5071 194.497 64.5242C194.454 64.5413 194.415 64.5666 194.383 64.5987C194.35 64.6308 194.324 64.6691 194.305 64.7113C194.287 64.7535 194.278 64.7989 194.277 64.8448C194.277 64.8907 194.285 64.9363 194.302 64.9789C194.32 65.0215 194.345 65.0604 194.377 65.0932C196.03 66.7808 197.308 68.799 198.126 71.0152C198.151 71.0823 198.195 71.1402 198.254 71.1812C198.313 71.2221 198.383 71.2441 198.454 71.2442" fill="black"/>
<path d="M20.1736 235.387C20.2401 235.387 20.3053 235.368 20.3614 235.332C20.4175 235.297 20.4622 235.246 20.4902 235.185C20.5183 235.125 20.5286 235.058 20.5198 234.992C20.511 234.926 20.4835 234.864 20.4406 234.813C18.1567 232.052 16.611 228.757 15.9483 225.235C15.2856 221.714 15.5276 218.082 16.6516 214.68C16.6664 214.636 16.6726 214.59 16.6696 214.545C16.6667 214.499 16.6547 214.454 16.6344 214.413C16.6141 214.371 16.5859 214.334 16.5514 214.304C16.5168 214.274 16.4766 214.25 16.4331 214.236C16.3896 214.221 16.3435 214.215 16.2976 214.218C16.2517 214.22 16.2069 214.232 16.1656 214.253C16.1243 214.273 16.0874 214.301 16.0571 214.336C16.0267 214.37 16.0034 214.41 15.9886 214.454C14.8279 217.971 14.5784 221.724 15.2637 225.364C15.9489 229.003 17.5464 232.409 19.9066 235.263C19.9392 235.302 19.98 235.334 20.0262 235.355C20.0723 235.377 20.1226 235.387 20.1736 235.387Z" fill="black"/>
<path d="M22.2573 218.647C22.3033 218.647 22.3487 218.638 22.391 218.62C22.4333 218.602 22.4717 218.576 22.5039 218.543C22.5361 218.51 22.5616 218.471 22.5788 218.429C22.596 218.386 22.6047 218.34 22.6043 218.294C22.5965 215.467 23.4827 212.71 25.1363 210.416C25.1634 210.379 25.1829 210.337 25.1937 210.292C25.2045 210.248 25.2063 210.201 25.1991 210.156C25.1918 210.11 25.1756 210.067 25.1515 210.027C25.1273 209.988 25.0957 209.954 25.0583 209.927C24.983 209.874 24.8899 209.853 24.7989 209.867C24.7079 209.882 24.6262 209.931 24.5713 210.005C22.8311 212.42 21.8983 215.322 21.9063 218.298C21.9062 218.344 21.9151 218.39 21.9326 218.432C21.9501 218.475 21.9758 218.513 22.0082 218.545C22.0407 218.578 22.0792 218.604 22.1216 218.621C22.164 218.639 22.2094 218.648 22.2553 218.647" fill="black"/>
<path d="M524.539 265.409C534.809 265.409 545.528 264.897 556.993 263.864C560.439 263.555 563.531 263.189 566.459 261.838C568.137 261.101 569.639 260.016 570.865 258.653C572.091 257.291 573.013 255.684 573.571 253.938C574.05 252.418 574.121 250.799 573.778 249.243C572.709 244.923 568.298 243.393 565.078 242.618C550.878 239.206 536.385 236.308 522.015 234.005C521.879 233.984 521.74 233.989 521.606 234.021C521.472 234.053 521.346 234.111 521.235 234.192C521.123 234.273 521.029 234.374 520.957 234.492C520.885 234.609 520.836 234.739 520.815 234.875C520.793 235.011 520.798 235.15 520.83 235.284C520.862 235.418 520.92 235.544 521.001 235.655C521.082 235.767 521.184 235.861 521.301 235.933C521.419 236.005 521.549 236.054 521.685 236.075C536 238.367 550.435 241.254 564.585 244.656C567.506 245.356 570.96 246.569 571.746 249.744C571.999 250.94 571.935 252.181 571.562 253.344C571.09 254.805 570.313 256.15 569.282 257.288C568.252 258.425 566.99 259.331 565.583 259.944C562.781 261.048 559.814 261.67 556.805 261.785C541.879 263.208 526.875 263.628 511.894 263.042C509.682 262.942 507.494 262.623 506.467 260.902C505.69 259.602 505.709 257.748 505.8 255.802C505.914 253.425 506.054 250.466 507.383 248.434C509.347 245.434 513.21 245.234 516.677 245.301C524.077 245.42 550.177 248.336 554.935 249.575C555.201 249.638 555.481 249.594 555.715 249.453C555.949 249.311 556.119 249.084 556.188 248.82C556.257 248.555 556.219 248.274 556.083 248.037C555.948 247.799 555.725 247.624 555.462 247.549C550.49 246.249 524.415 243.331 516.711 243.206C512.391 243.138 508.056 243.583 505.63 247.289C503.987 249.797 503.83 253.072 503.708 255.705C503.6 257.983 503.594 260.177 504.667 261.977C506.415 264.904 510.054 265.061 511.802 265.137C515.982 265.317 520.22 265.408 524.538 265.408" fill="black"/>
</g>
</svg>
