<svg width="502" height="502" viewBox="0 0 502 502" fill="none" xmlns="http://www.w3.org/2000/svg">
<path d="M0 70C0 31.3401 31.3401 0 70 0H432C470.66 0 502 31.3401 502 70V432C502 470.66 470.66 502 432 502H70C31.3401 502 0 470.66 0 432V70Z" fill="white"/>
<path d="M104.25 348.75C50.5403 295.04 50.5403 207.96 104.25 154.25L201.5 57L396 251.5L298.75 348.75C245.04 402.46 157.96 402.46 104.25 348.75V348.75Z" fill="#2F4C78"/>
<g style="mix-blend-mode:color-dodge">
<path d="M192.065 190.041C202.828 190.041 212.583 194.325 219.635 201.235C226.687 208.145 231.054 217.708 231.054 228.258C231.054 238.809 226.687 248.367 219.635 255.274C212.583 262.184 202.828 266.467 192.065 266.467C181.298 266.467 171.543 262.184 164.492 255.274C157.44 248.367 153.072 238.809 153.072 228.258C153.072 217.708 157.44 208.145 164.492 201.235C171.543 194.325 181.298 190.041 192.065 190.041ZM242.783 265.483C240.52 265.483 238.311 265.699 236.187 266.115C231.811 266.967 227.745 268.617 224.03 271.05C222.19 272.254 220.478 273.636 218.92 275.175C215.773 278.255 213.305 281.896 211.602 285.926C210.761 287.924 210.121 289.997 209.691 292.117C209.263 294.236 209.048 296.39 209.05 298.55C209.05 302.902 209.911 307.189 211.602 311.22C212.441 313.217 213.484 315.127 214.715 316.919C217.183 320.536 220.373 323.628 224.064 326.039C225.903 327.238 227.865 328.275 229.907 329.104C231.877 329.902 233.97 330.534 236.141 330.962C243.169 332.146 249.711 331.662 256.168 328.911C257.327 328.419 258.474 327.851 259.578 327.223C260.125 326.886 260.776 326.748 261.416 326.834C262.057 326.92 262.646 327.223 263.081 327.692L275.172 340.744L285.109 331.813L272.492 318.323C271.623 317.486 271.395 316.15 272.029 315.061C272.666 313.956 273.268 312.801 273.786 311.606C274.296 310.444 274.755 309.225 275.126 307.988C276.678 302.849 276.949 297.483 275.902 292.2L275.887 292.109C274.578 285.665 271.395 279.807 266.645 275.167C260.323 268.957 251.692 265.483 242.783 265.483ZM256.952 277.71C258.385 278.653 259.694 279.705 260.849 280.829C264.382 284.329 266.881 288.806 267.846 293.649C268.816 298.482 268.348 303.557 266.402 308.109C265.761 309.638 264.954 311.098 264.035 312.449C263.096 313.823 262.023 315.098 260.841 316.249C259.652 317.415 258.349 318.464 256.952 319.382C249.931 323.991 240.879 324.903 233.005 321.687C231.466 321.059 229.994 320.284 228.61 319.375C225.812 317.552 223.409 315.206 221.539 312.472C218.719 308.355 217.216 303.508 217.221 298.55C217.221 295.231 217.897 292.037 219.117 289.105L219.172 288.968C220.459 285.927 222.342 283.162 224.713 280.829C225.872 279.705 227.189 278.645 228.618 277.71C231.36 275.928 234.573 274.607 237.793 273.979C239.423 273.669 241.091 273.502 242.783 273.502C247.853 273.502 252.719 274.967 256.952 277.71ZM194.27 338.772C197.441 336.797 200.507 334.701 203.469 332.476C205.045 334.939 206.829 337.266 208.791 339.439C204.956 342.305 200.972 344.974 196.854 347.435C195.421 348.471 193.417 348.6 191.826 347.616C174.467 336.812 159.9 323.776 148.418 309.668C132.604 290.217 122.629 268.64 119.219 247.891C115.755 226.835 119.01 206.571 129.696 190.087C133.906 183.589 139.297 177.663 145.877 172.532C160.95 160.759 178.213 154.526 195.336 154.67C211.838 154.81 228.185 160.838 242.312 173.47C247.259 177.89 251.426 182.931 254.828 188.418C266.197 206.794 268.746 230.207 263.896 253.957C261.088 253.154 258.176 252.583 255.199 252.246C259.624 230.548 257.4 209.345 247.243 192.921C244.256 188.099 240.579 183.72 236.326 179.918C223.891 168.8 209.606 163.487 195.263 163.37C180.194 163.249 164.897 168.816 151.404 179.351C145.646 183.843 140.919 189.042 137.219 194.756C127.731 209.398 124.869 227.55 127.989 246.532C131.156 265.809 140.513 285.971 155.378 304.249C165.735 316.972 178.769 328.79 194.27 338.772ZM213.344 207.396C207.906 202.071 200.372 198.756 192.065 198.756C183.754 198.756 176.22 202.071 170.782 207.396C165.345 212.724 161.966 220.118 161.966 228.258C161.966 236.398 165.345 243.785 170.782 249.113C176.22 254.441 183.754 257.752 192.065 257.752C200.372 257.752 207.906 254.441 213.344 249.113C218.781 243.785 222.164 236.398 222.164 228.258C222.164 220.118 218.781 212.724 213.344 207.396Z" fill="white"/>
</g>
<path d="M327.058 356.583C327.656 356.583 328.228 356.817 328.774 357.285C329.32 357.727 329.593 358.338 329.593 359.118C329.593 359.352 329.554 359.612 329.476 359.898L321.793 382.518C321.637 382.986 321.351 383.35 320.935 383.61C320.545 383.844 320.129 383.974 319.687 384C319.245 384 318.803 383.87 318.361 383.61C317.945 383.35 317.62 382.973 317.386 382.479L311.614 369.375L311.965 369.609L306.271 382.479C306.037 382.973 305.699 383.35 305.257 383.61C304.841 383.87 304.412 384 303.97 384C303.554 383.974 303.138 383.844 302.722 383.61C302.306 383.35 302.02 382.986 301.864 382.518L294.181 359.898C294.103 359.612 294.064 359.352 294.064 359.118C294.064 358.338 294.337 357.727 294.883 357.285C295.455 356.817 296.04 356.583 296.638 356.583C297.132 356.583 297.587 356.713 298.003 356.973C298.445 357.233 298.744 357.61 298.9 358.104L305.101 376.902L304.243 376.863L309.781 363.564C309.989 363.096 310.288 362.732 310.678 362.472C311.068 362.186 311.51 362.056 312.004 362.082C312.498 362.056 312.94 362.186 313.33 362.472C313.72 362.732 314.006 363.096 314.188 363.564L319.258 376.278L318.634 376.668L324.757 358.104C324.913 357.61 325.212 357.233 325.654 356.973C326.096 356.713 326.564 356.583 327.058 356.583ZM350.706 362.745C351.382 362.745 351.941 362.966 352.383 363.408C352.825 363.85 353.046 364.422 353.046 365.124V381.621C353.046 382.297 352.825 382.869 352.383 383.337C351.941 383.779 351.382 384 350.706 384C350.03 384 349.471 383.779 349.029 383.337C348.587 382.869 348.366 382.297 348.366 381.621V379.71L349.224 380.061C349.224 380.399 349.042 380.815 348.678 381.309C348.314 381.777 347.82 382.245 347.196 382.713C346.572 383.181 345.831 383.584 344.973 383.922C344.141 384.234 343.231 384.39 342.243 384.39C340.449 384.39 338.824 383.935 337.368 383.025C335.912 382.089 334.755 380.815 333.897 379.203C333.065 377.565 332.649 375.693 332.649 373.587C332.649 371.455 333.065 369.583 333.897 367.971C334.755 366.333 335.899 365.059 337.329 364.149C338.759 363.213 340.345 362.745 342.087 362.745C343.205 362.745 344.232 362.914 345.168 363.252C346.104 363.59 346.91 364.019 347.586 364.539C348.288 365.059 348.821 365.592 349.185 366.138C349.575 366.658 349.77 367.1 349.77 367.464L348.366 367.971V365.124C348.366 364.448 348.587 363.889 349.029 363.447C349.471 362.979 350.03 362.745 350.706 362.745ZM342.828 380.1C343.972 380.1 344.973 379.814 345.831 379.242C346.689 378.67 347.352 377.89 347.82 376.902C348.314 375.914 348.561 374.809 348.561 373.587C348.561 372.339 348.314 371.221 347.82 370.233C347.352 369.245 346.689 368.465 345.831 367.893C344.973 367.321 343.972 367.035 342.828 367.035C341.71 367.035 340.722 367.321 339.864 367.893C339.006 368.465 338.33 369.245 337.836 370.233C337.368 371.221 337.134 372.339 337.134 373.587C337.134 374.809 337.368 375.914 337.836 376.902C338.33 377.89 339.006 378.67 339.864 379.242C340.722 379.814 341.71 380.1 342.828 380.1ZM374.796 363.135C375.472 363.135 376.031 363.369 376.473 363.837C376.915 364.279 377.136 364.838 377.136 365.514V382.089C377.136 384.481 376.681 386.379 375.771 387.783C374.887 389.213 373.691 390.24 372.183 390.864C370.675 391.488 368.985 391.8 367.113 391.8C366.281 391.8 365.397 391.735 364.461 391.605C363.525 391.475 362.758 391.28 362.16 391.02C361.38 390.682 360.834 390.253 360.522 389.733C360.236 389.239 360.184 388.706 360.366 388.134C360.6 387.38 360.977 386.86 361.497 386.574C362.017 386.314 362.563 386.288 363.135 386.496C363.551 386.626 364.097 386.821 364.773 387.081C365.449 387.367 366.229 387.51 367.113 387.51C368.309 387.51 369.297 387.341 370.077 387.003C370.883 386.691 371.481 386.145 371.871 385.365C372.287 384.611 372.495 383.571 372.495 382.245V379.632L373.314 380.568C372.872 381.426 372.313 382.141 371.637 382.713C370.987 383.259 370.207 383.675 369.297 383.961C368.387 384.247 367.347 384.39 366.177 384.39C364.799 384.39 363.59 384.078 362.55 383.454C361.536 382.804 360.743 381.92 360.171 380.802C359.599 379.658 359.313 378.358 359.313 376.902V365.514C359.313 364.838 359.534 364.279 359.976 363.837C360.418 363.369 360.977 363.135 361.653 363.135C362.329 363.135 362.888 363.369 363.33 363.837C363.772 364.279 363.993 364.838 363.993 365.514V375.498C363.993 377.188 364.357 378.384 365.085 379.086C365.839 379.762 366.879 380.1 368.205 380.1C369.115 380.1 369.882 379.931 370.506 379.593C371.13 379.229 371.611 378.709 371.949 378.033C372.287 377.331 372.456 376.486 372.456 375.498V365.514C372.456 364.838 372.677 364.279 373.119 363.837C373.561 363.369 374.12 363.135 374.796 363.135ZM396.662 384.39C394.686 384.39 392.84 384.026 391.124 383.298C389.408 382.57 387.9 381.569 386.6 380.295C385.3 378.995 384.273 377.5 383.519 375.81C382.791 374.12 382.427 372.3 382.427 370.35C382.427 368.4 382.791 366.58 383.519 364.89C384.273 363.2 385.3 361.718 386.6 360.444C387.9 359.144 389.408 358.13 391.124 357.402C392.84 356.674 394.686 356.31 396.662 356.31C397.884 356.31 399.067 356.44 400.211 356.7C401.355 356.96 402.408 357.35 403.37 357.87C403.76 358.078 404.046 358.364 404.228 358.728C404.436 359.066 404.54 359.417 404.54 359.781C404.54 360.405 404.332 360.964 403.916 361.458C403.5 361.952 402.967 362.199 402.317 362.199C402.109 362.199 401.888 362.173 401.654 362.121C401.446 362.069 401.238 361.991 401.03 361.887C400.38 361.601 399.691 361.38 398.963 361.224C398.235 361.068 397.468 360.99 396.662 360.99C394.972 360.99 393.425 361.419 392.021 362.277C390.643 363.109 389.538 364.24 388.706 365.67C387.9 367.074 387.497 368.634 387.497 370.35C387.497 372.04 387.9 373.6 388.706 375.03C389.538 376.46 390.643 377.604 392.021 378.462C393.425 379.294 394.972 379.71 396.662 379.71C397.442 379.71 398.3 379.632 399.236 379.476C400.172 379.32 400.939 379.112 401.537 378.852L401.186 380.022V373.353L401.849 373.938H397.52C396.844 373.938 396.272 373.717 395.804 373.275C395.362 372.833 395.141 372.274 395.141 371.598C395.141 370.922 395.362 370.363 395.804 369.921C396.272 369.479 396.844 369.258 397.52 369.258H403.916C404.592 369.258 405.151 369.492 405.593 369.96C406.035 370.402 406.256 370.961 406.256 371.637V379.905C406.256 380.425 406.126 380.854 405.866 381.192C405.632 381.53 405.359 381.803 405.047 382.011C403.851 382.739 402.538 383.324 401.108 383.766C399.704 384.182 398.222 384.39 396.662 384.39ZM431.999 373.587C431.999 375.719 431.518 377.604 430.556 379.242C429.62 380.854 428.346 382.115 426.734 383.025C425.148 383.935 423.367 384.39 421.391 384.39C419.415 384.39 417.621 383.935 416.009 383.025C414.423 382.115 413.149 380.854 412.187 379.242C411.251 377.604 410.783 375.719 410.783 373.587C410.783 371.455 411.251 369.583 412.187 367.971C413.149 366.333 414.423 365.059 416.009 364.149C417.621 363.213 419.415 362.745 421.391 362.745C423.367 362.745 425.148 363.213 426.734 364.149C428.346 365.059 429.62 366.333 430.556 367.971C431.518 369.583 431.999 371.455 431.999 373.587ZM427.319 373.587C427.319 372.261 427.046 371.117 426.5 370.155C425.98 369.167 425.265 368.4 424.355 367.854C423.471 367.308 422.483 367.035 421.391 367.035C420.299 367.035 419.298 367.308 418.388 367.854C417.504 368.4 416.789 369.167 416.243 370.155C415.723 371.117 415.463 372.261 415.463 373.587C415.463 374.887 415.723 376.031 416.243 377.019C416.789 377.981 417.504 378.735 418.388 379.281C419.298 379.827 420.299 380.1 421.391 380.1C422.483 380.1 423.471 379.827 424.355 379.281C425.265 378.735 425.98 377.981 426.5 377.019C427.046 376.031 427.319 374.887 427.319 373.587Z" fill="#35527C"/>
</svg>
