<svg width="583" height="583" viewBox="0 0 583 583" fill="none" xmlns="http://www.w3.org/2000/svg">
<path d="M485.043 291.043L388.5 387.586L195.414 194.5L291.957 97.9571C345.276 44.638 431.724 44.638 485.043 97.9571C538.362 151.276 538.362 237.724 485.043 291.043Z" fill="url(#paint0_linear_817_533)" stroke="white" stroke-width="2"/>
<path d="M0 151C0 112.34 31.3401 81 70 81H232C381.117 81 502 201.883 502 351V513C502 551.66 470.66 583 432 583H70C31.3401 583 0 551.66 0 513V151Z" fill="white"/>
<path d="M153.25 429.75C99.5403 376.04 99.5403 288.959 153.25 235.25L250.5 138L445 332.5L347.75 429.75C294.04 483.459 206.96 483.459 153.25 429.75V429.75Z" fill="url(#paint1_linear_817_533)"/>
<g style="mix-blend-mode:color-dodge">
<path d="M241.065 271.041C251.828 271.041 261.583 275.325 268.635 282.235C275.687 289.145 280.054 298.707 280.054 309.258C280.054 319.808 275.687 329.367 268.635 336.273C261.583 343.183 251.828 347.467 241.065 347.467C230.298 347.467 220.543 343.183 213.492 336.273C206.44 329.367 202.072 319.808 202.072 309.258C202.072 298.707 206.44 289.145 213.492 282.235C220.543 275.325 230.298 271.041 241.065 271.041ZM291.783 346.483C289.52 346.483 287.311 346.699 285.187 347.115C280.811 347.967 276.745 349.617 273.03 352.05C271.19 353.254 269.478 354.636 267.92 356.175C264.773 359.255 262.305 362.895 260.602 366.926C259.761 368.924 259.121 370.997 258.691 373.117C258.263 375.235 258.048 377.39 258.05 379.55C258.05 383.902 258.911 388.189 260.602 392.219C261.441 394.217 262.484 396.126 263.715 397.918C266.183 401.536 269.373 404.628 273.064 407.038C274.903 408.238 276.865 409.275 278.907 410.104C280.877 410.902 282.97 411.534 285.141 411.962C292.169 413.146 298.711 412.662 305.168 409.911C306.327 409.419 307.474 408.851 308.578 408.223C309.125 407.886 309.776 407.748 310.416 407.833C311.057 407.919 311.646 408.223 312.081 408.692L324.172 421.744L334.109 412.813L321.492 399.322C320.623 398.486 320.395 397.15 321.029 396.06C321.666 394.955 322.268 393.801 322.786 392.605C323.296 391.444 323.755 390.225 324.126 388.988C325.678 383.849 325.949 378.483 324.902 373.2L324.887 373.109C323.578 366.664 320.395 360.807 315.645 356.167C309.323 349.957 300.692 346.483 291.783 346.483ZM305.952 358.71C307.385 359.652 308.694 360.704 309.849 361.828C313.382 365.329 315.881 369.805 316.846 374.649C317.816 379.482 317.348 384.556 315.402 389.109C314.761 390.638 313.954 392.098 313.035 393.449C312.096 394.823 311.023 396.098 309.841 397.249C308.652 398.414 307.349 399.464 305.952 400.382C298.931 404.991 289.879 405.903 282.005 402.686C280.466 402.058 278.994 401.284 277.61 400.374C274.812 398.552 272.409 396.206 270.539 393.472C267.719 389.355 266.216 384.508 266.221 379.55C266.221 376.231 266.897 373.037 268.117 370.104L268.172 369.968C269.459 366.927 271.342 364.161 273.713 361.828C274.872 360.704 276.189 359.645 277.618 358.71C280.36 356.928 283.573 355.607 286.793 354.979C288.423 354.669 290.091 354.502 291.783 354.502C296.853 354.502 301.719 355.967 305.952 358.71ZM243.27 419.772C246.441 417.797 249.507 415.7 252.469 413.475C254.045 415.939 255.829 418.266 257.791 420.438C253.956 423.304 249.972 425.973 245.854 428.434C244.421 429.471 242.417 429.6 240.826 428.616C223.467 417.812 208.9 404.775 197.418 390.668C181.604 371.217 171.629 349.639 168.219 328.89C164.755 307.835 168.01 287.57 178.696 271.086C182.906 264.589 188.297 258.663 194.877 253.531C209.95 241.759 227.213 235.526 244.336 235.67C260.838 235.81 277.185 241.838 291.312 254.47C296.259 258.89 300.426 263.93 303.828 269.418C315.197 287.794 317.746 311.207 312.896 334.957C310.088 334.154 307.176 333.583 304.199 333.246C308.624 311.547 306.4 290.344 296.243 273.921C293.256 269.098 289.579 264.72 285.326 260.918C272.891 249.8 258.606 244.487 244.263 244.37C229.194 244.249 213.897 249.815 200.404 260.351C194.646 264.842 189.919 270.042 186.219 275.756C176.731 290.397 173.869 308.55 176.989 327.532C180.156 346.809 189.513 366.971 204.378 385.249C214.735 397.971 227.769 409.789 243.27 419.772ZM262.344 288.395C256.906 283.071 249.372 279.756 241.065 279.756C232.754 279.756 225.22 283.071 219.782 288.395C214.345 293.724 210.966 301.118 210.966 309.258C210.966 317.398 214.345 324.785 219.782 330.113C225.22 335.441 232.754 338.752 241.065 338.752C249.372 338.752 256.906 335.441 262.344 330.113C267.781 324.785 271.164 317.398 271.164 309.258C271.164 301.118 267.781 293.724 262.344 288.395Z" fill="white"/>
</g>
<path d="M214.058 495.583C214.656 495.583 215.228 495.817 215.774 496.285C216.32 496.727 216.593 497.338 216.593 498.118C216.593 498.352 216.554 498.612 216.476 498.898L208.793 521.518C208.637 521.986 208.351 522.35 207.935 522.61C207.545 522.844 207.129 522.974 206.687 523C206.245 523 205.803 522.87 205.361 522.61C204.945 522.35 204.62 521.973 204.386 521.479L198.614 508.375L198.965 508.609L193.271 521.479C193.037 521.973 192.699 522.35 192.257 522.61C191.841 522.87 191.412 523 190.97 523C190.554 522.974 190.138 522.844 189.722 522.61C189.306 522.35 189.02 521.986 188.864 521.518L181.181 498.898C181.103 498.612 181.064 498.352 181.064 498.118C181.064 497.338 181.337 496.727 181.883 496.285C182.455 495.817 183.04 495.583 183.638 495.583C184.132 495.583 184.587 495.713 185.003 495.973C185.445 496.233 185.744 496.61 185.9 497.104L192.101 515.902L191.243 515.863L196.781 502.564C196.989 502.096 197.288 501.732 197.678 501.472C198.068 501.186 198.51 501.056 199.004 501.082C199.498 501.056 199.94 501.186 200.33 501.472C200.72 501.732 201.006 502.096 201.188 502.564L206.258 515.278L205.634 515.668L211.757 497.104C211.913 496.61 212.212 496.233 212.654 495.973C213.096 495.713 213.564 495.583 214.058 495.583ZM237.706 501.745C238.382 501.745 238.941 501.966 239.383 502.408C239.825 502.85 240.046 503.422 240.046 504.124V520.621C240.046 521.297 239.825 521.869 239.383 522.337C238.941 522.779 238.382 523 237.706 523C237.03 523 236.471 522.779 236.029 522.337C235.587 521.869 235.366 521.297 235.366 520.621V518.71L236.224 519.061C236.224 519.399 236.042 519.815 235.678 520.309C235.314 520.777 234.82 521.245 234.196 521.713C233.572 522.181 232.831 522.584 231.973 522.922C231.141 523.234 230.231 523.39 229.243 523.39C227.449 523.39 225.824 522.935 224.368 522.025C222.912 521.089 221.755 519.815 220.897 518.203C220.065 516.565 219.649 514.693 219.649 512.587C219.649 510.455 220.065 508.583 220.897 506.971C221.755 505.333 222.899 504.059 224.329 503.149C225.759 502.213 227.345 501.745 229.087 501.745C230.205 501.745 231.232 501.914 232.168 502.252C233.104 502.59 233.91 503.019 234.586 503.539C235.288 504.059 235.821 504.592 236.185 505.138C236.575 505.658 236.77 506.1 236.77 506.464L235.366 506.971V504.124C235.366 503.448 235.587 502.889 236.029 502.447C236.471 501.979 237.03 501.745 237.706 501.745ZM229.828 519.1C230.972 519.1 231.973 518.814 232.831 518.242C233.689 517.67 234.352 516.89 234.82 515.902C235.314 514.914 235.561 513.809 235.561 512.587C235.561 511.339 235.314 510.221 234.82 509.233C234.352 508.245 233.689 507.465 232.831 506.893C231.973 506.321 230.972 506.035 229.828 506.035C228.71 506.035 227.722 506.321 226.864 506.893C226.006 507.465 225.33 508.245 224.836 509.233C224.368 510.221 224.134 511.339 224.134 512.587C224.134 513.809 224.368 514.914 224.836 515.902C225.33 516.89 226.006 517.67 226.864 518.242C227.722 518.814 228.71 519.1 229.828 519.1ZM261.796 502.135C262.472 502.135 263.031 502.369 263.473 502.837C263.915 503.279 264.136 503.838 264.136 504.514V521.089C264.136 523.481 263.681 525.379 262.771 526.783C261.887 528.213 260.691 529.24 259.183 529.864C257.675 530.488 255.985 530.8 254.113 530.8C253.281 530.8 252.397 530.735 251.461 530.605C250.525 530.475 249.758 530.28 249.16 530.02C248.38 529.682 247.834 529.253 247.522 528.733C247.236 528.239 247.184 527.706 247.366 527.134C247.6 526.38 247.977 525.86 248.497 525.574C249.017 525.314 249.563 525.288 250.135 525.496C250.551 525.626 251.097 525.821 251.773 526.081C252.449 526.367 253.229 526.51 254.113 526.51C255.309 526.51 256.297 526.341 257.077 526.003C257.883 525.691 258.481 525.145 258.871 524.365C259.287 523.611 259.495 522.571 259.495 521.245V518.632L260.314 519.568C259.872 520.426 259.313 521.141 258.637 521.713C257.987 522.259 257.207 522.675 256.297 522.961C255.387 523.247 254.347 523.39 253.177 523.39C251.799 523.39 250.59 523.078 249.55 522.454C248.536 521.804 247.743 520.92 247.171 519.802C246.599 518.658 246.313 517.358 246.313 515.902V504.514C246.313 503.838 246.534 503.279 246.976 502.837C247.418 502.369 247.977 502.135 248.653 502.135C249.329 502.135 249.888 502.369 250.33 502.837C250.772 503.279 250.993 503.838 250.993 504.514V514.498C250.993 516.188 251.357 517.384 252.085 518.086C252.839 518.762 253.879 519.1 255.205 519.1C256.115 519.1 256.882 518.931 257.506 518.593C258.13 518.229 258.611 517.709 258.949 517.033C259.287 516.331 259.456 515.486 259.456 514.498V504.514C259.456 503.838 259.677 503.279 260.119 502.837C260.561 502.369 261.12 502.135 261.796 502.135ZM283.662 523.39C281.686 523.39 279.84 523.026 278.124 522.298C276.408 521.57 274.9 520.569 273.6 519.295C272.3 517.995 271.273 516.5 270.519 514.81C269.791 513.12 269.427 511.3 269.427 509.35C269.427 507.4 269.791 505.58 270.519 503.89C271.273 502.2 272.3 500.718 273.6 499.444C274.9 498.144 276.408 497.13 278.124 496.402C279.84 495.674 281.686 495.31 283.662 495.31C284.884 495.31 286.067 495.44 287.211 495.7C288.355 495.96 289.408 496.35 290.37 496.87C290.76 497.078 291.046 497.364 291.228 497.728C291.436 498.066 291.54 498.417 291.54 498.781C291.54 499.405 291.332 499.964 290.916 500.458C290.5 500.952 289.967 501.199 289.317 501.199C289.109 501.199 288.888 501.173 288.654 501.121C288.446 501.069 288.238 500.991 288.03 500.887C287.38 500.601 286.691 500.38 285.963 500.224C285.235 500.068 284.468 499.99 283.662 499.99C281.972 499.99 280.425 500.419 279.021 501.277C277.643 502.109 276.538 503.24 275.706 504.67C274.9 506.074 274.497 507.634 274.497 509.35C274.497 511.04 274.9 512.6 275.706 514.03C276.538 515.46 277.643 516.604 279.021 517.462C280.425 518.294 281.972 518.71 283.662 518.71C284.442 518.71 285.3 518.632 286.236 518.476C287.172 518.32 287.939 518.112 288.537 517.852L288.186 519.022V512.353L288.849 512.938H284.52C283.844 512.938 283.272 512.717 282.804 512.275C282.362 511.833 282.141 511.274 282.141 510.598C282.141 509.922 282.362 509.363 282.804 508.921C283.272 508.479 283.844 508.258 284.52 508.258H290.916C291.592 508.258 292.151 508.492 292.593 508.96C293.035 509.402 293.256 509.961 293.256 510.637V518.905C293.256 519.425 293.126 519.854 292.866 520.192C292.632 520.53 292.359 520.803 292.047 521.011C290.851 521.739 289.538 522.324 288.108 522.766C286.704 523.182 285.222 523.39 283.662 523.39ZM318.999 512.587C318.999 514.719 318.518 516.604 317.556 518.242C316.62 519.854 315.346 521.115 313.734 522.025C312.148 522.935 310.367 523.39 308.391 523.39C306.415 523.39 304.621 522.935 303.009 522.025C301.423 521.115 300.149 519.854 299.187 518.242C298.251 516.604 297.783 514.719 297.783 512.587C297.783 510.455 298.251 508.583 299.187 506.971C300.149 505.333 301.423 504.059 303.009 503.149C304.621 502.213 306.415 501.745 308.391 501.745C310.367 501.745 312.148 502.213 313.734 503.149C315.346 504.059 316.62 505.333 317.556 506.971C318.518 508.583 318.999 510.455 318.999 512.587ZM314.319 512.587C314.319 511.261 314.046 510.117 313.5 509.155C312.98 508.167 312.265 507.4 311.355 506.854C310.471 506.308 309.483 506.035 308.391 506.035C307.299 506.035 306.298 506.308 305.388 506.854C304.504 507.4 303.789 508.167 303.243 509.155C302.723 510.117 302.463 511.261 302.463 512.587C302.463 513.887 302.723 515.031 303.243 516.019C303.789 516.981 304.504 517.735 305.388 518.281C306.298 518.827 307.299 519.1 308.391 519.1C309.483 519.1 310.471 518.827 311.355 518.281C312.265 517.735 312.98 516.981 313.5 516.019C314.046 515.031 314.319 513.887 314.319 512.587Z" fill="#33507B"/>
<line x1="262" y1="138.918" x2="302.807" y2="98.1104" stroke="#314E7A" stroke-width="15" stroke-linecap="round"/>
<line x1="277" y1="153.655" x2="324.942" y2="105.714" stroke="#3A567F" stroke-width="15" stroke-linecap="round"/>
<line x1="292" y1="168.656" x2="346.101" y2="114.555" stroke="#415C84" stroke-width="15" stroke-linecap="round"/>
<line x1="322" y1="198.656" x2="384.393" y2="136.262" stroke="#51698E" stroke-width="15" stroke-linecap="round"/>
<line x1="337" y1="213.656" x2="400.498" y2="150.157" stroke="#587093" stroke-width="15" stroke-linecap="round"/>
<line x1="352" y1="228.656" x2="416.205" y2="164.45" stroke="#607698" stroke-width="15" stroke-linecap="round"/>
<line x1="367" y1="243.656" x2="430.498" y2="180.157" stroke="#677D9D" stroke-width="15" stroke-linecap="round"/>
<line x1="382" y1="258.656" x2="443.518" y2="197.137" stroke="#6F83A2" stroke-width="15" stroke-linecap="round"/>
<line x1="397" y1="273.656" x2="455.548" y2="215.107" stroke="#778AA7" stroke-width="15" stroke-linecap="round"/>
<line x1="412" y1="288.656" x2="466.306" y2="234.35" stroke="#7E91AC" stroke-width="15" stroke-linecap="round"/>
<line x1="427" y1="303.656" x2="475.649" y2="255.007" stroke="#8697B1" stroke-width="15" stroke-linecap="round"/>
<line x1="442" y1="318.656" x2="483.393" y2="277.262" stroke="#8E9EB6" stroke-width="15" stroke-linecap="round"/>
<line x1="307" y1="183.655" x2="365.548" y2="125.107" stroke="#496389" stroke-width="15" stroke-linecap="round"/>
<defs>
<linearGradient id="paint0_linear_817_533" x1="511" y1="233" x2="348.5" y2="66.5" gradientUnits="userSpaceOnUse">
<stop stop-color="#8E9EB6"/>
<stop offset="1" stop-color="#314E7A"/>
</linearGradient>
<linearGradient id="paint1_linear_817_533" x1="153.25" y1="235.25" x2="575.253" y2="637.891" gradientUnits="userSpaceOnUse">
<stop stop-color="#2F4C78"/>
<stop offset="1" stop-color="#2F4C78" stop-opacity="0"/>
</linearGradient>
</defs>
</svg>
