<svg width="488" height="389" viewBox="0 0 488 389" fill="none" xmlns="http://www.w3.org/2000/svg">
<path d="M97.25 291.75C43.5403 238.04 43.5403 150.96 97.25 97.25L194.5 -1.47689e-06L389 194.5L291.75 291.75C238.04 345.46 150.96 345.46 97.25 291.75Z" fill="#2F4C78"/>
<g style="mix-blend-mode:color-dodge">
<path d="M185.065 133.041C195.828 133.041 205.583 137.325 212.635 144.235C219.687 151.145 224.054 160.708 224.054 171.258C224.054 181.809 219.687 191.367 212.635 198.274C205.583 205.184 195.828 209.467 185.065 209.467C174.298 209.467 164.543 205.184 157.492 198.274C150.44 191.367 146.072 181.809 146.072 171.258C146.072 160.708 150.44 151.145 157.492 144.235C164.543 137.325 174.298 133.041 185.065 133.041ZM235.783 208.483C233.52 208.483 231.311 208.699 229.187 209.115C224.811 209.967 220.745 211.617 217.03 214.05C215.19 215.254 213.478 216.636 211.92 218.175C208.773 221.255 206.305 224.896 204.602 228.926C203.761 230.924 203.121 232.997 202.691 235.117C202.263 237.236 202.048 239.39 202.05 241.55C202.05 245.902 202.911 250.189 204.602 254.22C205.441 256.217 206.484 258.127 207.715 259.919C210.183 263.536 213.373 266.628 217.064 269.039C218.903 270.238 220.865 271.275 222.907 272.104C224.877 272.902 226.97 273.534 229.141 273.962C236.169 275.146 242.711 274.662 249.168 271.911C250.327 271.419 251.474 270.851 252.578 270.223C253.125 269.886 253.776 269.748 254.416 269.834C255.057 269.92 255.646 270.223 256.081 270.692L268.172 283.744L278.109 274.813L265.492 261.323C264.623 260.486 264.395 259.15 265.029 258.061C265.666 256.956 266.268 255.801 266.786 254.606C267.296 253.444 267.755 252.225 268.126 250.988C269.678 245.849 269.949 240.483 268.902 235.2L268.887 235.109C267.578 228.665 264.395 222.807 259.645 218.167C253.323 211.957 244.692 208.483 235.783 208.483ZM249.952 220.71C251.385 221.653 252.694 222.705 253.849 223.828C257.382 227.329 259.881 231.806 260.846 236.649C261.816 241.482 261.348 246.557 259.402 251.109C258.761 252.638 257.954 254.098 257.035 255.449C256.096 256.823 255.023 258.098 253.841 259.249C252.652 260.415 251.349 261.464 249.952 262.382C242.931 266.991 233.879 267.903 226.005 264.687C224.466 264.059 222.994 263.284 221.61 262.375C218.812 260.552 216.409 258.206 214.539 255.472C211.719 251.355 210.216 246.508 210.221 241.55C210.221 238.231 210.897 235.037 212.117 232.105L212.172 231.968C213.459 228.927 215.342 226.162 217.713 223.828C218.872 222.705 220.189 221.645 221.618 220.71C224.36 218.928 227.573 217.607 230.793 216.979C232.423 216.669 234.091 216.502 235.783 216.502C240.854 216.502 245.719 217.967 249.952 220.71ZM187.27 281.772C190.441 279.797 193.507 277.701 196.469 275.476C198.045 277.939 199.829 280.266 201.791 282.439C197.956 285.305 193.972 287.974 189.854 290.435C188.421 291.471 186.417 291.6 184.826 290.616C167.467 279.812 152.9 266.776 141.418 252.668C125.604 233.217 115.629 211.64 112.219 190.891C108.755 169.835 112.01 149.571 122.696 133.087C126.906 126.589 132.297 120.663 138.877 115.532C153.95 103.759 171.213 97.5264 188.336 97.6702C204.838 97.8102 221.185 103.838 235.312 116.47C240.259 120.89 244.426 125.931 247.828 131.418C259.197 149.794 261.746 173.207 256.896 196.957C254.088 196.154 251.176 195.583 248.199 195.246C252.624 173.548 250.4 152.345 240.243 135.921C237.256 131.099 233.579 126.72 229.326 122.918C216.891 111.8 202.606 106.487 188.263 106.37C173.194 106.249 157.897 111.816 144.404 122.351C138.646 126.843 133.919 132.042 130.219 137.756C120.731 152.398 117.869 170.55 120.989 189.532C124.156 208.809 133.513 228.971 148.378 247.249C158.735 259.972 171.769 271.79 187.27 281.772ZM206.344 150.396C200.906 145.071 193.372 141.756 185.065 141.756C176.754 141.756 169.22 145.071 163.782 150.396C158.345 155.724 154.966 163.118 154.966 171.258C154.966 179.398 158.345 186.785 163.782 192.113C169.22 197.441 176.754 200.752 185.065 200.752C193.372 200.752 200.906 197.441 206.344 192.113C211.781 186.785 215.164 179.398 215.164 171.258C215.164 163.118 211.781 155.724 206.344 150.396Z" fill="white"/>
</g>
<path d="M320.058 299.583C320.656 299.583 321.228 299.817 321.774 300.285C322.32 300.727 322.593 301.338 322.593 302.118C322.593 302.352 322.554 302.612 322.476 302.898L314.793 325.518C314.637 325.986 314.351 326.35 313.935 326.61C313.545 326.844 313.129 326.974 312.687 327C312.245 327 311.803 326.87 311.361 326.61C310.945 326.35 310.62 325.973 310.386 325.479L304.614 312.375L304.965 312.609L299.271 325.479C299.037 325.973 298.699 326.35 298.257 326.61C297.841 326.87 297.412 327 296.97 327C296.554 326.974 296.138 326.844 295.722 326.61C295.306 326.35 295.02 325.986 294.864 325.518L287.181 302.898C287.103 302.612 287.064 302.352 287.064 302.118C287.064 301.338 287.337 300.727 287.883 300.285C288.455 299.817 289.04 299.583 289.638 299.583C290.132 299.583 290.587 299.713 291.003 299.973C291.445 300.233 291.744 300.61 291.9 301.104L298.101 319.902L297.243 319.863L302.781 306.564C302.989 306.096 303.288 305.732 303.678 305.472C304.068 305.186 304.51 305.056 305.004 305.082C305.498 305.056 305.94 305.186 306.33 305.472C306.72 305.732 307.006 306.096 307.188 306.564L312.258 319.278L311.634 319.668L317.757 301.104C317.913 300.61 318.212 300.233 318.654 299.973C319.096 299.713 319.564 299.583 320.058 299.583ZM343.706 305.745C344.382 305.745 344.941 305.966 345.383 306.408C345.825 306.85 346.046 307.422 346.046 308.124V324.621C346.046 325.297 345.825 325.869 345.383 326.337C344.941 326.779 344.382 327 343.706 327C343.03 327 342.471 326.779 342.029 326.337C341.587 325.869 341.366 325.297 341.366 324.621V322.71L342.224 323.061C342.224 323.399 342.042 323.815 341.678 324.309C341.314 324.777 340.82 325.245 340.196 325.713C339.572 326.181 338.831 326.584 337.973 326.922C337.141 327.234 336.231 327.39 335.243 327.39C333.449 327.39 331.824 326.935 330.368 326.025C328.912 325.089 327.755 323.815 326.897 322.203C326.065 320.565 325.649 318.693 325.649 316.587C325.649 314.455 326.065 312.583 326.897 310.971C327.755 309.333 328.899 308.059 330.329 307.149C331.759 306.213 333.345 305.745 335.087 305.745C336.205 305.745 337.232 305.914 338.168 306.252C339.104 306.59 339.91 307.019 340.586 307.539C341.288 308.059 341.821 308.592 342.185 309.138C342.575 309.658 342.77 310.1 342.77 310.464L341.366 310.971V308.124C341.366 307.448 341.587 306.889 342.029 306.447C342.471 305.979 343.03 305.745 343.706 305.745ZM335.828 323.1C336.972 323.1 337.973 322.814 338.831 322.242C339.689 321.67 340.352 320.89 340.82 319.902C341.314 318.914 341.561 317.809 341.561 316.587C341.561 315.339 341.314 314.221 340.82 313.233C340.352 312.245 339.689 311.465 338.831 310.893C337.973 310.321 336.972 310.035 335.828 310.035C334.71 310.035 333.722 310.321 332.864 310.893C332.006 311.465 331.33 312.245 330.836 313.233C330.368 314.221 330.134 315.339 330.134 316.587C330.134 317.809 330.368 318.914 330.836 319.902C331.33 320.89 332.006 321.67 332.864 322.242C333.722 322.814 334.71 323.1 335.828 323.1ZM367.796 306.135C368.472 306.135 369.031 306.369 369.473 306.837C369.915 307.279 370.136 307.838 370.136 308.514V325.089C370.136 327.481 369.681 329.379 368.771 330.783C367.887 332.213 366.691 333.24 365.183 333.864C363.675 334.488 361.985 334.8 360.113 334.8C359.281 334.8 358.397 334.735 357.461 334.605C356.525 334.475 355.758 334.28 355.16 334.02C354.38 333.682 353.834 333.253 353.522 332.733C353.236 332.239 353.184 331.706 353.366 331.134C353.6 330.38 353.977 329.86 354.497 329.574C355.017 329.314 355.563 329.288 356.135 329.496C356.551 329.626 357.097 329.821 357.773 330.081C358.449 330.367 359.229 330.51 360.113 330.51C361.309 330.51 362.297 330.341 363.077 330.003C363.883 329.691 364.481 329.145 364.871 328.365C365.287 327.611 365.495 326.571 365.495 325.245V322.632L366.314 323.568C365.872 324.426 365.313 325.141 364.637 325.713C363.987 326.259 363.207 326.675 362.297 326.961C361.387 327.247 360.347 327.39 359.177 327.39C357.799 327.39 356.59 327.078 355.55 326.454C354.536 325.804 353.743 324.92 353.171 323.802C352.599 322.658 352.313 321.358 352.313 319.902V308.514C352.313 307.838 352.534 307.279 352.976 306.837C353.418 306.369 353.977 306.135 354.653 306.135C355.329 306.135 355.888 306.369 356.33 306.837C356.772 307.279 356.993 307.838 356.993 308.514V318.498C356.993 320.188 357.357 321.384 358.085 322.086C358.839 322.762 359.879 323.1 361.205 323.1C362.115 323.1 362.882 322.931 363.506 322.593C364.13 322.229 364.611 321.709 364.949 321.033C365.287 320.331 365.456 319.486 365.456 318.498V308.514C365.456 307.838 365.677 307.279 366.119 306.837C366.561 306.369 367.12 306.135 367.796 306.135ZM389.662 327.39C387.686 327.39 385.84 327.026 384.124 326.298C382.408 325.57 380.9 324.569 379.6 323.295C378.3 321.995 377.273 320.5 376.519 318.81C375.791 317.12 375.427 315.3 375.427 313.35C375.427 311.4 375.791 309.58 376.519 307.89C377.273 306.2 378.3 304.718 379.6 303.444C380.9 302.144 382.408 301.13 384.124 300.402C385.84 299.674 387.686 299.31 389.662 299.31C390.884 299.31 392.067 299.44 393.211 299.7C394.355 299.96 395.408 300.35 396.37 300.87C396.76 301.078 397.046 301.364 397.228 301.728C397.436 302.066 397.54 302.417 397.54 302.781C397.54 303.405 397.332 303.964 396.916 304.458C396.5 304.952 395.967 305.199 395.317 305.199C395.109 305.199 394.888 305.173 394.654 305.121C394.446 305.069 394.238 304.991 394.03 304.887C393.38 304.601 392.691 304.38 391.963 304.224C391.235 304.068 390.468 303.99 389.662 303.99C387.972 303.99 386.425 304.419 385.021 305.277C383.643 306.109 382.538 307.24 381.706 308.67C380.9 310.074 380.497 311.634 380.497 313.35C380.497 315.04 380.9 316.6 381.706 318.03C382.538 319.46 383.643 320.604 385.021 321.462C386.425 322.294 387.972 322.71 389.662 322.71C390.442 322.71 391.3 322.632 392.236 322.476C393.172 322.32 393.939 322.112 394.537 321.852L394.186 323.022V316.353L394.849 316.938H390.52C389.844 316.938 389.272 316.717 388.804 316.275C388.362 315.833 388.141 315.274 388.141 314.598C388.141 313.922 388.362 313.363 388.804 312.921C389.272 312.479 389.844 312.258 390.52 312.258H396.916C397.592 312.258 398.151 312.492 398.593 312.96C399.035 313.402 399.256 313.961 399.256 314.637V322.905C399.256 323.425 399.126 323.854 398.866 324.192C398.632 324.53 398.359 324.803 398.047 325.011C396.851 325.739 395.538 326.324 394.108 326.766C392.704 327.182 391.222 327.39 389.662 327.39ZM424.999 316.587C424.999 318.719 424.518 320.604 423.556 322.242C422.62 323.854 421.346 325.115 419.734 326.025C418.148 326.935 416.367 327.39 414.391 327.39C412.415 327.39 410.621 326.935 409.009 326.025C407.423 325.115 406.149 323.854 405.187 322.242C404.251 320.604 403.783 318.719 403.783 316.587C403.783 314.455 404.251 312.583 405.187 310.971C406.149 309.333 407.423 308.059 409.009 307.149C410.621 306.213 412.415 305.745 414.391 305.745C416.367 305.745 418.148 306.213 419.734 307.149C421.346 308.059 422.62 309.333 423.556 310.971C424.518 312.583 424.999 314.455 424.999 316.587ZM420.319 316.587C420.319 315.261 420.046 314.117 419.5 313.155C418.98 312.167 418.265 311.4 417.355 310.854C416.471 310.308 415.483 310.035 414.391 310.035C413.299 310.035 412.298 310.308 411.388 310.854C410.504 311.4 409.789 312.167 409.243 313.155C408.723 314.117 408.463 315.261 408.463 316.587C408.463 317.887 408.723 319.031 409.243 320.019C409.789 320.981 410.504 321.735 411.388 322.281C412.298 322.827 413.299 323.1 414.391 323.1C415.483 323.1 416.471 322.827 417.355 322.281C418.265 321.735 418.98 320.981 419.5 320.019C420.046 319.031 420.319 317.887 420.319 316.587Z" fill="#35527C"/>
</svg>
