<svg width="57" height="57" viewBox="0 0 57 57" fill="none" xmlns="http://www.w3.org/2000/svg">
<path d="M46 0H11C4.92487 0 0 4.92487 0 11V46C0 52.0751 4.92487 57 11 57H46C52.0751 57 57 52.0751 57 46V11C57 4.92487 52.0751 0 46 0Z" fill="#15D088"/>
<ellipse cx="28.5" cy="39.5" rx="23.5" ry="4.5" fill="white"/>
<g style="mix-blend-mode:color-dodge">
<mask id="path-3-inside-1_936_527" fill="white">
<path d="M27.948 17.6539C28.8111 17.6539 29.5934 18.0964 30.1589 18.8102C30.7243 19.5239 31.0746 20.5117 31.0746 21.6015C31.0746 22.6913 30.7243 23.6787 30.1589 24.3921C29.5934 25.1059 28.8111 25.5484 27.948 25.5484C27.0846 25.5484 26.3024 25.1059 25.7369 24.3921C25.1714 23.6787 24.8211 22.6913 24.8211 21.6015C24.8211 20.5117 25.1714 19.5239 25.7369 18.8102C26.3024 18.0964 27.0846 17.6539 27.948 17.6539ZM28.1249 33.0171C28.3791 32.8131 28.625 32.5965 28.8625 32.3667C28.9889 32.6212 29.1319 32.8616 29.2893 33.0859C28.9817 33.382 28.6622 33.6577 28.332 33.9119C28.2171 34.019 28.0564 34.0323 27.9288 33.9306C26.5368 32.8147 25.3687 31.468 24.448 30.0108C23.1798 28.0016 22.3799 25.7727 22.1064 23.6295C21.8287 21.4546 22.0897 19.3613 22.9466 17.6586C23.2842 16.9874 23.7165 16.3753 24.2442 15.8453C25.4529 14.6292 26.8372 13.9854 28.2103 14.0003C29.5336 14.0147 30.8445 14.6374 31.9773 15.9422C32.374 16.3988 32.7082 16.9194 32.981 17.4862C35.0285 20.5113 34.0849 28.4692 29.2893 33.0859C29.0641 33.0031 29.1013 32.4015 28.8625 32.3667C30.5776 30.7071 35.0285 25.9372 32.3728 17.9514C32.1332 17.4533 31.8384 17.001 31.4973 16.6083C30.5001 15.4598 29.3546 14.911 28.2044 14.8989C26.9961 14.8864 25.7694 15.4614 24.6874 16.5496C24.2256 17.0136 23.8466 17.5507 23.5499 18.141C22.789 19.6533 22.5595 21.5284 22.8097 23.4891C23.0637 25.4803 23.814 27.563 25.006 29.451C25.8366 30.7652 26.8818 31.986 28.1249 33.0171ZM29.6544 19.4465C29.2183 18.8966 28.6142 18.5541 27.948 18.5541C27.2816 18.5541 26.6774 18.8966 26.2414 19.4465C25.8053 19.9969 25.5343 20.7607 25.5343 21.6015C25.5343 22.4423 25.8053 23.2054 26.2414 23.7557C26.6774 24.3061 27.2816 24.6481 27.948 24.6481C28.6142 24.6481 29.2183 24.3061 29.6544 23.7557C30.0904 23.2054 30.3617 22.4423 30.3617 21.6015C30.3617 20.7607 30.0904 19.9969 29.6544 19.4465Z"/>
</mask>
<path d="M27.948 17.6539C28.8111 17.6539 29.5934 18.0964 30.1589 18.8102C30.7243 19.5239 31.0746 20.5117 31.0746 21.6015C31.0746 22.6913 30.7243 23.6787 30.1589 24.3921C29.5934 25.1059 28.8111 25.5484 27.948 25.5484C27.0846 25.5484 26.3024 25.1059 25.7369 24.3921C25.1714 23.6787 24.8211 22.6913 24.8211 21.6015C24.8211 20.5117 25.1714 19.5239 25.7369 18.8102C26.3024 18.0964 27.0846 17.6539 27.948 17.6539ZM28.1249 33.0171C28.3791 32.8131 28.625 32.5965 28.8625 32.3667C28.9889 32.6212 29.1319 32.8616 29.2893 33.0859C28.9817 33.382 28.6622 33.6577 28.332 33.9119C28.2171 34.019 28.0564 34.0323 27.9288 33.9306C26.5368 32.8147 25.3687 31.468 24.448 30.0108C23.1798 28.0016 22.3799 25.7727 22.1064 23.6295C21.8287 21.4546 22.0897 19.3613 22.9466 17.6586C23.2842 16.9874 23.7165 16.3753 24.2442 15.8453C25.4529 14.6292 26.8372 13.9854 28.2103 14.0003C29.5336 14.0147 30.8445 14.6374 31.9773 15.9422C32.374 16.3988 32.7082 16.9194 32.981 17.4862C35.0285 20.5113 34.0849 28.4692 29.2893 33.0859C29.0641 33.0031 29.1013 32.4015 28.8625 32.3667C30.5776 30.7071 35.0285 25.9372 32.3728 17.9514C32.1332 17.4533 31.8384 17.001 31.4973 16.6083C30.5001 15.4598 29.3546 14.911 28.2044 14.8989C26.9961 14.8864 25.7694 15.4614 24.6874 16.5496C24.2256 17.0136 23.8466 17.5507 23.5499 18.141C22.789 19.6533 22.5595 21.5284 22.8097 23.4891C23.0637 25.4803 23.814 27.563 25.006 29.451C25.8366 30.7652 26.8818 31.986 28.1249 33.0171ZM29.6544 19.4465C29.2183 18.8966 28.6142 18.5541 27.948 18.5541C27.2816 18.5541 26.6774 18.8966 26.2414 19.4465C25.8053 19.9969 25.5343 20.7607 25.5343 21.6015C25.5343 22.4423 25.8053 23.2054 26.2414 23.7557C26.6774 24.3061 27.2816 24.6481 27.948 24.6481C28.6142 24.6481 29.2183 24.3061 29.6544 23.7557C30.0904 23.2054 30.3617 22.4423 30.3617 21.6015C30.3617 20.7607 30.0904 19.9969 29.6544 19.4465Z" fill="white"/>
<path d="M30.1589 24.3921L22.3223 18.1802L22.3206 18.1823L30.1589 24.3921ZM25.7369 24.3921L33.5751 18.1823L33.5734 18.1802L25.7369 24.3921ZM28.1249 33.0171L21.7403 40.7137L28.0203 45.9232L34.3838 40.8162L28.1249 33.0171ZM28.332 33.9119L22.2318 25.9881L21.8582 26.2757L21.5133 26.5972L28.332 33.9119ZM27.9288 33.9306L21.6738 41.7329L21.686 41.7427L21.6983 41.7525L27.9288 33.9306ZM24.448 30.0108L15.9916 35.3483L15.9939 35.3521L24.448 30.0108ZM22.1064 23.6295L32.026 22.3639L32.0259 22.3625L22.1064 23.6295ZM22.9466 17.6586L31.8792 22.154L31.8803 22.1518L22.9466 17.6586ZM24.2442 15.8453L31.3309 22.9006L31.3367 22.8948L24.2442 15.8453ZM28.2103 14.0003L28.3196 4.00085L28.3185 4.00084L28.2103 14.0003ZM31.9773 15.9422L24.4262 22.4981L24.4288 22.5011L31.9773 15.9422ZM32.981 17.4862L23.9706 21.8235L24.2886 22.4842L24.6996 23.0914L32.981 17.4862ZM32.3728 17.9514L41.8618 14.7957L41.6608 14.1913L41.3848 13.6173L32.3728 17.9514ZM31.4973 16.6083L23.9465 23.1646L23.9478 23.1661L31.4973 16.6083ZM28.2044 14.8989L28.3098 4.89947L28.3079 4.89945L28.2044 14.8989ZM24.6874 16.5496L31.7756 23.6035L31.7786 23.6005L24.6874 16.5496ZM23.5499 18.141L32.483 22.6354L32.4847 22.6319L23.5499 18.141ZM22.8097 23.4891L32.7294 22.2241L32.7293 22.2232L22.8097 23.4891ZM25.006 29.451L16.5502 34.7895L16.5528 34.7936L25.006 29.451ZM29.6544 19.4465L37.4926 13.2367L37.4905 13.234L29.6544 19.4465ZM26.2414 19.4465L18.4053 13.234L18.4031 13.2367L26.2414 19.4465ZM27.948 27.6539C25.1863 27.6539 23.267 26.2146 22.3206 25.02L37.9971 12.6003C35.9197 9.97821 32.4359 7.65392 27.948 7.65392V27.6539ZM22.3206 25.02C21.3848 23.8388 21.0746 22.5974 21.0746 21.6015H41.0746C41.0746 18.426 40.0639 15.2091 37.9971 12.6003L22.3206 25.02ZM21.0746 21.6015C21.0746 20.6053 21.3851 19.3625 22.3223 18.1802L37.9954 30.604C40.0636 27.9949 41.0746 24.7774 41.0746 21.6015H21.0746ZM22.3206 18.1823C23.267 16.9877 25.1863 15.5484 27.948 15.5484V35.5484C32.4359 35.5484 35.9197 33.2241 37.9971 30.602L22.3206 18.1823ZM27.948 15.5484C30.7088 15.5484 32.6283 16.9871 33.5751 18.1823L17.8987 30.602C19.9765 33.2246 23.4604 35.5484 27.948 35.5484V15.5484ZM33.5734 18.1802C34.5107 19.3625 34.8211 20.6053 34.8211 21.6015H14.8211C14.8211 24.7774 15.8321 27.9949 17.9003 30.604L33.5734 18.1802ZM34.8211 21.6015C34.8211 22.5974 34.5109 23.8388 33.5751 25.02L17.8987 12.6003C15.8319 15.2091 14.8211 18.426 14.8211 21.6015H34.8211ZM33.5751 25.02C32.6283 26.2151 30.7088 27.6539 27.948 27.6539V7.65392C23.4604 7.65392 19.9765 9.97766 17.8987 12.6003L33.5751 25.02ZM34.3838 40.8162C34.8778 40.4198 35.3556 39.9989 35.8164 39.553L21.9086 25.1803C21.8943 25.1942 21.8804 25.2064 21.8659 25.2181L34.3838 40.8162ZM19.9058 36.8139C20.2535 37.5142 20.653 38.1874 21.1014 38.8269L37.4771 27.3449C37.6109 27.5357 37.7242 27.7282 37.8192 27.9195L19.9058 36.8139ZM22.3538 25.8818C22.3048 25.929 22.2636 25.9636 22.2318 25.9881L34.4323 41.8357C35.0609 41.3518 35.6587 40.835 36.2247 40.2901L22.3538 25.8818ZM21.5133 26.5972C23.0207 25.1919 25.1184 24.1549 27.5677 24.0157C30.063 23.8738 32.3888 24.6985 34.1593 26.1088L21.6983 41.7525C25.9452 45.1353 31.6456 44.4942 35.1508 41.2265L21.5133 26.5972ZM34.1839 26.1284C33.7187 25.7555 33.2755 25.2607 32.902 24.6695L15.9939 35.3521C17.4618 37.6754 19.3549 39.8738 21.6738 41.7329L34.1839 26.1284ZM32.9044 24.6733C32.3793 23.8414 32.1064 22.994 32.026 22.3639L12.1869 24.8951C12.6534 28.5515 13.9803 32.1618 15.9916 35.3483L32.9044 24.6733ZM32.0259 22.3625C32.0067 22.2128 32.0002 22.09 32 21.9957C31.9998 21.9013 32.0059 21.8431 32.0091 21.82C32.0162 21.7675 32.0064 21.9013 31.8792 22.154L14.014 13.1632C12.061 17.0441 11.72 21.2398 12.187 24.8964L32.0259 22.3625ZM31.8803 22.1518C31.773 22.3653 31.5981 22.6323 31.3309 22.9006L17.1575 8.78989C15.8349 10.1183 14.7954 11.6096 14.0129 13.1654L31.8803 22.1518ZM31.3367 22.8948C31.1432 23.0895 30.0658 24.0209 28.1022 23.9997L28.3185 4.00084C23.6085 3.94989 19.7626 6.16889 17.1517 8.7957L31.3367 22.8948ZM28.101 23.9997C27.1907 23.9897 26.3484 23.7627 25.657 23.4135C24.9858 23.0745 24.5952 22.6928 24.4262 22.4981L39.5285 9.38627C36.8626 6.31572 32.984 4.05183 28.3196 4.00085L28.101 23.9997ZM24.4288 22.5011C24.1808 22.2158 24.0417 21.9713 23.9706 21.8235L41.9915 13.1489C41.3747 11.8676 40.5672 10.5818 39.5259 9.38327L24.4288 22.5011ZM24.6996 23.0914C24.2989 22.4994 24.1261 22.0239 24.0595 21.8099C23.9892 21.5842 23.986 21.4861 23.9921 21.5471C24.0062 21.6878 24.0156 22.1175 23.8895 22.7585C23.6198 24.1291 22.9838 25.2753 22.3538 25.8818L36.2247 40.2901C40.3903 36.2798 42.624 31.1387 43.5132 26.6199C43.9665 24.3162 44.1276 21.9007 43.8926 19.5543C43.6705 17.3369 43.0229 14.482 41.2624 11.881L24.6996 23.0914ZM32.7435 23.7014C34.6652 24.4088 35.9848 25.5654 36.8023 26.5174C37.5803 27.4233 38.0158 28.2692 38.2283 28.7259C38.451 29.2048 38.5791 29.5885 38.6256 29.731C38.6683 29.8619 38.7069 29.9958 38.6725 29.8792C38.6611 29.8406 38.5866 29.5839 38.4819 29.2848C38.3801 28.9939 38.1679 28.4205 37.8082 27.7509C37.4608 27.104 36.787 26.0071 35.6102 24.9536C34.9987 24.4061 34.2373 23.8581 33.3139 23.4044C32.3807 22.9459 31.3669 22.626 30.3043 22.4712L27.4207 42.2622C26.388 42.1117 25.4019 41.8006 24.4945 41.3548C23.5969 40.9138 22.8594 40.3823 22.2701 39.8547C21.6877 39.3333 21.247 38.8135 20.9223 38.373C20.598 37.9331 20.359 37.5311 20.1883 37.2133C19.8623 36.6062 19.6792 36.1047 19.6043 35.8906C19.5265 35.6683 19.4766 35.4934 19.4895 35.5373C19.5053 35.5908 19.4782 35.4991 19.4984 35.5675C19.5033 35.584 19.5112 35.611 19.5207 35.6425C19.539 35.7034 19.5704 35.8069 19.6109 35.9312C19.6834 36.1536 19.8394 36.6136 20.0941 37.161C20.3384 37.6863 20.8099 38.5932 21.6298 39.5479C22.4894 40.5488 23.8571 41.7424 25.8351 42.4704L32.7435 23.7014ZM35.8164 39.553C38.3596 37.0921 46.3958 28.4293 41.8618 14.7957L22.8838 21.1071C23.1814 22.002 23.2097 22.5797 23.1957 22.8974C23.1813 23.2209 23.1138 23.4735 23.0204 23.6986C22.802 24.2248 22.4076 24.6976 21.9086 25.1803L35.8164 39.553ZM41.3848 13.6173C40.7831 12.3663 40.0078 11.1568 39.0468 10.0505L23.9478 23.1661C23.669 22.8452 23.4833 22.5402 23.3608 22.2855L41.3848 13.6173ZM39.0481 10.052C36.55 7.17491 32.8451 4.94725 28.3098 4.89947L28.0991 24.8984C27.0778 24.8876 26.141 24.6307 25.3736 24.2402C24.6279 23.8608 24.1721 23.4244 23.9465 23.1646L39.0481 10.052ZM28.3079 4.89945C23.7246 4.852 20.0431 7.03779 17.5961 9.49882L31.7786 23.6005C31.4957 23.885 30.2676 24.9208 28.1009 24.8984L28.3079 4.89945ZM17.5991 9.49577C16.3405 10.7606 15.355 12.1778 14.615 13.65L32.4847 22.6319C32.3381 22.9236 32.1108 23.2667 31.7756 23.6035L17.5991 9.49577ZM14.6168 13.6466C12.7477 17.3616 12.4554 21.3485 12.8902 24.7551L32.7293 22.2232C32.7019 22.009 32.7184 21.9279 32.7117 21.9773C32.7051 22.0268 32.6656 22.2723 32.483 22.6354L14.6168 13.6466ZM12.8901 24.7542C13.3392 28.2755 14.624 31.7385 16.5502 34.7895L33.4618 24.1125C33.0041 23.3876 32.7882 22.6852 32.7294 22.2241L12.8901 24.7542ZM16.5528 34.7936C17.908 36.9378 19.6367 38.9687 21.7403 40.7137L34.5094 25.3206C34.1269 25.0032 33.7652 24.5926 33.4593 24.1085L16.5528 34.7936ZM37.4905 13.234C35.5465 10.782 32.243 8.55414 27.948 8.55414V28.5541C24.9853 28.5541 22.8902 27.0111 21.8183 25.6591L37.4905 13.234ZM27.948 8.55414C23.6535 8.55414 20.3498 10.7813 18.4053 13.234L34.0774 25.6591C33.005 27.0118 30.9097 28.5541 27.948 28.5541V8.55414ZM18.4031 13.2367C16.4663 15.6814 15.5343 18.6741 15.5343 21.6015H35.5343C35.5343 22.8473 35.1443 24.3125 34.0796 25.6564L18.4031 13.2367ZM15.5343 21.6015C15.5343 24.5313 16.4677 27.5226 18.4031 29.9656L34.0796 17.5459C35.1429 18.8881 35.5343 20.3534 35.5343 21.6015H15.5343ZM18.4031 29.9656C20.3507 32.4239 23.6563 34.6481 27.948 34.6481V14.6481C30.9069 14.6481 33.0041 16.1883 34.0796 17.5459L18.4031 29.9656ZM27.948 34.6481C32.2402 34.6481 35.5456 32.4232 37.4926 29.9656L21.8162 17.5459C22.8911 16.189 24.9881 14.6481 27.948 14.6481V34.6481ZM37.4926 29.9656C39.4264 27.5247 40.3617 24.5341 40.3617 21.6015H20.3617C20.3617 20.3506 20.7544 18.886 21.8162 17.5459L37.4926 29.9656ZM40.3617 21.6015C40.3617 18.6713 39.4278 15.6793 37.4926 13.2367L21.8162 25.6564C20.753 24.3145 20.3617 22.8501 20.3617 21.6015H40.3617Z" fill="white" mask="url(#path-3-inside-1_936_527)"/>
</g>
<g style="mix-blend-mode:color-dodge">
<mask id="path-5-inside-2_936_527" fill="white">
<path d="M43.948 19.6539C44.8111 19.6539 45.5934 20.0964 46.1589 20.8102C46.7243 21.5239 47.0746 22.5117 47.0746 23.6015C47.0746 24.6913 46.7243 25.6787 46.1589 26.3921C45.5934 27.1059 44.8111 27.5484 43.948 27.5484C43.0846 27.5484 42.3024 27.1059 41.7369 26.3921C41.1714 25.6787 40.8211 24.6913 40.8211 23.6015C40.8211 22.5117 41.1714 21.5239 41.7369 20.8102C42.3024 20.0964 43.0846 19.6539 43.948 19.6539ZM44.1249 35.0171C44.3791 34.8131 44.625 34.5965 44.8625 34.3667C44.9889 34.6212 45.1319 34.8616 45.2893 35.0859C44.9817 35.382 44.6622 35.6577 44.332 35.9119C44.2171 36.019 44.0564 36.0323 43.9288 35.9306C42.5368 34.8147 41.3687 33.468 40.448 32.0108C39.1798 30.0016 38.3799 27.7727 38.1064 25.6295C37.8287 23.4546 38.0897 21.3613 38.9466 19.6586C39.2842 18.9874 39.7165 18.3753 40.2442 17.8453C41.4529 16.6292 42.8372 15.9854 44.2103 16.0003C45.5336 16.0147 46.8445 16.6374 47.9773 17.9422C48.374 18.3988 48.7082 18.9194 48.981 19.4862C51.0285 22.5113 50.0849 30.4692 45.2893 35.0859C45.0641 35.0031 45.1013 34.4015 44.8625 34.3667C46.5776 32.7071 51.0285 27.9372 48.3728 19.9514C48.1332 19.4533 47.8384 19.001 47.4973 18.6083C46.5001 17.4598 45.3546 16.911 44.2044 16.8989C42.9961 16.8864 41.7694 17.4614 40.6874 18.5496C40.2256 19.0136 39.8466 19.5507 39.5499 20.141C38.789 21.6533 38.5595 23.5284 38.8097 25.4891C39.0637 27.4803 39.814 29.563 41.006 31.451C41.8366 32.7652 42.8818 33.986 44.1249 35.0171ZM45.6544 21.4465C45.2183 20.8966 44.6142 20.5541 43.948 20.5541C43.2816 20.5541 42.6774 20.8966 42.2414 21.4465C41.8053 21.9969 41.5343 22.7607 41.5343 23.6015C41.5343 24.4423 41.8053 25.2054 42.2414 25.7557C42.6774 26.3061 43.2816 26.6481 43.948 26.6481C44.6142 26.6481 45.2183 26.3061 45.6544 25.7557C46.0904 25.2054 46.3617 24.4423 46.3617 23.6015C46.3617 22.7607 46.0904 21.9969 45.6544 21.4465Z"/>
</mask>
<path d="M43.948 19.6539C44.8111 19.6539 45.5934 20.0964 46.1589 20.8102C46.7243 21.5239 47.0746 22.5117 47.0746 23.6015C47.0746 24.6913 46.7243 25.6787 46.1589 26.3921C45.5934 27.1059 44.8111 27.5484 43.948 27.5484C43.0846 27.5484 42.3024 27.1059 41.7369 26.3921C41.1714 25.6787 40.8211 24.6913 40.8211 23.6015C40.8211 22.5117 41.1714 21.5239 41.7369 20.8102C42.3024 20.0964 43.0846 19.6539 43.948 19.6539ZM44.1249 35.0171C44.3791 34.8131 44.625 34.5965 44.8625 34.3667C44.9889 34.6212 45.1319 34.8616 45.2893 35.0859C44.9817 35.382 44.6622 35.6577 44.332 35.9119C44.2171 36.019 44.0564 36.0323 43.9288 35.9306C42.5368 34.8147 41.3687 33.468 40.448 32.0108C39.1798 30.0016 38.3799 27.7727 38.1064 25.6295C37.8287 23.4546 38.0897 21.3613 38.9466 19.6586C39.2842 18.9874 39.7165 18.3753 40.2442 17.8453C41.4529 16.6292 42.8372 15.9854 44.2103 16.0003C45.5336 16.0147 46.8445 16.6374 47.9773 17.9422C48.374 18.3988 48.7082 18.9194 48.981 19.4862C51.0285 22.5113 50.0849 30.4692 45.2893 35.0859C45.0641 35.0031 45.1013 34.4015 44.8625 34.3667C46.5776 32.7071 51.0285 27.9372 48.3728 19.9514C48.1332 19.4533 47.8384 19.001 47.4973 18.6083C46.5001 17.4598 45.3546 16.911 44.2044 16.8989C42.9961 16.8864 41.7694 17.4614 40.6874 18.5496C40.2256 19.0136 39.8466 19.5507 39.5499 20.141C38.789 21.6533 38.5595 23.5284 38.8097 25.4891C39.0637 27.4803 39.814 29.563 41.006 31.451C41.8366 32.7652 42.8818 33.986 44.1249 35.0171ZM45.6544 21.4465C45.2183 20.8966 44.6142 20.5541 43.948 20.5541C43.2816 20.5541 42.6774 20.8966 42.2414 21.4465C41.8053 21.9969 41.5343 22.7607 41.5343 23.6015C41.5343 24.4423 41.8053 25.2054 42.2414 25.7557C42.6774 26.3061 43.2816 26.6481 43.948 26.6481C44.6142 26.6481 45.2183 26.3061 45.6544 25.7557C46.0904 25.2054 46.3617 24.4423 46.3617 23.6015C46.3617 22.7607 46.0904 21.9969 45.6544 21.4465Z" fill="white"/>
<path d="M46.1589 26.3921L38.3223 20.1802L38.3206 20.1823L46.1589 26.3921ZM41.7369 26.3921L49.5751 20.1823L49.5734 20.1802L41.7369 26.3921ZM44.1249 35.0171L37.7403 42.7137L44.0203 47.9232L50.3838 42.8162L44.1249 35.0171ZM44.332 35.9119L38.2318 27.9881L37.8582 28.2757L37.5133 28.5972L44.332 35.9119ZM43.9288 35.9306L37.6738 43.7329L37.686 43.7427L37.6983 43.7525L43.9288 35.9306ZM40.448 32.0108L31.9916 37.3483L31.9939 37.3521L40.448 32.0108ZM38.1064 25.6295L48.026 24.3639L48.0259 24.3625L38.1064 25.6295ZM38.9466 19.6586L47.8792 24.154L47.8803 24.1518L38.9466 19.6586ZM40.2442 17.8453L47.3309 24.9006L47.3367 24.8948L40.2442 17.8453ZM44.2103 16.0003L44.3196 6.00085L44.3185 6.00084L44.2103 16.0003ZM47.9773 17.9422L40.4262 24.4981L40.4288 24.5011L47.9773 17.9422ZM48.981 19.4862L39.9706 23.8235L40.2886 24.4842L40.6996 25.0914L48.981 19.4862ZM48.3728 19.9514L57.8618 16.7957L57.6608 16.1913L57.3848 15.6173L48.3728 19.9514ZM47.4973 18.6083L39.9465 25.1646L39.9478 25.1661L47.4973 18.6083ZM44.2044 16.8989L44.3098 6.89947L44.3079 6.89945L44.2044 16.8989ZM40.6874 18.5496L47.7756 25.6035L47.7786 25.6005L40.6874 18.5496ZM39.5499 20.141L48.483 24.6354L48.4847 24.6319L39.5499 20.141ZM38.8097 25.4891L48.7294 24.2241L48.7293 24.2232L38.8097 25.4891ZM41.006 31.451L32.5502 36.7895L32.5528 36.7936L41.006 31.451ZM45.6544 21.4465L53.4926 15.2367L53.4905 15.234L45.6544 21.4465ZM42.2414 21.4465L34.4053 15.234L34.4031 15.2367L42.2414 21.4465ZM43.948 29.6539C41.1863 29.6539 39.267 28.2146 38.3206 27.02L53.9971 14.6003C51.9197 11.9782 48.4359 9.65392 43.948 9.65392V29.6539ZM38.3206 27.02C37.3848 25.8388 37.0746 24.5974 37.0746 23.6015H57.0746C57.0746 20.426 56.0639 17.2091 53.9971 14.6003L38.3206 27.02ZM37.0746 23.6015C37.0746 22.6053 37.3851 21.3625 38.3223 20.1802L53.9954 32.604C56.0636 29.9949 57.0746 26.7774 57.0746 23.6015H37.0746ZM38.3206 20.1823C39.267 18.9877 41.1863 17.5484 43.948 17.5484V37.5484C48.4359 37.5484 51.9197 35.2241 53.9971 32.602L38.3206 20.1823ZM43.948 17.5484C46.7088 17.5484 48.6283 18.9871 49.5751 20.1823L33.8987 32.602C35.9765 35.2246 39.4604 37.5484 43.948 37.5484V17.5484ZM49.5734 20.1802C50.5107 21.3625 50.8211 22.6053 50.8211 23.6015H30.8211C30.8211 26.7774 31.8321 29.9949 33.9003 32.604L49.5734 20.1802ZM50.8211 23.6015C50.8211 24.5974 50.5109 25.8388 49.5751 27.02L33.8987 14.6003C31.8319 17.2091 30.8211 20.426 30.8211 23.6015H50.8211ZM49.5751 27.02C48.6283 28.2151 46.7088 29.6539 43.948 29.6539V9.65392C39.4604 9.65392 35.9765 11.9777 33.8987 14.6003L49.5751 27.02ZM50.3838 42.8162C50.8778 42.4198 51.3556 41.9989 51.8164 41.553L37.9086 27.1803C37.8943 27.1942 37.8804 27.2064 37.8659 27.2181L50.3838 42.8162ZM35.9058 38.8139C36.2535 39.5142 36.653 40.1874 37.1014 40.8269L53.4771 29.3449C53.6109 29.5357 53.7242 29.7282 53.8192 29.9195L35.9058 38.8139ZM38.3538 27.8818C38.3048 27.929 38.2636 27.9636 38.2318 27.9881L50.4323 43.8357C51.0609 43.3518 51.6587 42.835 52.2247 42.2901L38.3538 27.8818ZM37.5133 28.5972C39.0207 27.1919 41.1184 26.1549 43.5677 26.0157C46.063 25.8738 48.3888 26.6985 50.1593 28.1088L37.6983 43.7525C41.9452 47.1353 47.6456 46.4942 51.1508 43.2265L37.5133 28.5972ZM50.1839 28.1284C49.7187 27.7555 49.2755 27.2607 48.902 26.6695L31.9939 37.3521C33.4618 39.6754 35.3549 41.8738 37.6738 43.7329L50.1839 28.1284ZM48.9044 26.6733C48.3793 25.8414 48.1064 24.994 48.026 24.3639L28.1869 26.8951C28.6534 30.5515 29.9803 34.1618 31.9916 37.3483L48.9044 26.6733ZM48.0259 24.3625C48.0067 24.2128 48.0002 24.09 48 23.9957C47.9998 23.9013 48.0059 23.8431 48.0091 23.82C48.0162 23.7675 48.0064 23.9013 47.8792 24.154L30.014 15.1632C28.061 19.0441 27.72 23.2398 28.187 26.8964L48.0259 24.3625ZM47.8803 24.1518C47.773 24.3653 47.5981 24.6323 47.3309 24.9006L33.1575 10.7899C31.8349 12.1183 30.7954 13.6096 30.0129 15.1654L47.8803 24.1518ZM47.3367 24.8948C47.1432 25.0895 46.0658 26.0209 44.1022 25.9997L44.3185 6.00084C39.6085 5.94989 35.7626 8.16889 33.1517 10.7957L47.3367 24.8948ZM44.101 25.9997C43.1907 25.9897 42.3484 25.7627 41.657 25.4135C40.9858 25.0745 40.5952 24.6928 40.4262 24.4981L55.5285 11.3863C52.8626 8.31572 48.984 6.05183 44.3196 6.00085L44.101 25.9997ZM40.4288 24.5011C40.1808 24.2158 40.0417 23.9713 39.9706 23.8235L57.9915 15.1489C57.3747 13.8676 56.5672 12.5818 55.5259 11.3833L40.4288 24.5011ZM40.6996 25.0914C40.2989 24.4994 40.1261 24.0239 40.0595 23.8099C39.9892 23.5842 39.986 23.4861 39.9921 23.5471C40.0062 23.6878 40.0156 24.1175 39.8895 24.7585C39.6198 26.1291 38.9838 27.2753 38.3538 27.8818L52.2247 42.2901C56.3903 38.2798 58.624 33.1387 59.5132 28.6199C59.9665 26.3162 60.1276 23.9007 59.8926 21.5543C59.6705 19.3369 59.0229 16.482 57.2624 13.881L40.6996 25.0914ZM48.7435 25.7014C50.6652 26.4088 51.9848 27.5654 52.8023 28.5174C53.5803 29.4233 54.0158 30.2692 54.2283 30.7259C54.451 31.2048 54.5791 31.5885 54.6256 31.731C54.6683 31.8619 54.7069 31.9958 54.6725 31.8792C54.6611 31.8406 54.5866 31.5839 54.4819 31.2848C54.3801 30.9939 54.1679 30.4205 53.8082 29.7509C53.4608 29.104 52.787 28.0071 51.6102 26.9536C50.9987 26.4061 50.2373 25.8581 49.3139 25.4044C48.3807 24.9459 47.3669 24.626 46.3043 24.4712L43.4207 44.2622C42.388 44.1117 41.4019 43.8006 40.4945 43.3548C39.5969 42.9138 38.8594 42.3823 38.2701 41.8547C37.6877 41.3333 37.247 40.8135 36.9223 40.373C36.598 39.9331 36.359 39.5311 36.1883 39.2133C35.8623 38.6062 35.6792 38.1047 35.6043 37.8906C35.5265 37.6683 35.4766 37.4934 35.4895 37.5373C35.5053 37.5908 35.4782 37.4991 35.4984 37.5675C35.5033 37.584 35.5112 37.611 35.5207 37.6425C35.539 37.7034 35.5704 37.8069 35.6109 37.9312C35.6834 38.1536 35.8394 38.6136 36.0941 39.161C36.3384 39.6863 36.8099 40.5932 37.6298 41.5479C38.4894 42.5488 39.8571 43.7424 41.8351 44.4704L48.7435 25.7014ZM51.8164 41.553C54.3596 39.0921 62.3958 30.4293 57.8618 16.7957L38.8838 23.1071C39.1814 24.002 39.2097 24.5797 39.1957 24.8974C39.1813 25.2209 39.1138 25.4735 39.0204 25.6986C38.802 26.2248 38.4076 26.6976 37.9086 27.1803L51.8164 41.553ZM57.3848 15.6173C56.7831 14.3663 56.0078 13.1568 55.0468 12.0505L39.9478 25.1661C39.669 24.8452 39.4833 24.5402 39.3608 24.2855L57.3848 15.6173ZM55.0481 12.052C52.55 9.17491 48.8451 6.94725 44.3098 6.89947L44.0991 26.8984C43.0778 26.8876 42.141 26.6307 41.3736 26.2402C40.6279 25.8608 40.1721 25.4244 39.9465 25.1646L55.0481 12.052ZM44.3079 6.89945C39.7246 6.852 36.0431 9.03779 33.5961 11.4988L47.7786 25.6005C47.4957 25.885 46.2676 26.9208 44.1009 26.8984L44.3079 6.89945ZM33.5991 11.4958C32.3405 12.7606 31.355 14.1778 30.615 15.65L48.4847 24.6319C48.3381 24.9236 48.1108 25.2667 47.7756 25.6035L33.5991 11.4958ZM30.6168 15.6466C28.7477 19.3616 28.4554 23.3485 28.8902 26.7551L48.7293 24.2232C48.7019 24.009 48.7184 23.9279 48.7117 23.9773C48.7051 24.0268 48.6656 24.2723 48.483 24.6354L30.6168 15.6466ZM28.8901 26.7542C29.3392 30.2755 30.624 33.7385 32.5502 36.7895L49.4618 26.1125C49.0041 25.3876 48.7882 24.6852 48.7294 24.2241L28.8901 26.7542ZM32.5528 36.7936C33.908 38.9378 35.6367 40.9687 37.7403 42.7137L50.5094 27.3206C50.1269 27.0032 49.7652 26.5926 49.4593 26.1085L32.5528 36.7936ZM53.4905 15.234C51.5465 12.782 48.243 10.5541 43.948 10.5541V30.5541C40.9853 30.5541 38.8902 29.0111 37.8183 27.6591L53.4905 15.234ZM43.948 10.5541C39.6535 10.5541 36.3498 12.7813 34.4053 15.234L50.0774 27.6591C49.005 29.0118 46.9097 30.5541 43.948 30.5541V10.5541ZM34.4031 15.2367C32.4663 17.6814 31.5343 20.6741 31.5343 23.6015H51.5343C51.5343 24.8473 51.1443 26.3125 50.0796 27.6564L34.4031 15.2367ZM31.5343 23.6015C31.5343 26.5313 32.4677 29.5226 34.4031 31.9656L50.0796 19.5459C51.1429 20.8881 51.5343 22.3534 51.5343 23.6015H31.5343ZM34.4031 31.9656C36.3507 34.4239 39.6563 36.6481 43.948 36.6481V16.6481C46.9069 16.6481 49.0041 18.1883 50.0796 19.5459L34.4031 31.9656ZM43.948 36.6481C48.2402 36.6481 51.5456 34.4232 53.4926 31.9656L37.8162 19.5459C38.8911 18.189 40.9881 16.6481 43.948 16.6481V36.6481ZM53.4926 31.9656C55.4264 29.5247 56.3617 26.5341 56.3617 23.6015H36.3617C36.3617 22.3506 36.7544 20.886 37.8162 19.5459L53.4926 31.9656ZM56.3617 23.6015C56.3617 20.6713 55.4278 17.6793 53.4926 15.2367L37.8162 27.6564C36.753 26.3145 36.3617 24.8501 36.3617 23.6015H56.3617Z" fill="white" mask="url(#path-5-inside-2_936_527)"/>
</g>
<g style="mix-blend-mode:color-dodge">
<mask id="path-7-inside-3_936_527" fill="white">
<path d="M11.948 19.6539C12.8111 19.6539 13.5934 20.0964 14.1589 20.8102C14.7243 21.5239 15.0746 22.5117 15.0746 23.6015C15.0746 24.6913 14.7243 25.6787 14.1589 26.3921C13.5934 27.1059 12.8111 27.5484 11.948 27.5484C11.0846 27.5484 10.3024 27.1059 9.73688 26.3921C9.17139 25.6787 8.82114 24.6913 8.82114 23.6015C8.82114 22.5117 9.17139 21.5239 9.73688 20.8102C10.3024 20.0964 11.0846 19.6539 11.948 19.6539ZM12.1249 35.0171C12.3791 34.8131 12.625 34.5965 12.8625 34.3667C12.9889 34.6212 13.1319 34.8616 13.2893 35.0859C12.9817 35.382 12.6622 35.6577 12.332 35.9119C12.2171 36.019 12.0564 36.0323 11.9288 35.9306C10.5368 34.8147 9.36866 33.468 8.44797 32.0108C7.17981 30.0016 6.3799 27.7727 6.10645 25.6295C5.82866 23.4546 6.08972 21.3613 6.94662 19.6586C7.28418 18.9874 7.7165 18.3753 8.2442 17.8453C9.4529 16.6292 10.8372 15.9854 12.2103 16.0003C13.5336 16.0147 14.8445 16.6374 15.9773 17.9422C16.374 18.3988 16.7082 18.9194 16.981 19.4862C19.0285 22.5113 18.0849 30.4692 13.2893 35.0859C13.0641 35.0031 13.1013 34.4015 12.8625 34.3667C14.5776 32.7071 19.0285 27.9372 16.3728 19.9514C16.1332 19.4533 15.8384 19.001 15.4973 18.6083C14.5001 17.4598 13.3546 16.911 12.2044 16.8989C10.9961 16.8864 9.76939 17.4614 8.68736 18.5496C8.22562 19.0136 7.84656 19.5507 7.54989 20.141C6.78899 21.6533 6.55951 23.5284 6.80974 25.4891C7.06368 27.4803 7.81405 29.563 9.00602 31.451C9.83659 32.7652 10.8818 33.986 12.1249 35.0171ZM13.6544 21.4465C13.2183 20.8966 12.6142 20.5541 11.948 20.5541C11.2816 20.5541 10.6774 20.8966 10.2414 21.4465C9.80532 21.9969 9.53434 22.7607 9.53434 23.6015C9.53434 24.4423 9.80532 25.2054 10.2414 25.7557C10.6774 26.3061 11.2816 26.6481 11.948 26.6481C12.6142 26.6481 13.2183 26.3061 13.6544 25.7557C14.0904 25.2054 14.3617 24.4423 14.3617 23.6015C14.3617 22.7607 14.0904 21.9969 13.6544 21.4465Z"/>
</mask>
<path d="M11.948 19.6539C12.8111 19.6539 13.5934 20.0964 14.1589 20.8102C14.7243 21.5239 15.0746 22.5117 15.0746 23.6015C15.0746 24.6913 14.7243 25.6787 14.1589 26.3921C13.5934 27.1059 12.8111 27.5484 11.948 27.5484C11.0846 27.5484 10.3024 27.1059 9.73688 26.3921C9.17139 25.6787 8.82114 24.6913 8.82114 23.6015C8.82114 22.5117 9.17139 21.5239 9.73688 20.8102C10.3024 20.0964 11.0846 19.6539 11.948 19.6539ZM12.1249 35.0171C12.3791 34.8131 12.625 34.5965 12.8625 34.3667C12.9889 34.6212 13.1319 34.8616 13.2893 35.0859C12.9817 35.382 12.6622 35.6577 12.332 35.9119C12.2171 36.019 12.0564 36.0323 11.9288 35.9306C10.5368 34.8147 9.36866 33.468 8.44797 32.0108C7.17981 30.0016 6.3799 27.7727 6.10645 25.6295C5.82866 23.4546 6.08972 21.3613 6.94662 19.6586C7.28418 18.9874 7.7165 18.3753 8.2442 17.8453C9.4529 16.6292 10.8372 15.9854 12.2103 16.0003C13.5336 16.0147 14.8445 16.6374 15.9773 17.9422C16.374 18.3988 16.7082 18.9194 16.981 19.4862C19.0285 22.5113 18.0849 30.4692 13.2893 35.0859C13.0641 35.0031 13.1013 34.4015 12.8625 34.3667C14.5776 32.7071 19.0285 27.9372 16.3728 19.9514C16.1332 19.4533 15.8384 19.001 15.4973 18.6083C14.5001 17.4598 13.3546 16.911 12.2044 16.8989C10.9961 16.8864 9.76939 17.4614 8.68736 18.5496C8.22562 19.0136 7.84656 19.5507 7.54989 20.141C6.78899 21.6533 6.55951 23.5284 6.80974 25.4891C7.06368 27.4803 7.81405 29.563 9.00602 31.451C9.83659 32.7652 10.8818 33.986 12.1249 35.0171ZM13.6544 21.4465C13.2183 20.8966 12.6142 20.5541 11.948 20.5541C11.2816 20.5541 10.6774 20.8966 10.2414 21.4465C9.80532 21.9969 9.53434 22.7607 9.53434 23.6015C9.53434 24.4423 9.80532 25.2054 10.2414 25.7557C10.6774 26.3061 11.2816 26.6481 11.948 26.6481C12.6142 26.6481 13.2183 26.3061 13.6544 25.7557C14.0904 25.2054 14.3617 24.4423 14.3617 23.6015C14.3617 22.7607 14.0904 21.9969 13.6544 21.4465Z" fill="white"/>
<path d="M14.1589 26.3921L6.32229 20.1802L6.32064 20.1823L14.1589 26.3921ZM9.73688 26.3921L17.5751 20.1823L17.5734 20.1802L9.73688 26.3921ZM12.1249 35.0171L5.74029 42.7137L12.0203 47.9232L18.3838 42.8162L12.1249 35.0171ZM12.332 35.9119L6.23179 27.9881L5.85816 28.2757L5.51325 28.5972L12.332 35.9119ZM11.9288 35.9306L5.67378 43.7329L5.68605 43.7427L5.69835 43.7525L11.9288 35.9306ZM8.44797 32.0108L-0.00843477 37.3483L-0.00605546 37.3521L8.44797 32.0108ZM6.10645 25.6295L16.026 24.3639L16.0259 24.3625L6.10645 25.6295ZM6.94662 19.6586L15.8792 24.154L15.8803 24.1518L6.94662 19.6586ZM8.2442 17.8453L15.3309 24.9006L15.3367 24.8948L8.2442 17.8453ZM12.2103 16.0003L12.3196 6.00085L12.3185 6.00084L12.2103 16.0003ZM15.9773 17.9422L8.42618 24.4981L8.42879 24.5011L15.9773 17.9422ZM16.981 19.4862L7.97058 23.8235L8.28861 24.4842L8.69961 25.0914L16.981 19.4862ZM16.3728 19.9514L25.8618 16.7957L25.6608 16.1913L25.3848 15.6173L16.3728 19.9514ZM15.4973 18.6083L7.94652 25.1646L7.94778 25.1661L15.4973 18.6083ZM12.2044 16.8989L12.3098 6.89947L12.3079 6.89945L12.2044 16.8989ZM8.68736 18.5496L15.7756 25.6035L15.7786 25.6005L8.68736 18.5496ZM7.54989 20.141L16.483 24.6354L16.4847 24.6319L7.54989 20.141ZM6.80974 25.4891L16.7294 24.2241L16.7293 24.2232L6.80974 25.4891ZM9.00602 31.451L0.550227 36.7895L0.552783 36.7936L9.00602 31.451ZM13.6544 21.4465L21.4926 15.2367L21.4905 15.234L13.6544 21.4465ZM10.2414 21.4465L2.40528 15.234L2.40313 15.2367L10.2414 21.4465ZM11.948 29.6539C9.18631 29.6539 7.26705 28.2146 6.32064 27.02L21.9971 14.6003C19.9197 11.9782 16.4359 9.65392 11.948 9.65392V29.6539ZM6.32064 27.02C5.38482 25.8388 5.0746 24.5974 5.0746 23.6015H25.0746C25.0746 20.426 24.0639 17.2091 21.9971 14.6003L6.32064 27.02ZM5.0746 23.6015C5.0746 22.6053 5.38506 21.3625 6.32229 20.1802L21.9954 32.604C24.0636 29.9949 25.0746 26.7774 25.0746 23.6015H5.0746ZM6.32064 20.1823C7.26704 18.9877 9.1863 17.5484 11.948 17.5484V37.5484C16.4359 37.5484 19.9197 35.2241 21.9971 32.602L6.32064 20.1823ZM11.948 17.5484C14.7088 17.5484 16.6283 18.9871 17.5751 20.1823L1.89865 32.602C3.97645 35.2246 7.4604 37.5484 11.948 37.5484V17.5484ZM17.5734 20.1802C18.5107 21.3625 18.8211 22.6053 18.8211 23.6015H-1.17886C-1.17886 26.7774 -0.16789 29.9949 1.90031 32.604L17.5734 20.1802ZM18.8211 23.6015C18.8211 24.5974 18.5109 25.8388 17.5751 27.02L1.89865 14.6003C-0.168131 17.2091 -1.17886 20.426 -1.17886 23.6015H18.8211ZM17.5751 27.02C16.6283 28.2151 14.7088 29.6539 11.948 29.6539V9.65392C7.46041 9.65392 3.97646 11.9777 1.89865 14.6003L17.5751 27.02ZM18.3838 42.8162C18.8778 42.4198 19.3556 41.9989 19.8164 41.553L5.90865 27.1803C5.89434 27.1942 5.88043 27.2064 5.86586 27.2181L18.3838 42.8162ZM3.90584 38.8139C4.25353 39.5142 4.65301 40.1874 5.1014 40.8269L21.4771 29.3449C21.6109 29.5357 21.7242 29.7282 21.8192 29.9195L3.90584 38.8139ZM6.35383 27.8818C6.3048 27.929 6.26355 27.9636 6.23179 27.9881L18.4323 43.8357C19.0609 43.3518 19.6587 42.835 20.2247 42.2901L6.35383 27.8818ZM5.51325 28.5972C7.02075 27.1919 9.11838 26.1549 11.5677 26.0157C14.063 25.8738 16.3888 26.6985 18.1593 28.1088L5.69835 43.7525C9.94518 47.1353 15.6456 46.4942 19.1508 43.2265L5.51325 28.5972ZM18.1839 28.1284C17.7187 27.7555 17.2755 27.2607 16.902 26.6695L-0.00605546 37.3521C1.46182 39.6754 3.35489 41.8738 5.67378 43.7329L18.1839 28.1284ZM16.9044 26.6733C16.3793 25.8414 16.1064 24.994 16.026 24.3639L-3.81314 26.8951C-3.34663 30.5515 -2.01969 34.1618 -0.00843393 37.3483L16.9044 26.6733ZM16.0259 24.3625C16.0067 24.2128 16.0002 24.09 16 23.9957C15.9998 23.9013 16.0059 23.8431 16.0091 23.82C16.0162 23.7675 16.0064 23.9013 15.8792 24.154L-1.986 15.1632C-3.93904 19.0441 -4.28 23.2398 -3.81297 26.8964L16.0259 24.3625ZM15.8803 24.1518C15.773 24.3653 15.5981 24.6323 15.3309 24.9006L1.15747 10.7899C-0.165088 12.1183 -1.20462 13.6096 -1.98711 15.1654L15.8803 24.1518ZM15.3367 24.8948C15.1432 25.0895 14.0658 26.0209 12.1022 25.9997L12.3185 6.00084C7.60855 5.94989 3.76259 8.16889 1.15169 10.7957L15.3367 24.8948ZM12.101 25.9997C11.1907 25.9897 10.3484 25.7627 9.65701 25.4135C8.98579 25.0745 8.5952 24.6928 8.42618 24.4981L23.5285 11.3863C20.8626 8.31572 16.984 6.05183 12.3196 6.00085L12.101 25.9997ZM8.42879 24.5011C8.18083 24.2158 8.0417 23.9713 7.97058 23.8235L25.9915 15.1489C25.3747 13.8676 24.5672 12.5818 23.5259 11.3833L8.42879 24.5011ZM8.69961 25.0914C8.2989 24.4994 8.12613 24.0239 8.05948 23.8099C7.98915 23.5842 7.98602 23.4861 7.99212 23.5471C8.00622 23.6878 8.01559 24.1175 7.88945 24.7585C7.61977 26.1291 6.98377 27.2753 6.35383 27.8818L20.2247 42.2901C24.3903 38.2798 26.624 33.1387 27.5132 28.6199C27.9665 26.3162 28.1276 23.9007 27.8926 21.5543C27.6705 19.3369 27.0229 16.482 25.2624 13.881L8.69961 25.0914ZM16.7435 25.7014C18.6652 26.4088 19.9848 27.5654 20.8023 28.5174C21.5803 29.4233 22.0158 30.2692 22.2283 30.7259C22.451 31.2048 22.5791 31.5885 22.6256 31.731C22.6683 31.8619 22.7069 31.9958 22.6725 31.8792C22.6611 31.8406 22.5866 31.5839 22.4819 31.2848C22.3801 30.9939 22.1679 30.4205 21.8082 29.7509C21.4608 29.104 20.787 28.0071 19.6102 26.9536C18.9987 26.4061 18.2373 25.8581 17.3139 25.4044C16.3807 24.9459 15.3669 24.626 14.3043 24.4712L11.4207 44.2622C10.388 44.1117 9.40187 43.8006 8.49446 43.3548C7.59689 42.9138 6.85942 42.3823 6.27014 41.8547C5.6877 41.3333 5.24705 40.8135 4.92231 40.373C4.59798 39.9331 4.35896 39.5311 4.18831 39.2133C3.86228 38.6062 3.67922 38.1047 3.6043 37.8906C3.52654 37.6683 3.47658 37.4934 3.48952 37.5373C3.5053 37.5908 3.47823 37.4991 3.49841 37.5675C3.50328 37.584 3.51124 37.611 3.52069 37.6425C3.53897 37.7034 3.57038 37.8069 3.61094 37.9312C3.68343 38.1536 3.83943 38.6136 4.09409 39.161C4.33842 39.6863 4.80985 40.5932 5.62983 41.5479C6.4894 42.5488 7.85708 43.7424 9.83506 44.4704L16.7435 25.7014ZM19.8164 41.553C22.3596 39.0921 30.3958 30.4293 25.8618 16.7957L6.88376 23.1071C7.18138 24.002 7.20971 24.5797 7.19566 24.8974C7.18135 25.2209 7.11377 25.4735 7.02037 25.6986C6.80203 26.2248 6.40757 26.6976 5.90865 27.1803L19.8164 41.553ZM25.3848 15.6173C24.7831 14.3663 24.0078 13.1568 23.0468 12.0505L7.94778 25.1661C7.66904 24.8452 7.48332 24.5402 7.36082 24.2855L25.3848 15.6173ZM23.0481 12.052C20.55 9.17491 16.8451 6.94725 12.3098 6.89947L12.0991 26.8984C11.0778 26.8876 10.141 26.6307 9.37359 26.2402C8.62792 25.8608 8.17206 25.4244 7.94652 25.1646L23.0481 12.052ZM12.3079 6.89945C7.72455 6.852 4.0431 9.03779 1.59611 11.4988L15.7786 25.6005C15.4957 25.885 14.2676 26.9208 12.1009 26.8984L12.3079 6.89945ZM1.59914 11.4958C0.340459 12.7606 -0.644982 14.1778 -1.38495 15.65L16.4847 24.6319C16.3381 24.9236 16.1108 25.2667 15.7756 25.6035L1.59914 11.4958ZM-1.38321 15.6466C-3.25234 19.3616 -3.54455 23.3485 -3.10981 26.7551L16.7293 24.2232C16.7019 24.009 16.7184 23.9279 16.7117 23.9773C16.7051 24.0268 16.6656 24.2723 16.483 24.6354L-1.38321 15.6466ZM-3.10992 26.7542C-2.66084 30.2755 -1.37603 33.7385 0.550228 36.7895L17.4618 26.1125C17.0041 25.3876 16.7882 24.6852 16.7294 24.2241L-3.10992 26.7542ZM0.552783 36.7936C1.90798 38.9378 3.63668 40.9687 5.74029 42.7137L18.5094 27.3206C18.1269 27.0032 17.7652 26.5926 17.4593 26.1085L0.552783 36.7936ZM21.4905 15.234C19.5465 12.782 16.243 10.5541 11.948 10.5541V30.5541C8.98528 30.5541 6.89017 29.0111 5.81831 27.6591L21.4905 15.234ZM11.948 10.5541C7.65347 10.5541 4.34977 12.7813 2.40528 15.234L18.0774 27.6591C17.005 29.0118 14.9097 30.5541 11.948 30.5541V10.5541ZM2.40313 15.2367C0.466332 17.6814 -0.465657 20.6741 -0.465657 23.6015H19.5343C19.5343 24.8473 19.1443 26.3125 18.0796 27.6564L2.40313 15.2367ZM-0.465657 23.6015C-0.465657 26.5313 0.467705 29.5226 2.40313 31.9656L18.0796 19.5459C19.1429 20.8881 19.5343 22.3534 19.5343 23.6015H-0.465657ZM2.40313 31.9656C4.35072 34.4239 7.65631 36.6481 11.948 36.6481V16.6481C14.9069 16.6481 17.0041 18.1883 18.0796 19.5459L2.40313 31.9656ZM11.948 36.6481C16.2402 36.6481 19.5456 34.4232 21.4926 31.9656L5.81616 19.5459C6.89112 18.189 8.98813 16.6481 11.948 16.6481V36.6481ZM21.4926 31.9656C23.4264 29.5247 24.3617 26.5341 24.3617 23.6015H4.3617C4.3617 22.3506 4.75442 20.886 5.81616 19.5459L21.4926 31.9656ZM24.3617 23.6015C24.3617 20.6713 23.4278 17.6793 21.4926 15.2367L5.81616 27.6564C4.75305 26.3145 4.3617 24.8501 4.3617 23.6015H24.3617Z" fill="white" mask="url(#path-7-inside-3_936_527)"/>
</g>
<ellipse cx="12" cy="40" rx="2" ry="1" fill="#15D088"/>
<ellipse cx="28" cy="37" rx="2" ry="1" fill="#15D088"/>
<ellipse cx="44" cy="39" rx="2" ry="1" fill="#15D088"/>
<line x1="19.289" y1="37.408" x2="16.3186" y2="39.5118" stroke="#15D088"/>
<line x1="25" y1="37.5" x2="20" y2="37.5" stroke="#15D088"/>
<line x1="35.7067" y1="41.405" x2="31.707" y2="38.5085" stroke="#15D088"/>
<line x1="41.0928" y1="40.4849" x2="37.1221" y2="41.4849" stroke="#15D088"/>
</svg>
