<svg width="477" height="449" viewBox="0 0 477 449" fill="none" xmlns="http://www.w3.org/2000/svg">
<mask id="mask0_979_625" style="mask-type:luminance" maskUnits="userSpaceOnUse" x="11" y="18" width="466" height="431">
<path d="M11.0962 18.2476H476.889V448.696H11.0962V18.2476Z" fill="white"/>
</mask>
<g mask="url(#mask0_979_625)">
<path d="M121.677 157.294C122.102 175.858 110.739 194.815 93.2049 200.928C83.6565 204.256 73.1916 203.786 63.407 206.339C53.6224 208.893 43.6521 216.26 43.5918 226.371C43.5505 233.087 47.3592 248.32 27.2492 257.249C10.6598 264.609 14.622 304.442 65.9987 321.189C81.7402 326.321 71.5948 313.412 87.9605 310.893C104.117 308.408 118.776 299.269 129.922 287.312C141.068 275.354 148.957 260.697 155.103 245.547C162.178 228.104 167.13 208.833 162.755 190.525C158.38 172.216 142.238 155.671 121.683 157.297" fill="black"/>
<path d="M71.8421 323.491C75.3419 323.491 76.6472 321.599 77.9616 318.986C79.3446 316.231 80.9125 313.111 88.1252 312.003C103.413 309.65 118.549 301.154 130.738 288.076C140.645 277.446 148.955 263.674 156.139 245.969C165.162 223.73 167.611 206.027 163.841 190.264C159.585 172.457 143.315 154.452 121.589 156.176C121.303 156.199 121.036 156.331 120.843 156.544C120.651 156.758 120.547 157.037 120.554 157.324C120.985 176.226 109.325 194.12 92.8338 199.87C87.6323 201.686 81.9866 202.364 76.5325 203.02C72.0175 203.462 67.5376 204.209 63.1234 205.255C53.2207 207.84 42.5337 215.549 42.4652 226.366C42.4586 227.241 42.5156 228.256 42.5775 229.331C43.0142 237.055 43.6723 248.733 26.7905 256.22C20.5636 258.984 16.9721 266.071 17.4155 274.714C18.1809 289.644 31.2729 311.052 65.6473 322.257C67.6359 322.984 69.7243 323.402 71.8396 323.495M124.458 158.307C143.6 158.307 157.795 174.629 161.655 190.781C165.308 206.069 162.894 223.336 154.054 245.122C146.977 262.568 138.812 276.117 129.091 286.541C117.245 299.251 102.575 307.503 87.7817 309.78C79.4222 311.065 77.4175 315.058 75.9521 317.975C74.4866 320.892 73.675 322.506 66.3442 320.117C33.0538 309.266 20.3894 288.813 19.6604 274.597C19.2649 266.905 22.3462 260.648 27.702 258.271C46.0055 250.149 45.2649 237.034 44.8216 229.198C44.7596 228.117 44.7076 227.182 44.7117 226.376C44.7737 216.745 54.5938 209.803 63.6898 207.425C68.0062 206.407 72.3861 205.68 76.8 205.249C82.3755 204.577 88.1409 203.882 93.5744 201.987C110.648 196.036 122.808 177.796 122.812 158.348C123.365 158.321 123.914 158.307 124.458 158.307Z" fill="black"/>
<path d="M222.114 114.885C216.703 141.267 211.473 169.656 222.279 194.326C225.79 202.343 230.897 209.642 233.782 217.906C237.211 227.731 237.318 238.408 236.378 248.77C234.607 268.356 228.722 288.449 214.95 302.489C201.177 316.529 178.132 322.647 161.141 312.744C146.23 304.055 139.422 285.381 140.359 268.15C141.296 250.918 148.65 234.745 156.411 219.331C175.05 182.297 196.779 146.82 222.116 114.885" fill="black"/>
<path d="M183.962 243.555C183.477 229.492 185.213 221.615 185.778 211.099C180.084 208.251 173.99 206.285 167.705 205.27C164.889 204.815 161.714 204.639 159.546 206.343C158.188 207.408 151.758 201.734 151.09 203.296C146.511 214.029 146.123 229.335 141.542 240.071C141.19 240.897 125.149 239.411 124.795 240.237C123.302 243.731 124.554 272.836 125.663 273.574C184.361 312.601 212.633 256.788 212.633 256.788C212.633 256.788 201.987 250.265 183.96 243.555" fill="white"/>
<path d="M165.176 288.562C169.388 288.568 173.582 288.03 177.656 286.959C201.569 280.659 213.158 258.248 213.641 257.297C213.768 257.046 213.796 256.755 213.72 256.484C213.643 256.213 213.468 255.98 213.228 255.832C213.123 255.766 202.567 249.342 185.067 242.768C184.896 235.578 185.23 228.385 186.066 221.241C186.387 218.032 186.715 214.719 186.905 211.163C186.917 210.945 186.865 210.727 186.756 210.538C186.646 210.349 186.483 210.196 186.288 210.098C180.494 207.194 174.291 205.192 167.892 204.162C165.094 203.709 161.571 203.442 159.005 205.348C157.842 204.93 156.734 204.376 155.702 203.697C153.425 202.364 152.081 201.628 151.009 201.982C150.798 202.05 150.605 202.163 150.442 202.313C150.279 202.463 150.151 202.646 150.065 202.851C147.727 208.33 146.453 215.01 145.221 221.469C144.047 227.623 142.833 233.982 140.713 239.157C139.486 239.276 135.92 239.133 133.238 239.027C125.009 238.697 124.211 238.759 123.77 239.793C122.725 242.241 122.981 253.326 123.139 257.977C123.669 273.592 124.602 274.213 125.05 274.511C139.111 283.858 152.557 288.559 165.18 288.559M211.124 257.206C208.665 261.499 197.306 279.466 177.061 284.79C161.675 288.835 144.676 284.801 126.532 272.8C125.575 269.707 124.656 245.668 125.696 241.14C126.974 241.027 130.492 241.169 133.148 241.274C141.35 241.605 142.141 241.539 142.584 240.508C144.921 235.028 146.194 228.349 147.428 221.891C148.601 215.747 149.81 209.401 151.922 204.233C152.833 204.641 153.716 205.11 154.564 205.636C157.029 207.081 158.974 208.221 160.247 207.221C162.14 205.735 165.135 205.99 167.532 206.377C173.461 207.332 179.217 209.151 184.618 211.776C184.426 214.986 184.136 217.921 183.827 221.014C182.947 228.505 182.618 236.052 182.842 243.592C182.85 243.814 182.924 244.029 183.054 244.21C183.184 244.391 183.365 244.529 183.574 244.607C193.077 248.068 202.29 252.281 211.124 257.206Z" fill="black"/>
<path d="M228.183 121.359C226.459 134.382 223.826 148.042 227.192 161.011C229.033 168.082 228.857 204.026 200.014 214.264C192.1 217.068 183.656 218.056 175.308 217.154C166.959 216.251 158.922 213.481 151.79 209.05C141.183 202.617 128.304 182.63 130.866 162.783C122.086 165.219 113.406 159.299 113.308 151.403C113.248 146.851 118.262 141.148 123.567 141.413C127.673 141.615 128.159 141.655 131.283 144.039C133.581 134.38 134.673 124.474 134.536 114.546C144.517 103.554 160.509 97.9399 176.512 95.5415C181.821 94.6059 187.234 94.4006 192.6 94.9313C207.957 96.8468 229.955 107.984 228.185 121.359" fill="white"/>
<path d="M181.328 218.653C187.827 218.641 194.276 217.517 200.395 215.329C229.287 205.074 230.54 169.396 228.288 160.73C225.386 149.554 227.043 137.724 228.648 126.283C228.871 124.683 229.093 123.092 229.304 121.508C229.804 117.74 228.627 113.978 225.807 110.325C218.935 101.425 203.644 95.1778 192.745 93.8123C186.8 93.0692 180.862 93.7503 176.35 94.4274C163.117 96.4088 144.976 101.382 133.712 113.787C133.521 113.998 133.416 114.274 133.42 114.559C133.556 123.823 132.599 133.07 130.569 142.11C128.363 140.582 127.295 140.466 123.634 140.286C122.198 140.277 120.776 140.559 119.453 141.115C118.129 141.67 116.932 142.488 115.932 143.518C113.592 145.777 112.158 148.802 112.192 151.418C112.246 153.376 112.752 155.295 113.671 157.024C114.589 158.754 115.895 160.248 117.486 161.389C119.206 162.656 121.166 163.559 123.245 164.046C125.325 164.533 127.482 164.593 129.586 164.221C127.754 184.443 140.769 203.676 151.217 210.011C160.268 215.607 170.687 218.597 181.328 218.653ZM227.073 121.213C226.865 122.79 226.641 124.377 226.417 125.97C224.784 137.631 223.095 149.685 226.11 161.295C227.37 166.148 228.959 202.805 199.641 213.208C183.845 218.816 167.06 216.998 152.379 208.094C142.437 202.067 129.455 182.512 131.986 162.933C132.01 162.749 131.988 162.561 131.923 162.388C131.857 162.214 131.749 162.059 131.609 161.938C131.469 161.816 131.3 161.731 131.119 161.69C130.938 161.65 130.749 161.655 130.571 161.705C128.583 162.269 126.492 162.371 124.459 162.006C122.425 161.64 120.501 160.815 118.834 159.595C117.519 158.658 116.438 157.431 115.675 156.008C114.913 154.586 114.488 153.006 114.436 151.393C114.411 149.377 115.581 146.983 117.491 145.14C118.269 144.323 119.204 143.672 120.239 143.224C121.275 142.777 122.39 142.543 123.518 142.536C127.498 142.73 127.735 142.742 130.605 144.931C130.754 145.045 130.93 145.12 131.116 145.149C131.302 145.178 131.492 145.159 131.669 145.095C131.846 145.031 132.004 144.924 132.129 144.783C132.254 144.642 132.341 144.472 132.383 144.288C134.666 134.688 135.77 124.845 135.671 114.977C146.51 103.299 163.923 98.5662 176.678 96.6557C181.049 96.0018 186.794 95.3388 192.46 96.0481C202.909 97.3534 217.523 103.281 224.02 111.7C226.461 114.862 227.488 118.064 227.069 121.214" fill="black"/>
<path d="M165.195 174.093C169.525 174.061 173.698 172.47 176.95 169.611C180.998 166.086 183.592 161.183 184.229 155.854C185.69 144.552 178.527 134.28 168.263 132.951C165.758 132.643 163.217 132.871 160.806 133.619C158.396 134.367 156.172 135.62 154.282 137.292C150.275 140.849 147.69 145.735 147.004 151.049C146.318 156.362 147.577 161.745 150.55 166.202C151.953 168.299 153.786 170.075 155.927 171.411C158.068 172.746 160.468 173.613 162.969 173.952C163.708 174.047 164.453 174.094 165.198 174.094M166.048 135.057C166.694 135.056 167.338 135.098 167.978 135.182C177.009 136.345 183.301 145.492 182 155.566C181.433 160.343 179.113 164.739 175.489 167.903C173.847 169.384 171.903 170.492 169.792 171.151C167.681 171.81 165.452 172.004 163.259 171.721C161.066 171.438 158.959 170.684 157.085 169.51C155.21 168.337 153.612 166.772 152.399 164.923C149.743 160.922 148.619 156.098 149.234 151.336C149.849 146.574 152.161 142.193 155.745 138.998C158.593 136.489 162.25 135.089 166.046 135.055" fill="black"/>
<path d="M217.338 176.485C221.668 176.453 225.842 174.86 229.093 172C233.141 168.477 235.735 163.574 236.371 158.245C237.832 146.942 230.67 136.666 220.406 135.343C210.142 134.019 200.608 142.134 199.147 153.438C198.41 158.754 199.674 164.154 202.692 168.591C204.096 170.688 205.929 172.464 208.07 173.8C210.211 175.136 212.611 176.002 215.112 176.341C215.851 176.436 216.596 176.484 217.341 176.484M218.21 137.447C218.849 137.448 219.488 137.489 220.121 137.571C229.155 138.737 235.447 147.883 234.146 157.957C233.579 162.734 231.259 167.129 227.635 170.292C225.993 171.773 224.05 172.882 221.938 173.541C219.827 174.201 217.598 174.395 215.405 174.112C213.211 173.829 211.105 173.075 209.23 171.901C207.356 170.727 205.757 169.161 204.545 167.312C201.842 163.332 200.714 158.49 201.378 153.726C202.585 144.367 209.927 137.448 218.207 137.448" fill="black"/>
<path d="M119.347 41.7887C121.255 35.5101 124.982 29.9383 130.056 25.7777C135.131 21.6172 141.325 19.0548 147.856 18.4146C154.387 17.7745 160.961 19.0852 166.746 22.1812C172.532 25.2772 177.27 30.0193 180.361 35.8079C183.452 41.5965 184.756 48.1716 184.11 54.7017C183.464 61.2319 180.896 67.4238 176.731 72.4944C172.566 77.5651 166.99 81.2868 160.71 83.1889C154.43 85.091 147.726 85.0881 141.447 83.1805C133.028 80.6222 125.969 74.8241 121.825 67.0617C117.68 59.2992 116.789 50.2083 119.347 41.7887Z" fill="black"/>
<path d="M132.431 145.401C140.847 132.341 145.998 122.937 148.763 107.037C179.85 125.448 209.359 128.309 239.123 127.174C239.752 122.111 238.689 110.906 236.586 106.107C231.427 94.3436 224.994 84.1579 207.024 76.1246C194.431 70.4963 177.481 66.7521 163.852 68.7162C150.312 70.6664 138.665 77.988 129.185 86.7817C121.646 93.7789 115.272 105.254 113.03 116.595C111.112 126.308 113.49 133.472 117.842 143.367C120.286 142.051 122.583 140.72 125.415 141.265C128.248 141.809 130.069 143.251 132.433 145.4" fill="black"/>
<path d="M177.53 195.255C179.698 195.293 181.81 194.562 183.49 193.191C183.719 193 183.863 192.726 183.89 192.429C183.917 192.132 183.825 191.837 183.634 191.607C183.443 191.378 183.169 191.234 182.872 191.207C182.575 191.18 182.279 191.272 182.05 191.463C179.931 193.233 176.758 193.495 173.567 192.163C169.902 190.582 166.958 187.692 165.31 184.057C165.25 183.92 165.163 183.796 165.054 183.693C164.945 183.59 164.817 183.51 164.676 183.458C164.536 183.405 164.387 183.381 164.237 183.387C164.088 183.393 163.941 183.429 163.805 183.492C163.669 183.556 163.548 183.646 163.448 183.757C163.347 183.868 163.27 183.999 163.221 184.14C163.172 184.281 163.151 184.431 163.161 184.581C163.17 184.73 163.209 184.876 163.276 185.01C165.158 189.151 168.517 192.442 172.696 194.238C174.224 194.891 175.865 195.236 177.526 195.253" fill="black"/>
<path d="M166.492 154.339C166.54 153.713 166.774 153.116 167.165 152.625C167.555 152.134 168.084 151.771 168.682 151.584C169.281 151.396 169.922 151.393 170.523 151.573C171.124 151.754 171.657 152.11 172.053 152.596C172.449 153.083 172.69 153.677 172.746 154.302C172.801 154.927 172.667 155.554 172.363 156.102C172.058 156.65 171.596 157.095 171.036 157.378C170.476 157.661 169.844 157.769 169.222 157.69C168.822 157.649 168.435 157.53 168.082 157.34C167.728 157.149 167.416 156.891 167.162 156.58C166.909 156.269 166.719 155.91 166.604 155.526C166.489 155.141 166.451 154.738 166.492 154.339Z" fill="black"/>
<path d="M212.931 156.784C212.979 156.158 213.212 155.561 213.603 155.069C213.993 154.577 214.522 154.214 215.121 154.026C215.72 153.838 216.361 153.834 216.962 154.015C217.564 154.196 218.097 154.552 218.493 155.039C218.889 155.526 219.13 156.12 219.185 156.746C219.24 157.371 219.106 157.998 218.801 158.547C218.495 159.095 218.032 159.539 217.471 159.822C216.911 160.104 216.278 160.212 215.656 160.131C214.851 160.048 214.112 159.648 213.601 159.021C213.091 158.393 212.85 157.589 212.931 156.784Z" fill="black"/>
<path d="M195.504 175.781C195.641 175.781 195.777 175.756 195.904 175.707L200.14 174.098C200.544 173.99 200.919 173.796 201.241 173.529C201.564 173.263 201.825 172.931 202.008 172.555C202.462 171.371 201.69 170.333 201.274 169.775C199.705 167.682 198.634 165.26 198.142 162.691C197.65 160.122 197.75 157.475 198.434 154.951C198.515 154.664 198.479 154.357 198.333 154.096C198.187 153.836 197.944 153.645 197.657 153.564C197.37 153.483 197.062 153.519 196.802 153.665C196.542 153.811 196.35 154.054 196.269 154.341C195.493 157.197 195.378 160.192 195.932 163.099C196.487 166.006 197.696 168.748 199.47 171.118C199.63 171.317 199.768 171.533 199.882 171.762C199.707 171.851 199.527 171.928 199.343 171.995L195.108 173.604C194.861 173.698 194.655 173.874 194.526 174.104C194.397 174.333 194.352 174.601 194.399 174.86C194.447 175.119 194.584 175.353 194.787 175.521C194.989 175.69 195.245 175.781 195.508 175.781" fill="black"/>
<path d="M201.02 150.521C201.314 150.521 201.597 150.405 201.807 150.199C202.017 149.992 202.137 149.711 202.142 149.417C202.192 146.497 199.36 144.463 196.528 143.743C194.226 143.173 191.822 143.154 189.511 143.686C187.2 144.219 185.047 145.288 183.227 146.808C183.002 147.004 182.864 147.281 182.844 147.578C182.824 147.876 182.922 148.169 183.118 148.393C183.314 148.618 183.591 148.756 183.888 148.776C184.186 148.797 184.479 148.698 184.704 148.502C186.248 147.218 188.073 146.315 190.031 145.866C191.989 145.418 194.025 145.437 195.974 145.921C197.943 146.424 199.923 147.773 199.895 149.377C199.89 149.675 200.003 149.962 200.21 150.177C200.417 150.391 200.701 150.514 200.998 150.52L201.02 150.521Z" fill="black"/>
<path d="M149.227 145.588C149.374 145.588 149.52 145.559 149.657 145.503C149.794 145.447 149.918 145.364 150.022 145.26C150.234 145.05 150.353 144.764 150.354 144.466C150.354 144.167 150.236 143.881 150.026 143.67C149.815 143.458 149.53 143.339 149.231 143.339L133.866 143.295C133.568 143.294 133.282 143.412 133.07 143.622C132.859 143.833 132.74 144.118 132.739 144.416C132.739 144.714 132.857 145 133.067 145.211C133.277 145.423 133.563 145.542 133.861 145.542L149.225 145.588H149.227Z" fill="black"/>
<path d="M131.064 156.215H131.076C131.223 156.214 131.369 156.183 131.505 156.125C131.641 156.068 131.764 155.983 131.868 155.878C131.971 155.772 132.053 155.648 132.108 155.51C132.163 155.373 132.19 155.227 132.189 155.079C132.155 151.306 132.894 147.565 134.36 144.088C134.476 143.814 134.479 143.505 134.367 143.228C134.256 142.952 134.039 142.731 133.764 142.615C133.49 142.499 133.181 142.496 132.904 142.608C132.628 142.72 132.407 142.936 132.291 143.211C130.704 146.972 129.903 151.018 129.939 155.1C129.942 155.396 130.062 155.679 130.273 155.887C130.483 156.095 130.767 156.212 131.063 156.213" fill="black"/>
<path d="M18.502 363.627C32.0894 326.495 39.5854 289.855 71.6373 263.104C87.0221 250.264 105.577 241.154 126.955 239.782C128.264 260.481 152.311 274.119 165.196 275.658C172.209 276.497 198.261 279.964 198.261 249.249C206.765 252.634 235.048 256.109 246.395 290.96C251.033 305.213 259.342 359.767 286.735 391.386C293.205 398.852 299.183 349.16 308.491 352.467C317.626 355.714 328.146 361.15 328.831 370.818C329.366 378.355 323.157 384.918 316.217 387.901C301.304 394.309 295.717 425.359 279.641 427.624C262.932 429.981 236.242 436.139 216.044 372.99C205.723 383.31 199.059 394.402 187.477 400.642C154.102 418.635 43.0547 438.836 24.9634 442.045C23.4616 442.312 20.0509 441.082 19.4523 439.679C15.6544 430.787 5.70223 398.614 18.5012 363.626" fill="#148A75"/>
<path d="M24.5444 443.203C24.7513 443.205 24.9579 443.189 25.162 443.155C46.5269 439.363 154.786 419.543 188.012 401.634C196.047 397.304 201.746 390.716 207.776 383.744C210.236 380.903 212.769 377.977 215.544 375.101C224.144 401.289 234.593 417.69 247.456 425.211C258.733 431.804 269.473 430.24 278.104 428.983C278.68 428.898 279.245 428.815 279.798 428.735C288.933 427.448 294.78 417.57 300.439 408.018C305.169 400.028 310.061 391.765 316.658 388.93C323.703 385.906 330.545 379.105 329.95 370.737C329.372 362.563 322.472 356.244 308.864 351.407C308.372 351.229 307.849 351.155 307.327 351.192C306.805 351.228 306.296 351.373 305.833 351.618C301.522 353.771 298.238 364.303 295.055 374.488C292.926 381.3 290.012 390.626 288.12 391.021C287.954 391.045 287.665 390.745 287.58 390.649C265.78 365.483 256.023 325.077 250.781 303.37C249.446 297.838 248.387 293.468 247.462 290.613C237.513 260.043 214.323 253.038 203.178 249.672C201.373 249.127 199.816 248.657 198.677 248.204C198.507 248.136 198.322 248.111 198.14 248.131C197.957 248.151 197.783 248.215 197.631 248.318C197.479 248.421 197.355 248.56 197.269 248.722C197.183 248.884 197.139 249.065 197.139 249.248C197.139 258.526 194.691 265.403 189.863 269.684C182.116 276.558 170.096 275.113 165.568 274.571L165.33 274.542C153.006 273.07 129.349 259.809 128.078 239.711C128.059 239.414 127.923 239.136 127.699 238.939C127.475 238.741 127.183 238.641 126.885 238.659C106.962 239.937 88.133 247.872 70.9178 262.241C44.2341 284.513 34.4933 313.347 24.177 343.867C22.037 350.201 19.8226 356.755 17.4498 363.24C5.84135 394.975 12.5992 426.498 18.4232 440.123C19.1869 441.91 22.5307 443.202 24.5469 443.202M216.044 371.869C215.746 371.869 215.459 371.988 215.248 372.199C211.9 375.55 208.939 378.969 206.08 382.271C200.184 389.086 194.618 395.521 186.946 399.656C154.026 417.402 46.0786 437.159 24.7731 440.937C23.6255 441.136 20.8274 440.029 20.4889 439.236C19.8623 437.773 5.32368 402.929 19.5609 364.01C21.9429 357.498 24.1605 350.932 26.3071 344.584C36.5186 314.366 46.1628 285.831 72.3576 263.964C88.8802 250.176 106.899 242.444 125.927 240.979C127.095 252.445 134.728 260.765 141.036 265.781C148.337 271.585 157.767 275.901 165.062 276.772L165.3 276.799C170.103 277.377 182.854 278.904 191.355 271.363C196.396 266.892 199.087 259.991 199.364 250.836C200.299 251.147 201.364 251.469 202.528 251.821C214.136 255.325 235.741 261.854 245.324 291.304C246.227 294.076 247.274 298.411 248.597 303.894C253.881 325.787 263.724 366.538 285.884 392.118C286.182 392.539 286.595 392.866 287.072 393.061C287.55 393.256 288.073 393.311 288.581 393.22C291.619 392.587 293.731 386.268 297.201 375.155C299.958 366.333 303.387 355.354 306.842 353.628C307.034 353.521 307.247 353.456 307.467 353.438C307.687 353.42 307.907 353.45 308.115 353.525C320.791 358.03 327.2 363.711 327.71 370.896C328.222 378.124 321.881 384.241 315.773 386.865C308.502 389.988 303.42 398.572 298.505 406.872C292.873 416.385 287.553 425.371 279.488 426.508C278.93 426.586 278.361 426.673 277.783 426.756C261.288 429.161 236.355 432.791 217.116 372.648C217.058 372.464 216.953 372.299 216.812 372.168C216.671 372.036 216.498 371.943 216.311 371.898C216.224 371.877 216.135 371.867 216.046 371.866" fill="black"/>
<path d="M58.351 399.443C88.8317 397.744 119.498 395.645 150.166 393.536C152.912 393.084 166.554 391.131 169.921 390.637C172.766 390.14 175.525 389.237 178.114 387.958C187.235 383.748 206.805 375.484 211.172 377.928C221.232 380.886 230.351 388.151 237.479 397.345C241.479 402.507 244.757 411.056 243.102 412.525C242.616 413.034 241.963 413.349 241.262 413.413C240.562 413.478 239.862 413.287 239.292 412.876C234.464 402.63 226.179 394.415 215.893 389.676C220.644 392.361 225.056 395.609 229.032 399.348C233.056 403.133 236.755 407.696 237.66 413.145C237.774 413.564 237.736 414.01 237.552 414.403C237.006 415.306 235.611 414.78 234.781 414.129C233.152 412.856 212.182 395.823 208.264 396.276C213.474 398.241 232.048 413.315 232.125 414.92C232.196 415.691 231.986 416.461 231.533 417.089C231.175 417.475 230.723 417.761 230.222 417.92C229.721 418.079 229.186 418.106 228.672 417.998C227.645 417.767 226.672 417.342 225.805 416.747C219.809 413.105 214.321 408.538 207.842 405.843C204.607 404.496 200.659 403.722 197.781 405.721C203.578 407.875 208.912 411.112 213.497 415.261C214.219 415.929 214.831 416.707 215.308 417.568C216.021 418.843 216.824 420.688 215.834 421.742C214.217 423.463 212.851 422.597 211.463 421.786C206.061 418.189 200.304 415.155 194.284 412.731C192.441 411.997 190.238 411.352 188.571 412.422C187.124 413.348 180.127 417.694 165.746 418.439C160.838 418.695 156.106 419.973 149.971 421.658C69.1495 443.934 45.0079 452.822 25.4305 444.4C21.5971 442.749 20.305 440.74 21.5831 434.163C24.9938 416.592 28.3293 406.608 58.3502 399.442" fill="white"/>
<path d="M41.8334 448.696C57.3182 448.696 79.3733 442.529 120.852 430.93C129.594 428.486 139.499 425.717 150.27 422.749C155.979 421.18 160.907 419.818 165.804 419.564C179.266 418.865 186.634 415.002 189.178 413.372C190.428 412.574 192.341 413.169 193.868 413.779C199.819 416.17 205.508 419.168 210.844 422.726L210.995 422.818C212.375 423.627 214.463 424.848 216.655 422.514C218.349 420.708 216.798 417.935 216.291 417.024C215.755 416.06 215.069 415.187 214.259 414.439C210.274 410.808 205.713 407.865 200.763 405.727C202.98 405.364 205.476 406.079 207.412 406.883C211.623 408.639 215.528 411.281 219.302 413.839C221.22 415.14 223.204 416.481 225.225 417.711C226.213 418.384 227.323 418.859 228.492 419.108C229.203 419.254 229.939 419.209 230.628 418.979C231.316 418.749 231.931 418.342 232.412 417.798C233.044 416.959 233.343 415.916 233.251 414.87C233.203 414.582 233.086 414.31 232.908 414.079L233.358 414.435C233.712 414.719 233.962 414.917 234.092 415.018C234.923 415.72 236 416.064 237.084 415.973C237.379 415.921 237.66 415.807 237.907 415.637C238.155 415.468 238.363 415.247 238.517 414.99C238.706 414.671 238.816 414.311 238.838 413.941C239.615 414.427 240.534 414.635 241.445 414.531C242.356 414.427 243.204 414.016 243.851 413.367C246.555 410.973 241.773 401.048 238.371 396.659C230.583 386.61 221.327 379.772 211.598 376.881C206.327 374.25 186.135 383.021 177.648 386.939C175.153 388.167 172.498 389.038 169.761 389.526C168.869 389.657 167.258 389.89 165.318 390.171C160.067 390.93 152.153 392.07 150.043 392.42C120.127 394.475 89.1884 396.599 58.2965 398.32C58.2295 398.324 58.1629 398.334 58.0976 398.35C27.4014 405.679 23.9478 416.12 20.4867 433.949C19.2061 440.539 20.343 443.438 24.9946 445.436C30.3174 447.694 36.0565 448.805 41.8376 448.695M190.652 410.737C189.704 410.717 188.77 410.976 187.966 411.48C185.572 413.011 178.612 416.648 165.687 417.32C160.546 417.585 155.508 418.971 149.67 420.582C138.896 423.554 128.989 426.322 120.248 428.766C62.0746 445.03 42.4733 450.509 25.8781 443.373C22.7828 442.04 21.4593 440.721 22.6911 434.38C26.0671 416.991 29.1971 407.579 58.517 400.562C89.4122 398.84 120.339 396.714 150.245 394.659C150.279 394.659 150.316 394.653 150.35 394.648C152.357 394.317 160.346 393.161 165.634 392.396C167.577 392.115 169.193 391.882 170.085 391.751C173.036 391.235 175.9 390.302 178.589 388.981C194.988 381.412 207.865 377.362 210.623 378.908C210.697 378.95 210.775 378.983 210.856 379.006C220.035 381.706 229.174 388.463 236.591 398.034C240.681 403.31 243.008 410.634 242.327 411.718C242.054 411.996 241.704 412.185 241.322 412.26C240.94 412.334 240.544 412.292 240.187 412.137C235.209 401.783 226.786 393.483 216.36 388.658C216.096 388.537 215.796 388.523 215.523 388.618C215.249 388.714 215.023 388.911 214.891 389.169C214.759 389.427 214.733 389.726 214.816 390.004C214.9 390.281 215.088 390.516 215.34 390.658C220.013 393.3 224.352 396.493 228.263 400.17C233.199 404.811 235.832 408.992 236.552 413.332C236.58 413.475 236.594 413.619 236.595 413.764C236.183 413.691 235.797 413.512 235.475 413.245C235.347 413.147 235.103 412.95 234.759 412.676C212.208 394.688 209.247 395.031 208.135 395.161C207.885 395.19 207.652 395.303 207.473 395.48C207.294 395.657 207.18 395.89 207.149 396.14C207.119 396.39 207.173 396.643 207.303 396.858C207.433 397.074 207.632 397.239 207.867 397.328C212.696 399.152 229.552 412.788 231.008 415.143C231.045 415.419 231.011 415.699 230.908 415.958C230.805 416.217 230.638 416.445 230.422 416.62C230.205 416.795 229.948 416.912 229.673 416.959C229.399 417.006 229.117 416.982 228.855 416.889C227.972 416.678 227.136 416.305 226.39 415.787C224.418 414.589 222.456 413.261 220.559 411.974C216.696 409.357 212.7 406.648 208.277 404.805C205.097 403.484 200.582 402.405 197.142 404.8C196.973 404.917 196.84 405.077 196.756 405.264C196.672 405.451 196.641 405.657 196.666 405.861C196.691 406.064 196.771 406.257 196.897 406.418C197.024 406.579 197.192 406.703 197.384 406.775C203.051 408.87 208.264 412.032 212.74 416.091C213.374 416.678 213.91 417.363 214.329 418.118C215.495 420.206 215.149 420.83 215.017 420.973C214.095 421.952 213.59 421.73 212.132 420.875L212.031 420.816C206.584 417.186 200.778 414.127 194.704 411.688C193.424 411.121 192.051 410.798 190.653 410.734" fill="black"/>
<path d="M260.113 438.804L184.221 440.432L184.123 427.541L268.592 425.477L260.113 438.804Z" fill="black"/>
<path d="M475.762 321.107L310.781 322.01L253.918 438.801L417.351 438.388L475.762 321.107Z" fill="white"/>
<path d="M253.92 439.927L417.352 439.514C417.561 439.514 417.765 439.455 417.942 439.346C418.119 439.236 418.262 439.079 418.356 438.893L476.769 321.61C476.854 321.438 476.894 321.248 476.886 321.057C476.877 320.866 476.819 320.68 476.718 320.518C476.618 320.355 476.477 320.221 476.31 320.128C476.143 320.035 475.955 319.986 475.763 319.986H475.757L310.779 320.89C310.569 320.891 310.363 320.951 310.186 321.063C310.008 321.175 309.865 321.334 309.773 321.523L252.91 438.314C252.827 438.485 252.789 438.675 252.799 438.865C252.81 439.055 252.868 439.24 252.969 439.401C253.07 439.563 253.21 439.696 253.377 439.788C253.543 439.881 253.73 439.93 253.921 439.93M416.653 437.272L255.719 437.676L311.49 323.132L473.944 322.243L416.653 437.272Z" fill="black"/>
<path d="M371.411 368.695C376.095 368.235 381.211 369.488 383.119 373.788C385.027 378.088 383.565 383.48 380.088 386.653C376.611 389.826 371.474 390.848 366.885 389.814C364.408 389.255 361.947 388.054 360.521 385.949C359.565 384.454 359.069 382.71 359.096 380.936C359.058 375.143 361.7 369.648 371.411 368.694" fill="white"/>
<path d="M370.394 391.328C374.234 391.383 377.957 390.013 380.846 387.483C384.796 383.879 386.184 377.929 384.149 373.334C382.281 369.123 377.476 366.977 371.303 367.576C360.221 368.664 357.937 375.447 357.974 380.945C357.945 382.942 358.508 384.904 359.592 386.582C361.408 389.259 364.427 390.415 366.639 390.911C367.873 391.19 369.133 391.33 370.398 391.33M373.18 369.737C375.9 369.737 380.371 370.368 382.097 374.247C383.754 377.982 382.592 382.852 379.338 385.823C377.677 387.237 375.705 388.236 373.582 388.739C371.46 389.242 369.249 389.235 367.131 388.717C364.878 388.335 362.851 387.122 361.45 385.318C360.622 384.005 360.195 382.479 360.22 380.926C360.175 374.199 363.871 370.564 371.52 369.814C371.91 369.776 372.489 369.732 373.177 369.732" fill="black"/>
<path d="M76.5366 399.512C76.7732 399.512 77.0037 399.437 77.1954 399.298C77.387 399.16 77.5301 398.964 77.6042 398.739C89.0863 363.972 95.584 341.979 95.584 294.304C95.584 294.006 95.4656 293.72 95.2549 293.509C95.0441 293.299 94.7583 293.18 94.4603 293.18C94.1623 293.18 93.8765 293.299 93.6657 293.509C93.455 293.72 93.3366 294.006 93.3366 294.304C93.3366 341.634 86.881 363.485 75.4716 398.035C75.4253 398.175 75.4072 398.323 75.4181 398.47C75.4291 398.618 75.4689 398.761 75.5354 398.893C75.6019 399.025 75.6937 399.142 75.8056 399.239C75.9174 399.335 76.0472 399.408 76.1874 399.454C76.3008 399.492 76.4196 399.511 76.5391 399.511" fill="black"/>
<path d="M216.039 374.113C216.221 374.113 216.399 374.069 216.56 373.986C216.721 373.902 216.859 373.78 216.963 373.631C231.781 352.316 227.773 336.706 223.898 321.607C221.965 314.068 219.962 306.271 220.277 297.747C220.283 297.599 220.259 297.452 220.208 297.313C220.157 297.175 220.079 297.048 219.978 296.939C219.878 296.831 219.757 296.744 219.622 296.682C219.488 296.621 219.343 296.586 219.195 296.581C218.898 296.573 218.61 296.682 218.392 296.884C218.174 297.086 218.044 297.366 218.03 297.663C217.699 306.512 219.744 314.469 221.719 322.165C225.642 337.444 229.347 351.875 215.114 372.344C214.997 372.513 214.928 372.71 214.915 372.915C214.902 373.12 214.945 373.324 215.04 373.507C215.135 373.689 215.278 373.841 215.454 373.948C215.629 374.054 215.83 374.111 216.036 374.111" fill="black"/>
<path d="M167.809 321.711C182.789 321.711 197.784 320.357 212.342 316.709C212.392 316.699 212.439 316.679 212.481 316.651C212.523 316.622 212.559 316.585 212.586 316.542C212.613 316.5 212.631 316.452 212.64 316.401C212.648 316.351 212.646 316.3 212.633 316.251C212.621 316.201 212.599 316.155 212.568 316.115C212.538 316.074 212.499 316.04 212.455 316.015C212.411 315.99 212.362 315.974 212.311 315.969C212.261 315.963 212.21 315.968 212.161 315.982C175.236 325.236 135.391 319.661 100.241 314.739C100.142 314.725 100.042 314.751 99.9625 314.811C99.883 314.871 99.8305 314.96 99.8166 315.058C99.8027 315.157 99.8285 315.257 99.8884 315.336C99.9482 315.416 100.037 315.468 100.136 315.482C121.52 318.474 144.648 321.711 167.81 321.711" fill="black"/>
<path d="M154.303 350.503C176.317 350.515 198.253 347.89 219.642 342.685C219.735 342.658 219.814 342.596 219.862 342.512C219.91 342.429 219.924 342.329 219.901 342.236C219.878 342.142 219.82 342.06 219.739 342.008C219.657 341.956 219.559 341.938 219.464 341.956C180.105 351.518 139.124 352.296 99.4302 344.235C99.3815 344.223 99.3309 344.222 99.2815 344.23C99.2321 344.239 99.1849 344.257 99.1426 344.284C99.1004 344.311 99.064 344.346 99.0356 344.387C99.0072 344.429 98.9873 344.475 98.9772 344.524C98.9671 344.573 98.967 344.624 98.9768 344.673C98.9866 344.722 99.0061 344.769 99.0342 344.81C99.0624 344.852 99.0986 344.887 99.1406 344.914C99.1827 344.942 99.2298 344.96 99.2791 344.969C117.388 348.658 135.822 350.511 154.303 350.501" fill="black"/>
<path d="M15.9776 408.963C16.0319 408.963 16.0856 408.951 16.1349 408.928C16.1841 408.905 16.2279 408.872 16.2632 408.831C23.2589 400.759 32.1991 394.608 42.2372 390.958C52.2753 387.308 63.0789 386.281 73.6249 387.974C73.6737 387.982 73.7236 387.98 73.7719 387.969C73.8201 387.958 73.8657 387.938 73.906 387.909C73.9463 387.881 73.9806 387.844 74.0069 387.802C74.0332 387.76 74.051 387.714 74.0592 387.665C74.0674 387.616 74.066 387.566 74.0549 387.518C74.0439 387.47 74.0234 387.424 73.9947 387.384C73.9661 387.343 73.9297 387.309 73.8878 387.283C73.8459 387.257 73.7992 387.239 73.7504 387.231C63.0761 385.518 52.1413 386.559 41.9814 390.253C31.8215 393.948 22.7728 400.174 15.6919 408.343C15.6456 408.398 15.6158 408.465 15.6061 408.536C15.5964 408.606 15.6073 408.679 15.6373 408.744C15.6673 408.808 15.7154 408.863 15.7756 408.902C15.8359 408.941 15.906 408.961 15.9776 408.961" fill="black"/>
<path d="M18.4966 393.956C18.5445 393.956 18.5918 393.947 18.6362 393.929C20.802 392.909 22.7736 391.52 24.4627 389.823C25.0778 389.273 25.711 388.705 26.3509 388.182C30.2694 384.972 34.9852 382.885 39.9961 382.142C40.0929 382.126 40.1794 382.072 40.237 381.993C40.2947 381.913 40.3189 381.814 40.3046 381.717C40.2902 381.62 40.2384 381.532 40.1602 381.473C40.0821 381.414 39.9837 381.387 39.8863 381.399C34.7413 382.162 29.8993 384.306 25.8753 387.601C25.2239 388.136 24.584 388.71 23.964 389.263C22.3362 390.899 20.4394 392.242 18.3563 393.234C18.2757 393.266 18.2088 393.326 18.1673 393.402C18.1257 393.479 18.112 393.567 18.1285 393.653C18.145 393.738 18.1907 393.815 18.2577 393.87C18.3247 393.926 18.4089 393.956 18.4958 393.956" fill="black"/>
</g>
<mask id="mask1_979_625" style="mask-type:luminance" maskUnits="userSpaceOnUse" x="311" y="148" width="56" height="62">
<path d="M311.573 148.026H366.102V209.222H311.573V148.026Z" fill="white"/>
</mask>
<g mask="url(#mask1_979_625)">
<path d="M339.393 205.363C340.084 205.36 340.757 205.15 341.327 204.76C342.105 204.229 342.71 203.483 343.07 202.613C344.477 199.32 345.092 195.743 344.864 192.169C344.637 188.595 343.573 185.125 341.76 182.037C341.153 181.033 340.966 180.273 341.207 179.778C341.448 179.284 342.161 178.958 343.325 178.816C346.874 178.335 350.26 177.028 353.211 174.999C356.162 172.971 358.595 170.277 360.315 167.136C360.777 166.316 360.99 165.379 360.927 164.44C360.893 163.854 360.705 163.287 360.383 162.796C360.061 162.305 359.616 161.908 359.092 161.643L339.677 152.205C339.146 151.955 338.558 151.85 337.974 151.9C337.389 151.95 336.827 152.153 336.346 152.489C335.568 153.019 334.962 153.765 334.602 154.635C333.195 157.928 332.58 161.506 332.808 165.08C333.036 168.653 334.099 172.124 335.913 175.212C336.52 176.216 336.706 176.976 336.465 177.471C336.224 177.967 335.512 178.29 334.347 178.432C330.798 178.913 327.412 180.221 324.461 182.25C321.511 184.279 319.077 186.973 317.358 190.114C316.895 190.934 316.683 191.871 316.746 192.811C316.779 193.397 316.967 193.964 317.289 194.455C317.611 194.946 318.056 195.343 318.581 195.607L337.995 205.043C338.432 205.254 338.91 205.363 339.394 205.362M338.273 152.72C338.633 152.72 338.988 152.801 339.312 152.959L358.725 162.395C359.119 162.592 359.453 162.89 359.693 163.259C359.933 163.628 360.071 164.054 360.091 164.494C360.142 165.271 359.965 166.046 359.582 166.723C357.927 169.75 355.585 172.345 352.744 174.301C349.903 176.256 346.642 177.518 343.224 177.983C341.738 178.165 340.83 178.632 340.454 179.411C340.079 180.189 340.268 181.19 341.042 182.47C342.788 185.445 343.811 188.788 344.028 192.231C344.246 195.673 343.652 199.119 342.295 202.29C341.998 203.009 341.498 203.627 340.855 204.066C340.497 204.321 340.078 204.476 339.64 204.515C339.202 204.555 338.761 204.477 338.364 204.289L318.948 194.852C318.555 194.655 318.221 194.357 317.981 193.988C317.741 193.619 317.603 193.193 317.583 192.754C317.531 191.977 317.707 191.202 318.089 190.524C319.745 187.498 322.087 184.902 324.929 182.947C327.77 180.991 331.031 179.73 334.449 179.265C335.936 179.083 336.844 178.616 337.219 177.837C337.595 177.059 337.405 176.058 336.631 174.777C334.885 171.802 333.862 168.459 333.644 165.017C333.427 161.575 334.02 158.129 335.377 154.958C335.674 154.239 336.175 153.622 336.817 153.183C337.245 152.887 337.752 152.726 338.273 152.722" fill="black"/>
<path d="M340.568 168.596C343.844 169.61 347.185 170.388 350.363 171.689C347.989 173.361 345.243 174.43 342.364 174.803C341.706 174.883 341.063 175.052 340.452 175.305C340.273 174.667 340.009 174.056 339.665 173.489C338.581 171.681 337.833 169.692 337.457 167.617C338.493 167.947 339.531 168.274 340.57 168.596" fill="#233862"/>
<path d="M340.45 175.724C340.507 175.724 340.563 175.713 340.615 175.692C341.192 175.453 341.798 175.294 342.418 175.219C345.364 174.835 348.174 173.742 350.605 172.034C350.667 171.99 350.717 171.931 350.748 171.862C350.779 171.793 350.791 171.717 350.783 171.642C350.774 171.567 350.745 171.496 350.7 171.436C350.654 171.375 350.593 171.329 350.523 171.3C348.304 170.44 346.04 169.701 343.741 169.089C342.74 168.804 341.703 168.507 340.693 168.194C339.656 167.873 338.619 167.547 337.583 167.217C337.514 167.195 337.441 167.191 337.37 167.206C337.299 167.221 337.234 167.254 337.179 167.302C337.125 167.35 337.084 167.411 337.06 167.479C337.037 167.548 337.031 167.621 337.044 167.692C337.429 169.817 338.196 171.855 339.307 173.706C339.632 174.24 339.882 174.816 340.05 175.417C340.075 175.505 340.128 175.583 340.2 175.638C340.273 175.694 340.362 175.724 340.453 175.724M349.462 171.783C347.3 173.167 344.858 174.056 342.313 174.384C341.77 174.451 341.235 174.574 340.718 174.752C340.539 174.236 340.306 173.739 340.023 173.271C339.084 171.71 338.404 170.008 338.009 168.23C338.82 168.487 339.631 168.742 340.443 168.994C341.463 169.309 342.503 169.606 343.509 169.893C345.481 170.456 347.512 171.036 349.462 171.781" fill="black"/>
<path d="M334.388 184.347C335.044 184.267 335.686 184.098 336.297 183.845C336.476 184.483 336.741 185.094 337.084 185.662C339.468 189.748 340.212 194.587 339.168 199.202L322.45 191.076C325.434 187.405 329.699 185.001 334.385 184.35" fill="#233862"/>
<path d="M339.172 199.618C339.236 199.618 339.299 199.603 339.356 199.576C339.413 199.548 339.463 199.507 339.502 199.457C339.542 199.407 339.569 199.349 339.582 199.287C340.637 194.567 339.874 189.624 337.446 185.443C337.122 184.909 336.872 184.334 336.702 183.733C336.686 183.676 336.658 183.623 336.62 183.577C336.583 183.532 336.535 183.495 336.482 183.469C336.429 183.443 336.371 183.429 336.311 183.427C336.252 183.425 336.193 183.436 336.139 183.459C335.562 183.697 334.955 183.856 334.335 183.932C329.547 184.606 325.19 187.06 322.131 190.805C322.09 190.854 322.061 190.911 322.046 190.973C322.031 191.035 322.03 191.099 322.043 191.161C322.056 191.223 322.084 191.282 322.123 191.332C322.162 191.382 322.212 191.422 322.27 191.45L338.989 199.577C339.046 199.605 339.108 199.62 339.172 199.62M336.035 184.396C336.213 184.913 336.446 185.41 336.73 185.878C338.959 189.715 339.72 194.231 338.869 198.586L323.128 190.935C326.027 187.576 330.046 185.384 334.439 184.765C334.982 184.7 335.517 184.576 336.034 184.397" fill="black"/>
<path d="M313.524 190.155L345.41 205.653L343.879 208.802L311.993 193.304L313.524 190.155Z" fill="white"/>
<path d="M343.876 209.222C343.923 209.222 343.969 209.214 344.013 209.199C344.118 209.162 344.204 209.086 344.253 208.986L345.784 205.837C345.808 205.787 345.822 205.734 345.825 205.679C345.829 205.624 345.821 205.569 345.803 205.517C345.785 205.465 345.757 205.417 345.72 205.376C345.684 205.334 345.64 205.301 345.59 205.277L313.705 189.778C313.655 189.754 313.602 189.74 313.547 189.737C313.492 189.733 313.437 189.741 313.385 189.759C313.333 189.777 313.285 189.805 313.244 189.841C313.203 189.878 313.169 189.922 313.145 189.972L311.614 193.12C311.565 193.22 311.558 193.335 311.595 193.44C311.631 193.545 311.708 193.632 311.808 193.68L343.694 209.179C343.75 209.207 343.813 209.222 343.876 209.222ZM344.847 205.847L343.683 208.241L312.551 193.11L313.715 190.715L344.847 205.847Z" fill="black"/>
<path d="M333.797 148.446L365.684 163.944L364.153 167.093L332.267 151.595L333.797 148.446Z" fill="white"/>
<path d="M364.152 167.511C364.198 167.511 364.245 167.503 364.289 167.488C364.341 167.47 364.389 167.442 364.43 167.405C364.472 167.369 364.505 167.324 364.529 167.275L366.06 164.126C366.108 164.026 366.115 163.911 366.078 163.806C366.042 163.701 365.966 163.614 365.866 163.566L333.981 148.069C333.931 148.045 333.877 148.031 333.823 148.027C333.768 148.024 333.713 148.031 333.661 148.049C333.609 148.067 333.561 148.095 333.519 148.132C333.478 148.168 333.445 148.213 333.421 148.262L331.89 151.411C331.866 151.46 331.851 151.514 331.848 151.569C331.844 151.624 331.852 151.679 331.87 151.731C331.907 151.837 331.983 151.923 332.083 151.972L363.969 167.469C364.026 167.497 364.088 167.511 364.152 167.511ZM365.123 164.137L363.958 166.532L332.829 151.4L333.993 149.006L365.123 164.137Z" fill="black"/>
</g>
<mask id="mask2_979_625" style="mask-type:luminance" maskUnits="userSpaceOnUse" x="0" y="112" width="61" height="56">
<path d="M0.777164 112.947H60.1484V167.434H0.777164V112.947Z" fill="white"/>
</mask>
<g mask="url(#mask2_979_625)">
<path d="M47.2688 151.139C47.2688 151.139 56.6728 149.021 58.9276 148.239C59.9274 151.02 60.0529 152.975 58.9796 155.247C58.1127 157.08 56.6562 157.988 54.5988 158.499C48.6748 159.973 47.2655 151.142 47.2655 151.142" fill="#233862"/>
<path d="M53.3104 159.081C53.7803 159.078 54.2481 159.018 54.7033 158.902C57.0646 158.315 58.5012 157.241 59.3615 155.424C60.4224 153.179 60.4117 151.125 59.3227 148.097C59.2855 147.993 59.2088 147.908 59.1092 147.86C59.0096 147.813 58.8952 147.806 58.791 147.843C56.5849 148.607 47.2709 150.708 47.1776 150.732C47.0735 150.756 46.9823 150.818 46.9225 150.906C46.8626 150.995 46.8387 151.102 46.8556 151.208C46.8887 151.416 47.7027 156.32 50.675 158.287C51.4547 158.81 52.3732 159.087 53.3121 159.083M58.6688 148.763C59.5497 151.376 59.525 153.115 58.6044 155.065C57.8522 156.656 56.6229 157.56 54.501 158.089C53.9374 158.251 53.3454 158.29 52.7653 158.203C52.1851 158.117 51.6305 157.906 51.139 157.586C48.923 156.122 48.009 152.624 47.7581 151.457C49.4919 151.065 56.2167 149.524 58.6671 148.764" fill="black"/>
<path d="M10.3805 158.496C11.3632 161.708 13.5312 164.427 16.4447 166.099C18.5864 167.316 20.5324 167.205 23.6195 166.437C33.3421 164.019 48.3571 160.053 55.4336 158.292C52.5315 158.858 49.3726 159.385 47.3564 151.468C43.6584 136.966 37.7428 113.367 37.7428 113.367L1.19693 122.455C1.19693 122.455 9.49372 155.582 10.3805 158.496Z" fill="white"/>
<path d="M19.8772 167.434C21.1765 167.393 22.4661 167.194 23.718 166.844C28.9666 165.539 35.8936 163.747 42.0058 162.166C47.2898 160.8 52.2758 159.509 55.5321 158.698C55.6367 158.671 55.7265 158.603 55.7827 158.511C55.8389 158.418 55.8572 158.308 55.8338 158.202C55.8103 158.096 55.7469 158.004 55.6569 157.944C55.5668 157.884 55.457 157.861 55.3505 157.88C52.5722 158.421 49.699 158.982 47.7547 151.364C44.1078 137.028 38.2095 113.5 38.1509 113.264C38.1377 113.211 38.114 113.16 38.0811 113.116C38.0482 113.071 38.0069 113.034 37.9595 113.005C37.912 112.977 37.8594 112.958 37.8047 112.95C37.75 112.942 37.6942 112.945 37.6407 112.959L1.09649 122.05C1.04298 122.063 0.992598 122.087 0.948254 122.119C0.903911 122.152 0.866474 122.193 0.83809 122.241C0.809705 122.288 0.790933 122.34 0.782853 122.395C0.774773 122.449 0.777542 122.505 0.791004 122.558C1.12951 123.911 9.10018 155.725 9.97617 158.617C10.9915 161.93 13.2288 164.734 16.2345 166.46C17.3386 167.107 18.5975 167.443 19.8772 167.431M51.7045 158.802C48.8371 159.533 45.3843 160.426 41.7969 161.354C35.6872 162.935 28.761 164.725 23.5166 166.03C20.5897 166.759 18.7238 166.912 16.6489 165.735C13.8292 164.115 11.7307 161.484 10.7787 158.375C9.96131 155.677 2.66024 126.569 1.70663 122.762L37.4392 113.874C38.2392 117.066 43.5596 138.272 46.9472 151.572C48.1856 156.448 49.9145 158.254 51.7045 158.801" fill="black"/>
<path d="M25.8197 123.679C25.8311 123.679 25.8425 123.678 25.8536 123.675L32.8946 121.924C32.9305 121.915 32.9613 121.892 32.9803 121.86C32.9993 121.828 33.0048 121.79 32.9957 121.754C32.9866 121.718 32.9637 121.688 32.9318 121.669C32.9 121.65 32.862 121.644 32.8261 121.653L25.7851 123.404C25.752 123.413 25.7231 123.433 25.7038 123.461C25.6845 123.489 25.6761 123.523 25.6803 123.557C25.6844 123.591 25.7008 123.622 25.7264 123.644C25.7519 123.667 25.7857 123.679 25.8197 123.679Z" fill="black"/>
<path d="M23.4781 126.579C23.4895 126.579 23.5008 126.577 23.512 126.575L33.4509 124.102C33.4687 124.098 33.4854 124.09 33.5002 124.079C33.5149 124.068 33.5273 124.054 33.5368 124.039C33.5462 124.023 33.5524 124.005 33.5551 123.987C33.5578 123.969 33.5569 123.951 33.5525 123.933C33.548 123.915 33.5401 123.898 33.5292 123.884C33.5183 123.869 33.5046 123.856 33.4889 123.847C33.4732 123.838 33.4557 123.831 33.4376 123.829C33.4195 123.826 33.401 123.827 33.3832 123.831L23.4442 126.303C23.4112 126.311 23.3823 126.332 23.363 126.36C23.3436 126.388 23.3353 126.422 23.3395 126.456C23.3436 126.49 23.36 126.521 23.3856 126.543C23.4111 126.566 23.444 126.579 23.4781 126.579Z" fill="black"/>
<path d="M11.4388 139.821C11.4502 139.82 11.4615 139.819 11.4726 139.816L30.1204 135.181C30.154 135.17 30.1822 135.147 30.1993 135.116C30.2165 135.085 30.2212 135.049 30.2126 135.014C30.2041 134.98 30.1828 134.95 30.1532 134.931C30.1235 134.911 30.0876 134.904 30.0527 134.91L11.4041 139.548C11.371 139.556 11.3421 139.576 11.3228 139.604C11.3035 139.633 11.2951 139.667 11.2993 139.701C11.3035 139.734 11.3199 139.765 11.3454 139.788C11.371 139.811 11.4039 139.823 11.438 139.823" fill="black"/>
<path d="M13.2532 146.942C13.2646 146.941 13.276 146.94 13.2871 146.937L31.9348 142.299C31.9685 142.288 31.9967 142.265 32.0138 142.234C32.0309 142.203 32.0357 142.166 32.0271 142.132C32.0185 142.097 31.9973 142.068 31.9676 142.048C31.9379 142.029 31.902 142.021 31.8671 142.027L13.2186 146.667C13.1855 146.675 13.1566 146.695 13.1373 146.723C13.118 146.751 13.1096 146.785 13.1138 146.819C13.1179 146.853 13.1343 146.884 13.1599 146.907C13.1854 146.929 13.2192 146.942 13.2532 146.942Z" fill="black"/>
<path d="M15.0651 154.062C15.0765 154.062 15.0878 154.06 15.0989 154.058L33.7467 149.419C33.7657 149.416 33.7839 149.409 33.8 149.398C33.8161 149.388 33.8299 149.374 33.8405 149.358C33.851 149.342 33.8581 149.323 33.8613 149.304C33.8645 149.285 33.8638 149.266 33.8591 149.247C33.8544 149.228 33.846 149.211 33.8342 149.195C33.8224 149.18 33.8076 149.167 33.7907 149.158C33.7738 149.149 33.7552 149.143 33.7359 149.141C33.7167 149.139 33.6973 149.142 33.679 149.148L15.0304 153.789C14.9973 153.798 14.9684 153.818 14.9491 153.846C14.9298 153.874 14.9214 153.908 14.9256 153.942C14.9298 153.976 14.9462 154.007 14.9717 154.029C14.9973 154.052 15.0302 154.064 15.0643 154.064" fill="black"/>
<path d="M36.0788 133.549C36.0178 133.318 35.8682 133.121 35.6625 132.999C35.4568 132.878 35.2116 132.842 34.9799 132.9C34.8653 132.928 34.7573 132.978 34.6621 133.048C34.567 133.117 34.4866 133.205 34.4255 133.306C34.3645 133.407 34.3241 133.519 34.3065 133.635C34.289 133.752 34.2948 133.871 34.3235 133.985C34.3843 134.216 34.5338 134.414 34.7395 134.536C34.9452 134.657 35.1906 134.693 35.4224 134.635C35.537 134.607 35.6449 134.557 35.74 134.487C35.8351 134.417 35.9155 134.33 35.9765 134.229C36.0375 134.128 36.078 134.016 36.0955 133.899C36.1131 133.783 36.1074 133.664 36.0788 133.549Z" fill="black"/>
<path d="M35.202 135.084C35.3103 135.084 35.4181 135.071 35.5232 135.045C35.6926 135.003 35.8521 134.929 35.9923 134.825C36.1326 134.721 36.251 134.591 36.3406 134.441C36.4291 134.293 36.4873 134.13 36.512 133.96C36.5366 133.79 36.5272 133.617 36.4842 133.45C36.4182 133.197 36.279 132.97 36.0841 132.795C35.8893 132.621 35.6474 132.509 35.3887 132.472C35.1301 132.434 34.8662 132.474 34.6302 132.586C34.3942 132.698 34.1964 132.878 34.0618 133.102C33.9733 133.249 33.9149 133.412 33.8901 133.583C33.8653 133.753 33.8746 133.926 33.9173 134.092C33.9908 134.377 34.157 134.629 34.3897 134.808C34.6223 134.988 34.9082 135.085 35.202 135.084ZM35.202 133.295C35.3093 133.294 35.4138 133.329 35.499 133.394C35.5842 133.459 35.6453 133.551 35.6726 133.655C35.6876 133.714 35.6907 133.776 35.6816 133.837C35.6726 133.898 35.6515 133.956 35.6198 134.009C35.5872 134.064 35.5439 134.112 35.4926 134.149C35.4413 134.187 35.3829 134.214 35.3209 134.229C35.1968 134.262 35.0649 134.243 34.9542 134.179C34.8434 134.114 34.7627 134.008 34.7298 133.884C34.7146 133.825 34.7114 133.763 34.7204 133.702C34.7293 133.641 34.7502 133.583 34.7818 133.53C34.8146 133.475 34.8581 133.428 34.9095 133.39C34.961 133.352 35.0194 133.325 35.0815 133.31C35.1209 133.3 35.1614 133.295 35.202 133.295Z" fill="black"/>
<path d="M37.8921 140.673C37.8311 140.442 37.6815 140.245 37.4759 140.123C37.2702 140.002 37.0249 139.966 36.7932 140.024C36.6785 140.052 36.5705 140.102 36.4753 140.171C36.3801 140.241 36.2996 140.329 36.2386 140.43C36.1775 140.531 36.1371 140.643 36.1196 140.759C36.1022 140.876 36.108 140.995 36.1368 141.109C36.1977 141.34 36.347 141.538 36.5525 141.659C36.7581 141.781 37.0032 141.817 37.2349 141.759C37.3499 141.732 37.4583 141.682 37.5538 141.612C37.6494 141.543 37.7302 141.455 37.7916 141.354C37.853 141.253 37.8938 141.141 37.9117 141.024C37.9295 140.907 37.924 140.788 37.8954 140.673" fill="black"/>
<path d="M37.0106 142.204C37.1188 142.204 37.2267 142.191 37.3318 142.165C37.5012 142.124 37.6606 142.049 37.8009 141.945C37.9412 141.841 38.0596 141.711 38.1492 141.561C38.2376 141.414 38.2959 141.25 38.3206 141.08C38.3452 140.91 38.3358 140.737 38.2928 140.57C38.2268 140.317 38.0876 140.09 37.8927 139.916C37.6979 139.742 37.456 139.629 37.1973 139.592C36.9387 139.554 36.6748 139.594 36.4388 139.706C36.2027 139.819 36.005 139.998 35.8704 140.222C35.7819 140.369 35.7235 140.533 35.6987 140.703C35.6739 140.873 35.6832 141.046 35.7259 141.213C35.7994 141.497 35.9656 141.749 36.1983 141.928C36.4309 142.108 36.7168 142.205 37.0106 142.204ZM37.0106 140.415C37.1179 140.414 37.2224 140.449 37.3076 140.514C37.3928 140.58 37.4539 140.671 37.4812 140.775C37.4962 140.835 37.4993 140.897 37.4902 140.957C37.4812 141.018 37.4601 141.077 37.4284 141.129C37.3958 141.184 37.3525 141.232 37.3012 141.27C37.2499 141.307 37.1915 141.335 37.1295 141.35C37.0054 141.382 36.8735 141.364 36.7628 141.299C36.652 141.234 36.5713 141.128 36.5384 141.004C36.5232 140.945 36.52 140.883 36.529 140.822C36.5379 140.761 36.5588 140.703 36.5904 140.65C36.6342 140.578 36.6959 140.519 36.7696 140.477C36.8432 140.436 36.9262 140.415 37.0106 140.415Z" fill="black"/>
<path d="M39.6781 147.691C39.6171 147.46 39.4675 147.262 39.2618 147.141C39.0562 147.019 38.8109 146.984 38.5792 147.042C38.4645 147.069 38.3565 147.119 38.2613 147.189C38.166 147.259 38.0856 147.346 38.0245 147.447C37.9635 147.548 37.9231 147.66 37.9056 147.777C37.8881 147.893 37.894 148.012 37.9228 148.127C37.9837 148.358 38.1329 148.555 38.3382 148.677C38.5435 148.798 38.7885 148.834 39.0201 148.777C39.135 148.749 39.2434 148.699 39.339 148.63C39.4345 148.56 39.5154 148.472 39.5768 148.371C39.6382 148.271 39.679 148.158 39.6968 148.042C39.7146 147.925 39.7091 147.806 39.6806 147.691" fill="black"/>
<path d="M38.798 149.222C38.9063 149.222 39.0141 149.209 39.1192 149.183C39.2886 149.142 39.4481 149.067 39.5883 148.963C39.7285 148.86 39.8466 148.729 39.9358 148.579C40.0243 148.432 40.0827 148.268 40.1075 148.098C40.1323 147.928 40.1231 147.755 40.0802 147.588C40.0142 147.335 39.875 147.108 39.6802 146.934C39.4853 146.76 39.2434 146.647 38.9847 146.61C38.7261 146.573 38.4622 146.612 38.2262 146.725C37.9902 146.837 37.7925 147.016 37.6578 147.24C37.5693 147.387 37.5109 147.551 37.4861 147.721C37.4613 147.891 37.4705 148.064 37.5134 148.231C37.5868 148.515 37.753 148.767 37.9857 148.946C38.2184 149.126 38.5042 149.223 38.798 149.221M38.798 147.432C38.9054 147.432 39.0099 147.467 39.0951 147.532C39.1803 147.597 39.2414 147.689 39.2687 147.793C39.2837 147.853 39.2867 147.915 39.2776 147.975C39.2686 148.036 39.2476 148.095 39.2158 148.147C39.1664 148.229 39.0939 148.295 39.0074 148.337C38.9209 148.378 38.8241 148.393 38.7292 148.379C38.6342 148.366 38.5453 148.325 38.4734 148.262C38.4015 148.198 38.3499 148.115 38.325 148.023C38.3098 147.963 38.3066 147.901 38.3156 147.84C38.3245 147.779 38.3454 147.721 38.377 147.668C38.4216 147.597 38.4837 147.538 38.5573 147.497C38.631 147.457 38.7139 147.435 38.798 147.436" fill="black"/>
</g>
<mask id="mask3_979_625" style="mask-type:luminance" maskUnits="userSpaceOnUse" x="266" y="72" width="26" height="29">
<path d="M266.064 72.0132H291.955V100.807H266.064V72.0132Z" fill="white"/>
</mask>
<g mask="url(#mask3_979_625)">
<path d="M271.279 100.806C271.703 100.802 272.122 100.713 272.511 100.542C272.899 100.372 273.249 100.125 273.539 99.8154L290.921 81.6063C291.267 81.2479 291.537 80.8233 291.714 80.3581C291.892 79.8929 291.973 79.3967 291.954 78.8991C291.937 78.4501 291.828 78.0094 291.634 77.6042C291.44 77.1989 291.165 76.8377 290.827 76.5428L286.537 72.8126C286.2 72.5226 285.809 72.3033 285.387 72.1678C284.964 72.0323 284.518 71.9835 284.076 72.0241C283.587 72.0696 283.112 72.2122 282.678 72.4435C282.245 72.6749 281.861 72.9904 281.551 73.3716L266.159 92.1528C266.121 92.1949 266.091 92.2443 266.073 92.2981C266.054 92.3518 266.046 92.4089 266.05 92.4657C266.054 92.5225 266.07 92.5778 266.096 92.6284C266.122 92.679 266.158 92.7237 266.202 92.7598C266.246 92.796 266.297 92.8228 266.352 92.8386C266.407 92.8545 266.464 92.859 266.521 92.8519C266.577 92.8449 266.632 92.8264 266.681 92.7976C266.73 92.7689 266.773 92.7304 266.806 92.6845L282.198 73.9024C282.437 73.6078 282.733 73.3638 283.067 73.1847C283.402 73.0057 283.769 72.8952 284.147 72.8597C284.477 72.8278 284.811 72.8632 285.127 72.9638C285.443 73.0644 285.736 73.2281 285.987 73.445L290.28 77.1752C290.532 77.3966 290.736 77.6673 290.879 77.9704C291.022 78.2735 291.102 78.6028 291.113 78.9379C291.128 79.322 291.064 79.7051 290.927 80.0642C290.79 80.4233 290.582 80.751 290.315 81.0276L272.933 99.235C272.56 99.6591 272.035 99.9191 271.472 99.9585C270.908 99.9979 270.352 99.8136 269.923 99.4456L268.218 97.8893C267.816 97.4907 267.584 96.9516 267.571 96.3853C267.558 95.8191 267.765 95.27 268.149 94.8534L281.221 79.8139C281.625 79.3176 282.209 79.0012 282.845 78.9339C283.481 78.8666 284.118 79.0539 284.617 79.4548C284.847 79.6561 285.033 79.9024 285.164 80.1784C285.295 80.4545 285.368 80.7544 285.378 81.0598C285.391 81.41 285.333 81.7593 285.207 82.0864C285.081 82.4136 284.891 82.712 284.647 82.9637L272.957 95.1713C272.915 95.2101 272.881 95.2571 272.857 95.3096C272.834 95.3621 272.821 95.4189 272.82 95.4764C272.82 95.5339 272.831 95.591 272.853 95.644C272.876 95.697 272.909 95.7449 272.95 95.7846C272.992 95.8244 273.041 95.8551 273.095 95.875C273.149 95.8948 273.207 95.9034 273.264 95.9C273.321 95.8967 273.378 95.8816 273.429 95.8557C273.48 95.8297 273.526 95.7935 273.563 95.7492L285.257 83.5441C285.579 83.21 285.83 82.8145 285.995 82.381C286.16 81.9476 286.236 81.4853 286.219 81.0218C286.204 80.6031 286.103 80.192 285.922 79.8138C285.742 79.4356 285.486 79.0985 285.17 78.8232C284.504 78.276 283.648 78.0153 282.789 78.0981C281.931 78.1809 281.141 78.6005 280.591 79.2649L267.516 94.3044C266.989 94.8868 266.71 95.6505 266.735 96.4349C266.761 97.2193 267.09 97.9633 267.653 98.5101L269.359 100.066C269.883 100.546 270.569 100.812 271.28 100.809" fill="#233862"/>
</g>
<mask id="mask4_979_625" style="mask-type:luminance" maskUnits="userSpaceOnUse" x="207" y="0" width="30" height="52">
<path d="M207.427 0H236.32V51.698H207.427V0Z" fill="white"/>
</mask>
<g mask="url(#mask4_979_625)">
<mask id="mask5_979_625" style="mask-type:luminance" maskUnits="userSpaceOnUse" x="207" y="0" width="30" height="52">
<path d="M207.421 0H236.314V51.698H207.421V0Z" fill="white"/>
</mask>
<g mask="url(#mask5_979_625)">
<g style="mix-blend-mode:multiply">
<path d="M222.317 43.5665C222.317 43.5665 226.686 47.9357 223.111 49.9238C219.536 51.9119 213.181 46.746 215.962 44.3632C218.743 41.9805 222.32 43.569 222.32 43.569" fill="#0086D5"/>
<path d="M222.317 43.5665C222.317 43.5665 226.686 47.9357 223.111 49.9238C219.536 51.9119 213.181 46.746 215.962 44.3632C218.743 41.9805 222.317 43.5665 222.317 43.5665Z" stroke="#233862" stroke-width="0.874" stroke-miterlimit="10"/>
</g>
<g style="mix-blend-mode:multiply">
<mask id="mask6_979_625" style="mask-type:luminance" maskUnits="userSpaceOnUse" x="207" y="0" width="30" height="40">
<path d="M207.72 0H236.309V39.6167H207.72V0Z" fill="white"/>
</mask>
<g mask="url(#mask6_979_625)">
<path d="M234.08 11.1539C234.272 10.0187 235.056 9.10391 234.711 7.91997C234.301 6.85207 233.726 5.85523 233.006 4.96589C232.365 4.2448 231.582 3.66406 230.706 3.26015C229.849 2.6739 228.917 2.20543 227.935 1.86733C225.315 1.20807 222.601 1.00778 219.913 1.27535C218.541 1.37113 217.705 2.07373 216.593 2.68799C215.568 3.12024 214.594 3.66285 213.687 4.30622C212.006 5.84145 210.664 7.7099 209.746 9.79248C208.905 11.7682 208.85 13.9904 209.592 16.0053C209.912 16.9597 210.363 17.865 210.931 18.6952C211.209 19.1 211.547 19.46 211.934 19.7627C212.452 20.058 212.985 20.3261 213.531 20.566C214.386 21.1238 215.172 21.7806 215.872 22.5228C216.546 23.1943 217.07 24.0011 217.409 24.8898C218.172 26.8193 218.152 28.9354 218.249 30.9507C218.318 32.332 218.389 33.7124 218.455 35.0937C218.507 36.1893 218.241 37.3782 218.659 38.4317L218.177 38.0057C219.061 38.1162 219.956 38.0931 220.833 37.9371C221.582 37.8828 222.333 37.867 223.083 37.8901C223.461 37.903 223.839 37.8853 224.213 37.8372C224.645 37.7679 224.654 37.6457 224.617 37.275C224.529 36.3891 224.947 35.5833 224.947 34.704C224.947 33.6621 224.743 32.6284 224.777 31.5856C224.925 30.6102 225.021 29.6278 225.065 28.6423C224.992 28.2059 224.964 27.7633 224.982 27.3213C225.045 26.8259 225.278 26.3611 225.333 25.8641C225.43 24.9806 224.925 24.4448 224.216 23.8966C223.555 23.3847 222.895 22.8736 222.234 22.356C221.498 21.778 220.65 21.3157 219.91 20.7378C218.493 19.5614 217.581 17.8866 217.362 16.0581C217.247 15.1161 217.272 14.1592 217.208 13.2097C217.084 12.3113 217.192 11.3961 217.522 10.5512C218.1 9.33756 219.461 8.71917 220.846 8.43681C221.699 8.27611 222.562 8.17487 223.429 8.1338C224.346 8.02795 225.271 8.02795 226.188 8.1338C227.117 8.31454 227.958 8.80529 228.572 9.5258C228.885 9.85866 229.105 10.2673 229.212 10.7114C229.318 11.2357 229.129 11.7707 229.332 12.2801L228.668 11.8326C229.355 11.8722 230.019 11.7723 230.711 11.8598C231.375 11.9543 232.043 12.0119 232.712 12.0324C233.207 12.0898 233.707 12.0804 234.199 12.0043C234.722 11.8565 234.811 11.2142 234.881 10.7915C235.292 8.33856 233.477 6.10938 231.438 4.65463C230.95 4.30704 230.44 3.98092 229.964 3.62095C229.462 3.24281 229.064 2.76973 228.56 2.39325C227.542 1.62955 225.965 1.51809 224.68 1.43965C223.371 1.35885 222.057 1.46842 220.779 1.76495C219.501 2.10642 218.254 2.55039 217.048 3.09255C216.47 3.3262 215.847 3.4517 215.275 3.68947C214.706 3.96641 214.183 4.33172 213.728 4.77187C212.715 5.46489 211.792 6.28201 210.982 7.20415C209.633 9.30502 208.995 11.7837 209.161 14.2748C209.219 15.4678 208.996 16.7393 209.963 17.6788C210.818 18.5375 211.738 19.3294 212.714 20.0475C213.796 20.8178 214.954 21.4833 216.083 22.1942C216.62 22.5327 217.12 22.8992 217.694 23.1849C218.233 23.4178 218.733 23.7291 219.18 24.1088C219.899 24.8873 220.343 25.8795 220.445 26.9341C220.624 28.0677 220.694 29.2159 220.654 30.3629C220.609 31.7706 220.174 33.1196 220.089 34.5166C220.072 36.0222 220.141 37.5275 220.296 39.0253H218.916C218.791 36.5127 218.666 34 218.541 31.4874C218.484 30.3315 218.382 29.1649 218.368 28.0057C218.361 27.4443 218.67 26.4626 218.285 25.9813L219.064 26.2612C218.616 26.3765 218.143 26.3481 217.712 26.18C217.281 26.0118 216.914 25.7124 216.662 25.3241C216.309 24.6132 217.497 23.9915 217.854 24.709C217.931 24.8578 218.057 24.976 218.21 25.0443C218.363 25.1127 218.535 25.1272 218.697 25.0855C218.84 25.0529 218.99 25.062 219.128 25.1116C219.266 25.1612 219.386 25.2493 219.476 25.3654C219.971 25.9813 219.791 26.9052 219.756 27.6069C219.7 28.7298 219.838 29.8774 219.895 30.9994C220.029 33.6739 220.161 36.3486 220.294 39.0237C220.333 39.8088 218.957 39.8055 218.915 39.0237C218.837 37.597 218.639 36.1695 218.697 34.7387C218.754 33.3351 219.199 31.986 219.264 30.5825C219.328 29.4176 219.269 28.2491 219.087 27.0967C219.056 26.5628 218.894 26.0449 218.614 25.589C218.335 25.1332 217.947 24.7537 217.485 24.4844C216.214 23.8124 215.018 23.0412 213.805 22.2875C212.573 21.5556 211.405 20.7206 210.315 19.7916C209.481 19.0485 208.37 18.2014 208.011 17.1727C207.861 16.5692 207.798 15.9471 207.826 15.3258C207.795 14.5927 207.731 13.8545 207.756 13.1206C207.813 11.7947 208.075 10.4856 208.533 9.24014C208.912 7.98207 209.558 6.82065 210.427 5.83527C210.894 5.38489 211.39 4.9662 211.913 4.58197C212.465 4.15265 212.971 3.67379 213.533 3.26098C214.034 2.89136 214.592 2.60505 215.184 2.41306C215.944 2.15794 216.664 1.88879 217.399 1.58249C220.017 0.445735 222.884 0.0100967 225.721 0.318457C227.046 0.364784 228.335 0.761333 229.456 1.46772C229.989 1.86402 230.414 2.35857 230.942 2.759C231.506 3.18584 232.114 3.56728 232.685 3.9867C235.094 5.75683 236.865 8.60358 236.144 11.433C236.036 12.0174 235.712 12.5396 235.236 12.8952C234.727 13.1731 234.149 13.2994 233.571 13.2593C232.846 13.2805 232.12 13.2529 231.399 13.1767C230.986 13.1263 230.581 13.0413 230.167 13.0116C229.663 12.9786 229.169 13.071 228.665 13.0421C228.522 13.0428 228.383 13.0005 228.264 12.9207C228.146 12.8409 228.054 12.7273 228.001 12.5946C227.873 12.1283 227.83 11.6429 227.873 11.1614C227.845 10.9101 227.762 10.6679 227.632 10.4514C227.501 10.235 227.325 10.0493 227.116 9.90724C226.719 9.62828 226.271 9.43097 225.798 9.32679C225.324 9.22261 224.835 9.21364 224.358 9.30041C222.789 9.38297 220.808 9.36233 219.487 10.2375C219.153 10.4873 218.891 10.8207 218.727 11.2041C218.563 11.5875 218.503 12.0074 218.554 12.4213C218.554 13.5144 218.62 14.6414 218.709 15.732C218.829 16.8004 219.202 17.8249 219.796 18.7208C220.455 19.5666 221.277 20.2702 222.215 20.7889C223.051 21.3462 223.773 22.0034 224.581 22.588C225.333 23.0406 225.972 23.659 226.448 24.3961C226.948 25.3621 226.601 26.3025 226.378 27.2783C226.335 27.768 226.358 28.2612 226.447 28.7447C226.427 29.3318 226.36 29.9164 226.244 30.4925C226.145 31.626 226.159 32.7666 226.287 33.8974C226.339 34.401 226.334 34.9091 226.271 35.4116C226.119 35.9237 226.014 36.4488 225.959 36.9802C225.982 37.7737 226.046 38.4787 225.092 38.8701C224.264 39.1128 223.397 39.1911 222.539 39.1004C221.624 39.1058 220.71 39.1574 219.8 39.2548C219.001 39.3176 217.64 39.4934 217.295 38.6769C217.035 37.7883 216.964 36.8551 217.087 35.9375C217.113 34.8295 217.004 33.7141 216.949 32.6069C216.947 30.645 216.802 28.6858 216.515 26.745C216.363 25.8636 216.048 25.0184 215.586 24.2524C215.007 23.4611 214.318 22.7562 213.54 22.1587C212.748 21.4742 211.689 21.2216 210.881 20.5685C210.16 19.9514 209.569 19.1984 209.139 18.3525C208.151 16.6239 207.665 14.6538 207.735 12.664C207.887 10.6242 208.577 8.6613 209.737 6.97628C210.364 6.06294 211.056 5.19599 211.807 4.38217C212.482 3.57969 213.311 2.92029 214.244 2.44278C215.244 1.9375 216.192 1.4314 217.15 0.865019C218.14 0.31235 219.256 0.0261532 220.39 0.0344428C222.971 -0.139913 225.563 0.0611568 228.086 0.631368C229.071 0.914434 230.011 1.33615 230.877 1.88384C231.68 2.3693 232.553 2.82092 233.296 3.37574C234.013 4.01436 234.619 4.76767 235.089 5.60492C235.703 6.45227 236.087 7.44413 236.203 8.48387C236.268 9.5514 235.582 10.4505 235.408 11.4784C235.277 12.2512 233.948 11.9226 234.078 11.1539" fill="black"/>
</g>
</g>
<g style="mix-blend-mode:multiply">
<mask id="mask7_979_625" style="mask-type:luminance" maskUnits="userSpaceOnUse" x="217" y="8" width="19" height="32">
<path d="M217.311 8.0918H235.41V39.6166H217.311V8.0918Z" fill="white"/>
</mask>
<g mask="url(#mask7_979_625)">
<path d="M234.95 12.2051C233.952 12.5291 232.931 12.7796 231.895 12.9547C230.989 13.2093 230.05 13.3336 229.109 13.3238C228.966 13.3229 228.827 13.2799 228.709 13.2003C228.591 13.1207 228.499 13.008 228.444 12.8763C228.122 12.1539 228.287 11.3307 227.826 10.6562C227.432 10.0681 226.83 9.6505 226.142 9.48711C225.169 9.3008 224.176 9.25216 223.19 9.34262C222.412 9.297 221.633 9.39869 220.894 9.64232C220.236 9.87751 219.673 10.3211 219.29 10.9055C219.051 11.6269 218.905 12.3761 218.858 13.1347C218.51 14.7253 218.765 16.3884 219.573 17.802C220.606 19.3114 221.914 20.6134 223.428 21.6403C224.674 22.6186 226.077 23.2527 226.293 24.8519C226.407 25.6924 226.308 26.5387 226.337 27.3817C226.37 28.3369 226.432 29.2921 226.48 30.2474C226.572 32.1108 226.893 33.9676 226.933 35.8303C226.959 37.0249 226.976 38.9007 225.456 39.4366C223.731 40.0451 221.941 38.8933 220.194 39.1336C219.326 39.2525 218.952 38.0784 219.828 37.9587C220.681 37.8708 221.542 37.9184 222.38 38.0999C223.154 38.3244 223.961 38.411 224.764 38.3558C225.355 38.2394 225.421 37.6739 225.488 37.2181C225.593 36.2778 225.583 35.3281 225.457 34.3904C225.262 32.4502 225.115 30.5231 225.018 28.5763C224.972 27.6475 224.971 26.7286 224.97 25.7998C225.026 25.3818 224.966 24.9565 224.795 24.5707C224.625 24.1849 224.351 23.8537 224.005 23.6135C221.123 21.5346 217.937 19.2856 217.39 15.8056C217.281 14.9755 217.301 14.1338 217.448 13.3097C217.538 12.5225 217.667 11.7405 217.837 10.9666C218.089 10.3053 218.502 9.71746 219.039 9.25681C219.575 8.79616 220.219 8.47738 220.911 8.32958C221.954 8.12804 223.016 8.04934 224.077 8.0951C225.131 8.0348 226.186 8.18352 227.183 8.53268C227.871 8.82603 228.467 9.29949 228.909 9.90322C229.556 10.7371 229.376 11.6593 229.774 12.5543L229.11 12.1068C230.012 12.1055 230.909 11.9811 231.777 11.7369C232.73 11.5749 233.668 11.3389 234.584 11.031C234.663 11.0005 234.747 10.9865 234.832 10.9899C234.916 10.9933 234.999 11.014 235.075 11.0507C235.151 11.0874 235.219 11.1393 235.274 11.2033C235.329 11.2672 235.371 11.3418 235.396 11.4225C235.421 11.5031 235.429 11.588 235.42 11.672C235.411 11.756 235.385 11.8372 235.343 11.9107C235.302 11.9841 235.245 12.0482 235.178 12.099C235.11 12.1498 235.033 12.1862 234.951 12.2059" fill="black"/>
</g>
</g>
<g style="mix-blend-mode:multiply">
<mask id="mask8_979_625" style="mask-type:luminance" maskUnits="userSpaceOnUse" x="216" y="41" width="13" height="11">
<path d="M216.391 41.5938H228.094V51.6977H216.391V41.5938Z" fill="white"/>
</mask>
<g mask="url(#mask8_979_625)">
<path d="M219.365 41.624C221.048 41.5703 222.921 41.4919 224.375 42.3926C225.675 43.1984 225.712 44.4484 226.108 45.6803C226.521 46.9748 227.672 48.2488 226.495 49.5211C225.399 50.6081 223.92 51.22 222.376 51.2243C221.539 51.1551 220.723 50.9311 219.967 50.5638C219.248 50.2924 218.551 49.9644 217.883 49.583C217.385 49.2293 216.986 48.7529 216.726 48.1999C216.466 47.647 216.352 47.0362 216.397 46.4266C216.391 45.672 216.571 44.9274 216.92 44.2586C217.27 43.5898 217.779 43.0173 218.402 42.5916C219.003 42.1766 219.708 41.9389 220.437 41.9055C221.192 41.8354 221.951 41.8222 222.708 41.8659C223.368 41.894 224.012 42.0705 224.594 42.3825C225.175 42.6944 225.679 43.1336 226.067 43.6674C226.829 44.7704 226.833 46.032 226.971 47.277C227.104 47.9689 227.005 48.6853 226.688 49.3146C226.242 49.9495 225.614 50.434 224.886 50.7042C224.102 51.0066 223.273 51.1784 222.433 51.2128C221.553 51.368 220.647 51.2686 219.821 50.9263C219.246 50.5431 218.786 50.0101 218.491 49.3848C218.097 48.884 217.678 48.4039 217.234 47.9466C216.901 47.3865 216.729 46.7449 216.739 46.0931C216.69 45.7521 216.71 45.4046 216.798 45.0715C216.886 44.7384 217.04 44.4265 217.252 44.1545C217.741 43.5593 218.387 43.112 219.116 42.8624C219.836 42.6494 220.58 42.5298 221.33 42.5066C222.92 42.3621 224.409 42.3802 225.72 43.2975C226.675 44.0795 227.367 45.1357 227.702 46.3234C228.018 46.8426 228.135 47.4584 228.032 48.0572C227.742 48.8316 227.254 49.5165 226.617 50.0437C225.388 50.9836 223.892 51.5071 222.345 51.5381C221.534 51.5967 220.721 51.6388 219.91 51.69C219.539 51.7469 219.16 51.7219 218.8 51.6168C218.441 51.5116 218.108 51.3288 217.827 51.0812C217.545 50.8336 217.321 50.5273 217.171 50.1839C217.02 49.8404 216.947 49.4682 216.956 49.0934C217.024 48.3165 218.404 48.3099 218.336 49.0934C218.324 49.3469 218.379 49.599 218.495 49.8248C218.611 50.0505 218.784 50.2421 218.996 50.3805C219.569 50.5302 220.17 50.5373 220.747 50.4012C221.952 50.4233 223.155 50.2703 224.317 49.9471C224.899 49.7361 225.43 49.4034 225.874 48.9712C226.09 48.7429 226.28 48.4915 226.44 48.2215C226.588 48.044 226.69 47.8336 226.739 47.6081C226.698 47.3948 226.621 47.1901 226.51 47.0029C226.411 46.761 226.322 46.5166 226.226 46.2739C226.065 45.8406 225.86 45.4254 225.612 45.0354C225.333 44.6259 224.961 44.2873 224.528 44.0464C224.094 43.8055 223.611 43.6689 223.115 43.6476C222.47 43.6365 221.825 43.6682 221.183 43.7425C220.634 43.758 220.089 43.8488 219.564 44.0125C219.026 44.2021 218.565 44.5629 218.252 45.0396C218.058 45.5145 218.029 46.0413 218.17 46.5348C218.182 46.7367 218.234 46.9342 218.323 47.116C218.411 47.2977 218.535 47.4602 218.687 47.594C219.1 47.9698 219.457 48.4033 219.747 48.8812C219.989 49.2899 220.219 49.8001 220.743 49.976C221.429 50.1056 222.133 50.1028 222.818 49.9677C223.859 49.8571 225.429 49.4104 225.617 48.3421C225.664 47.7933 225.633 47.2408 225.525 46.7007C225.503 46.2381 225.445 45.7779 225.351 45.3244C225.248 44.8872 225.045 44.4797 224.758 44.1334C224.472 43.7871 224.11 43.5113 223.7 43.3272C223.229 43.1414 222.724 43.057 222.218 43.0795C221.612 43.0903 220.98 43.0696 220.376 43.1373C219.835 43.2372 219.329 43.476 218.909 43.8304C218.488 44.1847 218.166 44.6424 217.976 45.1585C217.805 45.6081 217.726 46.0874 217.742 46.5681C217.759 47.0489 217.872 47.5214 218.073 47.9581C218.309 48.3472 218.664 48.6498 219.086 48.8209C219.673 49.0975 220.28 49.3601 220.88 49.6119C221.448 49.8794 222.069 50.0165 222.697 50.0131C223.269 49.9558 223.823 49.7819 224.326 49.5021C224.796 49.3104 225.213 49.0066 225.539 48.617C225.817 48.1901 225.526 47.6263 225.331 47.2134C225.061 46.7184 224.844 46.1962 224.684 45.6555C224.594 45.1828 224.471 44.717 224.315 44.2618C223.91 43.2405 222.612 42.8971 221.491 42.8244C220.784 42.779 220.071 42.8195 219.364 42.8426C219.279 42.8502 219.194 42.8402 219.113 42.813C219.033 42.7859 218.959 42.7422 218.896 42.6849C218.833 42.6276 218.783 42.5578 218.749 42.4801C218.715 42.4023 218.697 42.3183 218.697 42.2333C218.697 42.1483 218.715 42.0643 218.749 41.9865C218.783 41.9087 218.833 41.839 218.896 41.7817C218.959 41.7243 219.033 41.6807 219.113 41.6536C219.194 41.6264 219.279 41.6163 219.364 41.624" fill="black"/>
</g>
</g>
</g>
</g>
</svg>
