<svg width="477" height="449" viewBox="0 0 477 449" fill="none" xmlns="http://www.w3.org/2000/svg">
<mask id="mask0_979_625" style="mask-type:luminance" maskUnits="userSpaceOnUse" x="0" y="18" width="466" height="431">
<path d="M465.787 18.2476H0V448.696H465.787V18.2476Z" fill="white"/>
</mask>
<g mask="url(#mask0_979_625)">
<path d="M355.207 157.294C354.782 175.858 366.145 194.815 383.679 200.928C393.227 204.256 403.692 203.786 413.477 206.339C423.261 208.893 433.231 216.26 433.291 226.371C433.333 233.087 429.524 248.32 449.634 257.249C466.223 264.609 462.261 304.442 410.885 321.189C395.144 326.321 405.289 313.412 388.923 310.893C372.767 308.408 358.109 299.269 346.963 287.312C335.817 275.354 327.928 260.697 321.781 245.547C314.706 228.104 309.755 208.833 314.13 190.525C318.505 172.216 334.646 155.671 355.202 157.297" fill="black"/>
<path d="M405.042 323.491C401.542 323.491 400.236 321.599 398.922 318.986C397.539 316.231 395.971 313.111 388.759 312.003C373.471 309.65 358.335 301.154 346.147 288.076C336.239 277.446 327.93 263.674 320.745 245.969C311.723 223.73 309.274 206.027 313.044 190.264C317.3 172.457 333.569 154.452 355.295 156.176C355.582 156.199 355.848 156.331 356.041 156.544C356.233 156.758 356.337 157.037 356.331 157.324C355.899 176.226 367.559 194.12 384.05 199.87C389.252 201.686 394.897 202.364 400.351 203.02C404.866 203.462 409.346 204.209 413.76 205.255C423.663 207.84 434.349 215.549 434.418 226.366C434.425 227.241 434.368 228.256 434.306 229.331C433.869 237.055 433.211 248.733 450.092 256.22C456.319 258.984 459.911 266.071 459.467 274.714C458.702 289.644 445.61 311.052 411.236 322.257C409.248 322.984 407.159 323.402 405.044 323.495M352.426 158.307C333.284 158.307 319.09 174.629 315.229 190.781C311.577 206.069 313.991 223.336 322.83 245.122C329.907 262.568 338.073 276.117 347.793 286.541C359.639 299.251 374.309 307.503 389.102 309.78C397.462 311.065 399.466 315.058 400.932 317.975C402.397 320.892 403.209 322.506 410.539 320.117C443.829 309.266 456.494 288.813 457.223 274.597C457.618 266.905 454.537 260.648 449.181 258.271C430.878 250.149 431.618 237.034 432.062 229.198C432.124 228.117 432.176 227.182 432.172 226.376C432.11 216.745 422.29 209.803 413.194 207.425C408.877 206.407 404.497 205.68 400.084 205.249C394.508 204.577 388.743 203.882 383.31 201.987C366.236 196.036 354.077 177.796 354.073 158.348C353.519 158.321 352.971 158.307 352.426 158.307Z" fill="black"/>
<path d="M254.773 114.885C260.184 141.267 265.413 169.656 254.608 194.326C251.096 202.343 245.99 209.642 243.105 217.906C239.676 227.731 239.569 238.408 240.508 248.77C242.28 268.356 248.164 288.449 261.937 302.489C275.709 316.529 298.754 322.647 315.745 312.744C330.656 304.055 337.464 285.381 336.527 268.15C335.59 250.918 328.236 234.745 320.475 219.331C301.836 182.297 280.108 146.82 254.77 114.885" fill="black"/>
<path d="M292.923 243.555C293.407 229.492 291.672 221.615 291.106 211.099C296.8 208.251 302.894 206.285 309.179 205.27C311.995 204.815 315.171 204.639 317.338 206.343C318.696 207.408 325.126 201.734 325.794 203.296C330.373 214.029 330.761 229.335 335.342 240.071C335.694 240.897 351.735 239.411 352.089 240.237C353.582 243.731 352.329 272.836 351.221 273.574C292.523 312.601 264.252 256.788 264.252 256.788C264.252 256.788 274.898 250.265 292.924 243.555" fill="white"/>
<path d="M311.71 288.562C307.499 288.568 303.304 288.03 299.231 286.959C275.317 280.659 263.729 258.248 263.246 257.297C263.119 257.046 263.091 256.755 263.167 256.484C263.244 256.213 263.419 255.98 263.659 255.832C263.764 255.766 274.32 249.342 291.819 242.768C291.99 235.578 291.656 228.385 290.82 221.241C290.5 218.032 290.171 214.719 289.981 211.163C289.969 210.945 290.021 210.727 290.131 210.538C290.241 210.349 290.403 210.196 290.599 210.098C296.392 207.194 302.596 205.192 308.994 204.162C311.792 203.709 315.315 203.442 317.882 205.348C319.044 204.93 320.152 204.376 321.184 203.697C323.461 202.364 324.805 201.628 325.877 201.982C326.088 202.05 326.281 202.163 326.444 202.313C326.607 202.463 326.735 202.646 326.821 202.851C329.159 208.33 330.433 215.01 331.664 221.469C332.839 227.623 334.053 233.982 336.172 239.157C337.4 239.276 340.966 239.133 343.648 239.027C351.877 238.697 352.675 238.759 353.116 239.793C354.16 242.241 353.904 253.326 353.747 257.977C353.217 273.592 352.284 274.213 351.835 274.511C337.775 283.858 324.329 288.559 311.706 288.559M265.762 257.206C268.222 261.499 279.581 279.466 299.825 284.79C315.211 288.835 332.21 284.801 350.353 272.8C351.311 269.707 352.23 245.668 351.19 241.14C349.912 241.027 346.394 241.169 343.738 241.274C335.536 241.605 334.745 241.539 334.302 240.508C331.965 235.028 330.692 228.349 329.458 221.891C328.285 215.747 327.076 209.401 324.964 204.233C324.053 204.641 323.17 205.11 322.322 205.636C319.857 207.081 317.912 208.221 316.639 207.221C314.746 205.735 311.751 205.99 309.354 206.377C303.425 207.332 297.669 209.151 292.268 211.776C292.461 214.986 292.75 217.921 293.059 221.014C293.939 228.505 294.268 236.052 294.044 243.592C294.036 243.814 293.962 244.029 293.832 244.21C293.702 244.391 293.521 244.529 293.313 244.607C283.809 248.068 274.597 252.281 265.762 257.206Z" fill="black"/>
<path d="M248.702 121.359C250.426 134.382 253.059 148.042 249.693 161.011C247.852 168.082 248.028 204.026 276.87 214.264C284.785 217.068 293.229 218.056 301.577 217.154C309.925 216.251 317.962 213.481 325.094 209.05C335.701 202.617 348.58 182.63 346.017 162.783C354.798 165.219 363.477 159.299 363.576 151.403C363.635 146.851 358.622 141.148 353.316 141.413C349.211 141.615 348.724 141.655 345.601 144.039C343.303 134.38 342.21 124.474 342.348 114.546C332.367 103.554 316.375 97.9399 300.373 95.5415C295.063 94.6059 289.65 94.4006 284.284 94.9313C268.928 96.8468 246.93 107.984 248.7 121.359" fill="white"/>
<path d="M295.558 218.653C289.059 218.641 282.61 217.517 276.491 215.329C247.599 205.074 246.347 169.396 248.598 160.73C251.501 149.554 249.844 137.724 248.239 126.283C248.015 124.683 247.793 123.092 247.583 121.508C247.082 117.74 248.26 113.978 251.08 110.325C257.952 101.425 273.242 95.1778 284.141 93.8123C290.086 93.0692 296.024 93.7503 300.536 94.4274C313.769 96.4088 331.909 101.382 343.173 113.787C343.365 113.998 343.469 114.274 343.466 114.559C343.329 123.823 344.286 133.07 346.316 142.11C348.523 140.582 349.59 140.466 353.252 140.286C354.687 140.277 356.109 140.559 357.433 141.115C358.756 141.67 359.954 142.488 360.953 143.518C363.294 145.777 364.727 148.802 364.693 151.418C364.639 153.376 364.133 155.295 363.215 157.024C362.296 158.754 360.99 160.248 359.399 161.389C357.679 162.656 355.72 163.559 353.64 164.046C351.56 164.533 349.403 164.593 347.3 164.221C349.131 184.443 336.117 203.676 325.668 210.011C316.618 215.607 306.199 218.597 295.558 218.653ZM249.814 121.213C250.022 122.79 250.245 124.377 250.47 125.97C252.102 137.631 253.791 149.685 250.776 161.295C249.516 166.148 247.928 202.805 277.245 213.208C293.041 218.816 309.826 216.998 324.507 208.094C334.448 202.067 347.43 182.512 344.9 162.933C344.875 162.749 344.897 162.561 344.963 162.388C345.029 162.214 345.136 162.059 345.277 161.938C345.417 161.816 345.585 161.731 345.766 161.69C345.948 161.65 346.136 161.655 346.315 161.705C348.303 162.269 350.393 162.371 352.427 162.006C354.46 161.64 356.384 160.815 358.051 159.595C359.366 158.658 360.447 157.431 361.21 156.008C361.973 154.586 362.397 153.006 362.449 151.393C362.474 149.377 361.304 146.983 359.394 145.14C358.616 144.323 357.682 143.672 356.646 143.224C355.611 142.777 354.495 142.543 353.367 142.536C349.388 142.73 349.15 142.742 346.281 144.931C346.131 145.045 345.956 145.12 345.77 145.149C345.584 145.178 345.393 145.159 345.216 145.095C345.039 145.031 344.881 144.924 344.756 144.783C344.632 144.642 344.544 144.472 344.503 144.288C342.219 134.688 341.115 124.845 341.215 114.977C330.375 103.299 312.963 98.5662 300.208 96.6557C295.837 96.0018 290.092 95.3388 284.426 96.0481C273.977 97.3534 259.364 103.281 252.867 111.7C250.425 114.862 249.399 118.064 249.818 121.214" fill="black"/>
<path d="M311.689 174.093C307.359 174.061 303.186 172.47 299.935 169.611C295.887 166.086 293.293 161.183 292.656 155.854C291.195 144.552 298.358 134.28 308.621 132.951C311.126 132.643 313.668 132.871 316.078 133.619C318.489 134.367 320.712 135.62 322.602 137.292C326.609 140.849 329.194 145.735 329.881 151.049C330.567 156.362 329.307 161.745 326.335 166.202C324.931 168.299 323.098 170.075 320.957 171.411C318.817 172.746 316.416 173.613 313.916 173.952C313.177 174.047 312.432 174.094 311.687 174.094M310.836 135.057C310.191 135.056 309.546 135.098 308.907 135.182C299.875 136.345 293.584 145.492 294.885 155.566C295.452 160.343 297.772 164.739 301.395 167.903C303.038 169.384 304.981 170.492 307.093 171.151C309.204 171.81 311.432 172.004 313.626 171.721C315.819 171.438 317.925 170.684 319.8 169.51C321.674 168.337 323.273 166.772 324.485 164.923C327.141 160.922 328.265 156.098 327.65 151.336C327.036 146.574 324.724 142.193 321.139 138.998C318.291 136.489 314.634 135.089 310.839 135.055" fill="black"/>
<path d="M259.548 176.485C255.218 176.453 251.045 174.86 247.794 172C243.746 168.477 241.152 163.574 240.515 158.245C239.055 146.942 246.216 136.666 256.48 135.343C266.744 134.019 276.279 142.134 277.739 153.438C278.476 158.754 277.213 164.154 274.194 168.591C272.79 170.688 270.957 172.464 268.816 173.8C266.675 175.136 264.275 176.002 261.774 176.341C261.035 176.436 260.29 176.484 259.545 176.484M258.676 137.447C258.037 137.448 257.399 137.489 256.765 137.571C247.731 138.737 241.44 147.883 242.741 157.957C243.307 162.734 245.627 167.129 249.251 170.292C250.894 171.773 252.837 172.882 254.948 173.541C257.059 174.201 259.288 174.395 261.482 174.112C263.675 173.829 265.782 173.075 267.656 171.901C269.531 170.727 271.129 169.161 272.341 167.312C275.044 163.332 276.173 158.49 275.508 153.726C274.301 144.367 266.959 137.448 258.68 137.448" fill="black"/>
<path d="M357.537 41.7887C355.629 35.5101 351.902 29.9383 346.828 25.7777C341.754 21.6172 335.559 19.0548 329.029 18.4146C322.498 17.7745 315.924 19.0852 310.138 22.1812C304.352 25.2772 299.615 30.0193 296.524 35.8079C293.433 41.5965 292.128 48.1716 292.775 54.7017C293.421 61.2319 295.989 67.4238 300.154 72.4944C304.319 77.5651 309.894 81.2868 316.175 83.1889C322.455 85.091 329.158 85.0881 335.437 83.1805C343.856 80.6222 350.915 74.8241 355.059 67.0617C359.204 59.2992 360.095 50.2083 357.537 41.7887Z" fill="black"/>
<path d="M344.455 145.401C336.038 132.341 330.888 122.937 328.122 107.037C297.036 125.448 267.527 128.309 237.763 127.174C237.135 122.111 238.198 110.906 240.301 106.107C245.46 94.3436 251.892 84.1579 269.862 76.1246C282.455 70.4963 299.405 66.7521 313.034 68.7162C326.574 70.6664 338.22 77.988 347.7 86.7817C355.239 93.7789 361.613 105.254 363.855 116.595C365.773 126.308 363.395 133.472 359.043 143.367C356.6 142.051 354.303 140.72 351.47 141.265C348.637 141.809 346.816 143.251 344.452 145.4" fill="black"/>
<path d="M299.354 195.255C297.186 195.293 295.075 194.562 293.395 193.191C293.166 193 293.022 192.726 292.995 192.429C292.968 192.132 293.06 191.837 293.251 191.607C293.442 191.378 293.716 191.234 294.013 191.207C294.31 191.18 294.606 191.272 294.835 191.463C296.954 193.233 300.127 193.495 303.318 192.163C306.983 190.582 309.927 187.692 311.574 184.057C311.635 183.92 311.722 183.796 311.831 183.693C311.94 183.59 312.068 183.51 312.208 183.458C312.348 183.405 312.498 183.381 312.647 183.387C312.797 183.393 312.944 183.429 313.079 183.492C313.215 183.556 313.337 183.646 313.437 183.757C313.537 183.868 313.614 183.999 313.664 184.14C313.713 184.281 313.733 184.431 313.724 184.581C313.715 184.73 313.675 184.876 313.609 185.01C311.726 189.151 308.367 192.442 304.188 194.238C302.661 194.891 301.02 195.236 299.358 195.253" fill="black"/>
<path d="M310.393 154.339C310.345 153.713 310.11 153.116 309.72 152.625C309.33 152.134 308.801 151.771 308.202 151.584C307.604 151.396 306.962 151.393 306.362 151.573C305.761 151.754 305.228 152.11 304.832 152.596C304.436 153.083 304.194 153.677 304.139 154.302C304.084 154.927 304.217 155.554 304.522 156.102C304.827 156.65 305.289 157.095 305.849 157.378C306.409 157.661 307.041 157.769 307.663 157.69C308.062 157.649 308.45 157.53 308.803 157.34C309.156 157.149 309.469 156.891 309.722 156.58C309.976 156.269 310.165 155.91 310.28 155.526C310.395 155.141 310.434 154.738 310.393 154.339Z" fill="black"/>
<path d="M263.953 156.784C263.906 156.158 263.672 155.561 263.282 155.069C262.892 154.577 262.363 154.214 261.764 154.026C261.165 153.838 260.524 153.834 259.922 154.015C259.321 154.196 258.788 154.552 258.392 155.039C257.995 155.526 257.754 156.12 257.699 156.746C257.645 157.371 257.779 157.998 258.084 158.547C258.39 159.095 258.853 159.539 259.413 159.822C259.974 160.104 260.606 160.212 261.229 160.131C262.034 160.048 262.773 159.648 263.283 159.021C263.794 158.393 264.035 157.589 263.953 156.784Z" fill="black"/>
<path d="M281.383 175.781C281.246 175.781 281.11 175.756 280.982 175.707L276.747 174.098C276.343 173.99 275.968 173.796 275.645 173.529C275.323 173.263 275.062 172.931 274.879 172.555C274.424 171.371 275.197 170.333 275.613 169.775C277.181 167.682 278.252 165.26 278.744 162.691C279.236 160.122 279.136 157.475 278.452 154.951C278.372 154.664 278.408 154.357 278.554 154.096C278.7 153.836 278.943 153.645 279.23 153.564C279.517 153.483 279.824 153.519 280.084 153.665C280.345 153.811 280.536 154.054 280.617 154.341C281.394 157.197 281.509 160.192 280.955 163.099C280.4 166.006 279.19 168.748 277.417 171.118C277.257 171.317 277.119 171.533 277.004 171.762C277.179 171.851 277.359 171.928 277.543 171.995L281.779 173.604C282.025 173.698 282.231 173.874 282.361 174.104C282.49 174.333 282.535 174.601 282.487 174.86C282.44 175.119 282.302 175.353 282.1 175.521C281.897 175.69 281.642 175.781 281.378 175.781" fill="black"/>
<path d="M275.867 150.521C275.572 150.521 275.29 150.405 275.08 150.199C274.87 149.992 274.75 149.711 274.745 149.417C274.694 146.497 277.527 144.463 280.359 143.743C282.661 143.173 285.065 143.154 287.376 143.686C289.687 144.219 291.839 145.288 293.66 146.808C293.884 147.004 294.022 147.281 294.042 147.578C294.063 147.876 293.964 148.169 293.768 148.393C293.573 148.618 293.295 148.756 292.998 148.776C292.701 148.797 292.407 148.698 292.183 148.502C290.639 147.218 288.814 146.315 286.856 145.866C284.898 145.418 282.862 145.437 280.912 145.921C278.944 146.424 276.964 147.773 276.992 149.377C276.997 149.675 276.883 149.962 276.676 150.177C276.469 150.391 276.186 150.514 275.888 150.52L275.867 150.521Z" fill="black"/>
<path d="M327.658 145.588C327.511 145.588 327.364 145.559 327.228 145.503C327.091 145.447 326.967 145.364 326.862 145.26C326.651 145.05 326.532 144.764 326.531 144.466C326.531 144.167 326.648 143.881 326.859 143.67C327.069 143.458 327.355 143.339 327.653 143.339L343.019 143.295C343.317 143.294 343.603 143.412 343.814 143.622C344.025 143.833 344.144 144.118 344.145 144.416C344.146 144.714 344.028 145 343.818 145.211C343.607 145.423 343.322 145.542 343.024 145.542L327.66 145.588H327.658Z" fill="black"/>
<path d="M345.821 156.215H345.809C345.661 156.214 345.515 156.183 345.38 156.125C345.244 156.068 345.12 155.983 345.017 155.878C344.914 155.772 344.832 155.648 344.777 155.51C344.722 155.373 344.695 155.227 344.696 155.079C344.73 151.306 343.991 147.565 342.525 144.088C342.408 143.814 342.406 143.505 342.517 143.228C342.629 142.952 342.846 142.731 343.12 142.615C343.395 142.499 343.704 142.496 343.98 142.608C344.257 142.72 344.477 142.936 344.594 143.211C346.181 146.972 346.981 151.018 346.946 155.1C346.943 155.396 346.823 155.679 346.612 155.887C346.402 156.095 346.118 156.212 345.821 156.213" fill="black"/>
<path d="M458.381 363.627C444.794 326.495 437.298 289.855 405.246 263.104C389.862 250.264 371.307 241.154 349.929 239.782C348.62 260.481 324.574 274.119 311.688 275.658C304.675 276.497 278.625 279.964 278.625 249.249C270.121 252.634 241.837 256.109 230.491 290.96C225.852 305.213 217.543 359.767 190.151 391.386C183.681 398.852 177.704 349.16 168.396 352.467C159.261 355.714 148.741 361.15 148.056 370.818C147.521 378.355 153.729 384.918 160.67 387.901C175.583 394.309 181.17 425.359 197.245 427.624C213.954 429.981 240.643 436.139 260.841 372.99C271.162 383.31 277.826 394.402 289.408 400.642C322.783 418.635 433.828 438.836 451.92 442.045C453.421 442.312 456.832 441.082 457.431 439.679C461.228 430.787 471.18 398.614 458.382 363.626" fill="#148A75"/>
<path d="M452.338 443.203C452.132 443.205 451.925 443.189 451.721 443.155C430.356 439.363 322.098 419.543 288.873 401.634C280.838 397.304 275.139 390.716 269.109 383.744C266.649 380.903 264.116 377.977 261.341 375.101C252.742 401.289 242.293 417.69 229.429 425.211C218.153 431.804 207.413 430.24 198.782 428.983C198.206 428.898 197.641 428.815 197.088 428.735C187.953 427.448 182.106 417.57 176.448 408.018C171.718 400.028 166.826 391.765 160.229 388.93C153.184 385.906 146.342 379.105 146.937 370.737C147.514 362.563 154.414 356.244 168.022 351.407C168.514 351.229 169.038 351.155 169.56 351.192C170.082 351.228 170.59 351.373 171.053 351.618C175.364 353.771 178.649 364.303 181.831 374.488C183.96 381.3 186.874 390.626 188.767 391.021C188.932 391.045 189.222 390.745 189.306 390.649C211.106 365.483 220.863 325.077 226.105 303.37C227.44 297.838 228.499 293.468 229.424 290.613C239.372 260.043 262.563 253.038 273.707 249.672C275.512 249.127 277.07 248.657 278.208 248.204C278.378 248.136 278.563 248.111 278.745 248.131C278.928 248.151 279.102 248.215 279.254 248.318C279.406 248.421 279.53 248.56 279.616 248.722C279.702 248.884 279.746 249.065 279.746 249.248C279.746 258.526 282.194 265.403 287.022 269.684C294.769 276.558 306.789 275.113 311.317 274.571L311.555 274.542C323.878 273.07 347.536 259.809 348.806 239.711C348.825 239.414 348.962 239.136 349.185 238.939C349.409 238.741 349.702 238.641 349.999 238.659C369.922 239.937 388.751 247.872 405.966 262.241C432.649 284.513 442.39 313.347 452.706 343.867C454.846 350.201 457.06 356.755 459.433 363.24C471.041 394.975 464.284 426.498 458.46 440.123C457.696 441.91 454.352 443.202 452.336 443.202M260.841 371.869C261.14 371.869 261.426 371.988 261.637 372.199C264.986 375.55 267.946 378.969 270.806 382.271C276.701 389.086 282.267 395.521 289.938 399.656C322.859 417.402 430.805 437.159 452.11 440.937C453.257 441.136 456.055 440.029 456.394 439.236C457.021 437.773 471.559 402.929 457.322 364.01C454.94 357.498 452.722 350.932 450.576 344.584C440.365 314.366 430.72 285.831 404.526 263.964C388.004 250.176 369.985 242.444 350.957 240.979C349.789 252.445 342.156 260.765 335.848 265.781C328.547 271.585 319.118 275.901 311.822 276.772L311.585 276.799C306.782 277.377 294.031 278.904 285.53 271.363C280.489 266.892 277.799 259.991 277.521 250.836C276.587 251.147 275.521 251.469 274.357 251.821C262.749 255.325 241.145 261.854 231.562 291.304C230.659 294.076 229.612 298.411 228.288 303.894C223.004 325.787 213.162 366.538 191.002 392.118C190.704 392.539 190.291 392.866 189.814 393.061C189.336 393.256 188.813 393.311 188.305 393.22C185.267 392.587 183.155 386.268 179.685 375.155C176.928 366.333 173.499 355.354 170.045 353.628C169.852 353.521 169.639 353.456 169.42 353.438C169.2 353.42 168.979 353.45 168.772 353.525C156.096 358.03 149.687 363.711 149.176 370.896C148.665 378.124 155.005 384.241 161.113 386.865C168.385 389.988 173.466 398.572 178.381 406.872C184.014 416.385 189.333 425.371 197.398 426.508C197.956 426.586 198.525 426.673 199.103 426.756C215.598 429.161 240.531 432.791 259.769 372.648C259.828 372.464 259.932 372.299 260.073 372.168C260.215 372.036 260.387 371.943 260.574 371.898C260.661 371.877 260.75 371.867 260.839 371.866" fill="black"/>
<path d="M418.531 399.443C388.051 397.744 357.385 395.645 326.717 393.536C323.972 393.084 310.329 391.131 306.963 390.637C304.118 390.14 301.359 389.237 298.77 387.958C289.649 383.748 270.08 375.484 265.713 377.928C255.653 380.886 246.534 388.151 239.406 397.345C235.406 402.507 232.127 411.056 233.783 412.525C234.269 413.034 234.922 413.349 235.622 413.413C236.323 413.478 237.022 413.287 237.593 412.876C242.42 402.63 250.706 394.415 260.992 389.676C256.24 392.361 251.828 395.609 247.852 399.348C243.829 403.133 240.13 407.696 239.225 413.145C239.111 413.564 239.149 414.01 239.333 414.403C239.879 415.306 241.274 414.78 242.103 414.129C243.733 412.856 264.702 395.823 268.62 396.276C263.41 398.241 244.837 413.315 244.759 414.92C244.688 415.691 244.898 416.461 245.351 417.089C245.709 417.475 246.161 417.761 246.663 417.92C247.164 418.079 247.698 418.106 248.213 417.998C249.239 417.767 250.212 417.342 251.079 416.747C257.075 413.105 262.564 408.538 269.043 405.843C272.277 404.496 276.225 403.722 279.103 405.721C273.306 407.875 267.973 411.112 263.387 415.261C262.665 415.929 262.054 416.707 261.576 417.568C260.863 418.843 260.061 420.688 261.051 421.742C262.667 423.463 264.034 422.597 265.421 421.786C270.824 418.189 276.58 415.155 282.6 412.731C284.443 411.997 286.646 411.352 288.313 412.422C289.76 413.348 296.757 417.694 311.138 418.439C316.046 418.695 320.778 419.973 326.913 421.658C407.733 443.934 431.874 452.822 451.452 444.4C455.285 442.749 456.577 440.74 455.299 434.163C451.888 416.592 448.553 406.608 418.532 399.442" fill="white"/>
<path d="M435.051 448.696C419.566 448.696 397.511 442.529 356.033 430.93C347.291 428.486 337.386 425.717 326.615 422.749C320.907 421.18 315.979 419.818 311.082 419.564C297.62 418.865 290.252 415.002 287.708 413.372C286.458 412.574 284.545 413.169 283.018 413.779C277.067 416.17 271.378 419.168 266.042 422.726L265.891 422.818C264.511 423.627 262.424 424.848 260.232 422.514C258.538 420.708 260.088 417.935 260.595 417.024C261.131 416.06 261.817 415.187 262.627 414.439C266.613 410.808 271.174 407.865 276.123 405.727C273.906 405.364 271.41 406.079 269.474 406.883C265.263 408.639 261.359 411.281 257.585 413.839C255.667 415.14 253.683 416.481 251.662 417.711C250.673 418.384 249.564 418.859 248.395 419.108C247.684 419.254 246.947 419.209 246.259 418.979C245.571 418.749 244.955 418.342 244.475 417.798C243.842 416.959 243.543 415.916 243.636 414.87C243.683 414.582 243.801 414.31 243.979 414.079L243.529 414.435C243.174 414.719 242.925 414.917 242.795 415.018C241.963 415.72 240.887 416.064 239.803 415.973C239.507 415.921 239.227 415.807 238.979 415.637C238.732 415.468 238.524 415.247 238.369 414.99C238.18 414.671 238.07 414.311 238.049 413.941C237.272 414.427 236.353 414.635 235.442 414.531C234.531 414.427 233.683 414.016 233.036 413.367C230.332 410.973 235.114 401.048 238.515 396.659C246.304 386.61 255.56 379.772 265.288 376.881C270.559 374.25 290.751 383.021 299.238 386.939C301.733 388.167 304.387 389.038 307.125 389.526C308.016 389.657 309.628 389.89 311.568 390.171C316.819 390.93 324.733 392.07 326.842 392.42C356.758 394.475 387.696 396.599 418.588 398.32C418.655 398.324 418.722 398.334 418.787 398.35C449.483 405.679 452.936 416.12 456.397 433.949C457.678 440.539 456.541 443.438 451.889 445.436C446.567 447.694 440.828 448.805 435.047 448.695M286.234 410.737C287.182 410.717 288.116 410.976 288.92 411.48C291.314 413.011 298.274 416.648 311.198 417.32C316.339 417.585 321.377 418.971 327.215 420.582C337.989 423.554 347.896 426.322 356.637 428.766C414.81 445.03 434.411 450.509 451.006 443.373C454.101 442.04 455.425 440.721 454.193 434.38C450.817 416.991 447.687 407.579 418.367 400.562C387.473 398.84 356.546 396.714 326.641 394.659C326.606 394.659 326.57 394.653 326.536 394.648C324.529 394.317 316.539 393.161 311.252 392.396C309.309 392.115 307.693 391.882 306.801 391.751C303.849 391.235 300.986 390.302 298.297 388.981C281.898 381.412 269.021 377.362 266.263 378.908C266.19 378.95 266.111 378.983 266.03 379.006C256.852 381.706 247.713 388.463 240.295 398.034C236.206 403.31 233.879 410.634 234.56 411.718C234.832 411.996 235.183 412.185 235.565 412.26C235.947 412.334 236.343 412.292 236.7 412.137C241.677 401.783 250.101 393.483 260.527 388.658C260.79 388.537 261.09 388.523 261.364 388.618C261.637 388.714 261.864 388.911 261.995 389.169C262.127 389.427 262.154 389.726 262.07 390.004C261.986 390.281 261.799 390.516 261.546 390.658C256.873 393.3 252.535 396.493 248.624 400.17C243.688 404.811 241.055 408.992 240.335 413.332C240.307 413.475 240.292 413.619 240.291 413.764C240.703 413.691 241.09 413.512 241.412 413.245C241.54 413.147 241.784 412.95 242.128 412.676C264.679 394.688 267.639 395.031 268.751 395.161C269.002 395.19 269.235 395.303 269.413 395.48C269.592 395.657 269.706 395.89 269.737 396.14C269.768 396.39 269.714 396.643 269.583 396.858C269.453 397.074 269.254 397.239 269.019 397.328C264.191 399.152 247.335 412.788 245.878 415.143C245.841 415.419 245.876 415.699 245.979 415.958C246.081 416.217 246.249 416.445 246.465 416.62C246.681 416.795 246.939 416.912 247.213 416.959C247.487 417.006 247.769 416.982 248.032 416.889C248.915 416.678 249.75 416.305 250.496 415.787C252.468 414.589 254.43 413.261 256.327 411.974C260.19 409.357 264.186 406.648 268.609 404.805C271.789 403.484 276.304 402.405 279.745 404.8C279.913 404.917 280.046 405.077 280.13 405.264C280.214 405.451 280.245 405.657 280.22 405.861C280.195 406.064 280.115 406.257 279.989 406.418C279.862 406.579 279.694 406.703 279.503 406.775C273.835 408.87 268.622 412.032 264.146 416.091C263.513 416.678 262.977 417.363 262.558 418.118C261.392 420.206 261.737 420.83 261.87 420.973C262.791 421.952 263.296 421.73 264.755 420.875L264.855 420.816C270.302 417.186 276.109 414.127 282.183 411.688C283.462 411.121 284.835 410.798 286.233 410.734" fill="black"/>
<path d="M216.774 438.804L292.664 440.432L292.763 427.541L208.295 425.477L216.774 438.804Z" fill="black"/>
<path d="M1.12695 321.107L166.105 322.01L222.968 438.801L59.5373 438.388L1.12695 321.107Z" fill="white"/>
<path d="M222.966 439.927L59.5355 439.514C59.3271 439.514 59.1229 439.455 58.9458 439.346C58.7686 439.236 58.6255 439.079 58.5324 438.893L0.119585 321.61C0.034363 321.438 -0.00571118 321.248 0.00316249 321.057C0.0120362 320.866 0.0695635 320.68 0.17029 320.518C0.271016 320.355 0.411602 320.221 0.578717 320.128C0.745832 320.035 0.933936 319.986 1.12519 319.986H1.1318L166.108 320.89C166.318 320.891 166.523 320.951 166.701 321.063C166.879 321.175 167.021 321.334 167.113 321.523L223.976 438.314C224.059 438.485 224.097 438.675 224.086 438.865C224.076 439.055 224.018 439.24 223.917 439.401C223.816 439.563 223.676 439.696 223.509 439.788C223.343 439.881 223.156 439.93 222.965 439.93M60.2348 437.272L221.167 437.676L165.397 323.132L2.94487 322.243L60.2348 437.272Z" fill="black"/>
<path d="M105.478 368.695C100.794 368.235 95.6777 369.488 93.7697 373.788C91.8616 378.088 93.3238 383.48 96.8005 386.653C100.277 389.826 105.414 390.848 110.004 389.814C112.481 389.255 114.941 388.054 116.368 385.949C117.324 384.454 117.819 382.71 117.792 380.936C117.831 375.143 115.188 369.648 105.478 368.694" fill="white"/>
<path d="M106.492 391.328C102.653 391.383 98.9294 390.013 96.0406 387.483C92.0908 383.879 90.703 377.929 92.7381 373.334C94.6057 369.123 99.4108 366.977 105.583 367.576C116.666 368.664 118.949 375.447 118.913 380.945C118.942 382.942 118.379 384.904 117.295 386.582C115.478 389.259 112.46 390.415 110.247 390.911C109.014 391.19 107.753 391.33 106.489 391.33M103.707 369.737C100.986 369.737 96.5154 370.368 94.7898 374.247C93.1328 377.982 94.2944 382.852 97.549 385.823C99.2097 387.237 101.182 388.236 103.304 388.739C105.426 389.242 107.637 389.235 109.756 388.717C112.008 388.335 114.035 387.122 115.436 385.318C116.264 384.005 116.692 382.479 116.666 380.926C116.712 374.199 113.015 370.564 105.367 369.814C104.976 369.776 104.398 369.732 103.71 369.732" fill="black"/>
<path d="M400.348 399.512C400.111 399.512 399.881 399.437 399.689 399.298C399.498 399.16 399.354 398.964 399.28 398.739C387.798 363.972 381.301 341.979 381.301 294.304C381.301 294.006 381.419 293.72 381.63 293.509C381.841 293.299 382.126 293.18 382.424 293.18C382.722 293.18 383.008 293.299 383.219 293.509C383.43 293.72 383.548 294.006 383.548 294.304C383.548 341.634 390.004 363.485 401.413 398.035C401.459 398.175 401.477 398.323 401.466 398.47C401.455 398.618 401.416 398.761 401.349 398.893C401.283 399.025 401.191 399.142 401.079 399.239C400.967 399.335 400.837 399.408 400.697 399.454C400.584 399.492 400.465 399.511 400.345 399.511" fill="black"/>
<path d="M260.848 374.113C260.666 374.113 260.487 374.069 260.326 373.986C260.165 373.902 260.027 373.78 259.924 373.631C245.106 352.316 249.114 336.706 252.988 321.607C254.922 314.068 256.925 306.271 256.61 297.747C256.604 297.599 256.627 297.452 256.679 297.313C256.73 297.175 256.808 297.048 256.908 296.939C257.009 296.831 257.13 296.744 257.264 296.682C257.398 296.621 257.544 296.586 257.691 296.581C257.988 296.573 258.277 296.682 258.495 296.884C258.713 297.086 258.843 297.366 258.857 297.663C259.187 306.512 257.142 314.469 255.167 322.165C251.245 337.444 247.539 351.875 261.772 372.344C261.89 372.513 261.958 372.71 261.972 372.915C261.985 373.12 261.941 373.324 261.846 373.507C261.751 373.689 261.608 373.841 261.433 373.948C261.257 374.054 261.056 374.111 260.851 374.111" fill="black"/>
<path d="M309.075 321.711C294.095 321.711 279.1 320.357 264.543 316.709C264.493 316.699 264.446 316.679 264.404 316.651C264.362 316.622 264.326 316.585 264.299 316.542C264.272 316.5 264.253 316.452 264.245 316.401C264.237 316.351 264.239 316.3 264.251 316.251C264.264 316.201 264.286 316.155 264.316 316.115C264.347 316.074 264.386 316.04 264.43 316.015C264.474 315.99 264.523 315.974 264.574 315.969C264.624 315.963 264.675 315.968 264.724 315.982C301.648 325.236 341.493 319.661 376.643 314.739C376.741 314.725 376.841 314.751 376.921 314.811C377 314.871 377.053 314.96 377.067 315.058C377.081 315.157 377.055 315.257 376.995 315.336C376.935 315.416 376.846 315.468 376.748 315.482C355.364 318.474 332.236 321.711 309.075 321.711" fill="black"/>
<path d="M322.581 350.503C300.568 350.515 278.632 347.89 257.242 342.685C257.15 342.658 257.071 342.596 257.023 342.512C256.975 342.429 256.96 342.329 256.983 342.236C257.006 342.142 257.065 342.06 257.146 342.008C257.228 341.956 257.326 341.938 257.421 341.956C296.779 351.518 337.76 352.296 377.453 344.235C377.502 344.223 377.552 344.222 377.602 344.23C377.651 344.239 377.698 344.257 377.741 344.284C377.783 344.311 377.819 344.346 377.848 344.387C377.876 344.429 377.896 344.475 377.906 344.524C377.916 344.573 377.916 344.624 377.906 344.673C377.897 344.722 377.877 344.769 377.849 344.81C377.821 344.852 377.785 344.887 377.743 344.914C377.701 344.942 377.653 344.96 377.604 344.969C359.496 348.658 341.062 350.511 322.581 350.501" fill="black"/>
<path d="M460.905 408.963C460.85 408.963 460.797 408.951 460.747 408.928C460.698 408.905 460.654 408.872 460.619 408.831C453.623 400.759 444.683 394.608 434.645 390.958C424.607 387.308 413.804 386.281 403.258 387.974C403.209 387.982 403.159 387.98 403.111 387.969C403.063 387.958 403.017 387.938 402.977 387.909C402.936 387.881 402.902 387.844 402.876 387.802C402.85 387.76 402.832 387.714 402.824 387.665C402.815 387.616 402.817 387.566 402.828 387.518C402.839 387.47 402.859 387.424 402.888 387.384C402.917 387.343 402.953 387.309 402.995 387.283C403.037 387.257 403.084 387.239 403.132 387.231C413.807 385.518 424.741 386.559 434.901 390.253C445.061 393.948 454.109 400.174 461.19 408.343C461.237 408.398 461.266 408.465 461.276 408.536C461.286 408.606 461.275 408.679 461.245 408.744C461.215 408.808 461.167 408.863 461.106 408.902C461.046 408.941 460.976 408.961 460.905 408.961" fill="black"/>
<path d="M458.386 393.956C458.338 393.956 458.291 393.947 458.246 393.929C456.081 392.909 454.109 391.52 452.42 389.823C451.805 389.273 451.172 388.705 450.532 388.182C446.613 384.972 441.898 382.885 436.887 382.142C436.79 382.126 436.703 382.072 436.646 381.993C436.588 381.913 436.564 381.814 436.578 381.717C436.593 381.62 436.644 381.532 436.723 381.473C436.801 381.414 436.899 381.387 436.996 381.399C442.141 382.162 446.983 384.306 451.007 387.601C451.659 388.136 452.299 388.71 452.919 389.263C454.546 390.899 456.443 392.242 458.526 393.234C458.607 393.266 458.674 393.326 458.715 393.402C458.757 393.479 458.77 393.567 458.754 393.653C458.738 393.738 458.692 393.815 458.625 393.87C458.558 393.926 458.474 393.956 458.387 393.956" fill="black"/>
</g>
<mask id="mask1_979_625" style="mask-type:luminance" maskUnits="userSpaceOnUse" x="110" y="148" width="56" height="62">
<path d="M165.315 148.026H110.787V209.222H165.315V148.026Z" fill="white"/>
</mask>
<g mask="url(#mask1_979_625)">
<path d="M137.495 205.363C136.805 205.36 136.131 205.15 135.562 204.76C134.784 204.229 134.178 203.483 133.819 202.613C132.411 199.32 131.797 195.743 132.024 192.169C132.252 188.595 133.315 185.125 135.129 182.037C135.736 181.033 135.922 180.273 135.681 179.778C135.44 179.284 134.728 178.958 133.563 178.816C130.015 178.335 126.629 177.028 123.678 174.999C120.727 172.971 118.294 170.277 116.574 167.136C116.112 166.316 115.899 165.379 115.962 164.44C115.996 163.854 116.183 163.287 116.505 162.796C116.827 162.305 117.273 161.908 117.797 161.643L137.211 152.205C137.742 151.955 138.33 151.85 138.915 151.9C139.5 151.95 140.061 152.153 140.542 152.489C141.32 153.019 141.926 153.765 142.286 154.635C143.693 157.928 144.308 161.506 144.08 165.08C143.853 168.653 142.789 172.124 140.975 175.212C140.368 176.216 140.183 176.976 140.424 177.471C140.665 177.967 141.376 178.29 142.541 178.432C146.09 178.913 149.476 180.221 152.427 182.25C155.378 184.279 157.811 186.973 159.53 190.114C159.993 190.934 160.205 191.871 160.142 192.811C160.109 193.397 159.922 193.964 159.6 194.455C159.277 194.946 158.832 195.343 158.307 195.607L138.893 205.043C138.457 205.254 137.979 205.363 137.494 205.362M138.615 152.72C138.256 152.72 137.9 152.801 137.577 152.959L118.163 162.395C117.769 162.592 117.435 162.89 117.195 163.259C116.955 163.628 116.818 164.054 116.798 164.494C116.747 165.271 116.923 166.046 117.306 166.723C118.961 169.75 121.304 172.345 124.145 174.301C126.986 176.256 130.247 177.518 133.664 177.983C135.15 178.165 136.059 178.632 136.434 179.411C136.81 180.189 136.621 181.19 135.846 182.47C134.101 185.445 133.078 188.788 132.86 192.231C132.642 195.673 133.236 199.119 134.593 202.29C134.89 203.009 135.39 203.627 136.033 204.066C136.391 204.321 136.811 204.476 137.249 204.515C137.686 204.555 138.127 204.477 138.525 204.289L157.94 194.852C158.334 194.655 158.668 194.357 158.908 193.988C159.148 193.619 159.285 193.193 159.306 192.754C159.357 191.977 159.181 191.202 158.799 190.524C157.143 187.498 154.801 184.902 151.959 182.947C149.118 180.991 145.857 179.73 142.439 179.265C140.953 179.083 140.045 178.616 139.669 177.837C139.293 177.059 139.483 176.058 140.258 174.777C142.003 171.802 143.026 168.459 143.244 165.017C143.462 161.575 142.868 158.129 141.511 154.958C141.214 154.239 140.714 153.622 140.071 153.183C139.643 152.887 139.136 152.726 138.615 152.722" fill="black"/>
<path d="M136.321 168.596C133.045 169.61 129.704 170.388 126.525 171.689C128.9 173.361 131.645 174.43 134.525 174.803C135.182 174.883 135.825 175.052 136.437 175.305C136.615 174.667 136.88 174.056 137.224 173.489C138.308 171.681 139.055 169.692 139.432 167.617C138.395 167.947 137.358 168.274 136.319 168.596" fill="#233862"/>
<path d="M136.438 175.724C136.382 175.724 136.326 175.713 136.273 175.692C135.697 175.453 135.091 175.294 134.471 175.219C131.524 174.835 128.715 173.742 126.283 172.034C126.221 171.99 126.172 171.931 126.141 171.862C126.11 171.793 126.098 171.717 126.106 171.642C126.115 171.567 126.143 171.496 126.189 171.436C126.235 171.375 126.296 171.329 126.366 171.3C128.584 170.44 130.848 169.701 133.148 169.089C134.149 168.804 135.185 168.507 136.196 168.194C137.233 167.873 138.269 167.547 139.305 167.217C139.374 167.195 139.448 167.191 139.518 167.206C139.589 167.221 139.655 167.254 139.709 167.302C139.763 167.35 139.804 167.411 139.828 167.479C139.852 167.548 139.857 167.621 139.844 167.692C139.46 169.817 138.693 171.855 137.581 173.706C137.257 174.24 137.007 174.816 136.838 175.417C136.814 175.505 136.761 175.583 136.688 175.638C136.616 175.694 136.527 175.724 136.435 175.724M127.427 171.783C129.589 173.167 132.03 174.056 134.576 174.384C135.119 174.451 135.653 174.574 136.17 174.752C136.349 174.236 136.582 173.739 136.865 173.271C137.804 171.71 138.484 170.008 138.879 168.23C138.069 168.487 137.258 168.742 136.445 168.994C135.425 169.309 134.385 169.606 133.38 169.893C131.407 170.456 129.377 171.036 127.427 171.781" fill="black"/>
<path d="M142.501 184.347C141.844 184.267 141.202 184.098 140.592 183.845C140.413 184.483 140.148 185.094 139.805 185.662C137.421 189.748 136.676 194.587 137.721 199.202L154.438 191.076C151.454 187.405 147.19 185.001 142.504 184.35" fill="#233862"/>
<path d="M137.717 199.618C137.653 199.618 137.59 199.603 137.533 199.576C137.476 199.548 137.425 199.507 137.386 199.457C137.347 199.407 137.32 199.349 137.306 199.287C136.252 194.567 137.015 189.624 139.443 185.443C139.767 184.909 140.017 184.334 140.186 183.733C140.202 183.676 140.23 183.623 140.268 183.577C140.306 183.532 140.353 183.495 140.407 183.469C140.46 183.443 140.518 183.429 140.577 183.427C140.636 183.425 140.695 183.436 140.75 183.459C141.327 183.697 141.934 183.856 142.553 183.932C147.341 184.606 151.699 187.06 154.758 190.805C154.798 190.854 154.827 190.911 154.843 190.973C154.858 191.035 154.859 191.099 154.845 191.161C154.832 191.223 154.805 191.282 154.765 191.332C154.726 191.382 154.676 191.422 154.619 191.45L137.9 199.577C137.843 199.605 137.78 199.62 137.717 199.62M140.854 184.396C140.676 184.913 140.443 185.41 140.159 185.878C137.929 189.715 137.169 194.231 138.02 198.586L153.76 190.935C150.862 187.576 146.842 185.384 142.449 184.765C141.906 184.7 141.372 184.576 140.855 184.397" fill="black"/>
<path d="M163.364 190.155L131.479 205.653L133.009 208.802L164.895 193.304L163.364 190.155Z" fill="white"/>
<path d="M133.011 209.222C132.964 209.222 132.918 209.214 132.874 209.199C132.769 209.162 132.682 209.086 132.633 208.986L131.103 205.837C131.079 205.787 131.065 205.734 131.061 205.679C131.058 205.624 131.066 205.569 131.084 205.517C131.102 205.465 131.13 205.417 131.166 205.376C131.203 205.334 131.247 205.301 131.297 205.277L163.181 189.778C163.231 189.754 163.285 189.74 163.339 189.737C163.394 189.733 163.449 189.741 163.501 189.759C163.553 189.777 163.601 189.805 163.643 189.841C163.684 189.878 163.717 189.922 163.741 189.972L165.273 193.12C165.321 193.22 165.328 193.335 165.292 193.44C165.255 193.545 165.179 193.632 165.079 193.68L133.193 209.179C133.136 209.207 133.074 209.222 133.011 209.222ZM132.04 205.847L133.204 208.241L164.336 193.11L163.172 190.715L132.04 205.847Z" fill="black"/>
<path d="M143.091 148.446L111.205 163.944L112.736 167.093L144.622 151.595L143.091 148.446Z" fill="white"/>
<path d="M112.737 167.511C112.69 167.511 112.644 167.503 112.6 167.488C112.548 167.47 112.5 167.442 112.458 167.405C112.417 167.369 112.383 167.324 112.36 167.275L110.829 164.126C110.781 164.026 110.774 163.911 110.81 163.806C110.847 163.701 110.923 163.614 111.023 163.566L142.908 148.069C142.957 148.045 143.011 148.031 143.066 148.027C143.121 148.024 143.176 148.031 143.228 148.049C143.28 148.067 143.328 148.095 143.369 148.132C143.41 148.168 143.444 148.213 143.467 148.262L144.998 151.411C145.023 151.46 145.037 151.514 145.041 151.569C145.044 151.624 145.036 151.679 145.018 151.731C144.982 151.837 144.905 151.923 144.805 151.972L112.919 167.469C112.863 167.497 112.8 167.511 112.737 167.511ZM111.766 164.137L112.93 166.532L144.059 151.4L142.895 149.006L111.766 164.137Z" fill="black"/>
</g>
<mask id="mask2_979_625" style="mask-type:luminance" maskUnits="userSpaceOnUse" x="416" y="112" width="61" height="56">
<path d="M476.107 112.947H416.736V167.434H476.107V112.947Z" fill="white"/>
</mask>
<g mask="url(#mask2_979_625)">
<path d="M429.616 151.139C429.616 151.139 420.212 149.021 417.957 148.239C416.957 151.02 416.832 152.975 417.905 155.247C418.772 157.08 420.228 157.988 422.286 158.499C428.21 159.973 429.619 151.142 429.619 151.142" fill="#233862"/>
<path d="M423.574 159.081C423.104 159.078 422.637 159.018 422.181 158.902C419.82 158.315 418.384 157.241 417.523 155.424C416.462 153.179 416.473 151.125 417.562 148.097C417.599 147.993 417.676 147.908 417.776 147.86C417.875 147.813 417.99 147.806 418.094 147.843C420.3 148.607 429.614 150.708 429.707 150.732C429.811 150.756 429.902 150.818 429.962 150.906C430.022 150.995 430.046 151.102 430.029 151.208C429.996 151.416 429.182 156.32 426.21 158.287C425.43 158.81 424.511 159.087 423.573 159.083M418.216 148.763C417.335 151.376 417.36 153.115 418.28 155.065C419.032 156.656 420.262 157.56 422.384 158.089C422.947 158.251 423.539 158.29 424.119 158.203C424.7 158.117 425.254 157.906 425.746 157.586C427.962 156.122 428.876 152.624 429.127 151.457C427.393 151.065 420.668 149.524 418.218 148.764" fill="black"/>
<path d="M466.504 158.496C465.521 161.708 463.353 164.427 460.44 166.099C458.298 167.316 456.352 167.205 453.265 166.437C443.542 164.019 428.528 160.053 421.451 158.292C424.353 158.858 427.512 159.385 429.528 151.468C433.226 136.966 439.142 113.367 439.142 113.367L475.687 122.455C475.687 122.455 467.39 155.582 466.504 158.496Z" fill="white"/>
<path d="M457.007 167.434C455.708 167.393 454.418 167.194 453.166 166.844C447.918 165.539 440.991 163.747 434.879 162.166C429.595 160.8 424.609 159.509 421.353 158.698C421.248 158.671 421.158 158.603 421.102 158.511C421.046 158.418 421.028 158.308 421.051 158.202C421.074 158.096 421.138 158.004 421.228 157.944C421.318 157.884 421.428 157.861 421.534 157.88C424.312 158.421 427.186 158.982 429.13 151.364C432.777 137.028 438.675 113.5 438.734 113.264C438.747 113.211 438.771 113.16 438.803 113.116C438.836 113.071 438.878 113.034 438.925 113.005C438.973 112.977 439.025 112.958 439.08 112.95C439.135 112.942 439.19 112.945 439.244 112.959L475.788 122.05C475.841 122.063 475.891 122.087 475.936 122.119C475.98 122.152 476.018 122.193 476.046 122.241C476.074 122.288 476.093 122.34 476.101 122.395C476.109 122.449 476.107 122.505 476.093 122.558C475.755 123.911 467.784 155.725 466.908 158.617C465.893 161.93 463.655 164.734 460.65 166.46C459.546 167.107 458.287 167.443 457.007 167.431M425.18 158.802C428.048 159.533 431.5 160.426 435.088 161.354C441.197 162.935 448.123 164.725 453.368 166.03C456.295 166.759 458.161 166.912 460.235 165.735C463.055 164.115 465.154 161.484 466.106 158.375C466.923 155.677 474.224 126.569 475.177 122.762L439.445 113.874C438.645 117.066 433.325 138.272 429.937 151.572C428.699 156.448 426.97 158.254 425.18 158.801" fill="black"/>
<path d="M451.063 123.679C451.052 123.679 451.04 123.678 451.029 123.675L443.988 121.924C443.952 121.915 443.921 121.892 443.903 121.86C443.884 121.828 443.878 121.79 443.887 121.754C443.896 121.718 443.919 121.688 443.951 121.669C443.983 121.65 444.021 121.644 444.057 121.653L451.098 123.404C451.131 123.413 451.16 123.433 451.179 123.461C451.198 123.489 451.207 123.523 451.202 123.557C451.198 123.591 451.182 123.622 451.156 123.644C451.131 123.667 451.097 123.679 451.063 123.679Z" fill="black"/>
<path d="M453.407 126.579C453.395 126.579 453.384 126.577 453.373 126.575L443.434 124.102C443.416 124.098 443.399 124.09 443.385 124.079C443.37 124.068 443.357 124.054 443.348 124.039C443.339 124.023 443.332 124.005 443.33 123.987C443.327 123.969 443.328 123.951 443.332 123.933C443.337 123.915 443.345 123.898 443.356 123.884C443.366 123.869 443.38 123.856 443.396 123.847C443.412 123.838 443.429 123.831 443.447 123.829C443.465 123.826 443.484 123.827 443.502 123.831L453.44 126.303C453.473 126.311 453.502 126.332 453.522 126.36C453.541 126.388 453.549 126.422 453.545 126.456C453.541 126.49 453.525 126.521 453.499 126.543C453.474 126.566 453.441 126.579 453.407 126.579Z" fill="black"/>
<path d="M465.446 139.821C465.434 139.82 465.423 139.819 465.412 139.816L446.764 135.181C446.731 135.17 446.703 135.147 446.685 135.116C446.668 135.085 446.664 135.049 446.672 135.014C446.681 134.98 446.702 134.95 446.732 134.931C446.761 134.911 446.797 134.904 446.832 134.91L465.48 139.548C465.513 139.556 465.542 139.576 465.562 139.604C465.581 139.633 465.589 139.667 465.585 139.701C465.581 139.734 465.565 139.765 465.539 139.788C465.514 139.811 465.481 139.823 465.447 139.823" fill="black"/>
<path d="M463.631 146.942C463.62 146.941 463.609 146.94 463.597 146.937L444.95 142.299C444.916 142.288 444.888 142.265 444.871 142.234C444.854 142.203 444.849 142.166 444.858 142.132C444.866 142.097 444.887 142.068 444.917 142.048C444.947 142.029 444.983 142.021 445.018 142.027L463.666 146.667C463.699 146.675 463.728 146.695 463.747 146.723C463.767 146.751 463.775 146.785 463.771 146.819C463.767 146.853 463.75 146.884 463.725 146.907C463.699 146.929 463.665 146.942 463.631 146.942Z" fill="black"/>
<path d="M461.819 154.062C461.808 154.062 461.797 154.06 461.786 154.058L443.138 149.419C443.119 149.416 443.101 149.409 443.085 149.398C443.069 149.388 443.055 149.374 443.044 149.358C443.034 149.342 443.027 149.323 443.023 149.304C443.02 149.285 443.021 149.266 443.026 149.247C443.03 149.228 443.039 149.211 443.051 149.195C443.062 149.18 443.077 149.167 443.094 149.158C443.111 149.149 443.13 149.143 443.149 149.141C443.168 149.139 443.187 149.142 443.206 149.148L461.854 153.789C461.887 153.798 461.916 153.818 461.935 153.846C461.955 153.874 461.963 153.908 461.959 153.942C461.955 153.976 461.938 154.007 461.913 154.029C461.887 154.052 461.854 154.064 461.82 154.064" fill="black"/>
<path d="M440.806 133.549C440.867 133.318 441.017 133.121 441.222 132.999C441.428 132.878 441.673 132.842 441.905 132.9C442.019 132.928 442.127 132.978 442.223 133.048C442.318 133.117 442.398 133.205 442.459 133.306C442.52 133.407 442.561 133.519 442.578 133.635C442.596 133.752 442.59 133.871 442.561 133.985C442.5 134.216 442.351 134.414 442.145 134.536C441.94 134.657 441.694 134.693 441.462 134.635C441.348 134.607 441.24 134.557 441.145 134.487C441.05 134.417 440.969 134.33 440.908 134.229C440.847 134.128 440.807 134.016 440.789 133.899C440.772 133.783 440.777 133.664 440.806 133.549Z" fill="black"/>
<path d="M441.683 135.084C441.574 135.084 441.467 135.071 441.362 135.045C441.192 135.003 441.033 134.929 440.892 134.825C440.752 134.721 440.634 134.591 440.544 134.441C440.456 134.293 440.397 134.13 440.373 133.96C440.348 133.79 440.358 133.617 440.401 133.45C440.467 133.197 440.606 132.97 440.801 132.795C440.995 132.621 441.237 132.509 441.496 132.472C441.755 132.434 442.019 132.474 442.255 132.586C442.491 132.698 442.688 132.878 442.823 133.102C442.911 133.249 442.97 133.412 442.995 133.583C443.019 133.753 443.01 133.926 442.967 134.092C442.894 134.377 442.728 134.629 442.495 134.808C442.262 134.988 441.977 135.085 441.683 135.084ZM441.683 133.295C441.575 133.294 441.471 133.329 441.386 133.394C441.301 133.459 441.239 133.551 441.212 133.655C441.197 133.714 441.194 133.776 441.203 133.837C441.212 133.898 441.233 133.956 441.265 134.009C441.298 134.064 441.341 134.112 441.392 134.149C441.443 134.187 441.502 134.214 441.564 134.229C441.688 134.262 441.82 134.243 441.931 134.179C442.041 134.114 442.122 134.008 442.155 133.884C442.17 133.825 442.173 133.763 442.164 133.702C442.155 133.641 442.135 133.583 442.103 133.53C442.07 133.475 442.027 133.428 441.975 133.39C441.924 133.352 441.865 133.325 441.803 133.31C441.764 133.3 441.723 133.295 441.683 133.295Z" fill="black"/>
<path d="M438.993 140.673C439.054 140.442 439.203 140.245 439.409 140.123C439.615 140.002 439.86 139.966 440.092 140.024C440.206 140.052 440.314 140.102 440.409 140.171C440.505 140.241 440.585 140.329 440.646 140.43C440.707 140.531 440.748 140.643 440.765 140.759C440.783 140.876 440.777 140.995 440.748 141.109C440.687 141.34 440.538 141.538 440.332 141.659C440.127 141.781 439.882 141.817 439.65 141.759C439.535 141.732 439.426 141.682 439.331 141.612C439.235 141.543 439.155 141.455 439.093 141.354C439.032 141.253 438.991 141.141 438.973 141.024C438.955 140.907 438.961 140.788 438.989 140.673" fill="black"/>
<path d="M439.874 142.204C439.766 142.204 439.658 142.191 439.553 142.165C439.384 142.124 439.224 142.049 439.084 141.945C438.944 141.841 438.825 141.711 438.736 141.561C438.647 141.414 438.589 141.25 438.564 141.08C438.54 140.91 438.549 140.737 438.592 140.57C438.658 140.317 438.797 140.09 438.992 139.916C439.187 139.742 439.429 139.629 439.687 139.592C439.946 139.554 440.21 139.594 440.446 139.706C440.682 139.819 440.88 139.998 441.014 140.222C441.103 140.369 441.161 140.533 441.186 140.703C441.211 140.873 441.202 141.046 441.159 141.213C441.085 141.497 440.919 141.749 440.686 141.928C440.454 142.108 440.168 142.205 439.874 142.204ZM439.874 140.415C439.767 140.414 439.662 140.449 439.577 140.514C439.492 140.58 439.431 140.671 439.404 140.775C439.389 140.835 439.385 140.897 439.395 140.957C439.404 141.018 439.425 141.077 439.456 141.129C439.489 141.184 439.532 141.232 439.584 141.27C439.635 141.307 439.693 141.335 439.755 141.35C439.879 141.382 440.011 141.364 440.122 141.299C440.233 141.234 440.313 141.128 440.346 141.004C440.362 140.945 440.365 140.883 440.356 140.822C440.347 140.761 440.326 140.703 440.294 140.65C440.251 140.578 440.189 140.519 440.115 140.477C440.042 140.436 439.959 140.415 439.874 140.415Z" fill="black"/>
<path d="M437.207 147.691C437.268 147.46 437.417 147.262 437.623 147.141C437.829 147.019 438.074 146.984 438.306 147.042C438.42 147.069 438.528 147.119 438.623 147.189C438.719 147.259 438.799 147.346 438.86 147.447C438.921 147.548 438.962 147.66 438.979 147.777C438.997 147.893 438.991 148.012 438.962 148.127C438.901 148.358 438.752 148.555 438.547 148.677C438.341 148.798 438.096 148.834 437.865 148.777C437.75 148.749 437.641 148.699 437.546 148.63C437.45 148.56 437.369 148.472 437.308 148.371C437.247 148.271 437.206 148.158 437.188 148.042C437.17 147.925 437.176 147.806 437.204 147.691" fill="black"/>
<path d="M438.085 149.222C437.977 149.222 437.869 149.209 437.764 149.183C437.594 149.142 437.435 149.067 437.294 148.963C437.154 148.86 437.036 148.729 436.947 148.579C436.858 148.432 436.8 148.268 436.775 148.098C436.75 147.928 436.76 147.755 436.803 147.588C436.869 147.335 437.008 147.108 437.203 146.934C437.398 146.76 437.639 146.647 437.898 146.61C438.157 146.573 438.421 146.612 438.657 146.725C438.893 146.837 439.09 147.016 439.225 147.24C439.314 147.387 439.372 147.551 439.397 147.721C439.422 147.891 439.412 148.064 439.369 148.231C439.296 148.515 439.13 148.767 438.897 148.946C438.664 149.126 438.379 149.223 438.085 149.221M438.085 147.432C437.977 147.432 437.873 147.467 437.788 147.532C437.702 147.597 437.641 147.689 437.614 147.793C437.599 147.853 437.596 147.915 437.605 147.975C437.614 148.036 437.635 148.095 437.667 148.147C437.716 148.229 437.789 148.295 437.875 148.337C437.962 148.378 438.059 148.393 438.154 148.379C438.249 148.366 438.338 148.325 438.409 148.262C438.481 148.198 438.533 148.115 438.558 148.023C438.573 147.963 438.576 147.901 438.567 147.84C438.558 147.779 438.537 147.721 438.506 147.668C438.461 147.597 438.399 147.538 438.325 147.497C438.252 147.457 438.169 147.435 438.085 147.436" fill="black"/>
</g>
<mask id="mask3_979_625" style="mask-type:luminance" maskUnits="userSpaceOnUse" x="184" y="72" width="27" height="29">
<path d="M210.822 72.0132H184.932V100.807H210.822V72.0132Z" fill="white"/>
</mask>
<g mask="url(#mask3_979_625)">
<path d="M205.608 100.806C205.183 100.802 204.764 100.713 204.376 100.542C203.987 100.372 203.637 100.125 203.347 99.8154L185.965 81.6063C185.62 81.2479 185.35 80.8233 185.173 80.3581C184.995 79.8929 184.913 79.3967 184.932 78.8991C184.949 78.4501 185.058 78.0094 185.252 77.6042C185.446 77.1989 185.721 76.8377 186.06 76.5428L190.35 72.8126C190.686 72.5226 191.077 72.3033 191.5 72.1678C191.923 72.0323 192.368 71.9835 192.81 72.0241C193.3 72.0696 193.775 72.2122 194.209 72.4435C194.642 72.6749 195.025 72.9904 195.335 73.3716L210.727 92.1528C210.766 92.1949 210.795 92.2443 210.814 92.2981C210.833 92.3518 210.84 92.4089 210.836 92.4657C210.832 92.5225 210.816 92.5778 210.79 92.6284C210.764 92.679 210.728 92.7237 210.684 92.7598C210.64 92.796 210.589 92.8228 210.534 92.8386C210.48 92.8545 210.422 92.859 210.366 92.8519C210.309 92.8449 210.255 92.8264 210.206 92.7976C210.157 92.7689 210.114 92.7304 210.08 92.6845L194.689 73.9024C194.449 73.6078 194.154 73.3638 193.819 73.1847C193.484 73.0057 193.117 72.8952 192.739 72.8597C192.409 72.8278 192.076 72.8632 191.76 72.9638C191.444 73.0644 191.151 73.2281 190.9 73.445L186.607 77.1752C186.355 77.3966 186.151 77.6673 186.008 77.9704C185.865 78.2735 185.785 78.6028 185.774 78.9379C185.759 79.322 185.822 79.7051 185.96 80.0642C186.097 80.4233 186.305 80.751 186.572 81.0276L203.953 99.235C204.326 99.6591 204.851 99.9191 205.415 99.9585C205.978 99.9979 206.535 99.8136 206.963 99.4456L208.668 97.8893C209.071 97.4907 209.303 96.9516 209.316 96.3853C209.329 95.8191 209.121 95.27 208.738 94.8534L195.665 79.8139C195.262 79.3176 194.678 79.0012 194.042 78.9339C193.405 78.8666 192.768 79.0539 192.27 79.4548C192.04 79.6561 191.854 79.9024 191.723 80.1784C191.592 80.4545 191.519 80.7544 191.508 81.0598C191.496 81.41 191.554 81.7593 191.68 82.0864C191.805 82.4136 191.996 82.712 192.24 82.9637L203.929 95.1713C203.972 95.2101 204.006 95.2571 204.029 95.3096C204.053 95.3621 204.065 95.4189 204.066 95.4764C204.067 95.5339 204.056 95.591 204.033 95.644C204.011 95.697 203.978 95.7449 203.936 95.7846C203.895 95.8244 203.845 95.8551 203.791 95.875C203.737 95.8948 203.68 95.9034 203.622 95.9C203.565 95.8967 203.509 95.8816 203.458 95.8557C203.406 95.8297 203.361 95.7935 203.324 95.7492L191.63 83.5441C191.308 83.21 191.057 82.8145 190.892 82.381C190.726 81.9476 190.65 81.4853 190.668 81.0218C190.683 80.6031 190.784 80.192 190.964 79.8138C191.145 79.4356 191.401 79.0985 191.717 78.8232C192.383 78.276 193.239 78.0153 194.097 78.0981C194.955 78.1809 195.746 78.6005 196.295 79.2649L209.371 94.3044C209.897 94.8868 210.177 95.6505 210.151 96.4349C210.126 97.2193 209.797 97.9633 209.234 98.5101L207.527 100.066C207.003 100.546 206.318 100.812 205.607 100.809" fill="#233862"/>
</g>
<mask id="mask4_979_625" style="mask-type:luminance" maskUnits="userSpaceOnUse" x="240" y="0" width="30" height="52">
<path d="M269.455 0H240.562V51.698H269.455V0Z" fill="white"/>
</mask>
<g mask="url(#mask4_979_625)">
<mask id="mask5_979_625" style="mask-type:luminance" maskUnits="userSpaceOnUse" x="240" y="0" width="30" height="52">
<path d="M269.457 0H240.564V51.698H269.457V0Z" fill="white"/>
</mask>
<g mask="url(#mask5_979_625)">
<g style="mix-blend-mode:multiply">
<path d="M254.558 43.5665C254.558 43.5665 250.189 47.9357 253.764 49.9238C257.339 51.9119 263.693 46.746 260.913 44.3632C258.132 41.9805 254.555 43.569 254.555 43.569" fill="#0086D5"/>
<path d="M254.558 43.5665C254.558 43.5665 250.189 47.9357 253.764 49.9238C257.339 51.9119 263.693 46.746 260.913 44.3632C258.132 41.9805 254.558 43.5665 254.558 43.5665Z" stroke="#233862" stroke-width="0.874" stroke-miterlimit="10"/>
</g>
<g style="mix-blend-mode:multiply">
<mask id="mask6_979_625" style="mask-type:luminance" maskUnits="userSpaceOnUse" x="240" y="0" width="30" height="40">
<path d="M269.154 0H240.566V39.6167H269.154V0Z" fill="white"/>
</mask>
<g mask="url(#mask6_979_625)">
<path d="M242.795 11.1539C242.603 10.0187 241.819 9.10391 242.164 7.91997C242.574 6.85207 243.149 5.85523 243.869 4.96589C244.509 4.2448 245.293 3.66406 246.169 3.26015C247.026 2.6739 247.958 2.20543 248.94 1.86733C251.56 1.20807 254.274 1.00778 256.962 1.27535C258.333 1.37113 259.17 2.07373 260.282 2.68799C261.307 3.12024 262.281 3.66285 263.188 4.30622C264.868 5.84145 266.211 7.7099 267.129 9.79248C267.97 11.7682 268.025 13.9904 267.282 16.0053C266.963 16.9597 266.512 17.865 265.943 18.6952C265.665 19.1 265.327 19.46 264.941 19.7627C264.423 20.058 263.889 20.3261 263.343 20.566C262.489 21.1238 261.703 21.7806 261.003 22.5228C260.329 23.1943 259.805 24.0011 259.465 24.8898C258.703 26.8193 258.722 28.9354 258.626 30.9507C258.557 32.332 258.485 33.7124 258.419 35.0937C258.367 36.1893 258.634 37.3782 258.215 38.4317L258.698 38.0057C257.814 38.1162 256.918 38.0931 256.042 37.9371C255.293 37.8828 254.542 37.867 253.792 37.8901C253.414 37.903 253.036 37.8853 252.661 37.8372C252.23 37.7679 252.221 37.6457 252.258 37.275C252.346 36.3891 251.927 35.5833 251.927 34.704C251.927 33.6621 252.131 32.6284 252.098 31.5856C251.95 30.6102 251.854 29.6278 251.81 28.6423C251.883 28.2059 251.91 27.7633 251.893 27.3213C251.83 26.8259 251.597 26.3611 251.542 25.8641C251.444 24.9806 251.95 24.4448 252.659 23.8966C253.319 23.3847 253.98 22.8736 254.64 22.356C255.377 21.778 256.225 21.3157 256.965 20.7378C258.381 19.5614 259.293 17.8866 259.512 16.0581C259.628 15.1161 259.603 14.1592 259.667 13.2097C259.791 12.3113 259.683 11.3961 259.353 10.5512C258.775 9.33756 257.414 8.71917 256.029 8.43681C255.176 8.27611 254.313 8.17487 253.446 8.1338C252.529 8.02795 251.604 8.02795 250.687 8.1338C249.758 8.31454 248.917 8.80529 248.303 9.5258C247.99 9.85866 247.77 10.2673 247.663 10.7114C247.557 11.2357 247.746 11.7707 247.543 12.2801L248.207 11.8326C247.519 11.8722 246.856 11.7723 246.164 11.8598C245.5 11.9543 244.832 12.0119 244.162 12.0324C243.668 12.0898 243.168 12.0804 242.676 12.0043C242.153 11.8565 242.064 11.2142 241.994 10.7915C241.583 8.33856 243.398 6.10938 245.437 4.65463C245.925 4.30704 246.435 3.98092 246.911 3.62095C247.413 3.24281 247.811 2.76973 248.315 2.39325C249.333 1.62955 250.909 1.51809 252.195 1.43965C253.504 1.35885 254.818 1.46842 256.096 1.76495C257.373 2.10642 258.621 2.55039 259.827 3.09255C260.405 3.3262 261.027 3.4517 261.6 3.68947C262.169 3.96641 262.691 4.33172 263.147 4.77187C264.16 5.46489 265.083 6.28201 265.893 7.20415C267.242 9.30502 267.88 11.7837 267.713 14.2748C267.656 15.4678 267.878 16.7393 266.912 17.6788C266.057 18.5375 265.137 19.3294 264.161 20.0475C263.079 20.8178 261.921 21.4833 260.791 22.1942C260.255 22.5327 259.755 22.8992 259.181 23.1849C258.642 23.4178 258.141 23.7291 257.694 24.1088C256.976 24.8873 256.532 25.8795 256.43 26.9341C256.251 28.0677 256.181 29.2159 256.221 30.3629C256.266 31.7706 256.701 33.1196 256.785 34.5166C256.802 36.0222 256.733 37.5275 256.579 39.0253H257.959C258.084 36.5127 258.209 34 258.333 31.4874C258.391 30.3315 258.493 29.1649 258.507 28.0057C258.513 27.4443 258.205 26.4626 258.589 25.9813L257.811 26.2612C258.259 26.3765 258.732 26.3481 259.163 26.18C259.594 26.0118 259.961 25.7124 260.213 25.3241C260.566 24.6132 259.378 23.9915 259.021 24.709C258.944 24.8578 258.818 24.976 258.665 25.0443C258.512 25.1127 258.34 25.1272 258.177 25.0855C258.034 25.0529 257.885 25.062 257.747 25.1116C257.609 25.1612 257.488 25.2493 257.399 25.3654C256.903 25.9813 257.083 26.9052 257.119 27.6069C257.175 28.7298 257.036 29.8774 256.979 30.9994C256.846 33.6739 256.713 36.3486 256.581 39.0237C256.542 39.8088 257.917 39.8055 257.96 39.0237C258.038 37.597 258.236 36.1695 258.177 34.7387C258.12 33.3351 257.676 31.986 257.611 30.5825C257.547 29.4176 257.606 28.2491 257.788 27.0967C257.818 26.5628 257.981 26.0449 258.26 25.589C258.54 25.1332 258.928 24.7537 259.39 24.4844C260.661 23.8124 261.857 23.0412 263.07 22.2875C264.302 21.5556 265.469 20.7206 266.56 19.7916C267.394 19.0485 268.504 18.2014 268.863 17.1727C269.014 16.5692 269.076 15.9471 269.048 15.3258C269.08 14.5927 269.143 13.8545 269.119 13.1206C269.062 11.7947 268.8 10.4856 268.342 9.24014C267.963 7.98207 267.317 6.82065 266.448 5.83527C265.981 5.38489 265.484 4.9662 264.962 4.58197C264.41 4.15265 263.904 3.67379 263.342 3.26098C262.84 2.89136 262.283 2.60505 261.69 2.41306C260.931 2.15794 260.211 1.88879 259.475 1.58249C256.858 0.445735 253.99 0.0100967 251.154 0.318457C249.829 0.364784 248.54 0.761333 247.419 1.46772C246.886 1.86402 246.461 2.35857 245.933 2.759C245.369 3.18584 244.761 3.56728 244.19 3.9867C241.781 5.75683 240.01 8.60358 240.731 11.433C240.839 12.0174 241.163 12.5396 241.639 12.8952C242.148 13.1731 242.726 13.2994 243.304 13.2593C244.029 13.2805 244.755 13.2529 245.476 13.1767C245.889 13.1263 246.294 13.0413 246.708 13.0116C247.211 12.9786 247.706 13.071 248.21 13.0421C248.353 13.0428 248.492 13.0005 248.611 12.9207C248.729 12.8409 248.821 12.7273 248.874 12.5946C249.002 12.1283 249.045 11.6429 249.001 11.1614C249.03 10.9101 249.112 10.6679 249.243 10.4514C249.374 10.235 249.55 10.0493 249.759 9.90724C250.156 9.62828 250.604 9.43097 251.077 9.32679C251.551 9.22261 252.04 9.21364 252.517 9.30041C254.086 9.38297 256.067 9.36233 257.388 10.2375C257.722 10.4873 257.984 10.8207 258.148 11.2041C258.312 11.5875 258.371 12.0074 258.321 12.4213C258.321 13.5144 258.255 14.6414 258.166 15.732C258.046 16.8004 257.673 17.8249 257.079 18.7208C256.42 19.5666 255.597 20.2702 254.659 20.7889C253.824 21.3462 253.101 22.0034 252.294 22.588C251.542 23.0406 250.903 23.659 250.426 24.3961C249.927 25.3621 250.274 26.3025 250.497 27.2783C250.54 27.768 250.517 28.2612 250.428 28.7447C250.448 29.3318 250.515 29.9164 250.63 30.4925C250.73 31.626 250.716 32.7666 250.588 33.8974C250.535 34.401 250.541 34.9091 250.604 35.4116C250.756 35.9237 250.861 36.4488 250.916 36.9802C250.893 37.7737 250.829 38.4787 251.783 38.8701C252.611 39.1128 253.478 39.1911 254.336 39.1004C255.251 39.1058 256.165 39.1574 257.074 39.2548C257.874 39.3176 259.235 39.4934 259.58 38.6769C259.84 37.7883 259.911 36.8551 259.788 35.9375C259.762 34.8295 259.871 33.7141 259.926 32.6069C259.928 30.645 260.072 28.6858 260.36 26.745C260.512 25.8636 260.827 25.0184 261.289 24.2524C261.868 23.4611 262.557 22.7562 263.334 22.1587C264.127 21.4742 265.186 21.2216 265.994 20.5685C266.714 19.9514 267.306 19.1984 267.736 18.3525C268.724 16.6239 269.21 14.6538 269.139 12.664C268.988 10.6242 268.297 8.6613 267.138 6.97628C266.511 6.06294 265.819 5.19599 265.067 4.38217C264.393 3.57969 263.564 2.92029 262.631 2.44278C261.631 1.9375 260.682 1.4314 259.725 0.865019C258.735 0.31235 257.618 0.0261532 256.485 0.0344428C253.904 -0.139913 251.312 0.0611568 248.788 0.631368C247.804 0.914434 246.864 1.33615 245.998 1.88384C245.195 2.3693 244.322 2.82092 243.579 3.37574C242.862 4.01436 242.256 4.76767 241.785 5.60492C241.172 6.45227 240.788 7.44413 240.672 8.48387C240.607 9.5514 241.293 10.4505 241.467 11.4784C241.598 12.2512 242.927 11.9226 242.797 11.1539" fill="black"/>
</g>
</g>
<g style="mix-blend-mode:multiply">
<mask id="mask7_979_625" style="mask-type:luminance" maskUnits="userSpaceOnUse" x="241" y="8" width="19" height="32">
<path d="M259.571 8.0918H241.473V39.6166H259.571V8.0918Z" fill="white"/>
</mask>
<g mask="url(#mask7_979_625)">
<path d="M241.933 12.2051C242.931 12.5291 243.952 12.7796 244.987 12.9547C245.894 13.2093 246.832 13.3336 247.774 13.3238C247.916 13.3229 248.056 13.2799 248.174 13.2003C248.292 13.1207 248.384 13.008 248.439 12.8763C248.761 12.1539 248.596 11.3307 249.057 10.6562C249.451 10.0681 250.052 9.6505 250.741 9.48711C251.713 9.3008 252.707 9.25216 253.693 9.34262C254.47 9.297 255.249 9.39869 255.989 9.64232C256.647 9.87751 257.21 10.3211 257.592 10.9055C257.832 11.6269 257.977 12.3761 258.025 13.1347C258.373 14.7253 258.118 16.3884 257.31 17.802C256.276 19.3114 254.969 20.6134 253.455 21.6403C252.208 22.6186 250.806 23.2527 250.589 24.8519C250.476 25.6924 250.574 26.5387 250.546 27.3817C250.512 28.3369 250.451 29.2921 250.403 30.2474C250.31 32.1108 249.99 33.9676 249.949 35.8303C249.924 37.0249 249.906 38.9007 251.426 39.4366C253.151 40.0451 254.942 38.8933 256.688 39.1336C257.557 39.2525 257.931 38.0784 257.055 37.9587C256.202 37.8708 255.341 37.9184 254.503 38.0999C253.729 38.3244 252.922 38.411 252.118 38.3558C251.528 38.2394 251.462 37.6739 251.395 37.2181C251.289 36.2778 251.3 35.3281 251.426 34.3904C251.62 32.4502 251.767 30.5231 251.865 28.5763C251.911 27.6475 251.912 26.7286 251.913 25.7998C251.857 25.3818 251.917 24.9565 252.087 24.5707C252.258 24.1849 252.531 23.8537 252.878 23.6135C255.759 21.5346 258.945 19.2856 259.493 15.8056C259.601 14.9755 259.581 14.1338 259.434 13.3097C259.345 12.5225 259.215 11.7405 259.045 10.9666C258.794 10.3053 258.381 9.71746 257.844 9.25681C257.307 8.79616 256.663 8.47738 255.972 8.32958C254.929 8.12804 253.867 8.04934 252.806 8.0951C251.752 8.0348 250.696 8.18352 249.7 8.53268C249.012 8.82603 248.415 9.29949 247.974 9.90322C247.326 10.7371 247.507 11.6593 247.108 12.5543L247.773 12.1068C246.871 12.1055 245.974 11.9811 245.105 11.7369C244.153 11.5749 243.214 11.3389 242.298 11.031C242.22 11.0005 242.135 10.9865 242.051 10.9899C241.967 10.9933 241.884 11.014 241.808 11.0507C241.732 11.0874 241.664 11.1393 241.609 11.2033C241.554 11.2672 241.512 11.3418 241.487 11.4225C241.462 11.5031 241.453 11.588 241.463 11.672C241.472 11.756 241.498 11.8372 241.539 11.9107C241.581 11.9841 241.637 12.0482 241.705 12.099C241.772 12.1498 241.85 12.1862 241.932 12.2059" fill="black"/>
</g>
</g>
<g style="mix-blend-mode:multiply">
<mask id="mask8_979_625" style="mask-type:luminance" maskUnits="userSpaceOnUse" x="248" y="41" width="13" height="11">
<path d="M260.491 41.5938H248.789V51.6977H260.491V41.5938Z" fill="white"/>
</mask>
<g mask="url(#mask8_979_625)">
<path d="M257.517 41.624C255.835 41.5703 253.961 41.4919 252.508 42.3926C251.208 43.1984 251.171 44.4484 250.774 45.6803C250.362 46.9748 249.211 48.2488 250.388 49.5211C251.484 50.6081 252.963 51.22 254.506 51.2243C255.343 51.1551 256.16 50.9311 256.915 50.5638C257.635 50.2924 258.332 49.9644 258.999 49.583C259.498 49.2293 259.896 48.7529 260.157 48.1999C260.417 47.647 260.53 47.0362 260.485 46.4266C260.492 45.672 260.312 44.9274 259.962 44.2586C259.613 43.5898 259.104 43.0173 258.481 42.5916C257.88 42.1766 257.175 41.9389 256.446 41.9055C255.691 41.8354 254.931 41.8222 254.174 41.8659C253.515 41.894 252.871 42.0705 252.289 42.3825C251.707 42.6944 251.204 43.1336 250.816 43.6674C250.054 44.7704 250.05 46.032 249.912 47.277C249.779 47.9689 249.878 48.6853 250.195 49.3146C250.641 49.9495 251.269 50.434 251.996 50.7042C252.781 51.0066 253.609 51.1784 254.449 51.2128C255.33 51.368 256.236 51.2686 257.062 50.9263C257.637 50.5431 258.097 50.0101 258.392 49.3848C258.785 48.884 259.205 48.4039 259.648 47.9466C259.982 47.3865 260.153 46.7449 260.144 46.0931C260.193 45.7521 260.173 45.4046 260.085 45.0715C259.997 44.7384 259.842 44.4265 259.631 44.1545C259.141 43.5593 258.496 43.112 257.767 42.8624C257.047 42.6494 256.303 42.5298 255.553 42.5066C253.963 42.3621 252.474 42.3802 251.162 43.2975C250.208 44.0795 249.516 45.1357 249.181 46.3234C248.865 46.8426 248.748 47.4584 248.851 48.0572C249.141 48.8316 249.629 49.5165 250.266 50.0437C251.495 50.9836 252.991 51.5071 254.538 51.5381C255.348 51.5967 256.162 51.6388 256.973 51.69C257.344 51.7469 257.722 51.7219 258.082 51.6168C258.442 51.5116 258.775 51.3288 259.056 51.0812C259.338 50.8336 259.562 50.5273 259.712 50.1839C259.862 49.8404 259.936 49.4682 259.926 49.0934C259.859 48.3165 258.479 48.3099 258.547 49.0934C258.558 49.3469 258.504 49.599 258.388 49.8248C258.272 50.0505 258.099 50.2421 257.886 50.3805C257.313 50.5302 256.712 50.5373 256.136 50.4012C254.93 50.4233 253.728 50.2703 252.566 49.9471C251.984 49.7361 251.453 49.4034 251.009 48.9712C250.793 48.7429 250.603 48.4915 250.443 48.2215C250.295 48.044 250.193 47.8336 250.144 47.6081C250.185 47.3948 250.262 47.1901 250.372 47.0029C250.471 46.761 250.561 46.5166 250.657 46.2739C250.817 45.8406 251.023 45.4254 251.271 45.0354C251.55 44.6259 251.922 44.2873 252.355 44.0464C252.788 43.8055 253.272 43.6689 253.767 43.6476C254.413 43.6365 255.058 43.6682 255.699 43.7425C256.249 43.758 256.794 43.8488 257.319 44.0125C257.857 44.2021 258.317 44.5629 258.63 45.0396C258.825 45.5145 258.854 46.0413 258.713 46.5348C258.701 46.7367 258.649 46.9342 258.56 47.116C258.471 47.2977 258.348 47.4602 258.196 47.594C257.782 47.9698 257.425 48.4033 257.136 48.8812C256.894 49.2899 256.664 49.8001 256.14 49.976C255.454 50.1056 254.75 50.1028 254.065 49.9677C253.023 49.8571 251.454 49.4104 251.266 48.3421C251.219 47.7933 251.25 47.2408 251.358 46.7007C251.38 46.2381 251.438 45.7779 251.532 45.3244C251.635 44.8872 251.838 44.4797 252.124 44.1334C252.411 43.7871 252.773 43.5113 253.183 43.3272C253.654 43.1414 254.159 43.057 254.665 43.0795C255.271 43.0903 255.903 43.0696 256.507 43.1373C257.048 43.2372 257.553 43.476 257.974 43.8304C258.395 44.1847 258.716 44.6424 258.907 45.1585C259.078 45.6081 259.157 46.0874 259.14 46.5681C259.124 47.0489 259.011 47.5214 258.809 47.9581C258.574 48.3472 258.219 48.6498 257.797 48.8209C257.21 49.0975 256.603 49.3601 256.002 49.6119C255.434 49.8794 254.814 50.0165 254.186 50.0131C253.614 49.9558 253.059 49.7819 252.557 49.5021C252.086 49.3104 251.67 49.0066 251.343 48.617C251.066 48.1901 251.356 47.6263 251.551 47.2134C251.822 46.7184 252.038 46.1962 252.199 45.6555C252.288 45.1828 252.412 44.717 252.568 44.2618C252.973 43.2405 254.271 42.8971 255.391 42.8244C256.099 42.779 256.811 42.8195 257.519 42.8426C257.604 42.8502 257.689 42.8402 257.769 42.813C257.85 42.7859 257.924 42.7422 257.987 42.6849C258.049 42.6276 258.099 42.5578 258.134 42.4801C258.168 42.4023 258.186 42.3183 258.186 42.2333C258.186 42.1483 258.168 42.0643 258.134 41.9865C258.099 41.9087 258.049 41.839 257.987 41.7817C257.924 41.7243 257.85 41.6807 257.769 41.6536C257.689 41.6264 257.604 41.6163 257.519 41.624" fill="black"/>
</g>
</g>
</g>
</g>
</svg>
