<svg width="57" height="58" viewBox="0 0 57 58" fill="none" xmlns="http://www.w3.org/2000/svg">
<path d="M46 0H11C4.92487 0 0 4.92487 0 11V46C0 52.0751 4.92487 57 11 57H46C52.0751 57 57 52.0751 57 46V11C57 4.92487 52.0751 0 46 0Z" fill="#FFB601"/>
<path d="M55 30L44.284 25.6987L45.917 37.1297L55 30ZM41.1414 32.9899L46.2319 32.2627L45.949 30.2828L40.8586 31.0101L41.1414 32.9899Z" fill="black"/>
<path d="M29 4L20.3397 19L37.6603 19L29 4ZM30.5 18L30.5 17.5L27.5 17.5L27.5 18L30.5 18Z" fill="black"/>
<path d="M2 29L10.5683 36.7406L12.9877 25.4499L2 29ZM16.2095 31.0222L11.0098 29.908L10.5907 31.8636L15.7905 32.9778L16.2095 31.0222Z" fill="black"/>
<line x1="29" y1="56" x2="29" y2="17" stroke="black" stroke-width="8"/>
<line x1="29" y1="56" x2="29" y2="17" stroke="black" stroke-width="8"/>
<path d="M29.036 55.3879C29.0369 46.3172 22.7223 31.3226 9.5 31.3238M29.0422 55.3925C29.0431 46.3218 34.5009 31.3229 47 31.3231" stroke="black" stroke-width="5"/>
<path d="M29.036 55.3879C29.0369 46.3172 22.7223 31.3226 9.5 31.3238M29.0422 55.3925C29.0431 46.3218 34.5009 31.3229 47 31.3231" stroke="#FFB601" stroke-dasharray="2 2"/>
<line x1="29" y1="55.5" x2="29" y2="17.5" stroke="#FFB601" stroke-linecap="round" stroke-dasharray="2 2"/>
</svg>
