<svg width="574" height="384" viewBox="0 0 574 384" fill="none" xmlns="http://www.w3.org/2000/svg">
<mask id="mask0_1014_1028" style="mask-type:luminance" maskUnits="userSpaceOnUse" x="0" y="0" width="574" height="384">
<path d="M0 0H574V383.534H0V0Z" fill="white"/>
</mask>
<g mask="url(#mask0_1014_1028)">
<path d="M290.334 197.103C290.334 143.603 290.577 80.5932 290.577 23.5582C202.341 23.5582 118.377 22.8682 41.8512 22.8682C42.5092 79.7682 43.1821 137.16 43.1821 196.614C94.3731 196.614 157.207 196.855 216.882 196.997C221.862 197.01 254.996 245.009 254.996 245.009C254.996 245.009 243.096 197.054 248.696 197.065C262.996 197.088 276.951 197.103 290.326 197.103" fill="white"/>
<path d="M255.004 246.056C254.834 246.056 254.667 246.015 254.517 245.936C254.367 245.857 254.239 245.743 254.143 245.603C238.243 222.566 219.949 198.476 216.867 198.042C199.047 198.002 180.924 197.949 162.914 197.898C119.798 197.775 79.0719 197.661 43.1859 197.661C42.908 197.661 42.6416 197.551 42.4452 197.354C42.2487 197.158 42.1382 196.891 42.1379 196.613C42.1379 137.69 41.4709 80.0923 40.8259 24.3893L40.8069 22.8803C40.8053 22.7417 40.8313 22.6041 40.8832 22.4756C40.9352 22.347 41.0121 22.2301 41.1096 22.1315C41.2071 22.0329 41.3231 21.9546 41.451 21.9012C41.579 21.8478 41.7162 21.8203 41.8549 21.8203C78.7549 21.8203 116.955 21.9793 157.398 22.1483C200.414 22.3263 244.898 22.5103 290.581 22.5103C290.859 22.5106 291.125 22.6211 291.322 22.8176C291.518 23.014 291.629 23.2804 291.629 23.5583C291.629 52.5333 291.565 83.3133 291.504 113.079C291.443 142.755 291.403 170.763 291.385 197.103C291.385 197.241 291.358 197.377 291.305 197.505C291.253 197.632 291.176 197.747 291.078 197.845C290.981 197.942 290.865 198.019 290.738 198.072C290.611 198.124 290.475 198.151 290.337 198.151C276.981 198.151 263.051 198.134 248.77 198.111C248.455 198.467 246.994 201.326 251.05 222.217C253.25 233.566 255.992 244.647 256.02 244.757C256.079 244.995 256.053 245.246 255.946 245.467C255.839 245.687 255.658 245.863 255.434 245.963C255.299 246.025 255.152 246.057 255.004 246.056ZM44.2339 195.566C79.8679 195.566 120.221 195.682 162.92 195.805C180.928 195.856 199.051 195.905 216.892 195.949C217.982 195.949 220.531 195.96 238.655 220.383C244.15 227.783 249.45 235.25 252.682 239.852C249.714 227.252 243.989 200.821 247.128 196.814C247.311 196.568 247.549 196.368 247.823 196.229C248.097 196.09 248.4 196.017 248.707 196.014C262.639 196.037 276.234 196.052 289.289 196.052C289.289 170.034 289.328 142.374 289.405 113.071C289.466 83.6653 289.53 53.2713 289.53 24.6023C244.209 24.6023 200.077 24.4163 157.386 24.2383C117.335 24.0733 79.4859 23.9143 42.9119 23.9123V24.3633C43.5549 79.7413 44.2179 136.993 44.2259 195.563" fill="black"/>
<path d="M245.541 12.3572C209.685 12.2239 173.831 11.9692 137.98 11.5932C107.64 11.3242 72.4872 11.9572 42.1492 11.5762C41.7465 18.2198 41.7465 24.8817 42.1492 31.5252C120.139 31.5252 211.842 30.4142 290.339 31.5252C290.781 26.3482 290.464 19.0112 290.464 12.5942C277.264 12.5862 258.729 12.4062 245.541 12.3572Z" fill="#233862"/>
<path d="M290.343 32.5734H290.328C237.495 31.8264 178.821 32.0844 122.081 32.3344C94.0858 32.4574 67.6428 32.5734 42.1508 32.5734C41.8872 32.5735 41.6334 32.4742 41.4399 32.2953C41.2464 32.1164 41.1274 31.8711 41.1068 31.6084C40.698 24.921 40.6967 18.215 41.1028 11.5274C41.1147 11.2556 41.2321 10.9992 41.43 10.8125C41.6279 10.6258 41.8907 10.5235 42.1628 10.5274C58.2368 10.7274 75.9168 10.6434 93.0168 10.5634C108.117 10.4894 123.723 10.4154 137.987 10.5424C171.187 10.8364 208.827 11.1694 245.544 11.3064C250.92 11.3274 257.188 11.3694 263.618 11.4124C272.976 11.4734 282.651 11.5394 290.465 11.5434C290.602 11.5436 290.738 11.5708 290.865 11.6235C290.992 11.6763 291.108 11.7535 291.205 11.8508C291.302 11.9481 291.379 12.0636 291.431 12.1907C291.484 12.3178 291.511 12.4539 291.511 12.5914C291.511 14.4794 291.539 16.4454 291.566 18.4144C291.632 23.0814 291.699 27.9144 291.384 31.6144C291.362 31.8758 291.242 32.1193 291.049 32.2969C290.856 32.4745 290.603 32.5731 290.341 32.5734M43.1518 12.6374C42.8234 18.5803 42.815 24.5366 43.1268 30.4804C68.3128 30.4804 94.4358 30.3614 122.073 30.2394C178.473 29.9914 236.773 29.7394 289.373 30.4654C289.595 27.0024 289.536 22.6594 289.473 18.4474C289.45 16.8304 289.426 15.2134 289.42 13.6404C281.792 13.6324 272.553 13.5704 263.603 13.5094C257.175 13.4674 250.912 13.4244 245.535 13.4094C208.813 13.2714 171.175 12.9374 137.97 12.6454C123.719 12.5184 108.117 12.5924 93.0248 12.6644C76.2758 12.7444 58.9678 12.8274 43.1488 12.6414" fill="black"/>
<path d="M271.279 19.4904C270.846 19.4242 270.403 19.485 270.004 19.6653C269.605 19.8456 269.267 20.1378 269.031 20.5064C268.844 20.802 268.736 21.1409 268.719 21.4902C268.701 21.8395 268.774 22.1875 268.931 22.5004C269.111 22.8218 269.372 23.091 269.687 23.282C270.003 23.473 270.362 23.5792 270.731 23.5904C271.261 23.5971 271.774 23.4029 272.167 23.0467C272.56 22.6906 272.804 22.1988 272.85 21.6704C272.846 21.1886 272.693 20.7198 272.411 20.3292C272.129 19.9385 271.733 19.6453 271.277 19.4904" fill="black"/>
<path d="M251.71 19.4904C251.277 19.4242 250.835 19.485 250.436 19.6653C250.037 19.8456 249.699 20.1378 249.462 20.5064C249.275 20.802 249.168 21.1409 249.15 21.4902C249.133 21.8396 249.206 22.1875 249.362 22.5004C249.543 22.822 249.803 23.0915 250.119 23.2825C250.434 23.4735 250.794 23.5796 251.162 23.5904C251.693 23.5971 252.206 23.4029 252.599 23.0467C252.992 22.6906 253.236 22.1988 253.281 21.6704C253.278 21.1888 253.126 20.7201 252.844 20.3294C252.562 19.9387 252.166 19.6454 251.71 19.4904Z" fill="black"/>
<path d="M230.876 19.4904C230.443 19.4242 230.001 19.485 229.602 19.6653C229.203 19.8456 228.865 20.1378 228.628 20.5064C228.441 20.802 228.334 21.1409 228.316 21.4902C228.299 21.8396 228.372 22.1875 228.528 22.5004C228.709 22.8218 228.969 23.0911 229.285 23.2821C229.6 23.4731 229.96 23.5793 230.328 23.5904C230.859 23.5971 231.372 23.4029 231.765 23.0467C232.158 22.6906 232.402 22.1988 232.447 21.6704C232.444 21.1886 232.291 20.7198 232.009 20.3292C231.727 19.9385 231.33 19.6453 230.874 19.4904" fill="black"/>
<path d="M163.28 89.3112H76.7391C76.6017 89.3113 76.4657 89.2843 76.3387 89.2318C76.2117 89.1793 76.0964 89.1022 75.9992 89.0051C75.902 88.9079 75.825 88.7926 75.7725 88.6656C75.72 88.5386 75.693 88.4026 75.6931 88.2652V55.0412C75.693 54.9037 75.7199 54.7675 75.7724 54.6404C75.8249 54.5133 75.9019 54.3978 75.9991 54.3005C76.0962 54.2032 76.2116 54.126 76.3385 54.0732C76.4655 54.0205 76.6016 53.9933 76.7391 53.9932H163.28C163.418 53.993 163.554 54.0201 163.681 54.0727C163.809 54.1253 163.924 54.2025 164.021 54.2998C164.119 54.3972 164.196 54.5127 164.249 54.64C164.301 54.7672 164.328 54.9035 164.328 55.0412V88.2662C164.328 88.4037 164.301 88.5399 164.248 88.6669C164.196 88.794 164.118 88.9094 164.021 89.0065C163.924 89.1037 163.808 89.1807 163.681 89.2331C163.554 89.2856 163.418 89.3114 163.28 89.3112ZM77.7901 87.2182H162.233V56.0842H77.7901V87.2182Z" fill="black"/>
<path d="M121.561 137.196H76.7394C76.6019 137.196 76.4658 137.169 76.3388 137.116C76.2118 137.063 76.0965 136.986 75.9993 136.889C75.9022 136.792 75.8252 136.676 75.7727 136.549C75.7202 136.422 75.6932 136.286 75.6934 136.148V110.66C75.6932 110.523 75.7202 110.387 75.7727 110.26C75.8252 110.132 75.9022 110.017 75.9993 109.92C76.0965 109.822 76.2118 109.745 76.3388 109.692C76.4658 109.64 76.6019 109.612 76.7394 109.612H121.561C121.839 109.613 122.106 109.723 122.302 109.92C122.499 110.116 122.609 110.382 122.609 110.66V136.148C122.609 136.426 122.499 136.693 122.302 136.889C122.106 137.086 121.839 137.196 121.561 137.196ZM77.7874 135.096H120.514V111.696H77.7874V135.096Z" fill="black"/>
<path d="M192.963 137.196H148.143C147.865 137.196 147.598 137.086 147.402 136.889C147.206 136.693 147.095 136.426 147.095 136.148V110.66C147.095 110.382 147.206 110.116 147.402 109.92C147.598 109.723 147.865 109.613 148.143 109.612H192.963C193.1 109.612 193.237 109.639 193.364 109.692C193.491 109.744 193.607 109.822 193.704 109.919C193.801 110.016 193.879 110.132 193.931 110.259C193.984 110.386 194.011 110.523 194.011 110.66V136.148C194.011 136.286 193.984 136.422 193.931 136.55C193.879 136.677 193.801 136.792 193.704 136.89C193.607 136.987 193.491 137.064 193.364 137.117C193.237 137.169 193.1 137.196 192.963 137.196ZM149.191 135.096H191.918V111.696H149.192L149.191 135.096Z" fill="black"/>
<path d="M264.364 137.196H219.538C219.26 137.196 218.994 137.086 218.797 136.889C218.601 136.693 218.49 136.426 218.49 136.148V110.66C218.49 110.382 218.601 110.116 218.797 109.92C218.994 109.723 219.26 109.613 219.538 109.612H264.364C264.502 109.612 264.638 109.64 264.765 109.692C264.892 109.745 265.007 109.822 265.104 109.92C265.201 110.017 265.278 110.132 265.331 110.26C265.383 110.387 265.41 110.523 265.41 110.66V136.148C265.41 136.286 265.383 136.422 265.331 136.549C265.278 136.676 265.201 136.792 265.104 136.889C265.007 136.986 264.892 137.063 264.765 137.116C264.638 137.169 264.502 137.196 264.364 137.196ZM220.59 135.096H263.317V111.696H220.591L220.59 135.096Z" fill="black"/>
<path d="M241.955 61.865L190.163 61.524C190.117 61.524 190.072 61.5149 190.03 61.4973C189.988 61.4798 189.949 61.454 189.917 61.4215C189.885 61.3891 189.86 61.3506 189.843 61.3082C189.826 61.2659 189.817 61.2206 189.818 61.175C189.816 61.1286 189.824 61.0825 189.841 61.0394C189.858 60.9963 189.884 60.9573 189.917 60.9247C189.95 60.8921 189.99 60.8667 190.033 60.85C190.076 60.8334 190.122 60.8259 190.169 60.828L241.959 61.167C242.051 61.167 242.14 61.2039 242.206 61.2695C242.272 61.3351 242.309 61.4242 242.309 61.517C242.309 61.6098 242.272 61.6988 242.206 61.7645C242.14 61.8301 242.051 61.867 241.959 61.867" fill="black"/>
<path d="M231.829 72.171L190.156 71.827C190.063 71.827 189.974 71.7901 189.908 71.7244C189.843 71.6588 189.806 71.5698 189.806 71.477C189.806 71.3841 189.843 71.2951 189.908 71.2295C189.974 71.1638 190.063 71.127 190.156 71.127L231.82 71.466C231.913 71.466 232.002 71.5028 232.067 71.5685C232.133 71.6341 232.17 71.7231 232.17 71.816C232.17 71.9088 232.133 71.9978 232.067 72.0634C232.002 72.1291 231.913 72.166 231.82 72.166" fill="black"/>
<path d="M241.955 82.4774L190.163 82.1384C190.117 82.138 190.072 82.1286 190.03 82.1108C189.988 82.0929 189.949 82.0669 189.917 82.0343C189.885 82.0017 189.86 81.9632 189.843 81.9208C189.826 81.8784 189.817 81.8331 189.818 81.7874C189.816 81.741 189.824 81.6947 189.841 81.6515C189.858 81.6083 189.883 81.5691 189.916 81.5364C189.95 81.5038 189.989 81.4784 190.032 81.4618C190.076 81.4453 190.122 81.438 190.169 81.4404L241.959 81.7794C242.051 81.7794 242.14 81.8163 242.206 81.8819C242.272 81.9475 242.309 82.0366 242.309 82.1294C242.309 82.2222 242.272 82.3112 242.206 82.3769C242.14 82.4425 242.051 82.4794 241.959 82.4794" fill="black"/>
<path d="M117.299 153.333L80.9994 152.994C80.9066 152.994 80.8176 152.957 80.7519 152.891C80.6863 152.826 80.6494 152.737 80.6494 152.644C80.6494 152.551 80.6863 152.462 80.7519 152.396C80.8176 152.331 80.9066 152.294 80.9994 152.294L117.299 152.633C117.392 152.633 117.481 152.67 117.547 152.735C117.613 152.801 117.649 152.89 117.649 152.983C117.649 153.076 117.613 153.165 117.547 153.23C117.481 153.296 117.392 153.333 117.299 153.333Z" fill="black"/>
<path d="M113.753 163.639L84.5525 163.3C84.4597 163.3 84.3707 163.263 84.3051 163.198C84.2394 163.132 84.2025 163.043 84.2025 162.95C84.2025 162.857 84.2394 162.768 84.3051 162.703C84.3707 162.637 84.4597 162.6 84.5525 162.6L113.753 162.939C113.845 162.939 113.934 162.976 114 163.042C114.066 163.107 114.103 163.196 114.103 163.289C114.103 163.382 114.066 163.471 114 163.537C113.934 163.602 113.845 163.639 113.753 163.639Z" fill="black"/>
<path d="M188.703 153.333L152.403 152.994C152.31 152.994 152.221 152.957 152.155 152.891C152.09 152.826 152.053 152.737 152.053 152.644C152.053 152.551 152.09 152.462 152.155 152.396C152.221 152.331 152.31 152.294 152.403 152.294L188.703 152.633C188.796 152.633 188.885 152.67 188.95 152.735C189.016 152.801 189.053 152.89 189.053 152.983C189.053 153.076 189.016 153.165 188.95 153.23C188.885 153.296 188.796 153.333 188.703 153.333Z" fill="black"/>
<path d="M185.153 163.639L155.953 163.3C155.86 163.3 155.771 163.263 155.705 163.198C155.64 163.132 155.603 163.043 155.603 162.95C155.603 162.857 155.64 162.768 155.705 162.703C155.771 162.637 155.86 162.6 155.953 162.6L185.153 162.939C185.246 162.939 185.335 162.976 185.4 163.042C185.466 163.107 185.503 163.196 185.503 163.289C185.503 163.382 185.466 163.471 185.4 163.537C185.335 163.602 185.246 163.639 185.153 163.639Z" fill="black"/>
<path d="M260.102 153.333L223.802 152.994C223.709 152.994 223.62 152.957 223.555 152.891C223.489 152.826 223.452 152.737 223.452 152.644C223.452 152.551 223.489 152.462 223.555 152.396C223.62 152.331 223.709 152.294 223.802 152.294L260.102 152.633C260.195 152.633 260.284 152.67 260.35 152.735C260.415 152.801 260.452 152.89 260.452 152.983C260.452 153.076 260.415 153.165 260.35 153.23C260.284 153.296 260.195 153.333 260.102 153.333Z" fill="black"/>
<path d="M256.553 163.639L227.353 163.3C227.26 163.3 227.171 163.263 227.106 163.198C227.04 163.132 227.003 163.043 227.003 162.95C227.003 162.857 227.04 162.768 227.106 162.703C227.171 162.637 227.26 162.6 227.353 162.6L256.553 162.939C256.646 162.939 256.735 162.976 256.801 163.042C256.866 163.107 256.903 163.196 256.903 163.289C256.903 163.382 256.866 163.471 256.801 163.537C256.735 163.602 256.646 163.639 256.553 163.639Z" fill="black"/>
<path d="M383.671 28.3522C370.597 25.7022 337.729 18.1922 330.654 33.9192C311.09 77.4242 486.506 140.282 509.584 118.946C531.051 99.1002 459.223 57.0662 452.49 53.7072C430.458 42.7172 407.29 33.1382 383.672 28.3522" fill="white"/>
<path d="M491.963 124.278C479.689 124.278 462.637 121.291 442.446 115.416C408.787 105.616 374.682 90.0424 353.437 74.7604C332.529 59.7204 324.321 45.4464 329.697 33.4924C336.813 17.6704 367.405 23.9484 382.105 26.9664L383.879 27.3284C404.635 31.5344 426.586 39.6174 452.955 52.7744C453.529 53.0604 511.129 84.8054 514.471 108.22C514.817 110.333 514.615 112.5 513.884 114.512C513.153 116.524 511.917 118.315 510.295 119.713C506.989 122.767 500.681 124.274 491.963 124.274M353.336 25.3204C343.576 25.3204 334.736 27.4054 331.609 34.3564C325.395 48.1714 340.715 63.0284 354.661 73.0634C375.724 88.2184 409.586 103.678 443.033 113.408C476.342 123.108 501.571 124.931 508.873 118.185C510.248 117.019 511.296 115.515 511.914 113.822C512.532 112.128 512.699 110.303 512.397 108.525C509.474 88.0254 459.092 58.1794 452.02 54.6524C425.82 41.5824 404.034 33.5524 383.462 29.3864L381.684 29.0204C374.976 27.6464 363.644 25.3204 353.336 25.3204Z" fill="black"/>
<path d="M470.995 112.093C470.595 129.386 481.182 147.043 497.516 152.737C506.41 155.837 516.159 155.4 525.272 157.779C534.385 160.158 543.672 167.018 543.733 176.437C543.773 182.694 540.224 196.884 558.956 205.198C574.41 212.056 570.718 249.158 522.856 264.76C508.194 269.539 517.645 257.515 502.403 255.17C487.352 252.854 473.703 244.341 463.315 233.204C452.927 222.067 445.584 208.41 439.861 194.304C433.268 178.055 428.661 160.104 432.732 143.05C436.803 125.996 451.847 110.581 470.995 112.093Z" fill="black"/>
<path d="M517.415 266.906C514.155 266.906 512.938 265.143 511.715 262.706C510.426 260.141 508.966 257.234 502.245 256.206C488.004 254.015 473.907 246.099 462.552 233.918C453.323 224.018 445.583 211.187 438.892 194.693C430.487 173.977 428.207 157.487 431.717 142.804C435.681 126.216 450.837 109.448 471.076 111.052C471.343 111.073 471.592 111.195 471.771 111.394C471.951 111.592 472.047 111.852 472.041 112.119C471.641 129.727 482.495 146.396 497.86 151.751C502.707 153.442 507.96 154.075 513.043 154.687C517.249 155.098 521.423 155.794 525.535 156.768C534.759 159.177 544.714 166.358 544.779 176.434C544.779 177.249 544.73 178.195 544.673 179.194C544.267 186.394 543.653 197.264 559.379 204.244C565.179 206.818 568.525 213.42 568.112 221.471C567.397 235.377 555.203 255.32 523.182 265.757C521.329 266.434 519.383 266.822 517.412 266.908M468.405 113.037C450.574 113.037 437.354 128.237 433.758 143.288C430.358 157.527 432.602 173.611 440.836 193.905C447.429 210.154 455.036 222.776 464.087 232.487C475.123 244.325 488.787 252.013 502.567 254.134C510.354 255.334 512.223 259.051 513.588 261.769C514.953 264.487 515.707 265.99 522.537 263.763C553.546 253.654 565.337 234.604 566.021 221.363C566.389 214.198 563.521 208.371 558.53 206.157C541.48 198.59 542.171 186.375 542.583 179.077C542.64 178.067 542.689 177.197 542.683 176.446C542.626 167.476 533.483 161.007 525.005 158.793C520.984 157.845 516.904 157.168 512.792 156.765C507.6 156.141 502.23 155.493 497.169 153.73C481.269 148.184 469.938 131.194 469.934 113.078C469.42 113.053 468.907 113.04 468.402 113.04" fill="black"/>
<path d="M377.439 72.5952C382.481 97.1692 387.351 123.614 377.287 146.595C374.017 154.065 369.261 160.863 366.575 168.559C363.381 177.709 363.275 187.659 364.154 197.309C365.807 215.554 371.285 234.272 384.116 247.351C396.947 260.43 418.416 266.128 434.24 256.903C448.127 248.809 454.469 231.414 453.595 215.364C452.721 199.314 445.873 184.247 438.645 169.888C421.282 135.388 401.045 102.344 377.445 72.5972" fill="black"/>
<path d="M416.756 262.425C404.168 262.243 392.164 257.085 383.368 248.078C371.915 236.403 365.099 219.351 363.11 197.397C362.026 185.425 362.81 176.15 365.586 168.209C367.284 163.733 369.338 159.4 371.729 155.253C373.329 152.307 374.974 149.263 376.329 146.168C385.862 124.405 382.008 100.068 376.416 72.801C376.373 72.5723 376.408 72.336 376.514 72.1291C376.621 71.9222 376.793 71.7566 377.003 71.6582C377.214 71.5599 377.452 71.5346 377.679 71.5861C377.905 71.6377 378.109 71.7632 378.256 71.943C400.504 99.988 421.135 132.781 439.575 169.416C446.704 183.576 453.737 198.784 454.637 215.305C455.628 233.505 447.826 250.191 434.762 257.805C429.274 260.914 423.059 262.51 416.752 262.43M379.342 76.707C384.502 102.587 387.512 125.853 378.248 147.007C376.857 150.18 375.187 153.266 373.57 156.248C371.236 160.298 369.227 164.528 367.563 168.897C364.892 176.547 364.14 185.542 365.197 197.207C367.14 218.668 373.757 235.287 384.863 246.607C398.333 260.338 419.332 264.37 433.713 255.99C446.104 248.766 453.499 232.838 452.551 215.412C451.675 199.294 444.738 184.312 437.711 170.351C420.088 135.344 400.465 103.861 379.343 76.705" fill="black"/>
<path d="M412.976 192.447C413.427 179.347 411.812 172.011 411.285 162.215C416.589 159.563 422.265 157.732 428.118 156.784C430.743 156.361 433.7 156.198 435.718 157.784C436.984 158.777 442.974 153.491 443.594 154.946C447.861 164.946 448.223 179.203 452.488 189.202C452.816 189.972 467.76 188.586 468.088 189.361C469.477 192.619 468.312 219.728 467.277 220.416C412.602 256.769 386.267 204.778 386.267 204.778C386.267 204.778 396.183 198.697 412.975 192.451" fill="white"/>
<path d="M430.474 234.371C426.552 234.377 422.645 233.875 418.852 232.877C396.577 227.008 385.78 206.133 385.331 205.246C385.212 205.012 385.186 204.741 385.258 204.488C385.33 204.235 385.494 204.019 385.718 203.881C394.1 199.087 402.876 195.016 411.95 191.712C412.11 185.014 411.799 178.312 411.019 171.657C410.719 168.67 410.419 165.58 410.238 162.272C410.227 162.069 410.275 161.866 410.377 161.689C410.48 161.513 410.632 161.37 410.814 161.279C416.212 158.576 421.992 156.713 427.952 155.753C430.552 155.332 433.836 155.082 436.23 156.853C437.312 156.467 438.345 155.952 439.305 155.321C441.426 154.079 442.677 153.393 443.678 153.721C443.874 153.785 444.055 153.89 444.207 154.03C444.359 154.169 444.479 154.34 444.559 154.53C446.735 159.635 447.922 165.856 449.07 171.874C450.164 177.608 451.295 183.53 453.27 188.35C454.411 188.462 457.734 188.329 460.232 188.229C467.898 187.92 468.644 187.979 469.054 188.944C470.026 191.221 469.789 201.544 469.64 205.881C469.147 220.427 468.277 221.004 467.86 221.281C454.76 229.989 442.236 234.366 430.478 234.368M387.678 205.158C389.97 209.158 400.551 225.895 419.408 230.852C433.742 234.622 449.574 230.863 466.478 219.685C467.369 216.804 468.226 194.41 467.257 190.194C466.072 190.094 462.789 190.222 460.317 190.321C452.678 190.621 451.937 190.567 451.527 189.608C449.349 184.503 448.164 178.282 447.014 172.266C445.922 166.543 444.794 160.629 442.827 155.813C441.979 156.196 441.156 156.635 440.365 157.125C438.071 158.469 436.259 159.532 435.071 158.6C433.308 157.216 430.518 157.453 428.285 157.813C422.764 158.706 417.404 160.402 412.374 162.847C412.552 165.836 412.825 168.568 413.111 171.447C413.931 178.426 414.238 185.456 414.03 192.48C414.023 192.688 413.954 192.888 413.833 193.057C413.711 193.225 413.543 193.354 413.348 193.426C404.492 196.651 395.907 200.575 387.674 205.161" fill="black"/>
<path d="M371.785 78.6231C373.394 90.7531 375.845 103.479 372.708 115.558C370.996 122.145 371.157 155.63 398.025 165.166C405.396 167.778 413.261 168.698 421.037 167.858C428.812 167.017 436.299 164.438 442.942 160.31C452.825 154.316 464.822 135.696 462.436 117.21C470.613 119.479 478.696 113.963 478.791 106.61C478.846 102.37 474.173 97.0581 469.232 97.3011C465.409 97.4871 464.954 97.5251 462.044 99.7481C459.905 90.7501 458.887 81.5219 459.015 72.2741C449.721 62.0361 434.822 56.8061 419.915 54.5741C414.968 53.7032 409.926 53.5118 404.929 54.0051C390.629 55.7911 370.129 66.1651 371.782 78.6241" fill="white"/>
<path d="M415.437 169.25C409.382 169.24 403.374 168.191 397.674 166.15C370.763 156.598 369.595 123.364 371.692 115.291C374.397 104.884 372.852 93.8663 371.36 83.2093C371.15 81.7193 370.943 80.2313 370.746 78.7583C370.28 75.2473 371.377 71.7413 374.004 68.3403C380.404 60.0513 394.648 54.2313 404.804 52.9613C409.897 52.465 415.034 52.6588 420.076 53.5373C432.405 55.3853 449.302 60.0143 459.795 71.5693C459.973 71.7668 460.07 72.0249 460.066 72.2913C459.939 80.9206 460.831 89.5347 462.722 97.9553C464.777 96.5283 465.772 96.4183 469.184 96.2553C470.521 96.246 471.845 96.5077 473.078 97.0247C474.311 97.5417 475.426 98.3032 476.357 99.2633C478.443 101.162 479.696 103.808 479.843 106.625C479.791 108.449 479.319 110.236 478.463 111.847C477.607 113.458 476.391 114.849 474.909 115.913C473.306 117.092 471.481 117.933 469.544 118.386C467.608 118.84 465.599 118.896 463.64 118.552C465.34 137.388 453.222 155.301 443.49 161.204C435.058 166.416 425.352 169.2 415.44 169.251M372.823 78.4823C373.018 79.9553 373.223 81.4333 373.435 82.9183C374.957 93.7763 376.53 105.007 373.721 115.818C372.546 120.339 371.067 154.485 398.376 164.177C405.597 166.759 413.31 167.672 420.935 166.847C428.559 166.021 435.898 163.48 442.4 159.412C451.66 153.794 463.753 135.585 461.4 117.344C461.378 117.173 461.399 116.999 461.46 116.837C461.522 116.676 461.622 116.532 461.753 116.419C461.884 116.306 462.04 116.227 462.209 116.189C462.377 116.151 462.552 116.155 462.719 116.201C464.57 116.725 466.517 116.821 468.411 116.48C470.305 116.139 472.096 115.372 473.649 114.235C474.874 113.363 475.882 112.221 476.593 110.896C477.304 109.571 477.7 108.099 477.749 106.596C477.601 104.357 476.579 102.265 474.904 100.771C474.179 100.011 473.308 99.4043 472.343 98.9878C471.378 98.5713 470.34 98.3535 469.289 98.3473C465.581 98.5273 465.358 98.5403 462.689 100.578C462.549 100.684 462.386 100.754 462.213 100.78C462.039 100.807 461.862 100.789 461.698 100.73C461.533 100.67 461.386 100.57 461.27 100.439C461.154 100.307 461.073 100.149 461.034 99.9783C458.905 91.0345 457.877 81.8643 457.971 72.6713C447.871 61.7913 431.653 57.3853 419.771 55.6053C414.918 54.7583 409.974 54.5683 405.071 55.0403C395.337 56.2533 381.725 61.7773 375.671 69.6193C373.398 72.5613 372.441 75.5463 372.83 78.4793" fill="black"/>
<path d="M430.484 127.743C421.734 127.743 413.989 120.525 412.728 110.753C412.04 105.801 413.216 100.771 416.028 96.637C417.325 94.6734 419.029 93.0122 421.026 91.7666C423.022 90.521 425.263 89.7203 427.597 89.419C429.931 89.1177 432.302 89.3229 434.549 90.0205C436.796 90.7182 438.867 91.892 440.619 93.462C444.389 96.7456 446.805 101.312 447.399 106.276C448.758 116.804 442.086 126.376 432.528 127.61C431.851 127.698 431.168 127.743 430.484 127.743ZM429.665 91.379C429.064 91.3786 428.462 91.4173 427.865 91.495C425.827 91.7746 423.871 92.4839 422.128 93.576C420.384 94.6681 418.892 96.1181 417.75 97.83C415.233 101.536 414.183 106.046 414.804 110.483C416.015 119.868 423.848 126.618 432.26 125.532C440.672 124.446 446.535 115.927 445.324 106.544C444.796 102.094 442.634 97.9996 439.258 95.053C436.606 92.7141 433.2 91.4097 429.663 91.379" fill="black"/>
<path d="M381.888 129.97C377.855 129.94 373.967 128.456 370.939 125.792C367.206 122.48 364.798 117.928 364.159 112.979C363.52 108.029 364.694 103.016 367.463 98.8641C368.759 96.9004 370.464 95.2392 372.46 93.9936C374.457 92.7481 376.698 91.9473 379.032 91.646C381.365 91.3447 383.736 91.5499 385.984 92.2476C388.231 92.9453 390.301 94.1191 392.054 95.6891C395.824 98.9726 398.24 103.539 398.834 108.503C400.193 119.031 393.521 128.603 383.963 129.837C383.275 129.926 382.581 129.97 381.888 129.97ZM381.097 93.6061C380.495 93.6057 379.894 93.6444 379.297 93.7221C377.258 94.0012 375.302 94.7104 373.559 95.8025C371.815 96.8947 370.323 98.3449 369.182 100.057C366.708 103.783 365.661 108.276 366.234 112.711C366.807 117.146 368.961 121.226 372.3 124.201C373.839 125.566 375.65 126.589 377.614 127.203C379.578 127.816 381.65 128.006 383.692 127.759C392.109 126.676 397.971 118.155 396.757 108.769C396.23 104.318 394.068 100.222 390.691 97.2761C388.039 94.9372 384.632 93.6328 381.096 93.6021" fill="black"/>
<path d="M460.958 101.006C453.097 88.8294 448.284 80.0624 445.691 65.2454C416.702 82.3774 389.166 79.4334 361.398 78.3534C360.907 73.5465 361.72 68.6961 363.753 64.3124C368.553 53.3544 374.553 43.8674 391.312 36.3964C403.057 31.1594 418.869 27.6844 431.585 29.5234C444.223 31.3524 455.092 38.1824 463.94 46.3844C470.98 52.9104 476.94 63.6074 479.04 74.1784C480.84 83.2314 478.625 89.9054 474.57 99.1234C472.29 97.8954 470.146 96.6534 467.505 97.1594C464.864 97.6654 463.164 99.0074 460.963 101.007" fill="black"/>
<path d="M460.959 102.054C460.914 102.055 460.869 102.052 460.824 102.046C460.673 102.027 460.529 101.975 460.4 101.893C460.272 101.812 460.163 101.704 460.081 101.576C453.009 90.6224 447.741 81.6374 444.932 66.9014C418.599 81.9444 393.108 80.8074 368.441 79.7014C366.081 79.5954 363.721 79.4894 361.359 79.4014C361.111 79.3917 360.874 79.2943 360.691 79.1263C360.507 78.9584 360.39 78.7309 360.359 78.4844C359.847 73.4899 360.689 68.4498 362.795 63.8924C367.189 53.8724 372.976 43.4224 390.887 35.4384C401.417 30.7454 417.677 26.4514 431.736 28.4874C443.087 30.1274 454.164 35.8874 464.654 45.6174C472.045 52.4694 477.954 63.3334 480.065 73.9744C481.997 83.7044 479.28 91.0094 475.527 99.5454C475.469 99.6778 475.384 99.7968 475.278 99.8947C475.171 99.9927 475.046 100.067 474.909 100.114C474.772 100.16 474.627 100.178 474.483 100.166C474.338 100.154 474.198 100.112 474.071 100.044L473.787 99.8924C471.687 98.7534 469.865 97.7714 467.7 98.1924C465.247 98.6624 463.651 99.9784 461.663 101.784C461.472 101.96 461.222 102.057 460.963 102.057M445.698 64.2034C445.944 64.2041 446.182 64.2915 446.371 64.4501C446.559 64.6088 446.686 64.8287 446.729 65.0714C449.311 79.8284 454.349 88.7714 461.181 99.4134C462.875 97.7661 465 96.6297 467.311 96.1344C469.904 95.6344 472.035 96.5894 474.067 97.6644C478.044 88.4644 479.621 82.4644 478.015 74.3834C476.015 64.3104 470.215 53.6234 463.235 47.1554C453.062 37.7254 442.365 32.1424 431.443 30.5634C417.827 28.5954 402.009 32.7814 391.743 37.3554C374.516 45.0344 368.943 55.0924 364.716 64.7364C362.901 68.6813 362.089 73.0131 362.35 77.3474C364.414 77.4304 366.475 77.5234 368.537 77.6144C393.304 78.7214 418.909 79.8624 445.164 64.3494C445.325 64.2539 445.51 64.2035 445.698 64.2034Z" fill="black"/>
<path d="M418.966 147.454C416.948 147.49 414.982 146.81 413.416 145.534C413.206 145.356 413.074 145.101 413.051 144.826C413.027 144.551 413.112 144.278 413.289 144.066C413.466 143.854 413.719 143.72 413.994 143.694C414.269 143.667 414.543 143.751 414.756 143.925C416.731 145.57 419.686 145.815 422.656 144.573C426.069 143.102 428.81 140.411 430.342 137.025C430.401 136.901 430.483 136.789 430.584 136.696C430.686 136.603 430.805 136.531 430.934 136.483C431.064 136.436 431.201 136.415 431.339 136.421C431.476 136.427 431.611 136.461 431.736 136.519C431.861 136.577 431.973 136.659 432.066 136.761C432.159 136.862 432.231 136.981 432.278 137.111C432.325 137.24 432.346 137.377 432.34 137.515C432.334 137.653 432.301 137.788 432.242 137.912C430.49 141.772 427.361 144.838 423.466 146.512C422.043 147.121 420.514 147.443 418.966 147.458" fill="black"/>
<path d="M483.854 71.5162C493.142 45.4352 489.554 17.5162 458.916 6.38717C427.755 -4.93383 408.87 1.26517 386.999 29.0232C419.908 37.1172 458.558 53.2052 483.854 71.5162Z" fill="white"/>
<path d="M483.851 72.5662C483.631 72.5661 483.416 72.4961 483.237 72.3662C459.603 55.2592 421.728 38.6452 386.751 30.0412C386.581 29.9991 386.425 29.9152 386.296 29.797C386.167 29.6788 386.069 29.5302 386.013 29.3647C385.956 29.1992 385.941 29.0221 385.971 28.8496C386 28.6771 386.072 28.5147 386.18 28.3772C397.537 13.9552 408.019 5.5922 419.156 2.0552C430.404 -1.5158 443.151 -0.452804 459.273 5.4062C473.916 10.7252 483.365 20.0232 487.357 33.0412C490.78 44.2062 489.91 57.6342 484.84 71.8712C484.767 72.0749 484.634 72.2513 484.457 72.3765C484.281 72.5017 484.071 72.5697 483.854 72.5712M388.831 28.4002C423.051 37.0272 459.787 53.1412 483.324 69.8482C493.451 40.0082 484.251 16.7082 458.557 7.3742C428.516 -3.5408 410.11 1.9432 388.831 28.4002Z" fill="black"/>
<path d="M429.248 109.341C429.204 108.757 428.986 108.2 428.622 107.742C428.258 107.283 427.765 106.945 427.206 106.769C426.648 106.594 426.05 106.591 425.489 106.759C424.928 106.927 424.431 107.26 424.062 107.714C423.692 108.168 423.467 108.722 423.416 109.305C423.365 109.888 423.489 110.473 423.774 110.985C424.059 111.496 424.491 111.91 425.013 112.174C425.536 112.438 426.126 112.538 426.706 112.463C427.457 112.385 428.146 112.013 428.623 111.427C429.099 110.842 429.324 110.092 429.248 109.341Z" fill="black"/>
<path d="M385.993 111.617C385.949 111.034 385.731 110.477 385.367 110.018C385.003 109.56 384.51 109.221 383.952 109.046C383.393 108.871 382.795 108.867 382.234 109.035C381.674 109.204 381.176 109.536 380.807 109.99C380.437 110.444 380.212 110.998 380.161 111.582C380.11 112.165 380.235 112.75 380.519 113.261C380.804 113.773 381.236 114.187 381.759 114.45C382.281 114.714 382.871 114.815 383.451 114.739C384.202 114.661 384.891 114.289 385.367 113.704C385.844 113.118 386.069 112.368 385.993 111.617Z" fill="black"/>
<path d="M402.227 129.314C402.099 129.314 401.973 129.291 401.854 129.246L397.909 127.746C397.477 127.669 397.077 127.471 396.755 127.173C396.432 126.876 396.202 126.493 396.091 126.069C395.98 125.645 395.993 125.198 396.128 124.781C396.263 124.364 396.514 123.995 396.853 123.716C398.314 121.767 399.312 119.511 399.77 117.118C400.229 114.726 400.136 112.26 399.499 109.909C399.432 109.645 399.471 109.364 399.607 109.128C399.744 108.892 399.967 108.719 400.23 108.645C400.493 108.571 400.774 108.602 401.014 108.733C401.253 108.863 401.433 109.082 401.514 109.342C402.237 112.002 402.344 114.792 401.827 117.5C401.311 120.208 400.184 122.762 398.532 124.969C398.384 125.155 398.257 125.356 398.151 125.569C398.313 125.651 398.48 125.724 398.651 125.787L402.596 127.287C402.825 127.374 403.016 127.539 403.137 127.752C403.257 127.966 403.299 128.215 403.254 128.456C403.21 128.697 403.082 128.915 402.894 129.071C402.705 129.228 402.468 129.314 402.223 129.313" fill="black"/>
<path d="M397.09 105.785C396.816 105.785 396.553 105.677 396.357 105.485C396.162 105.293 396.049 105.032 396.043 104.758C395.999 102.04 398.636 100.146 401.271 99.473C403.416 98.9409 405.656 98.9222 407.809 99.4182C409.962 99.9143 411.968 100.911 413.664 102.328C413.768 102.418 413.853 102.528 413.914 102.651C413.975 102.775 414.012 102.909 414.021 103.046C414.03 103.183 414.013 103.321 413.969 103.451C413.925 103.581 413.856 103.702 413.766 103.805C413.675 103.909 413.565 103.994 413.442 104.055C413.319 104.116 413.185 104.153 413.048 104.162C412.911 104.172 412.773 104.154 412.643 104.11C412.512 104.066 412.392 103.997 412.288 103.907C410.85 102.71 409.149 101.869 407.325 101.452C405.501 101.035 403.604 101.054 401.788 101.507C399.953 101.975 398.111 103.23 398.137 104.726C398.141 105.004 398.035 105.272 397.842 105.472C397.649 105.671 397.384 105.786 397.106 105.791L397.09 105.785Z" fill="black"/>
<path d="M445.331 101.19C445.053 101.19 444.786 101.08 444.589 100.883C444.392 100.686 444.281 100.419 444.281 100.14C444.281 99.8618 444.392 99.5948 444.589 99.3978C444.786 99.2009 445.053 99.0903 445.331 99.0903L459.644 99.0503C459.784 99.046 459.924 99.0698 460.055 99.1205C460.186 99.1711 460.305 99.2475 460.405 99.3451C460.506 99.4427 460.586 99.5595 460.641 99.6887C460.695 99.8178 460.724 99.9566 460.724 100.097C460.724 100.237 460.695 100.376 460.641 100.505C460.586 100.634 460.506 100.751 460.405 100.848C460.305 100.946 460.186 101.022 460.055 101.073C459.924 101.124 459.784 101.148 459.644 101.143L445.331 101.185V101.19Z" fill="black"/>
<path d="M462.255 111.087H462.244C462.106 111.086 461.97 111.058 461.843 111.004C461.716 110.95 461.601 110.872 461.505 110.774C461.408 110.675 461.332 110.559 461.28 110.431C461.229 110.303 461.203 110.167 461.205 110.029C461.237 106.514 460.548 103.03 459.182 99.791C459.127 99.6642 459.098 99.5279 459.096 99.3899C459.094 99.2519 459.12 99.1149 459.171 98.9867C459.223 98.8586 459.299 98.742 459.396 98.6434C459.492 98.5449 459.608 98.4664 459.735 98.4126C459.862 98.3587 459.998 98.3305 460.136 98.3296C460.274 98.3287 460.411 98.3551 460.539 98.4073C460.667 98.4594 460.783 98.5364 460.881 98.6336C460.979 98.7309 461.057 98.8466 461.11 98.974C462.59 102.477 463.337 106.247 463.305 110.05C463.302 110.326 463.19 110.59 462.994 110.784C462.798 110.978 462.533 111.087 462.257 111.087" fill="black"/>
<path d="M567.101 304.292C554.448 269.702 547.461 235.573 517.608 210.654C503.278 198.693 485.994 190.209 466.081 188.931C464.862 208.211 442.464 220.915 430.46 222.348C423.926 223.129 399.66 226.359 399.66 197.748C391.744 200.902 365.394 204.138 354.83 236.603C350.508 249.879 342.769 300.697 317.253 330.15C311.227 337.105 305.658 290.817 296.986 293.898C288.477 296.923 278.677 301.984 278.038 310.992C277.538 318.011 283.323 324.126 289.79 326.903C303.681 332.872 308.89 361.796 323.857 363.903C339.423 366.098 364.283 371.836 383.097 313.011C392.713 322.629 398.919 332.958 409.705 338.773C440.791 355.531 544.229 374.35 561.082 377.341C562.482 377.589 565.658 376.441 566.217 375.135C569.758 366.85 579.025 336.883 567.102 304.291" fill="white"/>
<path d="M561.476 378.418C561.282 378.421 561.089 378.406 560.898 378.374C540.998 374.843 440.167 356.388 409.207 339.699C401.723 335.665 396.414 329.529 390.794 323.035C388.504 320.387 386.146 317.661 383.559 314.983C375.55 339.377 365.817 354.655 353.833 361.661C343.333 367.801 349.013 375.153 340.974 373.982C340.974 373.982 341.026 376.548 342.061 374.25C343.096 371.952 341.722 360.608 341.722 360.608C340.008 360.366 339.338 357.628 337.704 354.382C335.763 350.533 332.891 345.309 330.541 339.973C327.903 334.137 324.897 328.474 321.541 323.019C341.85 299.577 345.86 268.386 350.741 248.165C351.986 243.013 352.968 238.943 353.833 236.282C363.1 207.805 384.702 201.282 395.084 198.144C396.765 197.636 398.214 197.198 399.273 196.777C399.432 196.714 399.604 196.69 399.774 196.709C399.944 196.727 400.107 196.787 400.249 196.883C400.39 196.979 400.506 197.109 400.586 197.26C400.666 197.411 400.708 197.58 400.708 197.751C400.708 206.393 402.988 212.798 407.483 216.788C414.699 223.188 425.898 221.847 430.116 221.339L430.336 221.311C441.817 219.939 463.853 207.589 465.036 188.867C465.044 188.73 465.08 188.595 465.14 188.472C465.201 188.348 465.285 188.238 465.389 188.147C465.598 187.965 465.87 187.871 466.147 187.887C484.706 189.079 502.247 196.468 518.28 209.853C543.136 230.6 552.212 257.453 561.819 285.891C563.813 291.791 565.877 297.891 568.086 303.933C578.9 333.498 572.603 362.86 567.178 375.549C566.467 377.215 563.353 378.417 561.478 378.417M383.098 311.967C383.235 311.967 383.372 311.994 383.499 312.047C383.626 312.099 383.741 312.177 383.839 312.274C386.961 315.396 389.717 318.579 392.382 321.661C397.873 328.007 403.058 334.001 410.202 337.853C440.881 354.39 541.423 372.788 561.266 376.31C562.331 376.496 564.938 375.461 565.256 374.725C565.838 373.362 579.382 340.907 566.12 304.652C563.902 298.588 561.836 292.473 559.838 286.559C550.326 258.414 541.338 231.829 516.938 211.459C501.55 198.612 484.765 191.418 467.04 190.048C465.952 200.731 458.84 208.48 452.966 213.148C446.166 218.556 437.379 222.573 430.585 223.386L430.363 223.411C425.893 223.949 414.014 225.373 406.094 218.348C401.394 214.182 398.894 207.754 398.635 199.226C397.765 199.516 396.772 199.817 395.689 200.143C384.877 203.409 364.752 209.488 355.824 236.924C354.984 239.506 354.01 243.543 352.776 248.652C347.851 269.044 343.276 300.495 322.639 324.321C322.181 324.849 326.645 331.821 330.539 340.632C335.06 349.244 337.859 360.056 341.72 360.601C342.239 360.673 340.432 362.786 340.972 362.865C356.339 365.104 364.172 368.715 382.097 312.69C382.151 312.519 382.248 312.365 382.38 312.242C382.511 312.12 382.671 312.033 382.846 311.99C382.927 311.971 383.01 311.961 383.094 311.96" fill="black"/>
<path d="M342.044 374.321L412.735 375.839L412.826 363.831L334.146 361.909L342.044 374.321Z" fill="white"/>
<path d="M412.836 376.884H412.817L348.276 375.373C348.114 375.366 347.957 375.318 347.82 375.233C347.682 375.148 347.569 375.029 347.49 374.888L340.657 362.074C340.566 361.885 340.52 361.679 340.52 361.47C340.52 361.26 340.566 361.054 340.657 360.865C340.831 360.528 340.757 360.848 341.109 360.865L412.943 362.787C413.205 362.807 413.449 362.929 413.624 363.126C413.798 363.323 413.888 363.58 413.876 363.843L413.793 375.851C413.792 376.126 413.689 376.391 413.503 376.594C413.418 376.686 413.314 376.76 413.2 376.81C413.085 376.861 412.961 376.887 412.836 376.888M348.828 373.288L411.887 374.77L411.957 364.856L342.857 363.006L348.828 373.288Z" fill="black"/>
<path d="M529.981 337.656C501.588 336.075 473.024 334.117 444.456 332.156C441.897 331.735 429.191 329.917 426.056 329.456C423.407 328.994 420.837 328.155 418.426 326.963C409.926 323.041 391.699 315.343 387.633 317.618C378.261 320.374 369.766 327.141 363.133 335.707C359.406 340.514 356.351 348.479 357.894 349.846C358.346 350.32 358.955 350.614 359.606 350.674C360.258 350.734 360.91 350.557 361.441 350.174C365.94 340.631 373.659 332.98 383.241 328.565C378.814 331.065 374.704 334.09 371 337.573C367.251 341.097 363.806 345.35 362.963 350.425C362.858 350.815 362.893 351.229 363.063 351.595C363.573 352.437 364.871 351.946 365.645 351.341C367.163 350.154 386.695 334.289 390.345 334.708C385.492 336.541 368.188 350.581 368.118 352.077C368.051 352.794 368.247 353.512 368.668 354.096C369.002 354.456 369.423 354.723 369.89 354.871C370.358 355.019 370.856 355.043 371.335 354.941C372.291 354.727 373.197 354.332 374.004 353.777C379.588 350.386 384.704 346.132 390.736 343.621C393.748 342.366 397.429 341.644 400.108 343.509C394.708 345.514 389.739 348.53 385.467 352.395C384.795 353.017 384.226 353.742 383.782 354.543C383.117 355.73 382.37 357.449 383.291 358.429C384.798 360.029 386.07 359.229 387.363 358.471C392.394 355.12 397.756 352.293 403.363 350.036C405.082 349.352 407.131 348.753 408.686 349.75C410.034 350.611 416.551 354.658 429.948 355.35C434.52 355.587 438.927 356.779 444.642 358.35C519.923 379.1 542.41 387.378 560.645 379.54C564.216 378.005 565.42 376.13 564.231 370.002C561.054 353.636 557.947 344.336 529.982 337.66" fill="white"/>
<path d="M545.371 383.535C530.948 383.535 510.402 377.788 471.763 366.985C463.622 364.71 454.396 362.129 444.363 359.363C439.048 357.898 434.457 356.635 429.894 356.398C417.357 355.748 410.494 352.148 408.12 350.63C406.958 349.883 405.174 350.439 403.751 351.009C398.207 353.236 392.908 356.029 387.938 359.344L387.798 359.427C386.511 360.18 384.568 361.319 382.528 359.143C380.947 357.462 382.39 354.878 382.867 354.029C383.365 353.131 384.003 352.318 384.757 351.62C388.47 348.239 392.719 345.498 397.33 343.507C395.207 343.308 393.068 343.68 391.137 344.584C387.24 346.369 383.532 348.539 380.067 351.061C378.278 352.274 376.428 353.527 374.545 354.67C373.624 355.296 372.591 355.737 371.503 355.97C370.841 356.107 370.155 356.066 369.513 355.852C368.872 355.638 368.299 355.258 367.852 354.751C367.265 353.969 366.986 352.998 367.069 352.023C367.114 351.755 367.224 351.501 367.389 351.284C367.247 351.396 367.105 351.51 366.964 351.625L366.289 352.161C365.906 352.487 365.463 352.733 364.984 352.886C364.506 353.038 364.001 353.094 363.501 353.05C363.226 353.002 362.964 352.896 362.734 352.738C362.503 352.581 362.309 352.375 362.165 352.136C361.987 351.84 361.884 351.504 361.865 351.158C361.141 351.611 360.285 351.805 359.436 351.709C358.588 351.612 357.797 351.23 357.194 350.625C354.677 348.392 359.133 339.149 362.301 335.059C369.555 325.699 378.176 319.332 387.237 316.638C392.146 314.189 410.956 322.357 418.864 326.006C421.187 327.151 423.66 327.963 426.209 328.417L430.533 329.043C435.649 329.782 442.64 330.794 444.579 331.111C472.449 333.027 501.265 335.006 530.04 336.611C530.103 336.614 530.165 336.624 530.226 336.639C558.818 343.463 562.035 353.191 565.261 369.798C566.451 375.936 565.392 378.637 561.061 380.498C556.102 382.602 550.756 383.637 545.37 383.535M406.747 348.175C407.63 348.158 408.498 348.398 409.247 348.865C411.476 350.294 417.961 353.682 429.999 354.307C434.791 354.555 439.484 355.848 444.917 357.344C454.952 360.11 464.181 362.691 472.323 364.968C526.511 380.121 544.767 385.224 560.231 378.576C563.114 377.336 564.348 376.104 563.201 370.198C560.056 353.998 557.141 345.232 529.828 338.698C501.052 337.098 472.245 335.115 444.384 333.198C444.35 333.198 444.317 333.194 444.284 333.187C442.436 332.887 435.089 331.82 430.23 331.117L425.899 330.49C423.151 330.008 420.485 329.14 417.981 327.91C402.703 320.857 390.71 317.088 388.141 318.529C388.072 318.567 388 318.597 387.925 318.62C379.376 321.134 370.861 327.427 363.952 336.343C360.142 341.258 357.975 348.082 358.607 349.091C358.862 349.349 359.188 349.524 359.544 349.593C359.9 349.662 360.268 349.622 360.601 349.478C365.24 339.834 373.088 332.103 382.801 327.609C383.046 327.5 383.324 327.489 383.577 327.578C383.83 327.667 384.039 327.851 384.161 328.09C384.283 328.329 384.308 328.605 384.232 328.863C384.156 329.12 383.983 329.338 383.751 329.472C379.398 331.933 375.357 334.907 371.714 338.332C367.114 342.654 364.663 346.549 363.993 350.594C363.967 350.726 363.954 350.86 363.953 350.994C364.336 350.926 364.696 350.76 364.996 350.511C365.112 350.418 365.339 350.24 365.656 349.986C386.662 333.226 389.424 333.542 390.456 333.665C390.69 333.692 390.907 333.796 391.075 333.961C391.242 334.126 391.348 334.343 391.377 334.576C391.406 334.81 391.356 335.046 391.234 335.247C391.112 335.448 390.926 335.602 390.706 335.684C386.206 337.384 370.506 350.084 369.152 352.276C369.117 352.533 369.148 352.794 369.243 353.035C369.339 353.276 369.494 353.488 369.695 353.652C369.896 353.815 370.135 353.925 370.39 353.969C370.646 354.013 370.908 353.991 371.152 353.904C371.976 353.707 372.755 353.359 373.452 352.877C375.289 351.762 377.118 350.523 378.883 349.325C382.464 346.722 386.298 344.486 390.326 342.649C393.289 341.417 397.493 340.414 400.697 342.643C400.854 342.752 400.978 342.902 401.055 343.076C401.133 343.25 401.162 343.442 401.139 343.631C401.116 343.82 401.041 344 400.924 344.15C400.806 344.3 400.649 344.415 400.471 344.482C395.193 346.434 390.339 349.38 386.171 353.16C385.58 353.707 385.081 354.344 384.692 355.048C383.604 356.991 383.926 357.575 384.051 357.706C384.908 358.62 385.378 358.406 386.737 357.615L386.83 357.56C391.905 354.18 397.314 351.332 402.972 349.06C404.165 348.535 405.444 348.234 406.746 348.173" fill="black"/>
<path d="M347.813 375.367L195.578 374.984C195.383 374.984 195.193 374.929 195.028 374.827C194.862 374.724 194.729 374.578 194.642 374.404L140.234 265.156C140.154 264.996 140.116 264.819 140.125 264.64C140.133 264.462 140.186 264.289 140.28 264.137C140.374 263.985 140.505 263.86 140.661 263.773C140.818 263.686 140.993 263.64 141.172 263.64L294.85 264.482C295.045 264.483 295.236 264.538 295.402 264.642C295.567 264.746 295.7 264.894 295.786 265.07L348.753 373.862C348.83 374.021 348.865 374.198 348.855 374.374C348.845 374.551 348.791 374.722 348.697 374.872C348.603 375.021 348.473 375.145 348.318 375.231C348.163 375.317 347.99 375.362 347.813 375.362M196.226 372.886L346.135 373.265L294.189 266.565L142.864 265.735L196.226 372.886Z" fill="black"/>
<path d="M238.372 309.014C234.01 308.586 229.243 309.753 227.465 313.76C226.662 315.808 226.503 318.051 227.007 320.192C227.512 322.332 228.656 324.268 230.289 325.742C231.961 327.169 233.947 328.18 236.085 328.692C238.223 329.204 240.452 329.202 242.589 328.686C244.947 328.273 247.063 326.987 248.518 325.086C249.409 323.693 249.87 322.068 249.843 320.415C249.879 315.015 247.419 309.9 238.373 309.015" fill="white"/>
<path d="M239.317 330.095C235.741 330.147 232.272 328.872 229.58 326.516C227.787 324.893 226.532 322.761 225.983 320.406C225.434 318.05 225.617 315.583 226.507 313.334C228.247 309.414 232.719 307.41 238.472 307.973C248.797 308.985 250.922 315.303 250.886 320.423C250.917 322.285 250.395 324.113 249.386 325.677C247.782 327.797 245.439 329.236 242.822 329.709C241.674 329.968 240.5 330.097 239.322 330.096M236.731 309.984C234.197 309.984 230.031 310.57 228.425 314.184C227.706 316.03 227.567 318.051 228.027 319.978C228.486 321.905 229.523 323.646 230.997 324.968C232.543 326.285 234.379 327.216 236.355 327.685C238.33 328.154 240.389 328.149 242.361 327.668C244.46 327.313 246.348 326.183 247.653 324.502C248.424 323.28 248.822 321.859 248.798 320.413C248.84 314.146 245.398 310.759 238.274 310.061C237.91 310.025 237.374 309.987 236.731 309.987" fill="black"/>
<path d="M513.043 337.72C512.823 337.72 512.608 337.65 512.43 337.521C512.251 337.393 512.118 337.211 512.048 337.002C501.348 304.615 495.301 284.128 495.301 239.717C495.301 239.439 495.412 239.171 495.609 238.975C495.806 238.778 496.073 238.667 496.351 238.667C496.63 238.667 496.897 238.778 497.094 238.975C497.29 239.171 497.401 239.439 497.401 239.717C497.401 283.807 503.414 304.162 514.042 336.344C514.094 336.501 514.108 336.669 514.082 336.833C514.057 336.996 513.993 337.152 513.896 337.286C513.799 337.42 513.671 337.53 513.524 337.605C513.376 337.681 513.213 337.72 513.047 337.72" fill="black"/>
<path d="M383.102 314.06C382.933 314.06 382.766 314.02 382.616 313.941C382.466 313.863 382.337 313.75 382.241 313.611C368.441 293.755 372.172 279.211 375.781 265.151C377.581 258.128 379.449 250.866 379.155 242.926C379.145 242.648 379.245 242.378 379.434 242.175C379.624 241.972 379.886 241.852 380.163 241.842C380.441 241.831 380.711 241.932 380.914 242.121C381.118 242.31 381.238 242.572 381.248 242.85C381.548 251.092 379.648 258.505 377.811 265.672C374.158 279.904 370.705 293.349 383.962 312.416C384.071 312.573 384.134 312.757 384.146 312.948C384.158 313.138 384.118 313.329 384.029 313.498C383.941 313.668 383.808 313.809 383.645 313.909C383.481 314.008 383.294 314.061 383.103 314.061" fill="black"/>
<path d="M462.599 93.7121C462.539 93.7128 462.48 93.6982 462.428 93.6697C462.375 93.6412 462.331 93.5997 462.299 93.5491C459.389 88.9113 456.914 84.0145 454.906 78.9211C454.872 78.8349 454.874 78.7388 454.911 78.6538C454.948 78.5689 455.017 78.5021 455.103 78.4681C455.189 78.4342 455.285 78.4359 455.37 78.4728C455.455 78.5098 455.522 78.579 455.556 78.6651C457.548 83.7187 460.004 88.5767 462.892 93.1771C462.926 93.2303 462.944 93.2916 462.946 93.3545C462.948 93.4175 462.933 93.4797 462.902 93.5346C462.871 93.5896 462.826 93.6352 462.771 93.6666C462.717 93.698 462.655 93.7141 462.592 93.7131" fill="black"/>
<path d="M468.05 92.644C467.986 92.6442 467.924 92.627 467.87 92.5942C467.815 92.5614 467.771 92.5143 467.741 92.4581L464.828 86.921C464.785 86.8391 464.776 86.7433 464.803 86.6548C464.831 86.5663 464.892 86.4923 464.974 86.449C465.056 86.4058 465.152 86.3969 465.24 86.4243C465.329 86.4517 465.403 86.5131 465.446 86.595L468.358 92.1321C468.386 92.1853 468.4 92.2448 468.398 92.305C468.397 92.3652 468.379 92.4239 468.348 92.4754C468.317 92.5269 468.273 92.5695 468.221 92.5991C468.168 92.6286 468.109 92.6441 468.049 92.644" fill="black"/>
<path d="M428.026 265.248C414.058 265.4 400.125 263.835 386.54 260.589C386.45 260.566 386.373 260.509 386.325 260.43C386.278 260.35 386.264 260.255 386.287 260.165C386.309 260.075 386.367 259.998 386.446 259.951C386.526 259.903 386.621 259.889 386.711 259.912C421.111 268.533 458.219 263.337 490.962 258.752C491.053 258.739 491.147 258.763 491.221 258.818C491.295 258.874 491.344 258.956 491.358 259.048C491.371 259.14 491.347 259.233 491.292 259.307C491.236 259.382 491.153 259.431 491.062 259.444C471.142 262.234 449.603 265.244 428.029 265.244" fill="black"/>
<path d="M440.603 292.068C420.097 292.079 399.663 289.634 379.739 284.785C379.692 284.776 379.649 284.757 379.61 284.731C379.571 284.704 379.538 284.67 379.512 284.63C379.487 284.59 379.47 284.546 379.463 284.499C379.455 284.453 379.457 284.405 379.468 284.359C379.479 284.313 379.5 284.27 379.528 284.233C379.557 284.195 379.592 284.164 379.633 284.14C379.674 284.117 379.719 284.102 379.766 284.096C379.813 284.091 379.861 284.095 379.906 284.108C416.569 293.013 454.742 293.738 491.717 286.23C491.762 286.22 491.808 286.22 491.853 286.228C491.899 286.236 491.942 286.254 491.98 286.279C492.019 286.304 492.052 286.337 492.077 286.375C492.103 286.413 492.121 286.456 492.13 286.501C492.148 286.592 492.13 286.686 492.079 286.763C492.028 286.841 491.949 286.895 491.859 286.914C474.991 290.349 457.819 292.076 440.605 292.068" fill="black"/>
<path d="M569.451 346.525C569.4 346.525 569.35 346.514 569.304 346.493C569.258 346.472 569.217 346.441 569.184 346.402C562.668 338.883 554.341 333.151 544.99 329.751C535.64 326.351 525.576 325.394 515.752 326.971C515.662 326.984 515.571 326.961 515.497 326.907C515.424 326.853 515.375 326.773 515.36 326.684C515.344 326.594 515.365 326.502 515.416 326.427C515.468 326.353 515.547 326.301 515.636 326.283C525.579 324.688 535.765 325.657 545.229 329.098C554.693 332.54 563.122 338.34 569.718 345.949C569.761 346 569.789 346.062 569.798 346.128C569.808 346.195 569.798 346.262 569.769 346.323C569.741 346.384 569.696 346.435 569.64 346.471C569.583 346.507 569.518 346.526 569.451 346.525Z" fill="black"/>
<path d="M567.106 332.545C567.061 332.545 567.017 332.537 566.975 332.52C564.958 331.569 563.122 330.275 561.548 328.695C560.977 328.183 560.386 327.654 559.789 327.167C556.139 324.176 551.747 322.232 547.079 321.541C546.991 321.524 546.913 321.474 546.861 321.401C546.809 321.328 546.787 321.237 546.8 321.149C546.813 321.06 546.859 320.979 546.93 320.924C547 320.869 547.09 320.843 547.179 320.851C551.971 321.56 556.481 323.557 560.228 326.627C560.836 327.127 561.428 327.658 562.01 328.174C563.525 329.698 565.292 330.95 567.232 331.874C567.307 331.904 567.37 331.96 567.408 332.031C567.447 332.102 567.46 332.184 567.445 332.264C567.43 332.344 567.387 332.415 567.325 332.467C567.262 332.519 567.184 332.547 567.103 332.547" fill="black"/>
<path d="M331.155 32.9281C338.435 18.6771 377.398 19.1981 396.291 19.3521C424.709 21.2291 472.28 44.2371 486.891 60.8301C503.454 79.6451 519.83 102.574 513.046 113.962C512.413 97.0371 475.421 65.8891 438.82 50.2241C396.17 31.9681 342.234 19.9071 331.159 32.9241" fill="white"/>
<path d="M513.041 115.008C512.954 115.008 512.868 114.997 512.785 114.974C512.566 114.919 512.37 114.794 512.228 114.618C512.086 114.442 512.005 114.224 511.998 113.998C511.398 97.9393 474.946 66.8253 438.407 51.1853C395.426 32.7853 342.396 21.3363 331.955 33.6063C331.788 33.8016 331.556 33.9291 331.302 33.9643C331.048 33.9996 330.789 33.9403 330.576 33.7977C330.363 33.655 330.209 33.439 330.144 33.1906C330.08 32.9422 330.109 32.6787 330.226 32.4503C337.697 17.8183 375.31 18.1323 395.52 18.2993L396.305 18.3053C425.614 20.2403 473.378 43.8933 487.68 60.1383C510.889 86.5053 519.728 104.795 513.945 114.495C513.852 114.651 513.72 114.781 513.563 114.871C513.405 114.96 513.226 115.007 513.045 115.007M350.405 26.4073C358.104 26.5439 365.778 27.3469 373.339 28.8073C393.36 32.4433 417.38 39.8963 439.239 49.2493C474.309 64.2623 508.129 92.3543 513.395 109.949C515.031 100.369 505.712 83.7793 486.112 61.5123C472.048 45.5553 425.04 22.3013 396.22 20.3963H395.498C380.053 20.2713 350.566 20.0233 337.511 27.9843C341.708 26.843 346.048 26.3148 350.397 26.4163" fill="black"/>
<path d="M483.487 50.8391C483.44 50.8392 483.393 50.8297 483.349 50.8111C483.306 50.7925 483.266 50.7653 483.233 50.7311C475.687 42.7511 465.953 37.3121 456.627 32.4221C441.065 24.2641 424.194 16.4561 406.257 14.5681C406.211 14.5638 406.166 14.5504 406.126 14.5287C406.085 14.507 406.049 14.4774 406.019 14.4417C405.99 14.4059 405.968 14.3647 405.955 14.3203C405.942 14.276 405.938 14.2296 405.942 14.1836C405.947 14.1376 405.961 14.0931 405.984 14.0525C406.006 14.012 406.036 13.9763 406.072 13.9475C406.108 13.9187 406.15 13.8974 406.194 13.8848C406.239 13.8722 406.285 13.8686 406.331 13.8741C424.384 15.7741 441.331 23.6151 456.95 31.8041C466.324 36.7181 476.124 42.1931 483.741 50.2511C483.788 50.3007 483.819 50.3629 483.831 50.4299C483.842 50.497 483.834 50.566 483.807 50.6285C483.78 50.691 483.736 50.7442 483.679 50.7816C483.622 50.8191 483.555 50.839 483.487 50.8391Z" fill="black"/>
<path d="M483.567 43.1162C483.507 43.1162 483.448 43.1009 483.395 43.0716C483.343 43.0424 483.298 43.0003 483.267 42.9492C482.086 41.0186 480.595 39.2956 478.854 37.8492C478.818 37.8199 478.789 37.7838 478.768 37.7432C478.746 37.7026 478.733 37.6581 478.729 37.6124C478.725 37.5666 478.73 37.5205 478.743 37.4767C478.757 37.4328 478.779 37.392 478.808 37.3567C478.838 37.3214 478.874 37.2922 478.914 37.2708C478.955 37.2494 478.999 37.2362 479.045 37.232C479.091 37.2277 479.137 37.2326 479.181 37.2461C479.225 37.2597 479.265 37.2819 479.301 37.3112C481.101 38.8066 482.642 40.5881 483.864 42.5842C483.896 42.6373 483.914 42.698 483.915 42.7602C483.916 42.8224 483.9 42.8837 483.87 42.9379C483.839 42.992 483.795 43.037 483.741 43.0682C483.687 43.0994 483.626 43.1156 483.564 43.1152" fill="black"/>
<path d="M368.398 71.0143C368.359 71.0141 368.32 71.0077 368.282 70.9953C368.239 70.9799 368.199 70.9562 368.165 70.9254C368.131 70.8946 368.103 70.8574 368.083 70.8158C368.064 70.7743 368.052 70.7293 368.05 70.6834C368.048 70.6374 368.055 70.5915 368.07 70.5483C371.013 62.2288 376.113 54.8403 382.848 49.1383C382.919 49.0785 383.01 49.0492 383.103 49.0569C383.195 49.0646 383.28 49.1086 383.34 49.1793C383.4 49.2499 383.429 49.3415 383.422 49.4338C383.414 49.526 383.37 49.6115 383.299 49.6713C376.658 55.2933 371.629 62.5778 368.726 70.7803C368.703 70.8485 368.659 70.9077 368.6 70.9495C368.541 70.9913 368.47 71.0146 368.398 71.0143Z" fill="black"/>
<path d="M375.544 71.2442C375.503 71.2445 375.462 71.2374 375.423 71.2232C375.336 71.1906 375.266 71.1252 375.227 71.0412C375.189 70.9571 375.185 70.8612 375.216 70.7742C376.069 68.4654 377.401 66.3629 379.123 64.6042C379.155 64.5714 379.193 64.5452 379.236 64.5271C379.278 64.5091 379.323 64.4996 379.369 64.499C379.415 64.4985 379.461 64.5071 379.503 64.5242C379.546 64.5413 379.585 64.5666 379.617 64.5987C379.65 64.6308 379.676 64.6691 379.695 64.7113C379.713 64.7535 379.722 64.7989 379.723 64.8448C379.723 64.8907 379.715 64.9363 379.698 64.9789C379.68 65.0215 379.655 65.0604 379.623 65.0932C377.97 66.7808 376.692 68.799 375.874 71.0152C375.849 71.0823 375.805 71.1402 375.746 71.1812C375.687 71.2221 375.617 71.2441 375.546 71.2442" fill="black"/>
<path d="M553.826 235.387C553.76 235.387 553.695 235.368 553.639 235.332C553.583 235.297 553.538 235.246 553.51 235.185C553.482 235.125 553.471 235.058 553.48 234.992C553.489 234.926 553.517 234.864 553.559 234.813C555.843 232.052 557.389 228.757 558.052 225.235C558.714 221.714 558.472 218.082 557.348 214.68C557.334 214.636 557.327 214.59 557.33 214.545C557.333 214.499 557.345 214.454 557.366 214.413C557.386 214.371 557.414 214.334 557.449 214.304C557.483 214.274 557.523 214.25 557.567 214.236C557.61 214.221 557.656 214.215 557.702 214.218C557.748 214.22 557.793 214.232 557.834 214.253C557.876 214.273 557.913 214.301 557.943 214.336C557.973 214.37 557.997 214.41 558.011 214.454C559.172 217.971 559.422 221.724 558.736 225.364C558.051 229.003 556.454 232.409 554.093 235.263C554.061 235.302 554.02 235.334 553.974 235.355C553.928 235.377 553.877 235.387 553.826 235.387Z" fill="black"/>
<path d="M551.743 218.647C551.697 218.647 551.651 218.638 551.609 218.62C551.567 218.602 551.528 218.576 551.496 218.543C551.464 218.51 551.438 218.471 551.421 218.429C551.404 218.386 551.395 218.34 551.396 218.294C551.404 215.467 550.517 212.71 548.864 210.416C548.837 210.379 548.817 210.337 548.806 210.292C548.796 210.248 548.794 210.201 548.801 210.156C548.808 210.11 548.824 210.067 548.849 210.027C548.873 209.988 548.904 209.954 548.942 209.927C549.017 209.874 549.11 209.853 549.201 209.867C549.292 209.882 549.374 209.931 549.429 210.005C551.169 212.42 552.102 215.322 552.094 218.298C552.094 218.344 552.085 218.39 552.067 218.432C552.05 218.475 552.024 218.513 551.992 218.545C551.959 218.578 551.921 218.604 551.878 218.621C551.836 218.639 551.791 218.648 551.745 218.647" fill="black"/>
<path d="M49.4612 265.409C39.1912 265.409 28.4722 264.897 17.0072 263.864C13.5612 263.555 10.4692 263.189 7.54122 261.838C5.86331 261.101 4.3614 260.016 3.13522 258.653C1.90903 257.291 0.986616 255.684 0.429222 253.938C-0.0496688 252.418 -0.12105 250.799 0.222221 249.243C1.29122 244.923 5.70222 243.393 8.92222 242.618C23.1222 239.206 37.6152 236.308 51.9852 234.005C52.1211 233.984 52.26 233.989 52.3939 234.021C52.5277 234.053 52.654 234.111 52.7654 234.192C52.8768 234.273 52.9713 234.374 53.0433 234.492C53.1153 234.609 53.1636 234.739 53.1852 234.875C53.2069 235.011 53.2016 235.15 53.1696 235.284C53.1376 235.418 53.0795 235.544 52.9988 235.655C52.918 235.767 52.816 235.861 52.6987 235.933C52.5815 236.005 52.4511 236.054 52.3152 236.075C38.0002 238.367 23.5652 241.254 9.41522 244.656C6.49422 245.356 3.04022 246.569 2.25422 249.744C2.00149 250.94 2.0649 252.181 2.43822 253.344C2.9098 254.805 3.68681 256.15 4.71765 257.288C5.74849 258.425 7.00959 259.331 8.41722 259.944C11.2187 261.048 14.1864 261.67 17.1952 261.785C32.1206 263.208 47.1246 263.628 62.1062 263.042C64.3182 262.942 66.5062 262.623 67.5332 260.902C68.3102 259.602 68.2912 257.748 68.2002 255.802C68.0862 253.425 67.9462 250.466 66.6172 248.434C64.6532 245.434 60.7902 245.234 57.3232 245.301C49.9232 245.42 23.8232 248.336 19.0652 249.575C18.7991 249.638 18.519 249.594 18.2849 249.453C18.0507 249.311 17.8811 249.084 17.8123 248.82C17.7435 248.555 17.7809 248.274 17.9165 248.037C18.0522 247.799 18.2753 247.624 18.5382 247.549C23.5102 246.249 49.5852 243.331 57.2892 243.206C61.6092 243.138 65.9442 243.583 68.3702 247.289C70.0132 249.797 70.1702 253.072 70.2922 255.705C70.4002 257.983 70.4062 260.177 69.3332 261.977C67.5852 264.904 63.9462 265.061 62.1982 265.137C58.0182 265.317 53.7802 265.408 49.4622 265.408" fill="black"/>
</g>
</svg>
