<svg width="57" height="57" viewBox="0 0 57 57" fill="none" xmlns="http://www.w3.org/2000/svg">
<path d="M46 0H11C4.92487 0 0 4.92487 0 11V46C0 52.0751 4.92487 57 11 57H46C52.0751 57 57 52.0751 57 46V11C57 4.92487 52.0751 0 46 0Z" fill="#FE3D3B"/>
<path fill-rule="evenodd" clip-rule="evenodd" d="M26.9352 12C25.9498 12 25.0957 12.6821 24.8779 13.6431L24.287 16.2493C23.3464 16.5229 22.4492 16.8975 21.6079 17.3603L19.347 15.9351C18.5134 15.4097 17.4271 15.5312 16.7304 16.228L15.2262 17.7322C14.5295 18.4289 14.4079 19.5152 14.9334 20.3487L16.3591 22.6104C15.8966 23.4515 15.5224 24.3485 15.2491 25.2887L12.6431 25.8795C11.6821 26.0974 11 26.9515 11 27.9368V30.064C11 31.0494 11.6821 31.9035 12.6431 32.1213L15.2494 32.7122C15.5228 33.6527 15.8973 34.5499 16.36 35.3912L14.9345 37.6526C14.4091 38.4859 14.5307 39.5722 15.2274 40.2691L16.7316 41.7733C17.4283 42.4699 18.5146 42.5915 19.3481 42.0661L21.6096 40.6406C22.4504 41.103 23.3471 41.4772 24.287 41.7505L24.8779 44.3568C25.0957 45.3177 25.9498 46 26.9352 46H29.0624C30.0477 46 30.9018 45.3177 31.1197 44.3568L31.7103 41.7514C32.6511 41.4782 33.5485 41.1037 34.39 40.6411L36.6514 42.0666C37.4847 42.592 38.571 42.4704 39.2679 41.7738L40.7721 40.2696C41.4687 39.5727 41.5903 38.4864 41.0649 37.6531L39.6399 35.3924C40.103 34.5508 40.4777 33.6531 40.7512 32.712L43.3568 32.1213C44.3178 31.9035 45 31.0494 45 30.064V27.9368C45 26.9515 44.3178 26.0974 43.3568 25.8795L40.7515 25.2889C40.4782 24.3481 40.1037 23.4506 39.6409 22.6091L41.0659 20.3482C41.5916 19.5147 41.4699 18.4284 40.7731 17.7316L39.2689 16.2275C38.5723 15.5307 37.486 15.4091 36.6524 15.9346L34.3917 17.3597C33.5497 16.8966 32.6517 16.5219 31.7103 16.2484L31.1197 13.6431C30.9018 12.6821 30.0477 12 29.0624 12H26.9352ZM21.5984 19.848C22.9055 18.9319 24.4179 18.2888 26.0529 18.0013L26.9352 14.1095H29.0624L29.9446 18.0007C31.5803 18.2879 33.0935 18.931 34.4014 19.8473L37.7773 17.7191L39.2815 19.2233L37.1532 22.5994C38.0692 23.9068 38.7122 25.4195 38.9994 27.0547L42.8905 27.9368V30.064L38.9991 30.9462C38.7117 32.5817 38.0685 34.0945 37.1522 35.4019L39.2803 38.7781L37.7761 40.282L34.3997 38.1536C33.0923 39.0694 31.5797 39.7122 29.9446 39.9993L29.0624 43.8905H26.9352L26.0529 39.9986C24.4185 39.7112 22.9067 39.0684 21.5999 38.1529L18.2232 40.2815L16.719 38.7773L18.8476 35.4009C17.9317 34.0936 17.2888 32.5813 17.0014 30.9464L13.1095 30.064V27.9368L17.0013 27.0545C17.2884 25.4199 17.9311 23.9077 18.8465 22.6006L16.7179 19.2238L18.222 17.7196L21.5984 19.848ZM31.7845 28.9996C31.7845 31.0897 30.0902 32.7841 28.0001 32.7841C25.91 32.7841 24.2156 31.0897 24.2156 28.9996C24.2156 26.9095 25.91 25.2152 28.0001 25.2152C30.0902 25.2152 31.7845 26.9095 31.7845 28.9996ZM34.0181 28.9996C34.0181 32.3233 31.3238 35.0177 28.0001 35.0177C24.6764 35.0177 21.982 32.3233 21.982 28.9996C21.982 25.676 24.6764 22.9816 28.0001 22.9816C31.3238 22.9816 34.0181 25.676 34.0181 28.9996Z" fill="white"/>
</svg>
