<svg width="56" height="56" viewBox="0 0 56 56" fill="none" xmlns="http://www.w3.org/2000/svg">
<path d="M14 42C6.26801 34.268 6.26801 21.732 14 14L28 -5.31252e-08L56 28L42 42C34.268 49.732 21.732 49.732 14 42Z" fill="#234272"/>
<g style="mix-blend-mode:color-dodge">
<path d="M26.64 19.228C28.1913 19.228 29.5973 19.8396 30.6136 20.8262C31.63 21.8129 32.2595 23.1783 32.2595 24.6847C32.2595 26.1911 31.63 27.5559 30.6136 28.542C29.5973 29.5287 28.1913 30.1403 26.64 30.1403C25.0881 30.1403 23.6821 29.5287 22.6657 28.542C21.6494 27.5559 21.0198 26.1911 21.0198 24.6847C21.0198 23.1783 21.6494 21.8129 22.6657 20.8262C23.6821 19.8396 25.0881 19.228 26.64 19.228ZM33.95 29.9998C33.6238 29.9998 33.3054 30.0306 32.9993 30.0901C32.3686 30.2116 31.7825 30.4472 31.2471 30.7946C30.9819 30.9665 30.7352 31.1638 30.5107 31.3836C30.057 31.8234 29.7013 32.3432 29.4559 32.9186C29.3347 33.2039 29.2424 33.5 29.1804 33.8026C29.1187 34.1051 29.0877 34.4128 29.088 34.7211C29.088 35.3425 29.2121 35.9547 29.4559 36.5301C29.5768 36.8154 29.7271 37.088 29.9045 37.3439C30.2602 37.8604 30.72 38.3019 31.2521 38.646C31.517 38.8173 31.7998 38.9654 32.0942 39.0837C32.3781 39.1977 32.6798 39.2879 32.9926 39.349C34.0056 39.5181 34.9486 39.449 35.8792 39.0561C36.0462 38.9859 36.2115 38.9049 36.3707 38.8152C36.4496 38.767 36.5434 38.7473 36.6357 38.7596C36.728 38.7718 36.8129 38.8152 36.8756 38.8822L38.6183 40.7457L40.0505 39.4706L38.232 37.5443C38.1068 37.4249 38.0739 37.2342 38.1652 37.0786C38.2571 36.9208 38.3439 36.756 38.4185 36.5853C38.492 36.4194 38.5582 36.2454 38.6116 36.0687C38.8354 35.3349 38.8744 34.5688 38.7235 33.8145L38.7213 33.8015C38.5326 32.8814 38.0739 32.0449 37.3893 31.3825C36.4781 30.4958 35.2341 29.9998 33.95 29.9998ZM35.9922 31.7456C36.1987 31.8801 36.3874 32.0303 36.5538 32.1908C37.0631 32.6906 37.4233 33.3298 37.5624 34.0214C37.7021 34.7114 37.6348 35.436 37.3542 36.086C37.2618 36.3043 37.1455 36.5129 37.013 36.7057C36.8778 36.9019 36.723 37.084 36.5527 37.2482C36.3813 37.4147 36.1936 37.5645 35.9922 37.6956C34.9803 38.3537 33.6756 38.4839 32.5406 38.0247C32.3189 37.935 32.1067 37.8244 31.9072 37.6945C31.504 37.4343 31.1577 37.0994 30.888 36.709C30.4816 36.1212 30.265 35.4291 30.2658 34.7211C30.2658 34.2473 30.3632 33.7913 30.5391 33.3725L30.5468 33.3531C30.7325 32.9188 31.0038 32.524 31.3456 32.1908C31.5126 32.0303 31.7024 31.8791 31.9083 31.7456C32.3035 31.4911 32.7666 31.3025 33.2308 31.2128C33.4657 31.1685 33.7062 31.1448 33.95 31.1448C34.6808 31.1448 35.3822 31.3539 35.9922 31.7456ZM26.9578 40.4642C27.4148 40.1822 27.8567 39.8828 28.2836 39.5651C28.5107 39.9169 28.7679 40.2492 29.0507 40.5593C28.4979 40.9686 27.9236 41.3496 27.3302 41.701C27.1237 41.8491 26.8348 41.8674 26.6055 41.727C24.1035 40.1843 22.0039 38.3229 20.3491 36.3086C18.0698 33.5314 16.632 30.4504 16.1405 27.4879C15.6413 24.4815 16.1105 21.5881 17.6506 19.2345C18.2573 18.3067 19.0344 17.4606 19.9829 16.7279C22.1553 15.047 24.6434 14.1571 27.1114 14.1776C29.4898 14.1976 31.846 15.0583 33.8821 16.8619C34.5951 17.493 35.1957 18.2127 35.6861 18.9962C37.3247 21.62 37.6921 24.9629 36.993 28.354C36.5883 28.2395 36.1687 28.1579 35.7395 28.1098C36.3774 25.0116 36.0568 21.9842 34.5929 19.6392C34.1623 18.9506 33.6324 18.3254 33.0193 17.7826C31.227 16.1952 29.1681 15.4365 27.1008 15.4198C24.9289 15.4025 22.7242 16.1973 20.7794 17.7016C19.9495 18.3429 19.2682 19.0853 18.7349 19.9012C17.3673 21.9917 16.9549 24.5836 17.4046 27.2939C17.861 30.0463 19.2097 32.9251 21.3521 35.5349C22.845 37.3514 24.7235 39.0389 26.9578 40.4642ZM29.7069 21.7059C28.9232 20.9457 27.8372 20.4723 26.64 20.4723C25.4421 20.4723 24.3562 20.9457 23.5725 21.7059C22.7887 22.4667 22.3017 23.5224 22.3017 24.6847C22.3017 25.8469 22.7887 26.9016 23.5725 27.6624C24.3562 28.4232 25.4421 28.8959 26.64 28.8959C27.8372 28.8959 28.9232 28.4232 29.7069 27.6624C30.4906 26.9016 30.9782 25.8469 30.9782 24.6847C30.9782 23.5224 30.4906 22.4667 29.7069 21.7059Z" fill="white"/>
</g>
</svg>
