<svg width="57" height="57" viewBox="0 0 57 57" fill="none" xmlns="http://www.w3.org/2000/svg">
<path d="M46 0H11C4.92487 0 0 4.92487 0 11V46C0 52.0751 4.92487 57 11 57H46C52.0751 57 57 52.0751 57 46V11C57 4.92487 52.0751 0 46 0Z" fill="#0086D5"/>
<mask id="mask0_936_506" style="mask-type:luminance" maskUnits="userSpaceOnUse" x="8" y="8" width="41" height="41">
<path d="M48.6742 8.81982H8.3252V48.1798H48.6742V8.81982Z" fill="white"/>
</mask>
<g mask="url(#mask0_936_506)">
<mask id="mask1_936_506" style="mask-type:luminance" maskUnits="userSpaceOnUse" x="8" y="8" width="41" height="41">
<path d="M48.6742 8.81982H8.3252V48.1798H48.6742V8.81982Z" fill="white"/>
</mask>
<g mask="url(#mask1_936_506)">
<path d="M8.61426 28.5004C8.68068 23.2922 10.8129 18.3235 14.542 14.6869C18.2712 11.0504 23.2919 9.04385 28.5003 9.10845C33.7086 9.04385 38.7293 11.0504 42.4585 14.6869C46.1876 18.3235 48.3198 23.2922 48.3863 28.5004C48.3196 33.7086 46.1872 38.677 42.4581 42.3133C38.729 45.9496 33.7084 47.956 28.5003 47.8914C23.2921 47.956 18.2715 45.9496 14.5424 42.3133C10.8133 38.677 8.68094 33.7086 8.61426 28.5004Z" fill="white"/>
<path d="M28.5002 48.1796C23.217 48.2386 18.1261 46.1999 14.344 42.5106C10.5619 38.8213 8.39742 33.7826 8.3252 28.4996C8.39742 23.2166 10.5619 18.1779 14.344 14.4886C18.1261 10.7993 23.217 8.76059 28.5002 8.81961C33.7831 8.76113 38.8736 10.8 42.6554 14.4893C46.4372 18.1785 48.6017 23.2169 48.6742 28.4996C48.602 33.7824 46.4376 38.821 42.6557 42.5102C38.8738 46.1995 33.7832 48.2383 28.5002 48.1796ZM28.5002 9.39661C23.3702 9.33704 18.426 11.3143 14.7518 14.8948C11.0775 18.4753 8.97319 23.3668 8.9002 28.4966C8.97319 33.6264 11.0775 38.5179 14.7518 42.0984C18.426 45.6789 23.3702 47.6562 28.5002 47.5966C33.6302 47.6562 38.5744 45.6789 42.2486 42.0984C45.9229 38.5179 48.0272 33.6264 48.1002 28.4966C48.0272 23.3668 45.9229 18.4753 42.2486 14.8948C38.5744 11.3143 33.6302 9.33704 28.5002 9.39661Z" fill="black"/>
<path d="M11.0851 28.4994C11.1216 24.0019 12.9427 19.7031 16.1481 16.5482C19.3535 13.3932 23.6807 11.6405 28.1781 11.6754C30.4056 11.6572 32.6149 12.0779 34.6798 12.9136C36.7447 13.7492 38.6248 14.9834 40.2127 16.5457C41.8005 18.1079 43.0652 19.9677 43.9343 22.0187C44.8034 24.0697 45.2601 26.2719 45.2781 28.4994C45.2599 30.7268 44.8032 32.9288 43.934 34.9797C43.0648 37.0306 41.8002 38.8903 40.2123 40.4524C38.6244 42.0146 36.7444 43.2487 34.6796 44.0843C32.6147 44.9199 30.4055 45.3406 28.1781 45.3224C25.9506 45.3406 23.7414 44.9198 21.6765 44.0842C19.6116 43.2485 17.7315 42.0143 16.1436 40.4521C14.5557 38.8898 13.2911 37.0301 12.4219 34.979C11.5528 32.928 11.0962 30.7259 11.0781 28.4984" fill="white"/>
<path d="M28.1829 45.6118C23.6098 45.6427 19.2111 43.8585 15.9518 40.6505C12.6925 37.4425 10.8386 33.0728 10.7969 28.4998C10.8661 23.9344 12.7283 19.5794 15.9813 16.3754C19.2343 13.1714 23.617 11.3755 28.1829 11.3755C32.7488 11.3755 37.1315 13.1714 40.3845 16.3754C43.6374 19.5794 45.4996 23.9344 45.5689 28.4998C45.5271 33.0728 43.6733 37.4425 40.414 40.6505C37.1546 43.8585 32.756 45.6427 28.1829 45.6118ZM28.1829 11.9648C23.7627 11.9336 19.5107 13.6569 16.3595 16.7567C13.2083 19.8565 11.4153 24.0797 11.3739 28.4998C11.442 32.9129 13.2428 37.1222 16.3877 40.219C19.5326 43.3157 23.7692 45.0515 28.1829 45.0515C32.5965 45.0515 36.8331 43.3157 39.978 40.219C43.1229 37.1222 44.9238 32.9129 44.9919 28.4998C44.9501 24.0798 43.1571 19.8568 40.006 16.757C36.8548 13.6573 32.603 11.9339 28.1829 11.9648Z" fill="black"/>
<path d="M28.1828 28.7876C28.128 28.7876 28.0743 28.772 28.0281 28.7426C27.9819 28.7132 27.945 28.6712 27.9218 28.6216L22.2798 16.6076C22.2522 16.5391 22.2518 16.4627 22.2787 16.394C22.3056 16.3253 22.3578 16.2695 22.4246 16.238C22.4913 16.2066 22.5676 16.2018 22.6377 16.2248C22.7079 16.2478 22.7666 16.2967 22.8018 16.3616L28.4408 28.3766C28.4615 28.4205 28.4708 28.469 28.4678 28.5175C28.4648 28.566 28.4495 28.6129 28.4235 28.654C28.3974 28.695 28.3614 28.7287 28.3188 28.7521C28.2762 28.7755 28.2284 28.7877 28.1798 28.7876" fill="black"/>
<path d="M27.0977 28.8685L34.7537 33.5095L33.6187 35.4945L39.1587 34.6365L36.8837 29.8265L35.7897 31.3605L27.9557 27.2075L27.0977 28.8685Z" fill="white"/>
<path d="M33.6167 35.7837C33.5661 35.7838 33.5164 35.7706 33.4725 35.7454C33.4287 35.7201 33.3922 35.6838 33.3669 35.64C33.3415 35.5962 33.3282 35.5465 33.3281 35.4959C33.3281 35.4453 33.3414 35.3956 33.3667 35.3517L34.3667 33.6107L26.9517 29.1107C26.8891 29.073 26.8432 29.0128 26.8233 28.9424C26.8035 28.872 26.8111 28.7967 26.8447 28.7317L27.7047 27.0707C27.7222 27.0369 27.7463 27.0069 27.7755 26.9824C27.8046 26.9579 27.8384 26.9395 27.8748 26.9281C27.9111 26.9168 27.9494 26.9127 27.9873 26.9163C28.0252 26.9198 28.0621 26.9309 28.0957 26.9487L35.7067 30.9827L36.6547 29.6547C36.6836 29.6126 36.7232 29.5789 36.7694 29.5571C36.8155 29.5352 36.8667 29.5261 36.9176 29.5306C36.9685 29.5351 37.0173 29.553 37.0589 29.5825C37.1006 29.6121 37.1337 29.6522 37.1547 29.6987L39.4267 34.5077C39.4459 34.5483 39.4554 34.5928 39.4544 34.6377C39.4533 34.6826 39.4418 34.7266 39.4207 34.7663C39.3996 34.8059 39.3696 34.84 39.333 34.866C39.2963 34.892 39.2541 34.909 39.2097 34.9157L33.6697 35.7747C33.6551 35.7758 33.6404 35.7758 33.6257 35.7747M27.4857 28.7537L34.9107 33.2537C34.975 33.2928 35.0215 33.3555 35.0402 33.4284C35.0589 33.5012 35.0483 33.5786 35.0107 33.6437L34.1727 35.1087L38.7387 34.4007L36.8387 30.3857L36.0297 31.5187C35.9891 31.5757 35.9292 31.6159 35.8611 31.6319C35.793 31.648 35.7215 31.6386 35.6597 31.6057L28.0787 27.6047L27.4857 28.7537Z" fill="black"/>
<path d="M28.4285 26.7127C28.0645 26.7532 27.7214 26.9035 27.4448 27.1435C27.1681 27.3836 26.971 27.7021 26.8795 28.0567C26.7958 28.4162 26.8281 28.7929 26.9717 29.1329C27.1153 29.4729 27.363 29.7587 27.679 29.9492C27.9951 30.1398 28.3635 30.2253 28.7312 30.1936C29.0989 30.1619 29.4471 30.0145 29.7259 29.7726C30.0047 29.5307 30.1997 29.2068 30.2829 28.8472C30.3662 28.4876 30.3335 28.1109 30.1894 27.7711C30.0453 27.4313 29.7973 27.1459 29.481 26.9557C29.1646 26.7656 28.7962 26.6805 28.4285 26.7127Z" fill="white"/>
<path d="M28.5507 30.5035C28.4714 30.5037 28.3923 30.4987 28.3137 30.4885C28.0352 30.4405 27.7692 30.3371 27.5313 30.1846C27.2935 30.032 27.0886 29.8334 26.9287 29.6004C26.7689 29.3673 26.6573 29.1047 26.6006 28.8278C26.5439 28.551 26.5433 28.2656 26.5987 27.9885C26.7046 27.5759 26.9334 27.2052 27.2549 26.9257C27.5764 26.6461 27.9753 26.471 28.3987 26.4235C28.6791 26.4045 28.9604 26.4448 29.2242 26.5418C29.488 26.6388 29.7284 26.7904 29.9297 26.9865C30.1446 27.1795 30.3165 27.4155 30.4342 27.6793C30.5519 27.9431 30.6127 28.2287 30.6127 28.5175C30.6004 28.8002 30.5288 29.0772 30.4025 29.3305C30.2762 29.5837 30.0981 29.8076 29.8797 29.9875C29.5105 30.3116 29.0379 30.4935 28.5467 30.5005M28.4467 27.0005C28.1456 27.0392 27.8629 27.1667 27.6346 27.3667C27.4062 27.5667 27.2427 27.8302 27.1647 28.1235C27.0853 28.4225 27.1048 28.7391 27.2203 29.0261C27.3357 29.3131 27.541 29.555 27.8053 29.7157C28.0696 29.8764 28.3789 29.9472 28.6868 29.9176C28.9947 29.8881 29.2848 29.7596 29.5137 29.5515C29.6702 29.4241 29.7983 29.2653 29.8896 29.0853C29.9809 28.9053 30.0334 28.7081 30.0437 28.5065C30.0412 28.2985 29.9954 28.0933 29.9093 27.9039C29.8233 27.7146 29.6987 27.5452 29.5437 27.4065C29.4019 27.2659 29.2322 27.1566 29.0454 27.086C28.8586 27.0153 28.659 26.9849 28.4597 26.9965" fill="black"/>
<path d="M12.688 29.8836C12.6127 29.8863 12.5392 29.8594 12.4835 29.8085C12.4278 29.7577 12.3943 29.6871 12.3901 29.6118C12.3859 29.5365 12.4114 29.4626 12.4611 29.4059C12.5109 29.3492 12.5808 29.3143 12.656 29.3086C13.483 29.215 14.3175 29.2076 15.146 29.2866C15.1837 29.2902 15.2203 29.3012 15.2538 29.319C15.2872 29.3367 15.3168 29.3609 15.3409 29.3901C15.365 29.4193 15.3831 29.453 15.3942 29.4892C15.4053 29.5254 15.4091 29.5634 15.4055 29.6011C15.4019 29.6388 15.3909 29.6754 15.3732 29.7088C15.3554 29.7423 15.3312 29.7719 15.302 29.796C15.2728 29.8201 15.2391 29.8382 15.2029 29.8493C15.1667 29.8604 15.1287 29.8642 15.091 29.8606C14.3028 29.7857 13.5088 29.7927 12.722 29.8816H12.689" fill="black"/>
<path d="M28.076 43.3458C27.9996 43.345 27.9265 43.3139 27.8729 43.2594C27.8193 43.2048 27.7895 43.1313 27.79 43.0548L27.81 40.6908C27.8106 40.6146 27.8413 40.5417 27.8955 40.4881C27.9496 40.4345 28.0228 40.4045 28.099 40.4048C28.1755 40.4056 28.2486 40.4366 28.3022 40.4912C28.3558 40.5457 28.3856 40.6193 28.385 40.6958L28.365 43.0598C28.3645 43.136 28.3338 43.2089 28.2796 43.2625C28.2255 43.3161 28.1523 43.346 28.076 43.3458Z" fill="black"/>
<path d="M28.0663 15.8414C27.9898 15.8406 27.9168 15.8095 27.8632 15.755C27.8095 15.7004 27.7797 15.6269 27.7803 15.5504L27.8003 13.1864C27.8011 13.1103 27.8319 13.0375 27.886 12.984C27.9401 12.9304 28.0131 12.9004 28.0893 12.9004C28.1658 12.9012 28.2388 12.9323 28.2924 12.9868C28.346 13.0413 28.3758 13.1149 28.3753 13.1914L28.3553 15.5554C28.3548 15.6316 28.324 15.7045 28.2699 15.7581C28.2157 15.8117 28.1425 15.8417 28.0663 15.8414Z" fill="black"/>
<path d="M43.3662 28.3655C43.3489 28.3669 43.3315 28.3669 43.3142 28.3655C42.7484 28.2621 42.1717 28.2318 41.5982 28.2755C41.5249 28.2761 41.4541 28.2489 41.4002 28.1994C41.3462 28.1498 41.3131 28.0816 41.3075 28.0085C41.3019 27.9355 41.3243 27.863 41.3701 27.8058C41.4159 27.7487 41.4817 27.711 41.5542 27.7005C42.1772 27.6539 42.8037 27.6875 43.4182 27.8005C43.4878 27.8148 43.5496 27.8543 43.592 27.9113C43.6343 27.9683 43.6542 28.039 43.6477 28.1097C43.6413 28.1805 43.609 28.2464 43.5571 28.2948C43.5052 28.3433 43.4372 28.3709 43.3662 28.3725" fill="black"/>
<g opacity="0.129">
<mask id="mask2_936_506" style="mask-type:luminance" maskUnits="userSpaceOnUse" x="29" y="28" width="3" height="3">
<path d="M31.3783 28.7036H29.5303V30.5396H31.3783V28.7036Z" fill="white"/>
</mask>
<g mask="url(#mask2_936_506)">
<path d="M30.7681 28.7185C30.6718 28.7463 30.5864 28.8031 30.5234 28.8811C30.4604 28.9591 30.423 29.0545 30.416 29.1545L30.392 29.1815C30.184 29.4345 29.992 29.4355 29.637 29.7655C29.5709 29.8537 29.5371 29.9619 29.5414 30.072C29.5456 30.1822 29.5876 30.2875 29.6604 30.3703C29.7331 30.4531 29.8321 30.5083 29.9407 30.5268C30.0494 30.5452 30.1611 30.5257 30.257 30.4715C30.664 30.2605 31.0155 29.9566 31.2831 29.5845C31.5171 29.1695 31.302 28.6055 30.766 28.7195" fill="black"/>
</g>
</g>
<g opacity="0.129">
<mask id="mask3_936_506" style="mask-type:luminance" maskUnits="userSpaceOnUse" x="28" y="11" width="1" height="1">
<path d="M28.1655 11.6475H28.1475V11.6515H28.1655V11.6475Z" fill="white"/>
</mask>
<g mask="url(#mask3_936_506)">
<path d="M28.1606 11.6515H28.1666C28.1486 11.6515 28.1396 11.6445 28.1606 11.6515Z" fill="black"/>
</g>
</g>
<g opacity="0.129">
<mask id="mask4_936_506" style="mask-type:luminance" maskUnits="userSpaceOnUse" x="11" y="11" width="26" height="30">
<path d="M36.8189 11.6055H11.2969V40.5475H36.8189V11.6055Z" fill="white"/>
</mask>
<g mask="url(#mask4_936_506)">
<path d="M36.7091 13.8464C36.3224 13.6544 35.9297 13.4761 35.5311 13.3114C34.726 12.9817 33.9006 12.7038 33.0601 12.4794C33.0026 12.4666 32.9517 12.4334 32.9168 12.386C32.8819 12.3385 32.8653 12.2801 32.8701 12.2214C32.5941 12.1594 32.3151 12.1094 32.0321 12.0724C30.9611 11.8697 29.8716 11.7822 28.7821 11.8114C28.7182 11.7502 28.6367 11.7107 28.5491 11.6984C28.5011 11.6904 28.2341 11.6544 28.1651 11.6464L28.2011 11.6544C28.0461 11.6314 27.8881 11.6254 27.7321 11.6144C27.418 11.5934 27.1027 11.5964 26.7891 11.6234C26.0086 11.709 25.2369 11.8605 24.4821 12.0764C23.2967 12.3808 22.1369 12.777 21.0131 13.2614C19.8517 13.6983 18.7599 14.3016 17.7721 15.0524C16.8881 15.8102 16.0975 16.6706 15.4171 17.6154C15.3296 17.5668 15.2266 17.5542 15.1301 17.5804C14.8431 17.7164 14.9561 17.7134 14.7301 17.9804C14.4931 18.3214 14.2831 18.6804 14.0751 19.0394C13.7907 19.4707 13.5454 19.9265 13.3421 20.4014C13.2762 20.5121 13.2481 20.6413 13.2621 20.7694C13.0663 21.0783 12.8915 21.4 12.7391 21.7324C11.6893 24.062 11.1976 26.6044 11.3031 29.1574C11.385 30.2564 11.5377 31.349 11.7601 32.4284C12.0434 33.5996 12.4455 34.7388 12.9601 35.8284C12.9922 35.885 13.0371 35.9334 13.091 35.9698C13.1449 36.0062 13.2066 36.0297 13.2711 36.0384C13.5441 36.6814 13.8991 37.5764 14.3001 38.3444C14.6157 39.0012 15.0419 39.5989 15.5601 40.1114C15.699 40.262 15.8547 40.3962 16.0241 40.5114C16.1074 40.5478 16.2012 40.5524 16.2877 40.5241C16.3741 40.4959 16.4472 40.437 16.4931 40.3584C16.6821 40.0334 16.3181 39.8014 16.1251 39.5914C16.001 39.4638 15.8867 39.3271 15.7831 39.1824C15.4767 38.7489 15.2106 38.2883 14.9881 37.8064C14.7011 37.2704 14.4211 36.7294 14.1771 36.1714C14.0271 35.7844 13.7451 35.1984 13.4441 34.5814C13.1155 33.5521 12.8606 32.5008 12.6811 31.4354C12.1302 28.6463 12.3802 25.7583 13.4021 23.1054C14.1336 21.6618 15.027 20.306 16.0651 19.0644C16.9316 18.1399 17.8561 17.2714 18.8331 16.4644C19.6945 15.658 20.6625 14.9736 21.7101 14.4304C22.5755 14.0397 23.4642 13.7027 24.3711 13.4214C26.1268 13.0281 27.9181 12.815 29.7171 12.7854C30.5081 12.8574 31.1641 12.9914 32.1081 13.1434C33.5574 13.3523 34.9806 13.7137 36.3541 14.2214C36.4054 14.2412 36.4607 14.2483 36.5154 14.2422C36.5701 14.236 36.6224 14.2167 36.6681 14.186C36.7137 14.1553 36.7513 14.114 36.7776 14.0657C36.8038 14.0174 36.8181 13.9634 36.8191 13.9084C36.7821 13.8894 36.7461 13.8694 36.7101 13.8504" fill="black"/>
</g>
</g>
<g opacity="0.129">
<mask id="mask5_936_506" style="mask-type:luminance" maskUnits="userSpaceOnUse" x="19" y="21" width="30" height="27">
<path d="M48.4027 21.9155H19.7227V47.8475H48.4027V21.9155Z" fill="white"/>
</mask>
<g mask="url(#mask5_936_506)">
<path d="M47.3165 21.9156C47.244 21.9143 47.1726 21.9321 47.1092 21.9672C47.0458 22.0023 46.9928 22.0535 46.9555 22.1156C46.9039 22.2112 46.8876 22.3221 46.9095 22.4286C46.9095 22.5046 46.9305 22.6985 46.9385 22.7565C46.9585 22.8415 47.0385 23.6206 47.0945 24.0816C47.7415 27.6531 47.3073 31.3364 45.8475 34.6595C45.4093 35.8996 44.8531 37.0948 44.1865 38.2285C44.1635 38.2605 44.1405 38.2925 44.1185 38.3285C44.2525 38.1515 44.1755 38.2535 44.0935 38.3625C43.7575 38.7715 43.4015 39.1625 43.0455 39.5565C41.7368 40.9736 40.3074 42.2742 38.7735 43.4436C38.0757 44.0098 37.3134 44.4914 36.5025 44.8786C36.2565 44.9786 36.5565 44.8555 36.2215 44.9875C35.3965 45.2465 34.5935 45.5716 33.7635 45.8096C32.6241 46.1282 31.4741 46.4062 30.3135 46.6436C29.4664 46.7886 28.6097 46.8698 27.7505 46.8866C26.5542 46.9896 25.3496 46.9412 24.1655 46.7425C23.1388 46.5277 22.127 46.2467 21.1365 45.9016C20.8315 45.7926 20.5235 45.6916 20.2155 45.5886C20.1648 45.5725 20.1115 45.5668 20.0586 45.5719C20.0057 45.577 19.9544 45.5926 19.9077 45.618C19.861 45.6433 19.8199 45.6778 19.7869 45.7194C19.7538 45.761 19.7295 45.8088 19.7154 45.86C19.7013 45.9112 19.6976 45.9648 19.7047 46.0174C19.7117 46.0701 19.7293 46.1208 19.7563 46.1665C19.7834 46.2122 19.8194 46.2519 19.8622 46.2834C19.9051 46.3148 19.9538 46.3373 20.0055 46.3495C21.3995 46.8735 22.8283 47.2999 24.2815 47.6256C24.9475 47.7096 25.6155 47.8015 26.2815 47.8435C27.0135 47.8565 27.7445 47.8036 28.4745 47.7646C29.6225 47.7697 30.7666 47.6296 31.8795 47.3476C32.8179 47.1586 33.7452 46.9186 34.6575 46.6286C35.3105 46.3766 35.9975 46.2285 36.6625 46.0215C37.1373 45.8521 37.5978 45.6448 38.0395 45.4016C39.6064 44.4249 41.058 43.2743 42.3665 41.9715C43.2235 41.2415 44.009 40.4315 44.7125 39.5526C45.4433 38.5114 46.0196 37.3699 46.4235 36.1636C47.0082 34.9962 47.4887 33.7794 47.8595 32.5275C48.398 30.2284 48.536 27.8536 48.2675 25.5075C47.8468 24.3392 47.5264 23.1372 47.3095 21.9146" fill="black"/>
</g>
</g>
</g>
</g>
</svg>
