<svg width="470" height="359" viewBox="0 0 470 359" fill="none" xmlns="http://www.w3.org/2000/svg">
<path d="M89.6226 268.868C40.1254 219.371 40.1254 139.12 89.6225 89.6226L179.245 1.41907e-05L358.49 179.245L268.868 268.868C219.371 318.365 139.12 318.365 89.6226 268.868V268.868Z" fill="#2F4C78"/>
<g style="mix-blend-mode:color-dodge">
<path d="M170.549 122.607C180.468 122.607 189.458 126.555 195.957 132.923C202.455 139.291 206.481 148.103 206.481 157.826C206.481 167.549 202.455 176.359 195.957 182.723C189.458 189.091 180.468 193.039 170.549 193.039C160.627 193.039 151.637 189.091 145.138 182.723C138.64 176.359 134.615 167.549 134.615 157.826C134.615 148.103 138.64 139.291 145.138 132.923C151.637 126.555 160.627 122.607 170.549 122.607ZM217.289 192.132C215.204 192.132 213.168 192.331 211.211 192.715C207.178 193.499 203.431 195.02 200.007 197.262C198.312 198.372 196.734 199.645 195.298 201.063C192.398 203.902 190.124 207.257 188.554 210.971C187.779 212.812 187.189 214.723 186.792 216.677C186.398 218.629 186.2 220.615 186.202 222.605C186.202 226.616 186.995 230.567 188.554 234.281C189.327 236.122 190.288 237.882 191.423 239.533C193.697 242.867 196.637 245.716 200.039 247.938C201.733 249.043 203.541 249.999 205.424 250.763C207.239 251.498 209.168 252.081 211.168 252.475C217.645 253.567 223.674 253.12 229.625 250.585C230.692 250.131 231.749 249.608 232.767 249.029C233.271 248.719 233.871 248.592 234.461 248.671C235.052 248.75 235.595 249.03 235.995 249.462L247.138 261.49L256.295 253.26L244.668 240.827C243.868 240.056 243.658 238.825 244.241 237.821C244.829 236.803 245.384 235.739 245.861 234.637C246.33 233.566 246.754 232.443 247.096 231.303C248.526 226.567 248.775 221.622 247.811 216.753L247.797 216.67C246.59 210.731 243.658 205.332 239.28 201.056C233.454 195.334 225.5 192.132 217.289 192.132ZM230.347 203.4C231.667 204.268 232.874 205.238 233.938 206.274C237.195 209.499 239.497 213.625 240.387 218.089C241.28 222.542 240.85 227.219 239.056 231.414C238.465 232.823 237.721 234.17 236.874 235.415C236.009 236.68 235.02 237.856 233.931 238.916C232.835 239.99 231.635 240.957 230.347 241.803C223.877 246.051 215.535 246.892 208.278 243.927C206.86 243.348 205.504 242.635 204.228 241.796C201.65 240.117 199.435 237.955 197.711 235.435C195.113 231.641 193.727 227.174 193.732 222.605C193.732 219.547 194.355 216.603 195.48 213.901L195.53 213.775C196.717 210.972 198.452 208.424 200.637 206.274C201.705 205.238 202.918 204.261 204.235 203.4C206.762 201.757 209.723 200.54 212.691 199.961C214.193 199.675 215.73 199.522 217.289 199.522C221.962 199.522 226.446 200.872 230.347 203.4ZM172.582 259.673C175.503 257.853 178.329 255.921 181.059 253.87C182.511 256.14 184.155 258.285 185.963 260.287C182.429 262.928 178.757 265.388 174.963 267.656C173.642 268.611 171.795 268.73 170.329 267.823C154.331 257.867 140.907 245.852 130.326 232.851C115.752 214.926 106.559 195.041 103.417 175.919C100.224 156.515 103.224 137.84 113.072 122.649C116.951 116.661 121.92 111.2 127.984 106.471C141.875 95.6213 157.783 89.8775 173.564 90.0101C188.771 90.1391 203.836 95.6945 216.855 107.336C221.414 111.409 225.254 116.054 228.39 121.111C238.867 138.046 241.216 159.622 236.746 181.509C234.159 180.77 231.475 180.244 228.731 179.933C232.81 159.936 230.76 140.396 221.4 125.261C218.647 120.817 215.259 116.782 211.339 113.278C199.879 103.032 186.714 98.1357 173.496 98.0276C159.609 97.916 145.512 103.046 133.077 112.755C127.771 116.895 123.414 121.686 120.005 126.952C111.261 140.445 108.623 157.174 111.499 174.667C114.417 192.432 123.041 211.013 136.739 227.857C146.284 239.582 158.296 250.473 172.582 259.673ZM190.159 138.6C185.148 133.693 178.205 130.638 170.549 130.638C162.891 130.638 155.947 133.693 150.936 138.6C145.925 143.511 142.811 150.325 142.811 157.826C142.811 165.328 145.925 172.135 150.936 177.046C155.947 181.956 162.891 185.007 170.549 185.007C178.205 185.007 185.148 181.956 190.159 177.046C195.17 172.135 198.288 165.328 198.288 157.826C198.288 150.325 195.17 143.511 190.159 138.6Z" fill="white"/>
</g>
<path d="M312.372 275.446C312.97 275.446 313.542 275.68 314.088 276.148C314.634 276.59 314.907 277.201 314.907 277.981C314.907 278.215 314.868 278.475 314.79 278.761L307.107 301.381C306.951 301.849 306.665 302.213 306.249 302.473C305.859 302.707 305.443 302.837 305.001 302.863C304.559 302.863 304.117 302.733 303.675 302.473C303.259 302.213 302.934 301.836 302.7 301.342L296.928 288.238L297.279 288.472L291.585 301.342C291.351 301.836 291.013 302.213 290.571 302.473C290.155 302.733 289.726 302.863 289.284 302.863C288.868 302.837 288.452 302.707 288.036 302.473C287.62 302.213 287.334 301.849 287.178 301.381L279.495 278.761C279.417 278.475 279.378 278.215 279.378 277.981C279.378 277.201 279.651 276.59 280.197 276.148C280.769 275.68 281.354 275.446 281.952 275.446C282.446 275.446 282.901 275.576 283.317 275.836C283.759 276.096 284.058 276.473 284.214 276.967L290.415 295.765L289.557 295.726L295.095 282.427C295.303 281.959 295.602 281.595 295.992 281.335C296.382 281.049 296.824 280.919 297.318 280.945C297.812 280.919 298.254 281.049 298.644 281.335C299.034 281.595 299.32 281.959 299.502 282.427L304.572 295.141L303.948 295.531L310.071 276.967C310.227 276.473 310.526 276.096 310.968 275.836C311.41 275.576 311.878 275.446 312.372 275.446ZM336.019 281.608C336.695 281.608 337.254 281.829 337.696 282.271C338.138 282.713 338.359 283.285 338.359 283.987V300.484C338.359 301.16 338.138 301.732 337.696 302.2C337.254 302.642 336.695 302.863 336.019 302.863C335.343 302.863 334.784 302.642 334.342 302.2C333.9 301.732 333.679 301.16 333.679 300.484V298.573L334.537 298.924C334.537 299.262 334.355 299.678 333.991 300.172C333.627 300.64 333.133 301.108 332.509 301.576C331.885 302.044 331.144 302.447 330.286 302.785C329.454 303.097 328.544 303.253 327.556 303.253C325.762 303.253 324.137 302.798 322.681 301.888C321.225 300.952 320.068 299.678 319.21 298.066C318.378 296.428 317.962 294.556 317.962 292.45C317.962 290.318 318.378 288.446 319.21 286.834C320.068 285.196 321.212 283.922 322.642 283.012C324.072 282.076 325.658 281.608 327.4 281.608C328.518 281.608 329.545 281.777 330.481 282.115C331.417 282.453 332.223 282.882 332.899 283.402C333.601 283.922 334.134 284.455 334.498 285.001C334.888 285.521 335.083 285.963 335.083 286.327L333.679 286.834V283.987C333.679 283.311 333.9 282.752 334.342 282.31C334.784 281.842 335.343 281.608 336.019 281.608ZM328.141 298.963C329.285 298.963 330.286 298.677 331.144 298.105C332.002 297.533 332.665 296.753 333.133 295.765C333.627 294.777 333.874 293.672 333.874 292.45C333.874 291.202 333.627 290.084 333.133 289.096C332.665 288.108 332.002 287.328 331.144 286.756C330.286 286.184 329.285 285.898 328.141 285.898C327.023 285.898 326.035 286.184 325.177 286.756C324.319 287.328 323.643 288.108 323.149 289.096C322.681 290.084 322.447 291.202 322.447 292.45C322.447 293.672 322.681 294.777 323.149 295.765C323.643 296.753 324.319 297.533 325.177 298.105C326.035 298.677 327.023 298.963 328.141 298.963ZM360.109 281.998C360.785 281.998 361.344 282.232 361.786 282.7C362.228 283.142 362.449 283.701 362.449 284.377V300.952C362.449 303.344 361.994 305.242 361.084 306.646C360.2 308.076 359.004 309.103 357.496 309.727C355.988 310.351 354.298 310.663 352.426 310.663C351.594 310.663 350.71 310.598 349.774 310.468C348.838 310.338 348.071 310.143 347.473 309.883C346.693 309.545 346.147 309.116 345.835 308.596C345.549 308.102 345.497 307.569 345.679 306.997C345.913 306.243 346.29 305.723 346.81 305.437C347.33 305.177 347.876 305.151 348.448 305.359C348.864 305.489 349.41 305.684 350.086 305.944C350.762 306.23 351.542 306.373 352.426 306.373C353.622 306.373 354.61 306.204 355.39 305.866C356.196 305.554 356.794 305.008 357.184 304.228C357.6 303.474 357.808 302.434 357.808 301.108V298.495L358.627 299.431C358.185 300.289 357.626 301.004 356.95 301.576C356.3 302.122 355.52 302.538 354.61 302.824C353.7 303.11 352.66 303.253 351.49 303.253C350.112 303.253 348.903 302.941 347.863 302.317C346.849 301.667 346.056 300.783 345.484 299.665C344.912 298.521 344.626 297.221 344.626 295.765V284.377C344.626 283.701 344.847 283.142 345.289 282.7C345.731 282.232 346.29 281.998 346.966 281.998C347.642 281.998 348.201 282.232 348.643 282.7C349.085 283.142 349.306 283.701 349.306 284.377V294.361C349.306 296.051 349.67 297.247 350.398 297.949C351.152 298.625 352.192 298.963 353.518 298.963C354.428 298.963 355.195 298.794 355.819 298.456C356.443 298.092 356.924 297.572 357.262 296.896C357.6 296.194 357.769 295.349 357.769 294.361V284.377C357.769 283.701 357.99 283.142 358.432 282.7C358.874 282.232 359.433 281.998 360.109 281.998ZM381.976 303.253C380 303.253 378.154 302.889 376.438 302.161C374.722 301.433 373.214 300.432 371.914 299.158C370.614 297.858 369.587 296.363 368.833 294.673C368.105 292.983 367.741 291.163 367.741 289.213C367.741 287.263 368.105 285.443 368.833 283.753C369.587 282.063 370.614 280.581 371.914 279.307C373.214 278.007 374.722 276.993 376.438 276.265C378.154 275.537 380 275.173 381.976 275.173C383.198 275.173 384.381 275.303 385.525 275.563C386.669 275.823 387.722 276.213 388.684 276.733C389.074 276.941 389.36 277.227 389.542 277.591C389.75 277.929 389.854 278.28 389.854 278.644C389.854 279.268 389.646 279.827 389.23 280.321C388.814 280.815 388.281 281.062 387.631 281.062C387.423 281.062 387.202 281.036 386.968 280.984C386.76 280.932 386.552 280.854 386.344 280.75C385.694 280.464 385.005 280.243 384.277 280.087C383.549 279.931 382.782 279.853 381.976 279.853C380.286 279.853 378.739 280.282 377.335 281.14C375.957 281.972 374.852 283.103 374.02 284.533C373.214 285.937 372.811 287.497 372.811 289.213C372.811 290.903 373.214 292.463 374.02 293.893C374.852 295.323 375.957 296.467 377.335 297.325C378.739 298.157 380.286 298.573 381.976 298.573C382.756 298.573 383.614 298.495 384.55 298.339C385.486 298.183 386.253 297.975 386.851 297.715L386.5 298.885V292.216L387.163 292.801H382.834C382.158 292.801 381.586 292.58 381.118 292.138C380.676 291.696 380.455 291.137 380.455 290.461C380.455 289.785 380.676 289.226 381.118 288.784C381.586 288.342 382.158 288.121 382.834 288.121H389.23C389.906 288.121 390.465 288.355 390.907 288.823C391.349 289.265 391.57 289.824 391.57 290.5V298.768C391.57 299.288 391.44 299.717 391.18 300.055C390.946 300.393 390.673 300.666 390.361 300.874C389.165 301.602 387.852 302.187 386.422 302.629C385.018 303.045 383.536 303.253 381.976 303.253ZM417.312 292.45C417.312 294.582 416.831 296.467 415.869 298.105C414.933 299.717 413.659 300.978 412.047 301.888C410.461 302.798 408.68 303.253 406.704 303.253C404.728 303.253 402.934 302.798 401.322 301.888C399.736 300.978 398.462 299.717 397.5 298.105C396.564 296.467 396.096 294.582 396.096 292.45C396.096 290.318 396.564 288.446 397.5 286.834C398.462 285.196 399.736 283.922 401.322 283.012C402.934 282.076 404.728 281.608 406.704 281.608C408.68 281.608 410.461 282.076 412.047 283.012C413.659 283.922 414.933 285.196 415.869 286.834C416.831 288.446 417.312 290.318 417.312 292.45ZM412.632 292.45C412.632 291.124 412.359 289.98 411.813 289.018C411.293 288.03 410.578 287.263 409.668 286.717C408.784 286.171 407.796 285.898 406.704 285.898C405.612 285.898 404.611 286.171 403.701 286.717C402.817 287.263 402.102 288.03 401.556 289.018C401.036 289.98 400.776 291.124 400.776 292.45C400.776 293.75 401.036 294.894 401.556 295.882C402.102 296.844 402.817 297.598 403.701 298.144C404.611 298.69 405.612 298.963 406.704 298.963C407.796 298.963 408.784 298.69 409.668 298.144C410.578 297.598 411.293 296.844 411.813 295.882C412.359 294.894 412.632 293.75 412.632 292.45Z" fill="#233862"/>
</svg>
